<svg width="58" height="56" xmlns="http://www.w3.org/2000/svg"><g stroke="#000" stroke-width="2.4" fill="none" fill-rule="evenodd" stroke-linejoin="round"><path d="M29 33.27c2.13 0 .71 1.404 4.966 1.404 4.254 0 8.51-8.422 8.51-14.034 0-5.618-3.548-9.829-7.802-9.829-4.255 0-4.255 1.404-5.674 1.404-1.419 0-2.784-1.454-6.042-1.454 0 10.761-7.433 9.876-7.433 9.876 0 5.615 4.255 14.037 8.509 14.037 4.258 0 2.837-1.404 4.966-1.404h0z" fill="#FDF4B7"/><path d="M29 33.27c2.13 0 .71 1.404 4.966 1.404 4.254 0 8.51-8.422 8.51-14.034 0-5.618-3.548-9.829-7.802-9.829-4.255 0-4.255 1.404-5.674 1.404-1.419 0-2.784-1.454-6.042-1.454 0 10.761-7.433 9.876-7.433 9.876 0 5.615 4.255 14.037 8.509 14.037 4.258 0 2.837-1.404 4.966-1.404h0z"/><path d="M29 12.216V8.784c0-1.542-1.276-2.805-2.837-2.805h-2.837" stroke-linecap="round"/><path d="M32.283 7.513c3.526 0 6.385-2.83 6.385-6.318-3.526 0-6.385 2.831-6.385 6.318h0z"/><path d="M1.208 53.804h12.084c2.668 0 4.833-2.14 4.833-4.782v-4.783c0-2.64-2.165-4.782-4.833-4.782H1.208" stroke-linecap="round"/><path d="M13.292 53.804h39.875c2.668 0 3.625-2.14 3.625-4.782v-4.783c0-2.64-.957-4.782-3.625-4.782H13.292M47.125 39.457v14.347M42.292 39.457v14.347M32.625 39.457v14.347M27.792 39.457v14.347"/><path d="M13.292 49.022H3.625M13.292 44.24H3.625" stroke-linecap="round"/></g></svg>