<svg width="40" height="60" xmlns="http://www.w3.org/2000/svg"><g fill="none" fill-rule="evenodd"><path d="M23.75 58.75h-7.5c-5.523 0-10-4.477-10-10v-7.654h27.5v7.654c0 5.523-4.477 10-10 10z" fill="#FDF4B7"/><path d="M33.75 48.75c0 5.523-4.477 10-10 10h-7.5c-5.523 0-10-4.477-10-10v-20h27.5v20h0zM23.75 5c0-2.07-1.68-3.75-3.75-3.75-2.07 0-3.75 1.68-3.75 3.75 0 11.082-7.5 7.553-7.5 16.25h22.5c0-8.697-7.5-5.17-7.5-16.25h0zM1.25 25c0 2.07 1.68 3.75 3.75 3.75h30c2.07 0 3.75-1.68 3.75-3.75 0-2.07-1.68-3.75-3.75-3.75H5c-2.07 0-3.75 1.68-3.75 3.75h0z" stroke="#000" stroke-width="2.5" stroke-linejoin="round"/><path d="M26.25 36.25h7.5M26.25 43.75h7.5M26.25 51.25h7.182" stroke="#000" stroke-width="2.5" stroke-linecap="round" stroke-linejoin="round"/></g></svg>