<svg width="65" height="64" xmlns="http://www.w3.org/2000/svg"><g fill="none" fill-rule="evenodd"><path d="M.268 4.419h41.797l-1.348 36.883H28.582v12.093H.268V4.42z" fill="#FDF4B7"/><path stroke="#00274C" stroke-width="2.4" stroke-linecap="round" stroke-linejoin="round" d="M1.464 52.79V4.42H40.87v36.279L28.913 52.79z"/><path stroke="#00274C" stroke-width="2.5" stroke-linecap="round" stroke-linejoin="round" d="M6 57.614h34.902V49M8 62.256h29.999"/><path stroke="#00274C" stroke-width="2.4" stroke-linecap="round" stroke-linejoin="round" d="M28.913 52.79V40.699H40.87M10 15.628l3.587 3.628L19.565 12M10 28.628l3.587 3.628L19.565 25M22 17h9.565M22 31h9.565M55.826 45.535h-7.174V4.419h7.174zM48.652 45.535l3.587 7.256 3.587-7.256M48.652 16.512h7.174M55.826 6.837H63l-2.391 16.93L63 26.186M52.24 4.419V2"/></g></svg>