<svg xmlns="http://www.w3.org/2000/svg" width="202.5" height="60" viewBox="0 0 202.5 60">
    <path fill="#000" d="M 7.0976562 0 A 7.1033365 7.1014549 0 0 0 0 7.0917969 L 0 52.916016 A 7.0988343 7.0969537 0 0 0 7.0976562 60 L 195.40234 60 C 199.31195 60 202.50105 56.823077 202.49805 52.916016 L 202.49805 7.0917969 A 7.1063382 7.1044562 0 0 0 195.40039 0 L 7.0976562 0 z" />
    <path fill="#000" d="M 7.0976562 1.3359375 A 5.7631125 5.7615862 0 0 0 1.3359375 7.0898438 L 1.3359375 52.916016 A 5.7556086 5.7540846 0 0 0 7.0976562 58.664062 L 195.40234 58.664062 A 5.7481048 5.7465821 0 0 0 201.15625 52.916016 L 201.1543 7.0898438 A 5.7541078 5.7525838 0 0 0 195.40039 1.3359375 L 7.0976562 1.3359375 z" />
    <g fill="#fff">
        <path d="M 42.373047 9.328125 C 40.474519 9.411945 38.101615 10.640194 36.734375 12.244141 C 35.524722 13.657527 34.443505 15.975706 34.722656 18.154297 C 36.855308 18.313136 39.045324 17.077349 40.414062 15.462891 C 41.725772 13.822962 42.622179 11.592294 42.373047 9.328125 z M 41.791016 18.5625 C 39.038459 18.53462 36.433261 20.359375 35.023438 20.359375 C 33.48961 20.359375 31.173582 18.622796 28.677734 18.673828 C 25.465999 18.723378 22.460389 20.581961 20.8125 23.46875 C 17.411663 29.354858 19.948772 38.005874 23.207031 42.763672 C 24.836912 45.095313 26.741528 47.695069 29.234375 47.603516 C 31.673192 47.504416 32.584254 46.050781 35.527344 46.050781 C 38.443419 46.050781 39.299424 47.603409 41.841797 47.544922 C 44.459212 47.503242 46.106841 45.204652 47.679688 42.853516 C 49.563204 40.184285 50.319597 37.553005 50.349609 37.417969 C 50.289589 37.394809 45.267824 35.478197 45.216797 29.683594 C 45.173267 24.847767 49.17628 22.496239 49.359375 22.386719 C 47.091654 19.0813 43.576965 18.629778 42.341797 18.59375 C 42.157291 18.574329 41.974519 18.564359 41.791016 18.5625 z" />
        <path d="M 105.11914 9.8320312 L 105.11914 20.154297 L 106.69336 20.154297 L 106.69336 9.8320312 L 105.11914 9.8320312 z M 130.87305 9.8320312 L 130.87305 13.894531 L 130.8418 13.894531 C 130.4636 13.252276 129.79271 12.931641 128.8457 12.931641 C 127.05674 12.931641 125.74609 14.491987 125.74609 16.705078 C 125.74609 18.816151 127.01038 20.316406 128.7168 20.316406 C 129.77787 20.316406 130.53849 19.877769 130.99023 19.019531 L 131.0332 19.019531 L 131.10547 20.154297 L 132.50586 20.154297 C 132.46406 19.57215 132.44727 18.932257 132.44727 18.248047 L 132.44727 9.8320312 L 130.87305 9.8320312 z M 167.17773 9.8320312 L 167.17773 20.154297 L 168.75 20.154297 L 168.75 15.888672 C 168.75 14.767863 169.50928 14.214844 170.32422 14.214844 C 171.27274 14.214844 171.75195 14.85669 171.75195 16.123047 L 171.75195 20.154297 L 173.32227 20.154297 L 173.32227 15.947266 C 173.32227 14.097281 172.40797 12.931641 170.91016 12.931641 C 169.99467 12.931641 169.27652 13.31276 168.78125 14.083984 L 168.75 14.083984 L 168.75 9.8320312 L 167.17773 9.8320312 z M 68.261719 10.267578 A 17.418408 17.413795 0 0 0 65.552734 10.470703 L 65.552734 20.125 C 66.193586 20.200481 66.963533 20.242188 67.853516 20.242188 C 71.62505 20.242188 73.621094 18.407587 73.621094 15.013672 C 73.621094 12.071358 71.931203 10.267578 68.261719 10.267578 z M 163.26562 11.316406 L 161.7207 11.783203 L 161.7207 13.078125 L 160.68945 13.078125 L 160.68945 14.257812 L 161.7207 14.257812 L 161.7207 17.826172 C 161.7207 19.617669 162.46347 20.302734 163.70312 20.302734 C 164.21039 20.302734 164.61721 20.244113 164.92188 20.126953 L 164.87891 18.931641 C 164.69131 18.977491 164.45931 19.005859 164.18164 19.005859 C 163.56929 19.005859 163.26562 18.570083 163.26562 17.695312 L 163.26562 14.257812 L 164.99609 14.257812 L 164.99609 13.078125 L 163.26562 13.078125 L 163.26562 11.316406 z M 68.390625 11.503906 C 70.721386 11.503906 71.958984 12.77154 71.958984 15.056641 C 71.958984 17.619362 70.589842 18.986328 68.185547 18.986328 C 67.675268 18.986328 67.312125 18.973102 67.123047 18.945312 L 67.123047 11.607422 C 67.472733 11.533333 67.895358 11.505859 68.390625 11.505859 L 68.390625 11.503906 z M 178.96484 12.919922 C 176.95975 12.919922 175.61719 14.549143 175.61719 16.71875 C 175.61719 18.886875 176.92694 20.285156 179.14062 20.285156 C 180.05762 20.285156 180.84626 20.14089 181.51562 19.849609 L 181.27148 18.757812 C 180.70417 18.974999 180.06116 19.091797 179.36328 19.091797 C 178.05007 19.091797 177.16291 18.335943 177.13281 16.996094 L 181.85352 16.996094 A 3.0316374 3.0308345 0 0 0 181.90625 16.283203 C 181.90625 14.259144 180.77331 12.919922 178.96484 12.919922 z M 151.95117 12.931641 C 150.99065 12.931641 150.13071 13.413702 149.70898 14.169922 L 149.66602 14.169922 L 149.5918 13.078125 L 148.20898 13.078125 C 148.25268 13.805819 148.26562 14.475887 148.26562 15.101562 L 148.26562 20.154297 L 149.8418 20.154297 L 149.8418 15.947266 C 149.8418 15.015536 150.48011 14.212891 151.41211 14.212891 C 152.35912 14.212891 152.83984 14.840444 152.83984 16.091797 L 152.83984 20.154297 L 154.41406 20.154297 L 154.41406 15.916016 C 154.41406 14.067513 153.43697 12.931641 151.95117 12.931641 z M 79.003906 12.933594 C 76.847243 12.933594 75.478516 14.49117 75.478516 16.675781 C 75.478516 18.77185 76.818602 20.316406 78.886719 20.316406 C 80.999862 20.316406 82.412109 18.772156 82.412109 16.560547 C 82.412109 14.404462 81.04201 12.933594 79.003906 12.933594 z M 99.894531 12.933594 C 98.932515 12.933594 98.075559 13.413702 97.652344 14.169922 L 97.607422 14.169922 L 97.535156 13.078125 L 96.150391 13.078125 C 96.194101 13.805819 96.208984 14.475887 96.208984 15.101562 L 96.208984 20.154297 L 97.783203 20.154297 L 97.783203 15.947266 C 97.783203 15.015536 98.423466 14.212891 99.355469 14.212891 C 100.30248 14.212891 100.7832 14.840444 100.7832 16.091797 L 100.7832 20.154297 L 102.35547 20.154297 L 102.35742 15.917969 C 102.35742 14.069466 101.38034 12.933594 99.894531 12.933594 z M 112.54297 12.933594 C 110.38781 12.933594 109.01953 14.49117 109.01953 16.675781 C 109.01953 18.77185 110.36111 20.316406 112.42773 20.316406 C 114.53937 20.316406 115.95317 18.772156 115.95117 16.560547 C 115.95117 14.404462 114.58257 12.933594 112.54297 12.933594 z M 120.68555 12.933594 C 119.72653 12.933594 118.91021 13.136942 118.25586 13.544922 L 118.57617 14.580078 C 119.11496 14.230447 119.7279 14.054687 120.42578 14.054688 C 121.4013 14.054686 121.89453 14.521395 121.89453 15.453125 L 121.89453 15.583984 C 119.27262 15.583984 117.75781 16.485937 117.75781 18.232422 C 117.75781 19.426768 118.6576 20.316406 119.92578 20.316406 C 120.81426 20.316406 121.51584 19.995482 121.99609 19.339844 L 122.03906 19.339844 L 122.15234 20.154297 L 123.57031 20.15625 C 123.49975 19.734656 123.46875 19.180969 123.46875 18.466797 L 123.46875 15.861328 C 123.46875 13.909326 122.53455 12.933594 120.68555 12.933594 z M 142.54688 12.933594 C 140.39171 12.933594 139.02344 14.49117 139.02344 16.675781 C 139.02344 18.77185 140.36308 20.316406 142.42969 20.316406 C 144.54434 20.316406 145.95608 18.772156 145.95508 16.560547 C 145.95508 14.404462 144.58648 12.933594 142.54688 12.933594 z M 83.951172 13.078125 L 86.033203 20.154297 L 87.490234 20.154297 L 88.466797 17.082031 C 88.699433 16.340815 88.917617 15.5681 89.033203 14.796875 L 89.064453 14.796875 A 23.307588 23.301415 0 0 0 89.632812 17.082031 L 90.550781 20.154297 L 91.992188 20.154297 L 94.205078 13.078125 L 92.662109 13.080078 L 91.800781 16.386719 C 91.583181 17.216477 91.42433 17.989103 91.322266 18.716797 L 91.279297 18.716797 C 91.132221 17.974099 90.943544 17.187951 90.710938 16.386719 L 89.748047 13.080078 L 88.466797 13.080078 L 87.460938 16.458984 C 87.183289 17.37571 86.994446 18.119176 86.878906 18.714844 L 86.849609 18.714844 C 86.717546 18.000626 86.558266 17.244545 86.369141 16.443359 L 85.566406 13.078125 L 83.951172 13.078125 z M 178.85547 14.011719 C 179.86102 14.011719 180.41016 14.782671 180.41016 15.875 L 177.13477 15.875 C 177.23682 14.797675 177.95198 14.011719 178.85547 14.011719 z M 78.947266 14.082031 C 80.053362 14.082031 80.78125 15.161131 80.78125 16.601562 C 80.78125 18.01495 80.037737 19.150391 78.931641 19.150391 C 77.825544 19.150391 77.083984 18.08773 77.083984 16.630859 C 77.083984 15.145416 77.811153 14.082031 78.947266 14.082031 z M 112.48633 14.083984 C 113.59394 14.083984 114.32036 15.161131 114.31836 16.601562 C 114.31836 18.01495 113.57634 19.150391 112.46875 19.150391 C 111.36565 19.150391 110.62109 18.08773 110.62109 16.630859 C 110.62109 15.145416 111.35022 14.083984 112.48633 14.083984 z M 142.48828 14.083984 C 143.59738 14.083984 144.32527 15.161131 144.32227 16.601562 C 144.32227 18.01495 143.58026 19.150391 142.47266 19.150391 C 141.36806 19.150391 140.625 18.08773 140.625 16.630859 C 140.625 15.145416 141.35366 14.083984 142.48828 14.083984 z M 129.2168 14.15625 C 130.21784 14.15625 130.87305 15.001922 130.87305 15.992188 L 130.87305 17.169922 C 130.87305 18.188667 130.17458 19.048828 129.18555 19.048828 C 128.07795 19.048828 127.33789 18.073347 127.33789 16.646484 C 127.33789 15.191049 128.05067 14.15625 129.2168 14.15625 z M 121.93555 16.630859 L 121.93555 17.722656 C 121.93555 18.552368 121.19251 19.164062 120.39258 19.164062 C 119.76524 19.164063 119.3125 18.799339 119.3125 18.056641 C 119.3125 17.053039 120.18861 16.630859 121.93555 16.630859 z" />
        <path d="M 126.85352 27.005859 C 124.81842 27.005859 123.18289 27.528855 121.94922 28.576172 C 120.71556 29.624924 120.0957 30.967022 120.0957 32.605469 C 120.0957 35.114194 121.84686 37.020352 125.34375 38.324219 C 126.62995 38.796845 127.54581 39.313096 128.09961 39.865234 C 128.65042 40.418901 128.92969 41.098458 128.92969 41.910156 C 128.92969 42.816416 128.59078 43.542782 127.91992 44.085938 C 127.25056 44.627423 126.31212 44.900391 125.10547 44.900391 C 123.42757 44.900391 121.88763 44.485537 120.48438 43.654297 L 119.74414 46.320312 C 121.04384 47.150165 122.76686 47.564453 124.91602 47.564453 C 127.24228 47.564453 129.05578 46.9807 130.35547 45.816406 C 131.53661 44.749593 132.13086 43.367913 132.13086 41.667969 C 132.13086 40.289082 131.72705 39.132317 130.91211 38.205078 C 130.10318 37.27784 128.83907 36.470539 127.11914 35.777344 C 125.71738 35.225206 124.74809 34.710907 124.2168 34.238281 C 123.60448 33.725135 123.29687 33.070913 123.29688 32.283203 C 123.29686 31.569031 123.56682 30.966259 124.09961 30.472656 C 124.73295 29.920286 125.61748 29.644531 126.74609 29.644531 C 128.17486 29.644531 129.45237 29.950346 130.58398 30.5625 L 131.38672 27.955078 C 130.18456 27.323567 128.671 27.005859 126.85352 27.005859 z M 70.111328 27.300781 L 63.679688 47.269531 L 66.998047 47.269531 L 68.775391 41.404297 L 75.265625 41.404297 L 77.132812 47.269531 L 80.541016 47.269531 L 74.082031 27.300781 L 70.111328 27.300781 z M 139.21094 29.28125 L 136.06836 30.228516 L 136.06836 32.865234 L 133.9668 32.865234 L 133.9668 35.265625 L 136.06836 35.265625 L 136.06836 42.523438 C 136.06836 44.341932 136.42489 45.633071 137.13477 46.404297 C 137.84765 47.175336 138.83593 47.5625 140.09961 47.5625 C 141.12766 47.5625 141.95754 47.442742 142.58789 47.207031 L 142.49805 44.777344 C 142.12285 44.877835 141.64993 44.927734 141.07812 44.927734 C 139.83246 44.927734 139.21094 44.03974 139.21094 42.261719 L 139.21094 35.271484 L 142.73828 35.271484 L 142.73828 32.865234 L 139.21094 32.865234 L 139.21094 29.28125 z M 71.947266 29.966797 L 72.007812 29.966797 C 72.500079 31.941305 72.83506 33.195874 73.013672 33.728516 L 74.703125 38.943359 L 69.339844 38.943359 L 70.998047 33.728516 C 71.431783 32.070573 71.749158 30.816005 71.947266 29.966797 z M 177.35156 32.550781 C 175.23841 32.550781 173.55909 33.321889 172.31641 34.861328 C 171.12927 36.30324 170.53516 38.111643 170.53516 40.28125 C 170.53516 42.491331 171.17263 44.255509 172.44531 45.568359 C 173.721 46.87973 175.47383 47.537109 177.70703 47.537109 C 179.56354 47.537109 181.17243 47.24067 182.53516 46.646484 L 182.03516 44.427734 C 180.86903 44.882346 179.57165 45.107422 178.15039 45.107422 C 176.86569 45.107422 175.82066 44.77077 175.01172 44.101562 C 174.12024 43.351361 173.65524 42.262215 173.61914 40.839844 L 183.2168 40.839844 A 7.5040531 7.5020656 0 0 0 183.33398 39.388672 C 183.33398 37.592683 182.90941 36.081144 182.06445 34.861328 C 180.99738 33.321889 179.42717 32.550781 177.35156 32.550781 z M 91.09375 32.574219 C 88.920577 32.574219 87.301451 33.432857 86.234375 35.152344 L 86.173828 35.152344 L 85.994141 32.871094 L 83.181641 32.871094 C 83.259901 34.488562 83.298828 36.065559 83.298828 37.603516 L 83.298828 53.107422 L 86.5 53.107422 L 86.5 45.552734 C 87.332949 46.915136 88.703796 47.59375 90.611328 47.59375 C 92.377781 47.59375 93.859139 46.962142 95.050781 45.697266 C 96.382002 44.276377 97.046875 42.341288 97.046875 39.892578 C 97.046875 37.700512 96.478816 35.93376 95.345703 34.587891 C 94.211095 33.245033 92.792666 32.574219 91.09375 32.574219 z M 107.65625 32.574219 C 105.48158 32.574219 103.86244 33.432857 102.79688 35.152344 L 102.73633 35.152344 L 102.55859 32.871094 L 99.744141 32.871094 C 99.822401 34.488562 99.863281 36.065559 99.863281 37.603516 L 99.863281 53.107422 L 103.0625 53.107422 L 103.0625 45.552734 C 103.89545 46.915136 105.26629 47.59375 107.17383 47.59375 C 108.94178 47.59375 110.42208 46.962142 111.61523 45.697266 C 112.94645 44.276377 113.61133 42.341288 113.61133 39.892578 C 113.61133 37.700512 113.04177 35.93376 111.91016 34.587891 C 110.77255 33.245033 109.35367 32.574219 107.65625 32.574219 z M 168.2207 32.574219 A 3.8690895 3.868065 0 0 0 165.9082 33.345703 C 165.17881 33.917337 164.64775 34.680218 164.30859 35.626953 L 164.2207 35.626953 L 164.10352 32.873047 L 161.31641 32.873047 A 101.19966 101.17285 0 0 1 161.4082 37.40625 L 161.4082 47.269531 L 164.60938 47.269531 L 164.60938 39.714844 C 164.60938 38.570001 164.87691 37.621295 165.4082 36.871094 C 166.02053 36.019015 166.89003 35.595703 168.01562 35.595703 A 5.5680076 5.5665327 0 0 1 169.02344 35.683594 L 169.02148 32.632812 C 168.78436 32.597622 168.51638 32.574219 168.2207 32.574219 z M 151.68555 32.578125 C 149.49286 32.578125 147.74832 33.290521 146.45312 34.712891 C 145.16093 36.13378 144.51367 37.960301 144.51367 40.191406 C 144.51367 42.323503 145.13985 44.091221 146.39453 45.494141 C 147.64921 46.894008 149.33307 47.59375 151.44922 47.59375 C 153.6419 47.59375 155.40045 46.865237 156.72266 45.402344 C 157.98634 43.981456 158.61914 42.164263 158.61914 39.951172 C 158.61914 37.796569 158.00891 36.041032 156.78125 34.681641 C 155.49656 33.280248 153.79869 32.578125 151.68555 32.578125 z M 177.11328 34.763672 C 178.2554 34.763672 179.10832 35.208353 179.66211 36.099609 C 180.09586 36.791275 180.3059 37.608804 180.2832 38.558594 L 173.61914 38.556641 C 173.7167 37.591847 174.03362 36.760071 174.56641 36.068359 C 175.21476 35.197941 176.06722 34.763672 177.11328 34.763672 z M 151.57031 34.914062 C 152.81448 34.914063 153.77445 35.485592 154.44531 36.628906 C 155.0171 37.575687 155.30273 38.706521 155.30273 40.025391 C 155.30273 41.347226 155.00629 42.485791 154.41797 43.455078 C 153.7246 44.614878 152.76613 45.199219 151.54297 45.199219 C 150.29279 45.199219 149.32859 44.62769 148.63672 43.484375 C 148.06342 42.540651 147.77734 41.40629 147.77734 40.085938 C 147.77734 38.726546 148.06341 37.575687 148.63672 36.628906 C 149.30608 35.485592 150.28862 34.914062 151.57031 34.914062 z M 90.052734 35.121094 C 91.217359 35.121094 92.146016 35.596188 92.837891 36.542969 C 93.471226 37.453721 93.787109 38.608374 93.787109 40.009766 C 93.787109 41.531191 93.451661 42.75678 92.779297 43.685547 C 92.108432 44.611303 91.169994 45.076172 89.964844 45.076172 C 88.938292 45.076172 88.103279 44.716286 87.460938 43.996094 C 86.818567 43.272892 86.498047 42.387585 86.498047 41.341797 L 86.498047 38.939453 A 4.1782566 4.1771499 0 0 1 86.646484 37.966797 C 86.843092 37.117589 87.263902 36.43139 87.90625 35.90625 C 88.547097 35.385509 89.263305 35.121094 90.052734 35.121094 z M 106.61719 35.121094 C 107.78181 35.121094 108.70852 35.596188 109.40039 36.542969 C 110.03374 37.453721 110.34961 38.608374 110.34961 40.009766 C 110.34961 41.531191 110.01416 42.75678 109.3418 43.685547 C 108.67244 44.611303 107.73399 45.076172 106.52734 45.076172 C 105.49779 45.076172 104.66382 44.714758 104.02148 43.996094 C 103.38214 43.272892 103.05859 42.387585 103.05859 41.341797 L 103.05859 38.939453 C 103.05859 38.684385 103.11138 38.362736 103.20898 37.966797 C 103.40558 37.117589 103.82446 36.43139 104.4668 35.90625 C 105.11065 35.385509 105.82776 35.121094 106.61719 35.121094 z" />
    </g>
</svg>
