<svg xmlns="http://www.w3.org/2000/svg" viewBox="0 0 202.5 60" width="202.5" height="60">
    <path fill="#000" d="M 7.0976562 0 A 7.1033365 7.1014549 0 0 0 0 7.0917969 L 0 52.916016 A 7.0988343 7.0969537 0 0 0 7.0976562 60 L 195.40234 60 C 199.31195 60 202.50105 56.823076 202.49805 52.916016 L 202.49805 7.0917969 A 7.1063382 7.1044562 0 0 0 195.40039 0 L 7.0976562 0 z" />
    <path fill="#000" d="M 7.0976562 1.3359375 A 5.7631125 5.7615862 0 0 0 1.3359375 7.0898438 L 1.3359375 52.916016 A 5.7556086 5.7540846 0 0 0 7.0976562 58.664062 L 195.40234 58.664062 A 5.7481048 5.7465821 0 0 0 201.15625 52.916016 L 201.1543 7.0898438 A 5.7541078 5.7525838 0 0 0 195.40039 1.3359375 L 7.0976562 1.3359375 z" />
    <g>
        <path fill="#00d4ff" d="M 15.599609 11.25 C 15.149609 11.7 15 12.449609 15 13.349609 L 15 46.5 C 15 47.4 15.3 48.149609 15.75 48.599609 L 15.900391 48.75 L 34.5 30.150391 L 34.5 29.849609 L 15.599609 11.25 z" />
        <path fill="#ffcd00" d="M 40.5 23.699219 L 34.349609 29.849609 L 34.349609 30.300781 L 40.5 36.449219 L 48 32.400391 C 50.1 31.200391 50.1 29.250781 48 28.050781 L 40.650391 23.849609 L 40.5 23.699219 z" />
        <path fill="#ffcd00" d="M 49.5 30 C 49.5 30.124755 49.468952 30.248983 49.443359 30.373047 C 49.477165 30.252447 49.5 30.128673 49.5 30 z M 49.443359 30.373047 C 49.280119 30.955393 48.745593 31.452157 48 31.949219 L 40.5 36.150391 L 40.650391 36.300781 L 48 32.099609 C 48.875344 31.599413 49.315096 30.994832 49.443359 30.373047 z M 15 46.349609 L 15 46.5 C 15 46.570242 15.013995 46.632828 15.017578 46.701172 C 15.011618 46.584395 15 46.472346 15 46.349609 z M 15.017578 46.701172 C 15.024849 46.843645 15.035335 46.98289 15.052734 47.115234 C 15.031109 46.983559 15.024952 46.841811 15.017578 46.701172 z M 15.052734 47.115234 C 15.05598 47.134998 15.058949 47.154283 15.0625 47.173828 C 15.059579 47.153816 15.055399 47.135503 15.052734 47.115234 z M 15.0625 47.173828 C 15.139506 47.701409 15.297316 48.146925 15.599609 48.449219 L 15.632812 48.449219 C 15.363596 48.124609 15.156957 47.693772 15.0625 47.173828 z M 15.632812 48.449219 C 15.673107 48.497804 15.706809 48.556418 15.75 48.599609 L 15.75 48.449219 L 15.632812 48.449219 z" />
        <path fill="#ff3a44" d="M 34.349609 30 L 15.599609 48.75 C 16.349609 49.5 17.4 49.500391 18.75 48.900391 L 40.650391 36.300781 L 34.349609 30 z" />
        <path fill="#ff3a44" d="M 40.5 36.150391 L 18.75 48.449219 C 17.55 49.199219 16.5 49.049219 15.75 48.449219 L 15.599609 48.599609 L 15.75 48.75 C 16.5 49.35 17.55 49.5 18.75 48.75 L 40.5 36.150391 z" />
        <path fill="#00f076" d="M 16.949219 10.761719 C 16.424219 10.799219 15.974609 11.025391 15.599609 11.400391 L 34.349609 30 L 40.650391 23.699219 L 18.75 11.25 C 18.075 10.875 17.474219 10.724219 16.949219 10.761719 z" />
        <path fill="#00f076" d="M 17.277344 10.734375 C 15.927344 10.59375 15 11.549609 15 13.349609 L 15 13.5 C 15 11.25 16.65 10.200391 18.75 11.400391 L 48 28.050781 C 48.745593 28.547843 49.280119 29.044607 49.443359 29.626953 C 49.315096 29.005167 48.875344 28.400587 48 27.900391 L 18.75 11.25 C 18.225 10.95 17.727344 10.78125 17.277344 10.734375 z M 49.443359 29.626953 C 49.468952 29.751017 49.5 29.875245 49.5 30 C 49.5 29.871327 49.477165 29.747553 49.443359 29.626953 z" />
    </g>
    <g fill="#fff">
        <path d="M 66.75 10.349609 C 65.4 10.349609 64.349219 10.799219 63.449219 11.699219 C 62.549219 12.599219 62.099609 13.65 62.099609 15 C 62.099609 16.35 62.549219 17.400781 63.449219 18.300781 C 64.349219 19.200781 65.4 19.650391 66.75 19.650391 C 68.1 19.650391 69.150781 19.200781 70.050781 18.300781 C 70.800781 17.550781 71.099609 16.500781 71.099609 15.300781 L 71.099609 14.699219 L 66.75 14.699219 L 66.75 15.900391 L 70.050781 15.900391 C 70.050781 16.650391 69.750781 17.249219 69.300781 17.699219 C 68.550781 18.449219 67.8 18.75 66.75 18.75 C 65.85 18.75 65.099609 18.299219 64.349609 17.699219 C 63.599609 17.099219 63.300781 16.200391 63.300781 15.150391 C 63.300781 14.100391 63.599609 13.199609 64.349609 12.599609 C 64.949609 11.849609 65.85 11.550781 66.75 11.550781 C 67.8 11.550781 68.550391 11.849609 69.150391 12.599609 L 69.900391 11.849609 C 69.600391 11.399609 69.150781 11.100781 68.550781 10.800781 C 67.950781 10.500781 67.35 10.349609 66.75 10.349609 z M 107.09961 10.349609 C 105.74961 10.349609 104.70078 10.799219 103.80078 11.699219 C 102.90078 12.599219 102.44922 13.65 102.44922 15 C 102.44922 16.35 102.90078 17.400781 103.80078 18.300781 C 104.70078 19.200781 105.74961 19.650391 107.09961 19.650391 C 108.44961 19.650391 109.50039 19.200781 110.40039 18.300781 C 111.30039 17.400781 111.75 16.35 111.75 15 C 111.75 13.65 111.30039 12.599219 110.40039 11.699219 C 109.50039 10.799219 108.44961 10.349609 107.09961 10.349609 z M 72.75 10.5 L 72.75 19.5 L 78 19.5 L 78 18.300781 L 73.949219 18.300781 L 73.949219 15.449219 L 77.699219 15.449219 L 77.699219 14.400391 L 73.949219 14.400391 L 73.949219 11.550781 L 78 11.550781 L 78 10.5 L 72.75 10.5 z M 79.199219 10.5 L 79.199219 11.550781 L 81.75 11.550781 L 81.75 19.5 L 82.949219 19.5 L 82.949219 11.550781 L 85.5 11.550781 L 85.5 10.5 L 79.199219 10.5 z M 89.849609 10.5 L 89.849609 19.5 L 91.050781 19.5 L 91.050781 10.5 L 89.849609 10.5 z M 92.400391 10.5 L 92.400391 11.550781 L 94.949219 11.550781 L 94.949219 19.5 L 96 19.5 L 96 11.550781 L 98.550781 11.550781 L 98.550781 10.5 L 92.400391 10.5 z M 113.40039 10.5 L 113.40039 19.5 L 114.44922 19.5 L 114.44922 12.150391 L 119.09961 19.5 L 120.30078 19.5 L 120.30078 10.5 L 119.09961 10.5 L 119.09961 17.550781 L 114.75 10.5 L 113.40039 10.5 z M 107.09961 11.400391 C 107.99961 11.400391 108.9 11.849219 109.5 12.449219 C 110.25 13.049219 110.55078 13.95 110.55078 15 C 110.55078 16.05 110.1 16.950781 109.5 17.550781 C 108.9 18.300781 107.99961 18.599609 107.09961 18.599609 C 106.19961 18.599609 105.29922 18.150781 104.69922 17.550781 C 103.94922 16.950781 103.65039 16.05 103.65039 15 C 103.65039 13.95 104.09922 13.049219 104.69922 12.449219 C 105.29922 11.699219 106.19961 11.400391 107.09961 11.400391 z" />
        <path d="M 71.699219 25.650391 C 66.299219 25.650391 61.650391 30.150781 61.650391 35.550781 C 61.650391 40.950781 66.299219 45.449219 71.699219 45.449219 C 74.699219 45.449219 76.799609 44.549609 78.599609 42.599609 C 80.399609 40.799609 81 38.250781 81 36.300781 C 81 35.700781 80.999609 35.100391 80.849609 34.650391 L 71.550781 34.650391 L 71.550781 37.349609 L 78 37.349609 C 77.85 38.849609 77.25 40.050781 76.5 40.800781 C 75.6 41.700781 74.100781 42.75 71.550781 42.75 C 67.500781 42.75 64.5 39.600781 64.5 35.550781 C 64.5 31.500781 67.650781 28.349609 71.550781 28.349609 C 73.650781 28.349609 75.3 29.25078 76.5 30.300781 L 78.449219 28.349609 C 76.799219 26.849609 74.699219 25.650391 71.699219 25.650391 z M 123.90039 26.25 L 123.90039 45 L 126.75 45 L 126.75 26.25 L 123.90039 26.25 z M 145.94922 26.25 L 145.94922 45 L 148.80078 45 L 148.80078 37.949219 L 152.69922 37.949219 C 155.84922 37.949219 158.84961 35.699609 158.84961 32.099609 C 158.84961 28.499608 155.84922 26.25 152.69922 26.25 L 145.94922 26.25 z M 160.34961 26.25 L 160.34961 45 L 163.19922 45 L 163.19922 26.25 L 160.34961 26.25 z M 148.80078 28.800781 L 152.84961 28.800781 C 154.94961 28.800781 156.15039 30.599219 156.15039 31.949219 C 156.00039 33.599219 154.79961 35.25 152.84961 35.25 L 148.80078 35.25 L 148.80078 28.800781 z M 115.94922 32.550781 C 112.79922 32.550781 109.80078 35.4 109.80078 39 C 109.80078 42.6 112.64922 45.300781 115.94922 45.300781 C 117.44922 45.300781 118.65 44.550781 119.25 43.800781 L 119.40039 43.800781 L 119.40039 44.699219 C 119.40039 47.099219 118.04922 48.449219 115.94922 48.449219 C 114.29922 48.449219 113.10078 47.249219 112.80078 46.199219 L 110.40039 47.25 C 111.15039 48.9 112.94961 51 116.09961 51 C 119.39961 51 122.09961 49.050391 122.09961 44.400391 L 122.09961 33 L 119.40039 33 L 119.40039 34.050781 C 118.65039 33.300781 117.44922 32.550781 115.94922 32.550781 z M 170.09961 32.550781 C 167.99961 32.550781 165.90039 33.450391 165.15039 35.400391 L 167.69922 36.449219 C 168.29922 35.399219 169.2 35.099609 170.25 35.099609 C 171.75 35.099609 173.1 36 173.25 37.5 L 173.25 37.650391 C 172.8 37.350391 171.60039 36.900391 170.40039 36.900391 C 167.70039 36.900391 165 38.399609 165 41.099609 C 165 43.649609 167.25039 45.300781 169.65039 45.300781 C 171.60039 45.300781 172.5 44.4 173.25 43.5 L 173.40039 43.5 L 173.40039 45 L 176.09961 45 L 176.09961 37.800781 C 175.79961 34.500781 173.24961 32.550781 170.09961 32.550781 z M 88.199219 32.699219 C 84.599219 32.699219 81.75 35.400391 81.75 39.150391 C 81.75 42.750391 84.599219 45.599609 88.199219 45.599609 C 91.799219 45.599609 94.650391 42.900391 94.650391 39.150391 C 94.650391 35.250391 91.799219 32.699219 88.199219 32.699219 z M 102.15039 32.699219 C 98.550394 32.699219 95.699219 35.400391 95.699219 39.150391 C 95.699219 42.750391 98.550394 45.599609 102.15039 45.599609 C 105.75039 45.599609 108.59961 42.900391 108.59961 39.150391 C 108.59961 35.250391 105.75039 32.699219 102.15039 32.699219 z M 134.25 32.699219 C 130.95 32.699219 128.25 35.250391 128.25 39.150391 C 128.25 42.750391 130.95078 45.599609 134.55078 45.599609 C 137.40078 45.599609 139.20078 43.8 139.80078 42.75 L 137.69922 41.25 C 136.94922 42.3 136.05078 43.050781 134.55078 43.050781 C 133.05078 43.050781 132.15039 42.449609 131.40039 41.099609 L 139.94922 37.5 L 139.65039 36.75 C 139.05039 35.25 137.55 32.699219 134.25 32.699219 z M 175.94922 33 L 180.90039 44.400391 L 178.05078 50.699219 L 180.90039 50.699219 L 188.55078 33 L 185.55078 33 L 182.40039 41.099609 L 182.25 41.099609 L 178.94922 33 L 175.94922 33 z M 88.199219 35.099609 C 90.149219 35.099609 91.800781 36.6 91.800781 39 C 91.800781 41.25 90.149219 42.900391 88.199219 42.900391 C 86.249219 42.900391 84.599609 41.25 84.599609 39 C 84.599609 36.75 86.249219 35.099609 88.199219 35.099609 z M 102.15039 35.099609 C 104.10039 35.099609 105.75 36.6 105.75 39 C 105.75 41.25 104.10039 42.900391 102.15039 42.900391 C 100.20039 42.900391 98.550781 41.25 98.550781 39 C 98.550781 36.75 100.20039 35.099609 102.15039 35.099609 z M 116.09961 35.099609 C 118.04961 35.099609 119.55078 36.75 119.55078 39 C 119.55078 41.25 118.04961 42.900391 116.09961 42.900391 C 114.14961 42.900391 112.5 41.25 112.5 39 C 112.5 36.75 114.14961 35.099609 116.09961 35.099609 z M 134.25 35.099609 C 135.3 35.099609 136.35039 35.699219 136.65039 36.449219 L 130.94922 38.849609 C 130.94922 36.449609 132.9 35.099609 134.25 35.099609 z M 170.55078 39.300781 C 171.75078 39.300781 172.34961 39.600391 173.09961 39.900391 C 172.79961 41.700391 171.30078 42.900391 169.80078 42.900391 C 168.90078 42.900391 167.55078 42.45 167.55078 41.25 C 167.55078 39.75 169.20078 39.300781 170.55078 39.300781 z" />
    </g>
</svg>
