<svg width="126" height="123" xmlns="http://www.w3.org/2000/svg" xmlns:xlink="http://www.w3.org/1999/xlink"><defs><path id="a" d="M0 121.906h125.835V0H0z"/></defs><g transform="translate(0 -3)" fill="none" fill-rule="evenodd"><path d="M38.561 107.343l1.998 4.092s.09.15 0 .21-.299.06-.299.06l-2.109.23s-.22 0-.21.11c.01.11.23.14.51.16l2.378.24c.136.01.257.09.32.21.072.145.152.285.24.421 0 0 .13.18 0 .23a4.453 4.453 0 0 1-.72.08l-3.846.45s-.15 0-.15.09.06.13.21.14l2.627.28a.701.701 0 0 1 .41.16c.129.148.266.288.41.421 0 0 .15.13 0 .16s-.88.12-.88.12l-3.947.33s-.139 0-.139.1.1.13.22.14l5.785.42a.445.445 0 0 1 .24 0c.08 0 .08.08.08.08l.489.49s.12.1.1.14a.127.127 0 0 1-.11.07l-4.786.43s-.16 0-.18.11c-.02.111.16.13.16.13l5.995.481a.441.441 0 0 1 .33.14c.13.15.45.46.45.46s.09.111 0 .141c-.09.03-.35.06-.35.06l-4.616.37s-.12 0-.12.09.07.14.18.14l4.915.46s.21 0 .15.18l-.12.501s0 .15-.28.18l-2.747.36s-.15 0-.15.09 0 .12.19.14l2.608.28s.21 0 .17.24c-.04.24-.56 3.132-.56 3.132s0 .14-.06.14a1.73 1.73 0 0 1-.33-.18l-4.835-3.001-5.586 3.381s-.23.15-.39 0c-.159-.15-.05-.55-.05-.55l1-6.003-4.556-4.543s-.21-.31.09-.46c.3-.15 6.374-.94 6.374-.94l2.847-5.704s.09-.27.32-.25c.23.02.32.35.32.35" fill="#FFF"/><path d="M51.154 107.324l1.999 4.092s.08.15 0 .2c-.08.05-.3.06-.3.06l-2.158.23s-.21 0-.2.11c.01.11.23.14.52.16l2.367.24a.39.39 0 0 1 .32.2c.072.149.152.292.24.43 0 0 .13.17 0 .221-.234.05-.471.077-.71.08l-3.847.46s-.149 0-.149.08.06.13.21.14l2.628.29c.15.008.293.064.41.161.12.13.419.42.419.42s.15.13 0 .16-.87.11-.87.11l-3.946.33s-.14 0-.14.11.09.13.22.14l5.775.41a.582.582 0 0 1 .24 0c.07.05.07.08.07.08l.49.49s.13.091.099.142c-.03.049-.12.06-.12.06l-4.786.43s-.16 0-.17.11c-.01.11.15.13.15.13l5.995.49a.43.43 0 0 1 .33.14c.145.157.299.308.46.45 0 0 .08.11 0 .14-.08.03-.35.05-.35.05l-4.627.37s-.12 0-.12.09a.15.15 0 0 0 .16.14h.001c.11 0 4.936.46 4.936.46s.21 0 .14.181l-.12.5s0 .14-.28.18l-2.748.33s-.14 0-.15.08c-.01.08 0 .12.18.14l2.618.28s.2 0 .16.24c-.04.241-.57 3.142-.57 3.142s0 .12-.05.13a1.804 1.804 0 0 1-.32-.19l-4.845-3.001-5.616 3.362s-.23.16-.38 0-.05-.59-.05-.59l1-6.004-4.586-4.502s-.21-.301.08-.46c.29-.16 6.375-.941 6.375-.941l2.957-5.583s.09-.27.32-.24c.23.03.32.35.32.35" fill="#FFF"/><path d="M63.553 107.324l1.998 4.092s.08.15 0 .2c-.08.05-.3.06-.3.06l-2.147.23s-.21 0-.21.11.24.14.52.16l2.377.24c.131.007.25.084.31.2.09.2.24.43.24.43s.13.17 0 .221c-.233.051-.47.078-.71.08l-3.846.46s-.14 0-.14.08.05.13.21.14l2.628.29a.668.668 0 0 1 .399.161c.12.13.42.42.42.42s.15.13 0 .16-.88.11-.88.11l-3.996.33s-.13 0-.13.11.09.13.21.14l5.785.41a.55.55 0 0 1 .24 0c.08.05.08.08.08.08l.49.49s.119.091.089.142a.14.14 0 0 1-.11.06l-4.785.43s-.16 0-.18.11c-.02.11.16.13.16.13l5.995.49a.428.428 0 0 1 .32.14c.119.15.448.45.448.45s.09.11 0 .14c-.09.03-.359.05-.359.05l-4.616.37s-.12 0-.12.09.06.14.17.14l4.925.46s.2 0 .15.181c-.05.18-.12.5-.12.5s0 .14-.29.18l-2.757.33s-.13 0-.14.08c-.01.08 0 .12.18.14l2.608.28s.2 0 .17.24l-.57 3.142v.13a1.548 1.548 0 0 1-.33-.19l-4.845-3.001-5.536 3.472s-.21.16-.39 0c-.18-.16-.05-.591-.05-.591l1-6.003-4.556-4.502s-.21-.3.09-.46c.3-.16 6.365-.941 6.365-.941l2.857-5.693s.08-.27.32-.24c.24.03.31.35.31.35" fill="#FFF"/><path d="M75.506 107.332l1.999 4.093s.08.15 0 .21-.23.1-.23.1l-2.148.23s-.21 0-.2.11c.01.11.23.14.52.16l2.367.24a.41.41 0 0 1 .33.21c.07.145.146.285.23.42 0 0 .13.18 0 .23a4.336 4.336 0 0 1-.71.08l-3.856.451s-.15 0-.15.09.07.13.21.14l2.628.28c.15.007.294.063.41.16.128.148.265.288.41.421 0 0 .149.13 0 .16-.151.03-.87.12-.87.12l-3.997.33s-.14 0-.14.1.09.13.22.14l5.785.42a.495.495 0 0 1 .25 0c.07 0 .07.08.07.08l.48.49s.13.1.1.14a.13.13 0 0 1-.12.07l-4.786.43s-.16 0-.17.11c-.01.111.15.131.15.131l5.994.48a.438.438 0 0 1 .33.14c.145.162.298.316.46.46 0 0 .09.11 0 .14-.09.03-.35.06-.35.06l-4.626.37s-.14 0-.14.09.09.141.19.141l4.926.46s.21 0 .15.18-.13.5-.13.5 0 .15-.28.18l-2.748.341s-.15 0-.16.09c-.01.09 0 .12.19.14l2.608.28s.21 0 .16.24c-.05.24-.56 3.142-.56 3.142s0 .13-.05.13a1.682 1.682 0 0 1-.32-.18l-4.845-3.002-5.615 3.362s-.23.15-.38 0-.06-.59-.06-.59l1-6.003-4.577-4.493s-.22-.31.08-.46c.3-.15 6.375-.94 6.375-.94l2.857-5.704s.08-.27.32-.25c.24.02.32.35.32.35" fill="#FFF"/><path d="M87.998 107.332l1.998 4.093s.08.15 0 .21-.29.06-.29.06l-2.158.23s-.21 0-.2.11c.01.11.23.14.51.16l2.308.19a.511.511 0 0 1 .35.19l.22.31s.17.21 0 .27a6.97 6.97 0 0 1-.83.11l-3.747.401s-.15 0-.15.09.07.13.21.14c.14.01 9.622.28 9.622.28h1.329a.24.24 0 0 1 .16.07l-.33.38a2.047 2.047 0 0 1-.4.331c-.254.04-.511.063-.769.07l-10.99.44s-.14 0-.14.1.09.13.23.14l10.061.47a.55.55 0 0 1 .24 0c.07.05 0 .13 0 .13l-.26.25-.13.14a.995.995 0 0 1-.3.11l-7.803.54s-.16 0-.18.11c-.02.111.16.12.16.12l6.354.411s.27 0 .27.08a2 2 0 0 1-.33.44s-.24.241-.289.27c-.05.03-.35.09-.35.09l-3.827.36s-.13 0-.13.091c0 .09.07.14.18.14l2.997.24.75.06c.3 0 .35.08.36.16.01.08.1.71.1.71s0 .15-.3.211c-.3.06-1.999.26-1.999.26s-.169 0-.169.1 0 .12.18.14c.18.02-.2 0 2.307.26a.24.24 0 0 1 .25.23v.01c0 .26.52 3.002.52 3.002a.51.51 0 0 1-.1.48c-.13.13-.56-.16-.56-.16l-5.425-3.281-5.615 3.411s-.22.15-.38 0 0-.59 0-.59l1-6.003-4.577-4.493s-.22-.31.08-.46c.3-.15 6.485-.82 6.485-.82l2.857-5.704s.09-.26.32-.24c.23.02.32.35.32.35M101.374 22.585l-8.6 4.335-.057.578 8.969-4.52zM98.373 19.613l-5.587 2.82-.069.578 5.968-3.005zM95.036 14.858l-1.061.532-.07.578 1.443-.728zM97.444 17.83l-4.075 2.046-.058.578 4.444-2.243zM99.873 20.802l-7.087 3.572-.069.578 7.456-3.768zM102.28 23.774L92.193 28.87l-.07.567 10.47-5.271zM95.943 16.047l-2.563 1.295-.069.566 2.944-1.48zM92.083 52.896l-2.863 1.445-.07.578 2.69-1.352zM93.405 50.519l-3.59 1.815-.07.578 3.405-1.723zM94.12 47.547l-4.305 2.173-.07.578 4.133-2.08zM91.355 55.868l-2.135 1.075-.07.578 1.951-.983zM90.034 58.245l-1.42.717-.057.578 1.223-.624zM94.847 45.17l-5.033 2.554-.069.567 4.86-2.45zM97.837 36.85l-6.891 3.467-.012.555 6.66-3.352zM100.267 31.5l-8.681 4.38-.058.579 8.484-4.289zM101.006 29.123l-9.408 4.739-.07.578 9.223-4.659zM96.17 42.198L90.396 45.1l-.057.589 5.575-2.82zM98.922 34.472l-7.953 4-.035.37.012.184 7.722-3.884zM96.908 39.82l-6.499 3.272-.07.578 6.327-3.179zM102.327 26.15l-10.135 5.11-.07.579 9.963-5.03zM53.49 29.723l13.494-3.063.093-.51-13.586 3.064zM53.49 35.995l12.352-2.786.093-.52-12.444 2.809zM53.49 33.71l12.733-2.89.092-.509-12.824 2.89zM53.49 37.697l11.959-2.705.081-.52-12.04 2.727zM53.502 32.008l13.102-2.96.092-.52-13.205 2.983zM53.49 22.174l12.086-2.728-.334-.427-11.751 2.658zM53.49 9.766l4.537-1.017-.323-.428-4.213.948zM53.502 11.838l5.783-1.307-.323-.427-5.471 1.236zM53.49 13.898l7.053-1.583-.323-.428-6.73 1.526zM53.49 28.02l13.876-3.144.104-.508-13.98 3.155zM53.49 6.227l2.01-.45-.324-.428-1.685.381zM54.23 3.994l-.312-.428-.427.093v.497zM53.49 7.705l3.267-.74-.311-.427-2.955.67zM53.49 25.713l14.268-3.214.07-.428-.047-.08-14.29 3.225zM53.49 23.652l13.344-3.017-.311-.427-13.032 2.947zM53.502 15.97l8.287-1.884-.311-.416-7.987 1.803zM53.49 18.042l9.558-2.161-.311-.428-9.246 2.08zM53.49 20.103l10.828-2.44-.323-.427-10.504 2.37zM30.595 26.745l-4.318 3.272-.126.704 4.467-3.386zM30.566 24.368l-3.705 2.797-.116.694 3.856-2.913zM29.856 15.453l-1.201.924-.127.694 1.373-1.04zM29.931 21.99l-3.059 2.336-.127.693 3.22-2.439zM29.838 13.075l-.6.451-.115.694.739-.555zM29.914 19.613l-2.448 1.861-.126.706 2.608-1.977zM29.896 17.236L28.06 18.61l-.126.706 1.997-1.503zM31.993 45.725l-.093-.555-9.315 7.074.45.266zM33.745 58.962l.242-.185-.092-.532-.612.451zM30.167 57.01l3.14-2.382-.081-.543-3.509 2.659zM31.974 57.694l1.673-1.283-.092-.543-2.055 1.56zM28.384 55.73l4.594-3.48-.092-.542-4.952 3.768zM26.601 54.451l6.049-4.578-.104-.543-6.395 4.867zM30.613 29.123l-4.941 3.745-.115.694 5.09-3.85zM24.83 53.766l7.503-5.687-.104-.532-7.861 5.965zM30.659 33.877l-6.164 4.693-.127.694 6.326-4.809zM30.642 31.5l-5.552 4.22-.128.704 5.714-4.334zM30.7 36.255L23.9 41.41l-.127.706 6.949-5.283zM31.427 43.387l-8.714 6.624-.128.693 8.935-6.785zM31.34 41.01l-8.045 6.103-.116.693 8.196-6.219zM31.311 38.632l-7.41 5.63-.127.705 7.572-5.745z" fill="#FFF"/><path fill="#FFF" d="M72.51 68.058L91.185 41.01l-2.505 18.657zM73.152 42.36V3.565l-5.992 31.21zM91.074 40.903L86.179 3.566l7.63 10.01zM72.099 43.815l-6.107-7.56-12.501 2.843v.624zM33.283 42.198l2.527 15.316 12.733 3.26zM72.015 68.524L60.6 74.073 36.255 60.028zM32.677 41.065l8.957-37.499-10.134 7.86zM32.328 95.87c-.146.653-.294 1.308-.44 1.965-.06.296-.124.595-.187.898-.065.304-.13.603-.196.897h-.06c-.02-.079-.053-.203-.099-.37-.046-.168-.088-.342-.136-.518-.05-.177-.093-.34-.13-.483a5.82 5.82 0 0 0-.077-.276l-1.084-4.075h-.88c-.08.355-.157.701-.234 1.036l-.22 1.006c-.075.337-.152.674-.231 1.017-.08.342-.158.697-.236 1.065l-.355 1.607h-.048c-.066-.282-.134-.567-.194-.858l-.18-.86c-.153-.673-.307-1.343-.463-2.009a154.88 154.88 0 0 1-.454-2.006h-.867l1.656 6.756h1.015c.285-1.28.504-2.257.656-2.928a65.43 65.43 0 0 0 .25-1.116c.052-.25.103-.5.162-.75.06-.25.11-.5.163-.75l.07.018c.073.25.135.494.196.739l.188.74c.183.71.364 1.39.541 2.038.178.649.356 1.318.533 2.009h.984c.245-1.016.507-2.091.785-3.226.277-1.135.558-2.311.84-3.528h-.827c-.148.657-.296 1.301-.441 1.962"/><mask id="b" fill="#fff"><use xlink:href="#a"/></mask><path fill="#FFF" mask="url(#b)" d="M34.472 100.67h.83v-6.764h-.83zM41.178 99.284l-.042-.007-.984-1.543-1.23-1.914c-.402-.63-.815-1.269-1.234-1.914h-.839v6.756h.797V95.16a.037.037 0 0 0 .024 0 .02.02 0 0 1 .016 0l.88 1.42 2.592 4.082h.817v-6.756h-.797v5.378zM43.387 94.567h2.167v6.106l.827-.009v-6.097h2.158v-.661h-5.152zM50.167 97.388h2.757v-.611h-2.757v-2.23h3.272v-.641H49.33v6.756h4.268v-.648h-3.431zM57.703 96.847c-.125.094-.267.16-.419.194-.139.032-.28.05-.423.051l-1.352-.011v-2.536h1.339c.173-.002.346.021.513.069.152.043.293.118.414.22.12.109.212.246.267.399.07.185.103.382.099.58.008.221-.034.442-.124.644a1.07 1.07 0 0 1-.314.39m.676 1.114a.918.918 0 0 0-.573-.441 1.47 1.47 0 0 0 .892-.661c.2-.328.306-.706.302-1.09.023-.5-.158-.987-.503-1.35-.338-.342-.84-.513-1.503-.513h-2.315v6.765h.826v-2.94h1.063c.148-.001.296.014.44.044a.843.843 0 0 1 .35.168c.113.094.206.207.276.336.095.17.169.35.22.537l.533 1.855h.84l-.554-1.965a3.658 3.658 0 0 0-.294-.745M67.913 98.248c0 .624-.153 1.09-.458 1.395-.352.322-.82.488-1.295.46a1.725 1.725 0 0 1-1.293-.464c-.303-.31-.454-.773-.454-1.391v-4.34h-.819v4.34c-.003.788.198 1.402.604 1.842.405.442 1.056.662 1.955.662.39.009.777-.05 1.146-.176a2.04 2.04 0 0 0 1.28-1.303c.11-.331.163-.678.16-1.025l.002-4.342h-.828v4.342zM74.461 99.284l-.042-.007-.984-1.543-1.227-1.914c-.405-.63-.817-1.269-1.237-1.914h-.839v6.756h.8V95.16h.022a.024.024 0 0 1 .015 0l.88 1.42 2.597 4.082h.815v-6.756h-.8v5.378zM76.67 100.67h.828v-6.764h-.828zM81.518 98.415l-.394 1.38h-.049l-.392-1.364-1.35-4.518h-.88l2.14 6.764h.984l2.128-6.771h-.866zM85.827 97.388h2.76v-.611h-2.76v-2.23H89.1v-.641h-4.108v6.756h4.267v-.648h-3.43zM93.372 96.847c-.124.095-.268.161-.42.194-.14.032-.28.05-.423.051l-1.361-.011v-2.536h1.33a1.83 1.83 0 0 1 .513.069c.15.043.291.118.412.22a.96.96 0 0 1 .277.39c.075.187.112.387.11.589.009.221-.034.442-.123.644a1.086 1.086 0 0 1-.315.39m.67 1.116a.92.92 0 0 0-.573-.441c.372-.096.692-.333.892-.662.202-.327.309-.706.306-1.091.021-.5-.162-.988-.509-1.35-.337-.342-.839-.513-1.502-.513H90.34v6.765h.828v-2.94h1.067c.148-.001.296.014.441.044a.84.84 0 0 1 .35.168c.112.094.205.208.275.336.094.17.168.35.22.537l.533 1.855h.84l-.558-1.963a3.691 3.691 0 0 0-.295-.745M99.628 97.474a2.489 2.489 0 0 0-.692-.337 15.895 15.895 0 0 0-.748-.201 8.492 8.492 0 0 1-.553-.154 2.452 2.452 0 0 1-.482-.208 1.003 1.003 0 0 1-.346-.31.791.791 0 0 1-.13-.464c-.027-.35.112-.692.375-.923.276-.21.617-.315.964-.3.248.002.495.023.74.063.305.056.6.15.88.283l.27-.593a2.707 2.707 0 0 0-.932-.34 5.584 5.584 0 0 0-.92-.084 3.02 3.02 0 0 0-.904.122 2.06 2.06 0 0 0-.704.374 1.76 1.76 0 0 0-.462.602c-.115.254-.173.53-.168.81-.01.27.053.54.183.778.116.209.281.386.48.518.223.14.463.25.714.326.272.086.556.168.85.247.202.053.394.108.57.173.163.053.32.127.465.22a.94.94 0 0 1 .306.335c.077.158.114.332.108.508 0 .48-.142.811-.428.992-.36.197-.769.291-1.18.27a4.44 4.44 0 0 1-.837-.087 4.534 4.534 0 0 1-1.065-.375l-.293.622a3.64 3.64 0 0 0 1.074.405c.362.077.731.116 1.101.118.337.002.672-.036 1-.113.283-.065.55-.185.788-.35.218-.156.394-.363.513-.602.128-.272.19-.57.184-.87a1.777 1.777 0 0 0-.203-.897 1.691 1.691 0 0 0-.518-.558M101.632 100.67h.826v-6.764h-.826zM107.29 98.245l-2.255-.01c.09-.29.184-.56.256-.819.073-.258.145-.505.22-.745l.22-.71c.074-.234.147-.473.22-.717l.197-.662h.028l.196.662c.163.494.318.992.465 1.495l.454 1.506zm-1.65-4.34a611.35 611.35 0 0 1-1.063 3.237c-.374 1.13-.761 2.306-1.162 3.529h.86l.274-.882.278-.882h2.66l.275.882c.095.291.185.586.277.882h.877l-2.209-6.765h-1.066zM113.931 98.448c-.06.262-.16.513-.294.745a1.65 1.65 0 0 1-.412.466c-.14.105-.294.188-.459.247-.142.05-.29.083-.44.099-.143.02-.266.02-.363.02h-1.152v-5.47l1.2-.008c.132 0 .264.01.395.026.15.018.299.056.44.113a1.605 1.605 0 0 1 .824.756c.125.245.216.506.27.776.075.37.11.749.104 1.127.008.37-.03.74-.113 1.103m.43-3.535a2.202 2.202 0 0 0-.852-.734 2.987 2.987 0 0 0-1.354-.271h-2.202v6.764h2.107a3.08 3.08 0 0 0 1.376-.277c.35-.166.654-.42.881-.734a2.94 2.94 0 0 0 .47-1.081c.093-.43.14-.868.137-1.307a6.56 6.56 0 0 0-.122-1.288 2.948 2.948 0 0 0-.44-1.072M117.332 100.014v-2.626h2.76v-.611h-2.76v-2.23h3.27v-.641h-4.111v6.756h4.27v-.648zM2.045 83.877l.561-.65 2.72-2.991h2.286L4.107 83.89l3.702 5.697H5.482c-.456-.732-.91-1.457-1.359-2.175-.45-.718-.9-1.448-1.354-2.191l-.818.844v3.522H0v-9.351h1.95v3.641h.095zM12.257 84.435c.164 0 .325-.022.483-.065a1.167 1.167 0 0 0 .777-.663c.094-.213.14-.444.13-.677a1.292 1.292 0 0 0-.408-1.032 1.482 1.482 0 0 0-.998-.332H10.85v2.77h1.407zm3.387-1.52a3.2 3.2 0 0 1-.094.754 2.336 2.336 0 0 1-.781 1.262 2.048 2.048 0 0 1-.692.385c.344.102.637.33.818.639.177.314.315.648.41.995l.748 2.638H14.09c-.115-.41-.234-.82-.348-1.228-.115-.41-.233-.82-.347-1.23a1.836 1.836 0 0 0-.597-1.044 1.572 1.572 0 0 0-.942-.27h-.989v3.772H8.915v-9.351h3.727c.462-.01.921.062 1.358.213.35.12.67.318.937.578a2.3 2.3 0 0 1 .543.855c.114.333.17.682.164 1.032zM21.518 83.62l-.532-2.028h-.07l-.56 2.092-.687 2.393h2.527l-.678-2.458zm1.725 5.946l-.642-2.133h-3.354l-.642 2.133h-1.963l3.125-9.33h2.491l3.018 9.33h-2.033zM29.869 80.236c.489.003.976.051 1.456.143.517.091 1.014.27 1.472.525l-.507 1.36a5.323 5.323 0 0 0-1.329-.378 8.65 8.65 0 0 0-1.145-.085 1.507 1.507 0 0 0-.99.298 1.09 1.09 0 0 0-.36.897.699.699 0 0 0 .152.455c.113.133.253.241.409.32.184.098.38.176.58.233.217.062.45.12.692.176.31.082.646.176 1.006.283.356.106.694.266 1.002.475.314.21.575.49.76.82.218.412.324.876.304 1.343a2.42 2.42 0 0 1-.966 2.048c-.638.486-1.605.729-2.9.729-.233 0-.487 0-.765-.041s-.573-.07-.862-.131a7.865 7.865 0 0 1-.885-.23 5.93 5.93 0 0 1-.842-.347l.511-1.401a7.553 7.553 0 0 0 1.75.5c.407.063.817.1 1.228.11.427.027.853-.07 1.227-.279.294-.226.449-.59.41-.958a1.04 1.04 0 0 0-.107-.496.997.997 0 0 0-.303-.34 1.936 1.936 0 0 0-.482-.237c-.189-.062-.41-.127-.614-.19a36.01 36.01 0 0 1-1.297-.359 4.245 4.245 0 0 1-1.084-.484 2.237 2.237 0 0 1-.728-.745 2.267 2.267 0 0 1-.274-1.176 2.637 2.637 0 0 1 .871-2.047c.577-.53 1.448-.791 2.61-.791M41.14 86.663v-6.427h1.915v9.351h-1.976l-3.109-5.022c-.151-.262-.307-.52-.462-.774a35.62 35.62 0 0 1-.458-.774h-.065v6.57h-1.919v-9.351h2.013l1.415 2.257c.466.743.936 1.5 1.407 2.27l1.158 1.9h.081zM51.068 85.1c0-.42-.027-.84-.082-1.258a3.714 3.714 0 0 0-.323-1.101 2.053 2.053 0 0 0-.659-.758 1.852 1.852 0 0 0-1.092-.3 1.956 1.956 0 0 0-1.117.296 2.101 2.101 0 0 0-.687.766 3.31 3.31 0 0 0-.347 1.097 8.979 8.979 0 0 0-.095 1.295c-.05.849.122 1.696.5 2.457.371.597 1.047.931 1.746.864a1.79 1.79 0 0 0 1.657-.95c.18-.326.308-.68.376-1.048.086-.447.127-.901.123-1.356V85.1zm2.098-.029a6.368 6.368 0 0 1-.27 1.91 4.323 4.323 0 0 1-.818 1.523 3.69 3.69 0 0 1-1.33 1.012 4.371 4.371 0 0 1-1.852.368 4.919 4.919 0 0 1-1.94-.348c-.519-.215-.98-.55-1.345-.979a4.084 4.084 0 0 1-.781-1.507 6.854 6.854 0 0 1-.254-1.95 6.958 6.958 0 0 1 .246-1.888 4.477 4.477 0 0 1 .769-1.549c.355-.45.814-.808 1.337-1.044.62-.27 1.292-.4 1.968-.381a4.518 4.518 0 0 1 1.96.385c.515.24.967.599 1.316 1.049.362.454.627.979.777 1.54.152.607.225 1.232.217 1.86zM56.489 86.216L53.49 80.24h2.045c.188.41.376.82.572 1.2.197.381.385.795.565 1.204l.818 1.86h.082c.15-.299.294-.622.433-.971.128-.332.273-.658.434-.975l1.146-2.322h2.049a275.28 275.28 0 0 0-1.514 2.867c-.504.97-1.007 1.925-1.509 2.867v3.617h-2.111l-.012-3.37zM66.125 83.603l-.54-2.028h-.065l-.557 2.093-.683 2.393h2.528l-.683-2.458zm1.705 5.963l-.642-2.133h-3.354l-.654 2.133h-1.963l3.129-9.33h2.482l3.04 9.33H67.83zM74.072 84.435c.164 0 .325-.022.483-.065a1.17 1.17 0 0 0 .77-.663c.093-.213.138-.444.13-.677a1.284 1.284 0 0 0-.41-1.032 1.489 1.489 0 0 0-1.005-.332h-1.387v2.77h1.42zm3.383-1.52a3.172 3.172 0 0 1-.094.754 2.47 2.47 0 0 1-.286.692 2.46 2.46 0 0 1-.487.57c-.208.17-.445.3-.7.385.343.104.635.332.82.639.174.314.312.648.408.995l.74 2.638H75.89l-.332-1.228c-.118-.41-.233-.82-.347-1.23a1.853 1.853 0 0 0-.597-1.044 1.575 1.575 0 0 0-.942-.27h-.989v3.772h-1.956v-9.351h3.736c.46-.01.918.062 1.353.213.35.12.671.318.937.577.242.241.427.534.54.856.113.332.17.682.163 1.032zM82.782 80.236c.488.004.976.051 1.456.143.51.093 1.002.27 1.456.525l-.516 1.355a5.303 5.303 0 0 0-1.329-.376 8.642 8.642 0 0 0-1.145-.087 1.519 1.519 0 0 0-.99.3 1.102 1.102 0 0 0-.36.896.68.68 0 0 0 .156.455c.113.133.252.242.408.32.185.099.38.177.581.233.217.061.446.119.687.176.315.082.651.176 1.015.282.355.108.693.268 1.002.476.312.212.572.492.76.819.217.414.322.877.304 1.343.038.8-.322 1.568-.961 2.049-.644.486-1.612.728-2.905.728-.229 0-.487 0-.765-.04-.278-.041-.569-.07-.863-.131a8.246 8.246 0 0 1-.883-.23c-.29-.094-.571-.21-.843-.348l.512-1.396a7.722 7.722 0 0 0 1.75.5c.406.063.817.1 1.227.11.427.027.853-.07 1.227-.279.294-.226.45-.59.41-.958a.928.928 0 0 0-.41-.82 1.929 1.929 0 0 0-.482-.237c-.188-.062-.41-.127-.614-.188a37.497 37.497 0 0 1-1.3-.36 4.383 4.383 0 0 1-1.085-.484 2.292 2.292 0 0 1-.744-.754 2.266 2.266 0 0 1-.274-1.176 2.63 2.63 0 0 1 .876-2.047c.6-.533 1.48-.8 2.642-.8M89.409 83.877l.56-.65 2.712-2.991h2.286l-3.5 3.654 3.71 5.697h-2.328c-.454-.733-.908-1.458-1.358-2.175-.45-.717-.9-1.437-1.354-2.175l-.818.844v3.506h-1.951v-9.351h1.95v3.641h.091zM100.84 88.065h3.812v1.376h-6.46v-1.229l.844-.745c.302-.273.608-.554.916-.844.308-.29.607-.579.896-.868.277-.285.531-.593.76-.918.211-.287.395-.592.548-.913.126-.273.192-.569.197-.868a1.178 1.178 0 0 0-.364-.947 1.594 1.594 0 0 0-1.064-.32c-.32.01-.637.052-.949.124a4.569 4.569 0 0 0-1.325.528l-.585-1.156a5.365 5.365 0 0 1 1.694-.819 5.941 5.941 0 0 1 1.5-.225 3.295 3.295 0 0 1 2.205.684c.564.51.865 1.248.818 2.007-.002.503-.12.997-.343 1.446a7.107 7.107 0 0 1-.9 1.377c-.344.434-.717.845-1.117 1.229-.409.38-.773.725-1.108 1.032l.024.049zM111.086 84.946c0-.344 0-.708-.05-1.09a4.364 4.364 0 0 0-.212-1.048 1.92 1.92 0 0 0-.5-.79 1.25 1.25 0 0 0-.89-.312 1.294 1.294 0 0 0-.896.307 1.91 1.91 0 0 0-.52.783 4.07 4.07 0 0 0-.242 1.052c-.084.78-.084 1.567 0 2.347.034.343.122.677.262.991.114.265.295.494.524.668.255.174.559.26.867.246.295.01.585-.085.818-.266a1.74 1.74 0 0 0 .503-.71c.128-.325.213-.667.254-1.015.052-.391.078-.785.077-1.18l.005.017zm1.91-.037a8.217 8.217 0 0 1-.18 1.733 4.315 4.315 0 0 1-.602 1.47c-.28.426-.66.779-1.104 1.028a3.36 3.36 0 0 1-1.69.39 3.718 3.718 0 0 1-1.77-.373 3.017 3.017 0 0 1-1.113-1.004 4.084 4.084 0 0 1-.577-1.466 9.288 9.288 0 0 1-.168-1.758c0-.569.055-1.137.164-1.695a4.588 4.588 0 0 1 .577-1.507 3.121 3.121 0 0 1 1.113-1.078 3.446 3.446 0 0 1 1.77-.41 3.373 3.373 0 0 1 1.776.41c.45.267.825.643 1.092 1.094.272.462.458.97.548 1.499a9.66 9.66 0 0 1 .164 1.667zM115.392 81.94l-1.873.18v-1.274l2.045-.61h1.706v9.077h-1.873zM120.656 83.253c-.001.201.022.402.07.598.04.173.116.335.225.475.108.139.248.249.408.32.213.084.44.123.667.114.21.003.42-.022.621-.073.18-.045.358-.104.529-.176.115-.052.226-.113.331-.185a1.58 1.58 0 0 1 .18-.115v-.257a5.405 5.405 0 0 0-.053-.726 2.242 2.242 0 0 0-.217-.72 1.308 1.308 0 0 0-1.268-.766 1.395 1.395 0 0 0-1.084.409 1.576 1.576 0 0 0-.389 1.102h-.02zm2.928 2.323a3.95 3.95 0 0 1-1.97.573 3.304 3.304 0 0 1-1.073-.168 2.342 2.342 0 0 1-1.456-1.413 3.446 3.446 0 0 1-.216-1.27 3.347 3.347 0 0 1 .24-1.306c.151-.364.379-.691.668-.959.3-.265.65-.465 1.03-.59.425-.14.87-.209 1.317-.205a3.623 3.623 0 0 1 1.636.328c.42.204.78.51 1.052.889.278.402.476.854.58 1.331.127.546.189 1.106.185 1.667a8.924 8.924 0 0 1-.213 1.995 4.565 4.565 0 0 1-.695 1.602 3.37 3.37 0 0 1-1.228 1.065 3.838 3.838 0 0 1-1.799.388 6.35 6.35 0 0 1-1.264-.11 4.72 4.72 0 0 1-.819-.23l.332-1.347c.293.104.596.176.904.213.248.03.495.046.744.049.346.012.687-.077.982-.258.26-.165.482-.38.655-.635.163-.252.288-.529.368-.819.07-.249.124-.501.16-.758l-.12-.032zM9.234 100.828h-4.48v-.668l1.796-1.806c.546-.554.907-.95 1.08-1.186.174-.236.305-.467.392-.69a1.98 1.98 0 0 0 .131-.724c0-.364-.11-.652-.332-.866-.22-.213-.526-.32-.917-.32-.283 0-.55.047-.804.14-.254.094-.536.264-.846.51l-.41-.528c.627-.523 1.31-.784 2.05-.784.64 0 1.143.164 1.506.493.363.327.545.768.545 1.322 0 .433-.121.861-.364 1.284-.242.423-.696.959-1.36 1.606l-1.492 1.46v.038h3.505v.719zM12.262 94.569c-.445 0-.788.143-1.03.429-.243.287-.364.685-.364 1.195 0 .448.112.8.336 1.057.223.257.563.385 1.02.385.283 0 .543-.057.782-.173.237-.115.424-.272.56-.47.137-.2.206-.408.206-.626 0-.327-.064-.629-.19-.906a1.588 1.588 0 0 0-.535-.653 1.342 1.342 0 0 0-.785-.238m2.293 2.348c0 2.67-1.032 4.004-3.095 4.004-.36 0-.647-.031-.858-.093v-.668c.249.081.532.122.848.122.747 0 1.31-.231 1.69-.693.38-.463.588-1.171.623-2.127h-.056c-.171.259-.398.456-.68.59a2.181 2.181 0 0 1-.956.204c-.603 0-1.082-.18-1.436-.542-.355-.36-.531-.865-.531-1.511 0-.71.198-1.27.593-1.681.397-.41.918-.616 1.565-.616.463 0 .867.118 1.213.357.347.238.614.585.8 1.04.186.457.28.994.28 1.614M17.799 97.958h-.47v-3.634h-1.282v-.418h3.033v.418H17.8zM22.686 97.958h-.471v-1.907h-2.13v1.907h-.472v-4.052h.471v1.724h2.13v-1.724h.472z"/></g></svg>