<svg width="113" height="113" viewBox="0 0 113 113" fill="none" xmlns="http://www.w3.org/2000/svg">
<circle cx="56.5" cy="56.5" r="56.5" fill="#E4F8FF"/>
<path fill-rule="evenodd" clip-rule="evenodd" d="M33.6611 27.4665C33.6611 27.5002 33.5509 27.5277 33.4162 27.5277C33.2815 27.5277 33.1713 27.5553 33.1713 27.589C33.1713 27.6226 33.0947 27.6502 33.0012 27.6502C32.9013 27.6502 32.7946 27.7007 32.7427 27.7726C32.6942 27.84 32.6055 27.8951 32.5455 27.8951C32.4857 27.8951 32.4366 27.9226 32.4366 27.9563C32.4366 27.99 32.3949 28.0175 32.3438 28.0175C32.2228 28.0175 31.3346 28.9058 31.3346 29.0268C31.3346 29.0778 31.307 29.1196 31.2733 29.1196C31.2397 29.1196 31.2121 29.1747 31.2121 29.242C31.2121 29.3094 31.1845 29.3645 31.1509 29.3645C31.1172 29.3645 31.0896 29.4196 31.0896 29.4869C31.0896 29.5543 31.0621 29.6094 31.0284 29.6094C30.9947 29.6094 30.9672 29.692 30.9672 29.7931C30.9672 29.8941 30.9396 29.9767 30.906 29.9767C30.8723 29.9767 30.8447 30.1145 30.8447 30.2829C30.8447 30.4512 30.8172 30.589 30.7835 30.589C30.7432 30.589 30.7223 32.4054 30.7223 35.9156C30.7223 39.4259 30.7432 41.2423 30.7835 41.2423C30.8172 41.2423 30.8447 41.38 30.8447 41.5484C30.8447 41.7168 30.8723 41.8545 30.906 41.8545C30.9396 41.8545 30.9672 41.9372 30.9672 42.0382C30.9672 42.1392 30.9947 42.2219 31.0284 42.2219C31.0621 42.2219 31.0896 42.277 31.0896 42.3443C31.0896 42.4117 31.1172 42.4668 31.1509 42.4668C31.1845 42.4668 31.2121 42.5219 31.2121 42.5892C31.2121 42.6566 31.2397 42.7117 31.2733 42.7117C31.307 42.7117 31.3346 42.7535 31.3346 42.8047C31.3346 42.9178 32.0963 43.6913 32.2077 43.6913C32.2513 43.6913 32.3268 43.7464 32.3754 43.8137C32.4239 43.8811 32.5127 43.9362 32.5726 43.9362C32.6325 43.9362 32.6815 43.9637 32.6815 43.9974C32.6815 44.0311 32.7366 44.0586 32.804 44.0586C32.8713 44.0586 32.9264 44.0862 32.9264 44.1199C32.9264 44.1535 33.0091 44.1811 33.1101 44.1811C33.2111 44.1811 33.2938 44.2086 33.2938 44.2423C33.2938 44.2764 33.4571 44.3035 33.6611 44.3035C33.8652 44.3035 34.0285 44.3307 34.0285 44.3648C34.0285 44.4033 34.4367 44.426 35.1305 44.426H36.2326V46.6913C36.2326 48.1608 36.2541 48.9567 36.2938 48.9567C36.3275 48.9567 36.3551 49.0118 36.3551 49.0791C36.3551 49.1608 36.3959 49.2016 36.4775 49.2016C36.5449 49.2016 36.6 49.2291 36.6 49.2628C36.6 49.2965 36.6826 49.324 36.7836 49.324C36.8847 49.324 36.9673 49.2965 36.9673 49.2628C36.9673 49.2291 37.0224 49.2016 37.0898 49.2016C37.1571 49.2016 37.2122 49.174 37.2122 49.1404C37.2122 49.1067 37.2613 49.0791 37.3211 49.0791C37.3811 49.0791 37.4698 49.024 37.5183 48.9567C37.5669 48.8893 37.6495 48.8342 37.702 48.8342C37.7545 48.8342 37.8371 48.7791 37.8857 48.7118C37.9342 48.6444 38.023 48.5893 38.0829 48.5893C38.1428 48.5893 38.1918 48.5618 38.1918 48.5281C38.1918 48.4944 38.2409 48.4669 38.3007 48.4669C38.3607 48.4669 38.4494 48.4118 38.4979 48.3444C38.5465 48.2771 38.6292 48.222 38.6816 48.222C38.7341 48.222 38.8167 48.1669 38.8653 48.0995C38.9139 48.0322 38.9965 47.9771 39.049 47.9771C39.1014 47.9771 39.1841 47.922 39.2327 47.8546C39.2812 47.7873 39.3699 47.7322 39.4299 47.7322C39.4897 47.7322 39.5388 47.7046 39.5388 47.6709C39.5388 47.6373 39.5878 47.6097 39.6477 47.6097C39.7076 47.6097 39.7964 47.5546 39.8449 47.4873C39.8935 47.4199 39.9761 47.3648 40.0286 47.3648C40.0811 47.3648 40.1637 47.3097 40.2123 47.2424C40.2608 47.175 40.3495 47.1199 40.4095 47.1199C40.4693 47.1199 40.5184 47.0924 40.5184 47.0587C40.5184 47.025 40.5674 46.9975 40.6273 46.9975C40.6873 46.9975 40.776 46.9424 40.8245 46.875C40.8731 46.8077 40.9557 46.7526 41.0082 46.7526C41.0607 46.7526 41.1433 46.6975 41.1919 46.6301C41.2404 46.5628 41.3231 46.5077 41.3756 46.5077C41.428 46.5077 41.5107 46.4526 41.5592 46.3852C41.6078 46.3179 41.6965 46.2628 41.7564 46.2628C41.8163 46.2628 41.8654 46.2352 41.8654 46.2015C41.8654 46.1679 41.9144 46.1403 41.9743 46.1403C42.0342 46.1403 42.1229 46.0852 42.1715 46.0179C42.22 45.9505 42.3027 45.8954 42.3552 45.8954C42.4076 45.8954 42.4903 45.8403 42.5388 45.773C42.5874 45.7056 42.67 45.6505 42.7225 45.6505C42.775 45.6505 42.8576 45.5954 42.9062 45.5281C42.9547 45.4607 43.0435 45.4056 43.1034 45.4056C43.1633 45.4056 43.2123 45.378 43.2123 45.3444C43.2123 45.3107 43.2614 45.2831 43.3212 45.2831C43.3812 45.2831 43.4699 45.228 43.5184 45.1607C43.567 45.0934 43.6497 45.0382 43.7021 45.0382C43.7546 45.0382 43.8372 44.9831 43.8858 44.9158C43.9344 44.8484 44.017 44.7933 44.0695 44.7933C44.1219 44.7933 44.2046 44.7382 44.2532 44.6709C44.3017 44.6035 44.3904 44.5484 44.4504 44.5484C44.5102 44.5484 44.5593 44.5209 44.5593 44.4872C44.5593 44.4466 49.09 44.426 58.0289 44.426C66.9679 44.426 71.4985 44.4054 71.4985 44.3648C71.4985 44.3311 71.6088 44.3035 71.7435 44.3035C71.8781 44.3035 71.9884 44.276 71.9884 44.2423C71.9884 44.2086 72.0649 44.1811 72.1585 44.1811C72.2584 44.1811 72.3651 44.1305 72.4169 44.0586C72.4655 43.9913 72.5542 43.9362 72.6141 43.9362C72.674 43.9362 72.7231 43.9086 72.7231 43.875C72.7231 43.8413 72.7648 43.8137 72.8159 43.8137C72.9369 43.8137 73.8251 42.9255 73.8251 42.8045C73.8251 42.7534 73.8527 42.7117 73.8863 42.7117C73.92 42.7117 73.9476 42.6566 73.9476 42.5892C73.9476 42.5219 73.9751 42.4668 74.0088 42.4668C74.0425 42.4668 74.07 42.4117 74.07 42.3443C74.07 42.277 74.0976 42.2219 74.1312 42.2219C74.1649 42.2219 74.1925 42.1392 74.1925 42.0382C74.1925 41.9372 74.22 41.8545 74.2537 41.8545C74.2874 41.8545 74.3149 41.7168 74.3149 41.5484C74.3149 41.38 74.3425 41.2423 74.3762 41.2423C74.4165 41.2423 74.4374 39.4259 74.4374 35.9156C74.4374 32.4054 74.4165 30.589 74.3762 30.589C74.3425 30.589 74.3149 30.4512 74.3149 30.2829C74.3149 30.1145 74.2874 29.9767 74.2537 29.9767C74.22 29.9767 74.1925 29.8941 74.1925 29.7931C74.1925 29.692 74.1649 29.6094 74.1312 29.6094C74.0976 29.6094 74.07 29.5543 74.07 29.4869C74.07 29.4196 74.0425 29.3645 74.0088 29.3645C73.9751 29.3645 73.9476 29.3094 73.9476 29.242C73.9476 29.1747 73.92 29.1196 73.8863 29.1196C73.8527 29.1196 73.8251 29.0778 73.8251 29.0268C73.8251 28.9058 72.9369 28.0175 72.8159 28.0175C72.7648 28.0175 72.7231 27.99 72.7231 27.9563C72.7231 27.9226 72.674 27.8951 72.6141 27.8951C72.5542 27.8951 72.4655 27.84 72.4169 27.7726C72.3651 27.7007 72.2584 27.6502 72.1585 27.6502C72.0649 27.6502 71.9884 27.6226 71.9884 27.589C71.9884 27.5553 71.8781 27.5277 71.7435 27.5277C71.6088 27.5277 71.4985 27.5002 71.4985 27.4665C71.4985 27.4258 65.1515 27.4053 52.5798 27.4053C40.0082 27.4053 33.6611 27.4258 33.6611 27.4665ZM71.621 28.5686C71.621 28.6022 71.6761 28.6298 71.7435 28.6298C71.8108 28.6298 71.8659 28.6573 71.8659 28.691C71.8659 28.7247 71.921 28.7522 71.9884 28.7522C72.0557 28.7522 72.1108 28.7798 72.1108 28.8135C72.1108 28.8471 72.1527 28.8747 72.204 28.8747C72.3252 28.8747 72.968 29.5174 72.968 29.6387C72.968 29.6899 72.9955 29.7318 73.0292 29.7318C73.0629 29.7318 73.0904 29.7869 73.0904 29.8543C73.0904 29.9216 73.118 29.9767 73.1516 29.9767C73.1853 29.9767 73.2129 30.0594 73.2129 30.1604C73.2129 30.2614 73.2404 30.3441 73.2741 30.3441C73.3144 30.3441 73.3353 32.2421 73.3353 35.9156C73.3353 39.5892 73.3144 41.4872 73.2741 41.4872C73.2404 41.4872 73.2129 41.5698 73.2129 41.6708C73.2129 41.7719 73.1853 41.8545 73.1516 41.8545C73.118 41.8545 73.0904 41.9096 73.0904 41.977C73.0904 42.0443 73.0629 42.0994 73.0292 42.0994C72.9955 42.0994 72.968 42.1414 72.968 42.1926C72.968 42.3138 72.3252 42.9566 72.204 42.9566C72.1527 42.9566 72.1108 42.9841 72.1108 43.0178C72.1108 43.0515 72.0557 43.079 71.9884 43.079C71.921 43.079 71.8659 43.1066 71.8659 43.1403C71.8659 43.1739 71.7832 43.2015 71.6822 43.2015C71.5812 43.2015 71.4985 43.229 71.4985 43.2627C71.4985 43.3034 66.927 43.3239 57.9065 43.3239C48.8859 43.3239 44.3144 43.3445 44.3144 43.3852C44.3144 43.4188 44.2593 43.4464 44.1919 43.4464C44.1246 43.4464 44.0695 43.4739 44.0695 43.5076C44.0695 43.5413 44.0204 43.5688 43.9606 43.5688C43.9006 43.5688 43.8119 43.6239 43.7633 43.6913C43.7148 43.7586 43.6321 43.8137 43.5797 43.8137C43.5272 43.8137 43.4445 43.8688 43.396 43.9362C43.3474 44.0035 43.2648 44.0586 43.2123 44.0586C43.1598 44.0586 43.0772 44.1137 43.0286 44.1811C42.9801 44.2484 42.8914 44.3035 42.8314 44.3035C42.7716 44.3035 42.7225 44.3311 42.7225 44.3648C42.7225 44.3984 42.6735 44.426 42.6136 44.426C42.5537 44.426 42.4649 44.4811 42.4164 44.5484C42.3678 44.6158 42.2852 44.6709 42.2327 44.6709C42.1802 44.6709 42.0976 44.726 42.049 44.7933C42.0005 44.8607 41.9178 44.9158 41.8654 44.9158C41.8129 44.9158 41.7302 44.9709 41.6817 45.0382C41.6331 45.1056 41.5444 45.1607 41.4845 45.1607C41.4246 45.1607 41.3756 45.1882 41.3756 45.2219C41.3756 45.2556 41.3265 45.2831 41.2666 45.2831C41.2067 45.2831 41.118 45.3383 41.0694 45.4056C41.0209 45.4729 40.9382 45.5281 40.8857 45.5281C40.8333 45.5281 40.7506 45.5832 40.7021 45.6505C40.6535 45.7179 40.5709 45.773 40.5184 45.773C40.4659 45.773 40.3833 45.8281 40.3347 45.8954C40.2862 45.9628 40.1974 46.0179 40.1375 46.0179C40.0776 46.0179 40.0286 46.0454 40.0286 46.0791C40.0286 46.1128 39.9795 46.1403 39.9197 46.1403C39.8597 46.1403 39.771 46.1954 39.7225 46.2628C39.6739 46.3301 39.5913 46.3852 39.5388 46.3852C39.4863 46.3852 39.4037 46.4403 39.3551 46.5077C39.3066 46.575 39.2239 46.6301 39.1714 46.6301C39.119 46.6301 39.0363 46.6852 38.9878 46.7526C38.9392 46.8199 38.8505 46.875 38.7905 46.875C38.7307 46.875 38.6816 46.9026 38.6816 46.9362C38.6816 46.9699 38.6326 46.9975 38.5727 46.9975C38.5128 46.9975 38.424 47.0526 38.3755 47.1199C38.3269 47.1873 38.2443 47.2424 38.1918 47.2424C38.1393 47.2424 38.0567 47.2975 38.0081 47.3648C37.9596 47.4322 37.8769 47.4873 37.8245 47.4873C37.772 47.4873 37.6893 47.5424 37.6408 47.6097C37.5922 47.6771 37.5035 47.7322 37.4436 47.7322C37.3414 47.7322 37.3347 47.6089 37.3347 45.7396V43.7469L37.1844 43.5967C37.1017 43.514 36.9915 43.4464 36.9394 43.4464C36.8874 43.4464 36.8449 43.4188 36.8449 43.3852C36.8449 43.3458 36.253 43.3239 35.1918 43.3239C34.1305 43.3239 33.5387 43.302 33.5387 43.2627C33.5387 43.229 33.4836 43.2015 33.4162 43.2015C33.3489 43.2015 33.2938 43.1739 33.2938 43.1403C33.2938 43.1066 33.2387 43.079 33.1713 43.079C33.104 43.079 33.0489 43.0515 33.0489 43.0178C33.0489 42.9841 33.0069 42.9566 32.9557 42.9566C32.8345 42.9566 32.1917 42.3138 32.1917 42.1926C32.1917 42.1414 32.1642 42.0994 32.1305 42.0994C32.0968 42.0994 32.0693 42.0443 32.0693 41.977C32.0693 41.9096 32.0417 41.8545 32.008 41.8545C31.9744 41.8545 31.9468 41.7719 31.9468 41.6708C31.9468 41.5698 31.9193 41.4872 31.8856 41.4872C31.8452 41.4872 31.8244 39.5892 31.8244 35.9156C31.8244 32.2421 31.8452 30.3441 31.8856 30.3441C31.9193 30.3441 31.9468 30.2614 31.9468 30.1604C31.9468 30.0594 31.9744 29.9767 32.008 29.9767C32.0417 29.9767 32.0693 29.9216 32.0693 29.8543C32.0693 29.7869 32.0968 29.7318 32.1305 29.7318C32.1642 29.7318 32.1917 29.6899 32.1917 29.6387C32.1917 29.5252 32.8307 28.8747 32.9422 28.8747C32.986 28.8747 33.0615 28.8196 33.1101 28.7522C33.162 28.6804 33.2686 28.6298 33.3685 28.6298C33.4621 28.6298 33.5387 28.6022 33.5387 28.5686C33.5387 28.5278 39.9265 28.5073 52.5798 28.5073C65.2332 28.5073 71.621 28.5278 71.621 28.5686ZM39.4163 33.2217C39.4163 33.2554 39.3738 33.2829 39.3217 33.2829C39.173 33.2829 38.9265 33.5675 38.9265 33.7394C38.9265 33.8251 38.9541 33.8952 38.9878 33.8952C39.0214 33.8952 39.049 33.9503 39.049 34.0176C39.049 34.0993 39.0898 34.1401 39.1714 34.1401C39.2388 34.1401 39.2939 34.1676 39.2939 34.2013C39.2939 34.242 43.7633 34.2625 52.5798 34.2625C61.3963 34.2625 65.8658 34.242 65.8658 34.2013C65.8658 34.1676 65.9209 34.1401 65.9882 34.1401C66.0699 34.1401 66.1107 34.0993 66.1107 34.0176C66.1107 33.9503 66.1382 33.8952 66.1719 33.8952C66.2056 33.8952 66.2331 33.8251 66.2331 33.7394C66.2331 33.5675 65.9867 33.2829 65.8379 33.2829C65.7859 33.2829 65.7433 33.2554 65.7433 33.2217C65.7433 33.1811 61.3147 33.1605 52.5798 33.1605C43.845 33.1605 39.4163 33.1811 39.4163 33.2217ZM39.1255 37.663C38.9356 37.8619 38.8507 38.181 38.9878 38.181C39.0214 38.181 39.049 38.2361 39.049 38.3034C39.049 38.385 39.0898 38.4259 39.1714 38.4259C39.2388 38.4259 39.2939 38.4534 39.2939 38.4871C39.2939 38.5278 43.7633 38.5483 52.5798 38.5483C61.3963 38.5483 65.8658 38.5278 65.8658 38.4871C65.8658 38.4534 65.9209 38.4259 65.9882 38.4259C66.0699 38.4259 66.1107 38.385 66.1107 38.3034C66.1107 38.2361 66.1382 38.181 66.1719 38.181C66.3156 38.181 66.223 37.8606 66.0209 37.6585L65.8087 37.4463L52.5665 37.4505L39.3245 37.4547L39.1255 37.663ZM47.8655 47.9159C47.8655 47.9495 47.7828 47.9771 47.6818 47.9771C47.5808 47.9771 47.4981 48.0046 47.4981 48.0383C47.4981 48.072 47.443 48.0995 47.3757 48.0995C47.3083 48.0995 47.2532 48.1271 47.2532 48.1608C47.2532 48.1944 47.1981 48.222 47.1308 48.222C47.0634 48.222 47.0083 48.2495 47.0083 48.2832C47.0083 48.3169 46.9643 48.3444 46.9104 48.3444C46.8566 48.3444 46.7353 48.4271 46.641 48.5281C46.5466 48.6291 46.4371 48.7118 46.3977 48.7118C46.3053 48.7118 46.1511 48.8659 46.1511 48.9583C46.1511 48.9978 46.0685 49.1072 45.9675 49.2016C45.8664 49.2959 45.7838 49.4112 45.7838 49.4575C45.7838 49.5039 45.7287 49.5816 45.6613 49.6302C45.594 49.6787 45.5389 49.7674 45.5389 49.8274C45.5389 49.8873 45.5113 49.9363 45.4777 49.9363C45.444 49.9363 45.4164 50.0465 45.4164 50.1812C45.4164 50.3159 45.3889 50.4261 45.3552 50.4261C45.3215 50.4261 45.294 50.5639 45.294 50.7322C45.294 50.9006 45.2664 51.0384 45.2328 51.0384C45.1924 51.0384 45.1715 52.8343 45.1715 56.3038C45.1715 59.7732 45.1924 61.5692 45.2328 61.5692C45.2664 61.5692 45.294 61.7069 45.294 61.8753C45.294 62.0437 45.3215 62.1814 45.3552 62.1814C45.3889 62.1814 45.4164 62.2641 45.4164 62.3651C45.4164 62.4661 45.444 62.5488 45.4777 62.5488C45.5113 62.5488 45.5389 62.6039 45.5389 62.6712C45.5389 62.7386 45.5664 62.7937 45.6001 62.7937C45.6338 62.7937 45.6613 62.8488 45.6613 62.9161C45.6613 62.9835 45.6889 63.0386 45.7226 63.0386C45.7562 63.0386 45.7838 63.0826 45.7838 63.1365C45.7838 63.1903 45.8664 63.3116 45.9675 63.4059C46.0685 63.5003 46.1511 63.6216 46.1511 63.6754C46.1511 63.7293 46.1946 63.7733 46.2478 63.7733C46.301 63.7733 46.4503 63.8835 46.5797 64.0182C46.7092 64.1529 46.8585 64.2631 46.9117 64.2631C46.9648 64.2631 47.0083 64.2906 47.0083 64.3243C47.0083 64.358 47.0634 64.3855 47.1308 64.3855C47.1981 64.3855 47.2532 64.4131 47.2532 64.4468C47.2532 64.4804 47.3083 64.508 47.3757 64.508C47.443 64.508 47.4981 64.5355 47.4981 64.5692C47.4981 64.6029 47.6083 64.6304 47.743 64.6304C47.8777 64.6304 47.9879 64.658 47.9879 64.6917C47.9879 64.7323 52.5345 64.7529 61.5052 64.7529C74.9523 64.7529 75.0231 64.7535 75.1109 64.8753C75.1594 64.9427 75.2421 64.9978 75.2945 64.9978C75.347 64.9978 75.4297 65.0529 75.4782 65.1202C75.5268 65.1876 75.6155 65.2427 75.6754 65.2427C75.7353 65.2427 75.7843 65.2702 75.7843 65.3039C75.7843 65.3376 75.8334 65.3651 75.8933 65.3651C75.9532 65.3651 76.0419 65.4202 76.0905 65.4876C76.139 65.5549 76.2217 65.6101 76.2741 65.6101C76.3266 65.6101 76.4093 65.6652 76.4578 65.7325C76.5064 65.7999 76.5951 65.855 76.655 65.855C76.7149 65.855 76.764 65.8825 76.764 65.9162C76.764 65.9499 76.813 65.9774 76.8729 65.9774C76.9328 65.9774 77.0215 66.0325 77.0701 66.0999C77.1186 66.1672 77.2013 66.2223 77.2538 66.2223C77.3062 66.2223 77.3889 66.2774 77.4374 66.3448C77.486 66.4121 77.5686 66.4672 77.6211 66.4672C77.6736 66.4672 77.7562 66.5223 77.8048 66.5897C77.8533 66.657 77.9421 66.7121 78.002 66.7121C78.0619 66.7121 78.1109 66.7397 78.1109 66.7733C78.1109 66.807 78.16 66.8346 78.2198 66.8346C78.2798 66.8346 78.3685 66.8897 78.417 66.957C78.4656 67.0244 78.5482 67.0795 78.6007 67.0795C78.6532 67.0795 78.7358 67.1346 78.7844 67.2019C78.8329 67.2693 78.9156 67.3244 78.9681 67.3244C79.0205 67.3244 79.1032 67.3795 79.1517 67.4468C79.2003 67.5142 79.283 67.5693 79.3354 67.5693C79.3879 67.5693 79.4706 67.6244 79.5191 67.6917C79.5677 67.7591 79.6564 67.8142 79.7163 67.8142C79.7762 67.8142 79.8252 67.8417 79.8252 67.8754C79.8252 67.9091 79.8743 67.9366 79.9342 67.9366C79.9941 67.9366 80.0828 67.9917 80.1314 68.0591C80.1799 68.1264 80.2626 68.1815 80.315 68.1815C80.3675 68.1815 80.4502 68.2366 80.4987 68.304C80.5473 68.3713 80.6299 68.4264 80.6824 68.4264C80.7349 68.4264 80.8175 68.4815 80.8661 68.5489C80.9146 68.6162 81.0033 68.6713 81.0633 68.6713C81.1232 68.6713 81.1722 68.6989 81.1722 68.7326C81.1722 68.7662 81.2212 68.7938 81.2811 68.7938C81.3411 68.7938 81.4298 68.8489 81.4783 68.9162C81.5269 68.9836 81.6095 69.0387 81.662 69.0387C81.7145 69.0387 81.7971 69.0938 81.8457 69.1611C81.8942 69.2285 81.9769 69.2836 82.0294 69.2836C82.0818 69.2836 82.1645 69.3387 82.213 69.406C82.2616 69.4734 82.3503 69.5285 82.4102 69.5285C82.4701 69.5285 82.5192 69.556 82.5192 69.5897C82.5192 69.6234 82.6451 69.6509 82.799 69.6509C83.0879 69.6509 83.2539 69.5521 83.2539 69.3798C83.2539 69.3269 83.2814 69.2836 83.3151 69.2836C83.3548 69.2836 83.3763 68.4877 83.3763 67.0182V64.7529H84.7845C85.6825 64.7529 86.1927 64.7307 86.1927 64.6917C86.1927 64.658 86.2753 64.6304 86.3764 64.6304C86.4774 64.6304 86.56 64.6029 86.56 64.5692C86.56 64.5355 86.6152 64.508 86.6825 64.508C86.7498 64.508 86.805 64.4804 86.805 64.4468C86.805 64.4131 86.8601 64.3855 86.9274 64.3855C86.9947 64.3855 87.0499 64.358 87.0499 64.3243C87.0499 64.2906 87.0989 64.2631 87.1588 64.2631C87.2187 64.2631 87.3074 64.208 87.356 64.1406C87.4045 64.0733 87.4804 64.0182 87.5246 64.0182C87.6229 64.0182 88.0295 63.6205 88.0295 63.5244C88.0295 63.4863 88.1121 63.3778 88.2131 63.2835C88.3142 63.1891 88.3968 63.0678 88.3968 63.014C88.3968 62.9601 88.4244 62.9161 88.458 62.9161C88.4917 62.9161 88.5193 62.861 88.5193 62.7937C88.5193 62.7263 88.5468 62.6712 88.5805 62.6712C88.6142 62.6712 88.6417 62.5886 88.6417 62.4875C88.6417 62.3865 88.6693 62.3039 88.7029 62.3039C88.7366 62.3039 88.7642 62.1661 88.7642 61.9977C88.7642 61.8294 88.7917 61.6916 88.8254 61.6916C88.8657 61.6916 88.8866 59.8548 88.8866 56.3038C88.8866 52.7527 88.8657 50.9159 88.8254 50.9159C88.7917 50.9159 88.7642 50.7781 88.7642 50.6098C88.7642 50.4414 88.7366 50.3036 88.7029 50.3036C88.6693 50.3036 88.6417 50.221 88.6417 50.12C88.6417 50.0189 88.6142 49.9363 88.5805 49.9363C88.5468 49.9363 88.5193 49.8812 88.5193 49.8138C88.5193 49.7465 88.4917 49.6914 88.458 49.6914C88.4244 49.6914 88.3968 49.6474 88.3968 49.5935C88.3968 49.5397 88.3142 49.4184 88.2131 49.324C88.1121 49.2297 88.0295 49.1213 88.0295 49.0831C88.0295 48.987 87.6229 48.5893 87.5246 48.5893C87.4804 48.5893 87.4045 48.5342 87.356 48.4669C87.3074 48.3995 87.2187 48.3444 87.1588 48.3444C87.0989 48.3444 87.0499 48.3169 87.0499 48.2832C87.0499 48.2495 86.9947 48.222 86.9274 48.222C86.8601 48.222 86.805 48.1944 86.805 48.1608C86.805 48.1271 86.7498 48.0995 86.6825 48.0995C86.6152 48.0995 86.56 48.072 86.56 48.0383C86.56 48.0046 86.4774 47.9771 86.3764 47.9771C86.2753 47.9771 86.1927 47.9495 86.1927 47.9159C86.1927 47.8751 79.764 47.8546 67.0291 47.8546C54.2942 47.8546 47.8655 47.8751 47.8655 47.9159ZM85.7029 48.8955C85.7029 48.9291 85.8131 48.9567 85.9478 48.9567C86.0825 48.9567 86.1927 48.9842 86.1927 49.0179C86.1927 49.0516 86.2478 49.0791 86.3151 49.0791C86.3825 49.0791 86.4376 49.1067 86.4376 49.1404C86.4376 49.174 86.4866 49.2016 86.5465 49.2016C86.6065 49.2016 86.6952 49.2567 86.7437 49.324C86.7923 49.3914 86.8685 49.4465 86.9131 49.4465C87.0182 49.4465 87.2948 49.723 87.2948 49.8282C87.2948 49.8727 87.3499 49.949 87.4172 49.9975C87.4846 50.0461 87.5397 50.1348 87.5397 50.1947C87.5397 50.2546 87.5672 50.3036 87.6009 50.3036C87.6346 50.3036 87.6621 50.3863 87.6621 50.4873C87.6621 50.5883 87.6897 50.671 87.7233 50.671C87.7637 50.671 87.7846 52.5894 87.7846 56.3038C87.7846 60.0181 87.7637 61.9365 87.7233 61.9365C87.6897 61.9365 87.6621 62.0192 87.6621 62.1202C87.6621 62.2212 87.6346 62.3039 87.6009 62.3039C87.5672 62.3039 87.5397 62.3479 87.5397 62.4018C87.5397 62.4556 87.457 62.5769 87.356 62.6712C87.255 62.7656 87.1723 62.875 87.1723 62.9145C87.1723 63.0118 87.0163 63.161 86.9147 63.161C86.8692 63.161 86.7923 63.2161 86.7437 63.2835C86.6952 63.3508 86.6065 63.4059 86.5465 63.4059C86.4866 63.4059 86.4376 63.4335 86.4376 63.4672C86.4376 63.5008 86.3825 63.5284 86.3151 63.5284C86.2478 63.5284 86.1927 63.5559 86.1927 63.5896C86.1927 63.6233 86.0825 63.6508 85.9478 63.6508C85.8131 63.6508 85.7029 63.6784 85.7029 63.7121C85.7029 63.7513 85.1402 63.7733 84.1373 63.7733C82.5004 63.7733 82.3967 63.7894 82.3967 64.0445C82.3967 64.0974 82.3692 64.1406 82.3355 64.1406C82.2959 64.1406 82.2743 64.855 82.2743 66.1611C82.2743 67.2723 82.2528 68.1815 82.2266 68.1815C82.2003 68.1815 82.1391 68.1264 82.0906 68.0591C82.042 67.9917 81.9533 67.9366 81.8934 67.9366C81.8335 67.9366 81.7845 67.9091 81.7845 67.8754C81.7845 67.8417 81.7354 67.8142 81.6755 67.8142C81.6156 67.8142 81.5269 67.7591 81.4783 67.6917C81.4298 67.6244 81.3471 67.5693 81.2946 67.5693C81.2422 67.5693 81.1595 67.5142 81.111 67.4468C81.0624 67.3795 80.9798 67.3244 80.9273 67.3244C80.8748 67.3244 80.7922 67.2693 80.7436 67.2019C80.6951 67.1346 80.6063 67.0795 80.5464 67.0795C80.4865 67.0795 80.4375 67.0519 80.4375 67.0182C80.4375 66.9846 80.3884 66.957 80.3286 66.957C80.2686 66.957 80.1799 66.9019 80.1314 66.8346C80.0828 66.7672 80.0002 66.7121 79.9477 66.7121C79.8952 66.7121 79.8126 66.657 79.764 66.5897C79.7155 66.5223 79.6328 66.4672 79.5803 66.4672C79.5279 66.4672 79.4452 66.4121 79.3967 66.3448C79.3481 66.2774 79.2594 66.2223 79.1994 66.2223C79.1396 66.2223 79.0905 66.1948 79.0905 66.1611C79.0905 66.1274 79.0415 66.0999 78.9816 66.0999C78.9217 66.0999 78.8329 66.0448 78.7844 65.9774C78.7358 65.9101 78.6532 65.855 78.6007 65.855C78.5482 65.855 78.4656 65.7999 78.417 65.7325C78.3685 65.6652 78.2858 65.6101 78.2334 65.6101C78.1809 65.6101 78.0982 65.5549 78.0497 65.4876C78.0011 65.4202 77.9124 65.3651 77.8525 65.3651C77.7926 65.3651 77.7436 65.3376 77.7436 65.3039C77.7436 65.2702 77.6945 65.2427 77.6346 65.2427C77.5747 65.2427 77.486 65.1876 77.4374 65.1202C77.3889 65.0529 77.3062 64.9978 77.2538 64.9978C77.2013 64.9978 77.1186 64.9427 77.0701 64.8753C77.0215 64.808 76.9328 64.7529 76.8729 64.7529C76.813 64.7529 76.764 64.7253 76.764 64.6917C76.764 64.658 76.7149 64.6304 76.655 64.6304C76.5951 64.6304 76.5064 64.5753 76.4578 64.508C76.4093 64.4406 76.3266 64.3855 76.2741 64.3855C76.2217 64.3855 76.139 64.3304 76.0905 64.2631C76.0419 64.1957 75.9593 64.1406 75.9068 64.1406C75.8543 64.1406 75.7717 64.0855 75.7231 64.0182C75.6746 63.9508 75.5858 63.8957 75.5259 63.8957C75.466 63.8957 75.417 63.8682 75.417 63.8345C75.417 63.7939 70.8863 63.7733 61.9474 63.7733C53.0084 63.7733 48.4777 63.7527 48.4777 63.7121C48.4777 63.6784 48.34 63.6508 48.1716 63.6508C48.0032 63.6508 47.8655 63.6233 47.8655 63.5896C47.8655 63.5559 47.8104 63.5284 47.743 63.5284C47.6757 63.5284 47.6206 63.5008 47.6206 63.4672C47.6206 63.4335 47.5787 63.4059 47.5276 63.4059C47.4065 63.4059 46.641 62.6404 46.641 62.5193C46.641 62.4681 46.6134 62.4263 46.5797 62.4263C46.5461 62.4263 46.5185 62.3712 46.5185 62.3039C46.5185 62.2365 46.4909 62.1814 46.4573 62.1814C46.4236 62.1814 46.396 62.0988 46.396 61.9977C46.396 61.8967 46.3685 61.8141 46.3348 61.8141C46.2945 61.8141 46.2736 59.9365 46.2736 56.3038C46.2736 52.6711 46.2945 50.7935 46.3348 50.7935C46.3685 50.7935 46.396 50.6893 46.396 50.5621C46.396 50.4009 46.4332 50.3039 46.5185 50.2424C46.5858 50.1939 46.641 50.1112 46.641 50.0587C46.641 50.0063 46.6961 49.9236 46.7634 49.8751C46.8308 49.8265 46.8859 49.7378 46.8859 49.6779C46.8859 49.618 46.9299 49.5689 46.9838 49.5689C47.0376 49.5689 47.1589 49.4863 47.2532 49.3853C47.3476 49.2842 47.4688 49.2016 47.5227 49.2016C47.5765 49.2016 47.6206 49.174 47.6206 49.1404C47.6206 49.1067 47.6757 49.0791 47.743 49.0791C47.8104 49.0791 47.8655 49.0516 47.8655 49.0179C47.8655 48.9842 47.9757 48.9567 48.1104 48.9567C48.2451 48.9567 48.3553 48.9291 48.3553 48.8955C48.3553 48.8548 54.6207 48.8342 67.0291 48.8342C79.4375 48.8342 85.7029 48.8548 85.7029 48.8955ZM53.5748 53.7014C53.5327 53.7492 53.4982 53.8309 53.4982 53.8828C53.4982 53.9347 53.4707 53.9772 53.437 53.9772C53.4033 53.9772 53.3758 54.0323 53.3758 54.0996C53.3758 54.167 53.4033 54.2221 53.437 54.2221C53.4707 54.2221 53.4982 54.2654 53.4982 54.3183C53.4982 54.6035 52.7961 54.5894 67.0275 54.5894H80.3818L80.5321 54.4391C80.6269 54.3444 80.6824 54.2189 80.6824 54.0996C80.6824 53.9804 80.6269 53.8549 80.5321 53.7601L80.3818 53.6098L67.0165 53.6122C55.5509 53.6142 53.6404 53.6269 53.5748 53.7014ZM53.5748 57.9872C53.5327 58.035 53.4982 58.1166 53.4982 58.1686C53.4982 58.2205 53.4707 58.263 53.437 58.263C53.4033 58.263 53.3758 58.3181 53.3758 58.3854C53.3758 58.4528 53.4033 58.5079 53.437 58.5079C53.4707 58.5079 53.4982 58.5512 53.4982 58.6041C53.4982 58.8824 53.3542 58.8752 58.9457 58.8752H64.2183L64.3685 58.7249C64.4633 58.6302 64.5188 58.5047 64.5188 58.3854C64.5188 58.2662 64.4633 58.1406 64.3685 58.0459L64.2183 57.8956L58.9347 57.898C54.4499 57.8999 53.6397 57.9134 53.5748 57.9872ZM66.4934 58.0502C66.3081 58.2482 66.3134 58.5324 66.5059 58.7249L66.6562 58.8752H68.0103C69.1022 58.8752 69.3813 58.8583 69.4518 58.7877C69.5068 58.7329 69.5393 58.5732 69.5393 58.3592C69.5393 58.0589 69.5247 58.0181 69.4169 58.0181C69.3495 58.0181 69.2944 57.9905 69.2944 57.9569C69.2944 57.9178 68.8122 57.897 67.9628 57.8994C66.6379 57.9031 66.6304 57.9039 66.4934 58.0502ZM31.7019 68.2428C31.7019 68.2764 31.5917 68.304 31.457 68.304C31.3223 68.304 31.2121 68.3315 31.2121 68.3652C31.2121 68.3989 31.1294 68.4264 31.0284 68.4264C30.9274 68.4264 30.8447 68.454 30.8447 68.4877C30.8447 68.5213 30.7896 68.5489 30.7223 68.5489C30.6549 68.5489 30.5998 68.5764 30.5998 68.6101C30.5998 68.6438 30.5447 68.6713 30.4774 68.6713C30.41 68.6713 30.3549 68.6989 30.3549 68.7326C30.3549 68.7662 30.3132 68.7938 30.2621 68.7938C30.1411 68.7938 29.2529 69.682 29.2529 69.803C29.2529 69.8541 29.2253 69.8958 29.1917 69.8958C29.158 69.8958 29.1304 69.9509 29.1304 70.0183C29.1304 70.0856 29.1029 70.1407 29.0692 70.1407C29.0355 70.1407 29.008 70.1958 29.008 70.2632C29.008 70.3305 28.9804 70.3856 28.9468 70.3856C28.9131 70.3856 28.8855 70.4683 28.8855 70.5693C28.8855 70.6703 28.858 70.753 28.8243 70.753C28.7906 70.753 28.7631 70.8632 28.7631 70.9979C28.7631 71.1326 28.7355 71.2428 28.7019 71.2428C28.6615 71.2428 28.6406 73.0796 28.6406 76.6307C28.6406 80.1817 28.6615 82.0185 28.7019 82.0185C28.7355 82.0185 28.7631 82.1563 28.7631 82.3246C28.7631 82.493 28.7906 82.6308 28.8243 82.6308C28.858 82.6308 28.8855 82.7134 28.8855 82.8144C28.8855 82.9155 28.9131 82.9981 28.9468 82.9981C28.9804 82.9981 29.008 83.0532 29.008 83.1206C29.008 83.1879 29.0355 83.243 29.0692 83.243C29.1029 83.243 29.1304 83.2921 29.1304 83.3519C29.1304 83.4119 29.1855 83.5006 29.2529 83.5492C29.3202 83.5977 29.3753 83.6733 29.3753 83.717C29.3753 83.8208 30.0221 84.4675 30.1258 84.4675C30.1696 84.4675 30.2452 84.5226 30.2937 84.59C30.3423 84.6573 30.431 84.7124 30.4909 84.7124C30.5508 84.7124 30.5998 84.74 30.5998 84.7737C30.5998 84.8073 30.6549 84.8349 30.7223 84.8349C30.7896 84.8349 30.8447 84.8624 30.8447 84.8961C30.8447 84.9298 30.9274 84.9573 31.0284 84.9573C31.1294 84.9573 31.2121 84.9849 31.2121 85.0186C31.2121 85.0526 31.3754 85.0798 31.5795 85.0798C31.7835 85.0798 31.9468 85.107 31.9468 85.141C31.9468 85.1796 32.355 85.2022 33.0489 85.2022H34.1509V87.4676C34.1509 88.937 34.1724 89.7329 34.2122 89.7329C34.2458 89.7329 34.2734 89.788 34.2734 89.8554C34.2734 89.937 34.3142 89.9778 34.3958 89.9778C34.4632 89.9778 34.5183 90.0054 34.5183 90.0391C34.5183 90.0727 34.6009 90.1003 34.702 90.1003C34.803 90.1003 34.8856 90.0727 34.8856 90.0391C34.8856 90.0054 34.9407 89.9778 35.0081 89.9778C35.0754 89.9778 35.1305 89.9503 35.1305 89.9166C35.1305 89.8829 35.1796 89.8554 35.2395 89.8554C35.2994 89.8554 35.3881 89.8003 35.4367 89.7329C35.4852 89.6656 35.5679 89.6105 35.6203 89.6105C35.6728 89.6105 35.7555 89.5554 35.804 89.488C35.8526 89.4207 35.9352 89.3656 35.9877 89.3656C36.0402 89.3656 36.1228 89.3105 36.1714 89.2431C36.2199 89.1758 36.3086 89.1207 36.3686 89.1207C36.4285 89.1207 36.4775 89.0931 36.4775 89.0595C36.4775 89.0258 36.5265 88.9982 36.5864 88.9982C36.6464 88.9982 36.7351 88.9431 36.7836 88.8758C36.8322 88.8084 36.9148 88.7533 36.9673 88.7533C37.0198 88.7533 37.1024 88.6982 37.151 88.6309C37.1995 88.5635 37.2822 88.5084 37.3347 88.5084C37.3871 88.5084 37.4698 88.4533 37.5183 88.386C37.5669 88.3186 37.6556 88.2635 37.7155 88.2635C37.7754 88.2635 37.8245 88.236 37.8245 88.2023C37.8245 88.1686 37.8735 88.1411 37.9334 88.1411C37.9933 88.1411 38.082 88.086 38.1306 88.0186C38.1791 87.9513 38.2618 87.8962 38.3143 87.8962C38.3667 87.8962 38.4494 87.8411 38.4979 87.7737C38.5465 87.7064 38.6292 87.6513 38.6816 87.6513C38.7341 87.6513 38.8167 87.5962 38.8653 87.5288C38.9139 87.4615 39.0026 87.4064 39.0625 87.4064C39.1224 87.4064 39.1714 87.3788 39.1714 87.3451C39.1714 87.3115 39.2205 87.2839 39.2803 87.2839C39.3403 87.2839 39.429 87.2288 39.4776 87.1615C39.5261 87.0941 39.6088 87.039 39.6612 87.039C39.7137 87.039 39.7964 86.9839 39.8449 86.9166C39.8935 86.8492 39.9761 86.7941 40.0286 86.7941C40.0811 86.7941 40.1637 86.739 40.2123 86.6717C40.2608 86.6043 40.3495 86.5492 40.4095 86.5492C40.4693 86.5492 40.5184 86.5217 40.5184 86.488C40.5184 86.4543 40.5674 86.4268 40.6273 86.4268C40.6873 86.4268 40.776 86.3717 40.8245 86.3043C40.8731 86.237 40.9557 86.1819 41.0082 86.1819C41.0607 86.1819 41.1433 86.1268 41.1919 86.0594C41.2404 85.9921 41.3231 85.937 41.3756 85.937C41.428 85.937 41.5107 85.8818 41.5592 85.8145C41.6078 85.7472 41.6965 85.692 41.7564 85.692C41.8163 85.692 41.8654 85.6645 41.8654 85.6308C41.8654 85.5971 41.9144 85.5696 41.9743 85.5696C42.0342 85.5696 42.1229 85.5145 42.1715 85.4471C42.22 85.3798 42.3088 85.3247 42.3687 85.3247C42.4286 85.3247 42.4776 85.2971 42.4776 85.2635C42.4776 85.2228 46.9675 85.2022 55.8248 85.2022C64.6821 85.2022 69.172 85.1817 69.172 85.141C69.172 85.1073 69.3097 85.0798 69.4781 85.0798C69.6465 85.0798 69.7842 85.0522 69.7842 85.0186C69.7842 84.9849 69.8669 84.9573 69.9679 84.9573C70.0689 84.9573 70.1516 84.9298 70.1516 84.8961C70.1516 84.8624 70.2067 84.8349 70.274 84.8349C70.3414 84.8349 70.3965 84.8073 70.3965 84.7737C70.3965 84.74 70.4455 84.7124 70.5054 84.7124C70.5653 84.7124 70.6541 84.6573 70.7026 84.59C70.7512 84.5226 70.8267 84.4675 70.8705 84.4675C70.9743 84.4675 71.621 83.8208 71.621 83.717C71.621 83.6733 71.6761 83.5977 71.7435 83.5492C71.8108 83.5006 71.8659 83.4119 71.8659 83.3519C71.8659 83.2921 71.8935 83.243 71.9271 83.243C71.9608 83.243 71.9884 83.1879 71.9884 83.1206C71.9884 83.0532 72.0159 82.9981 72.0496 82.9981C72.0833 82.9981 72.1108 82.9155 72.1108 82.8144C72.1108 82.7134 72.1384 82.6308 72.172 82.6308C72.2061 82.6308 72.2333 82.4675 72.2333 82.2634C72.2333 82.0593 72.2604 81.8961 72.2945 81.8961C72.3348 81.8961 72.3557 80.1205 72.3557 76.6919C72.3557 73.2633 72.3348 71.4877 72.2945 71.4877C72.2604 71.4877 72.2333 71.3244 72.2333 71.1204C72.2333 70.9163 72.2061 70.753 72.172 70.753C72.1384 70.753 72.1108 70.6703 72.1108 70.5693C72.1108 70.4683 72.0833 70.3856 72.0496 70.3856C72.0159 70.3856 71.9884 70.3305 71.9884 70.2632C71.9884 70.1958 71.9608 70.1407 71.9271 70.1407C71.8935 70.1407 71.8659 70.0917 71.8659 70.0318C71.8659 69.9719 71.8108 69.8832 71.7435 69.8346C71.6761 69.7861 71.621 69.7106 71.621 69.6669C71.621 69.5555 70.8475 68.7938 70.7344 68.7938C70.6832 68.7938 70.6414 68.7662 70.6414 68.7326C70.6414 68.6989 70.5863 68.6713 70.5189 68.6713C70.4516 68.6713 70.3965 68.6438 70.3965 68.6101C70.3965 68.5764 70.3414 68.5489 70.274 68.5489C70.2067 68.5489 70.1516 68.5213 70.1516 68.4877C70.1516 68.454 70.0689 68.4264 69.9679 68.4264C69.8669 68.4264 69.7842 68.3989 69.7842 68.3652C69.7842 68.3315 69.6465 68.304 69.4781 68.304C69.3097 68.304 69.172 68.2764 69.172 68.2428C69.172 68.2021 62.8861 68.1815 50.4369 68.1815C37.9878 68.1815 31.7019 68.2021 31.7019 68.2428ZM69.4169 69.3448C69.4169 69.3785 69.4995 69.406 69.6006 69.406C69.7016 69.406 69.7842 69.4336 69.7842 69.4673C69.7842 69.5009 69.8393 69.5285 69.9067 69.5285C69.974 69.5285 70.0291 69.556 70.0291 69.5897C70.0291 69.6234 70.0711 69.6509 70.1223 69.6509C70.2435 69.6509 70.8863 70.2937 70.8863 70.4149C70.8863 70.4662 70.9138 70.5081 70.9475 70.5081C70.9812 70.5081 71.0087 70.5632 71.0087 70.6306C71.0087 70.6979 71.0363 70.753 71.07 70.753C71.1036 70.753 71.1312 70.8357 71.1312 70.9367C71.1312 71.0377 71.1587 71.1204 71.1924 71.1204C71.2328 71.1204 71.2536 73.0183 71.2536 76.6919C71.2536 80.3654 71.2328 82.2634 71.1924 82.2634C71.1587 82.2634 71.1312 82.3461 71.1312 82.4471C71.1312 82.5481 71.1036 82.6308 71.07 82.6308C71.0363 82.6308 71.0087 82.6798 71.0087 82.7397C71.0087 82.7996 70.9536 82.8883 70.8863 82.9369C70.8189 82.9854 70.7638 83.0613 70.7638 83.1055C70.7638 83.21 70.3634 83.6104 70.259 83.6104C70.2148 83.6104 70.1389 83.6655 70.0904 83.7328C70.0418 83.8002 69.9531 83.8553 69.8932 83.8553C69.8333 83.8553 69.7842 83.8828 69.7842 83.9165C69.7842 83.9502 69.7016 83.9777 69.6006 83.9777C69.4995 83.9777 69.4169 84.0053 69.4169 84.039C69.4169 84.0796 64.8453 84.1002 55.8248 84.1002C46.8042 84.1002 42.2327 84.1208 42.2327 84.1614C42.2327 84.1951 42.1776 84.2226 42.1103 84.2226C42.0429 84.2226 41.9878 84.2502 41.9878 84.2839C41.9878 84.3175 41.9388 84.3451 41.8789 84.3451C41.8189 84.3451 41.7302 84.4002 41.6817 84.4675C41.6331 84.5349 41.5505 84.59 41.498 84.59C41.4455 84.59 41.3629 84.6451 41.3143 84.7124C41.2658 84.7798 41.1831 84.8349 41.1306 84.8349C41.0782 84.8349 40.9955 84.89 40.947 84.9573C40.8984 85.0247 40.8097 85.0798 40.7498 85.0798C40.6899 85.0798 40.6408 85.1073 40.6408 85.141C40.6408 85.1747 40.5918 85.2022 40.5319 85.2022C40.472 85.2022 40.3833 85.2573 40.3347 85.3247C40.2862 85.392 40.2035 85.4471 40.151 85.4471C40.0986 85.4471 40.0159 85.5023 39.9674 85.5696C39.9188 85.6369 39.8362 85.692 39.7837 85.692C39.7312 85.692 39.6486 85.7472 39.6 85.8145C39.5515 85.8818 39.4627 85.937 39.4028 85.937C39.3429 85.937 39.2939 85.9645 39.2939 85.9982C39.2939 86.0318 39.2448 86.0594 39.185 86.0594C39.125 86.0594 39.0363 86.1145 38.9878 86.1819C38.9392 86.2492 38.8565 86.3043 38.8041 86.3043C38.7516 86.3043 38.669 86.3594 38.6204 86.4268C38.5718 86.4941 38.4892 86.5492 38.4367 86.5492C38.3843 86.5492 38.3016 86.6043 38.253 86.6717C38.2045 86.739 38.1158 86.7941 38.0558 86.7941C37.996 86.7941 37.9469 86.8217 37.9469 86.8553C37.9469 86.889 37.8979 86.9166 37.838 86.9166C37.7781 86.9166 37.6893 86.9717 37.6408 87.039C37.5922 87.1064 37.5096 87.1615 37.4571 87.1615C37.4046 87.1615 37.322 87.2166 37.2734 87.2839C37.2249 87.3513 37.1422 87.4064 37.0898 87.4064C37.0373 87.4064 36.9546 87.4615 36.9061 87.5288C36.8575 87.5962 36.7688 87.6513 36.7089 87.6513C36.649 87.6513 36.6 87.6788 36.6 87.7125C36.6 87.7462 36.5509 87.7737 36.491 87.7737C36.4311 87.7737 36.3424 87.8288 36.2938 87.8962C36.2453 87.9635 36.1626 88.0186 36.1101 88.0186C36.0577 88.0186 35.975 88.0737 35.9265 88.1411C35.8779 88.2084 35.7953 88.2635 35.7428 88.2635C35.6903 88.2635 35.6077 88.3186 35.5591 88.386C35.5106 88.4533 35.4219 88.5084 35.3619 88.5084C35.2597 88.5084 35.253 88.3852 35.253 86.5166V84.5247L35.0407 84.3125L34.8285 84.1002H33.204C32.1618 84.1002 31.5795 84.0783 31.5795 84.039C31.5795 84.0053 31.4968 83.9777 31.3958 83.9777C31.2948 83.9777 31.2121 83.9502 31.2121 83.9165C31.2121 83.8828 31.157 83.8553 31.0896 83.8553C31.0223 83.8553 30.9672 83.8277 30.9672 83.7941C30.9672 83.7604 30.9253 83.7328 30.874 83.7328C30.7528 83.7328 30.11 83.0901 30.11 82.9689C30.11 82.9176 30.0825 82.8757 30.0488 82.8757C30.0151 82.8757 29.9876 82.8206 29.9876 82.7532C29.9876 82.6859 29.96 82.6308 29.9264 82.6308C29.8927 82.6308 29.8651 82.5481 29.8651 82.4471C29.8651 82.3461 29.8376 82.2634 29.8039 82.2634C29.7636 82.2634 29.7427 80.345 29.7427 76.6307C29.7427 72.9163 29.7636 70.9979 29.8039 70.9979C29.8376 70.9979 29.8651 70.9428 29.8651 70.8755C29.8651 70.8081 29.8927 70.753 29.9264 70.753C29.96 70.753 29.9876 70.6979 29.9876 70.6306C29.9876 70.5632 30.0151 70.5081 30.0488 70.5081C30.0825 70.5081 30.11 70.4662 30.11 70.4149C30.11 70.3015 30.7491 69.6509 30.8605 69.6509C30.9043 69.6509 30.9799 69.5958 31.0284 69.5285C31.0803 69.4566 31.1869 69.406 31.2869 69.406C31.3804 69.406 31.457 69.3785 31.457 69.3448C31.457 69.3041 37.8245 69.2836 50.4369 69.2836C63.0494 69.2836 69.4169 69.3041 69.4169 69.3448ZM37.2122 73.998C37.2122 74.0316 37.1571 74.0592 37.0898 74.0592C37.0081 74.0592 36.9673 74.1 36.9673 74.1816C36.9673 74.249 36.9398 74.3041 36.9061 74.3041C36.8724 74.3041 36.8449 74.3867 36.8449 74.4878C36.8449 74.5888 36.8724 74.6714 36.9061 74.6714C36.9398 74.6714 36.9673 74.7265 36.9673 74.7939C36.9673 74.8755 37.0081 74.9163 37.0898 74.9163C37.1571 74.9163 37.2122 74.9439 37.2122 74.9776C37.2122 75.0182 41.6721 75.0388 50.4696 75.0388H63.727L63.9392 74.8265C64.2064 74.5594 64.2064 74.4161 63.9392 74.149L63.727 73.9367H50.4696C41.6721 73.9367 37.2122 73.9573 37.2122 73.998ZM37.2122 78.2838C37.2122 78.3174 37.1571 78.345 37.0898 78.345C37.0081 78.345 36.9673 78.3858 36.9673 78.4674C36.9673 78.5348 36.9398 78.5899 36.9061 78.5899C36.8724 78.5899 36.8449 78.6725 36.8449 78.7736C36.8449 78.8746 36.8724 78.9572 36.9061 78.9572C36.9398 78.9572 36.9673 79.0123 36.9673 79.0797C36.9673 79.1613 37.0081 79.2021 37.0898 79.2021C37.1571 79.2021 37.2122 79.2297 37.2122 79.2634C37.2122 79.3029 37.9061 79.3246 39.1714 79.3246C40.4368 79.3246 41.1306 79.3029 41.1306 79.2634C41.1306 79.2297 41.1739 79.2021 41.2268 79.2021C41.5241 79.2021 41.6072 78.6322 41.3477 78.3728L41.1974 78.2225H39.2048C37.9172 78.2225 37.2122 78.2442 37.2122 78.2838ZM44.0695 78.2838C44.0695 78.3174 44.0262 78.345 43.9733 78.345C43.8069 78.345 43.7021 78.5107 43.7021 78.7736C43.7021 79.0365 43.8069 79.2021 43.9733 79.2021C44.0262 79.2021 44.0695 79.2297 44.0695 79.2634C44.0695 79.3033 45.0287 79.3246 46.8246 79.3246C48.6206 79.3246 49.5798 79.3033 49.5798 79.2634C49.5798 79.2297 49.6349 79.2021 49.7022 79.2021C49.7838 79.2021 49.8247 79.1613 49.8247 79.0797C49.8247 79.0123 49.8522 78.9572 49.8859 78.9572C49.9196 78.9572 49.9471 78.8746 49.9471 78.7736C49.9471 78.6725 49.9196 78.5899 49.8859 78.5899C49.8522 78.5899 49.8247 78.5348 49.8247 78.4674C49.8247 78.3858 49.7838 78.345 49.7022 78.345C49.6349 78.345 49.5798 78.3174 49.5798 78.2838C49.5798 78.2438 48.6206 78.2225 46.8246 78.2225C45.0287 78.2225 44.0695 78.2438 44.0695 78.2838ZM52.3962 78.2838C52.3962 78.3174 52.3529 78.345 52.3 78.345C52.247 78.345 52.1644 78.3843 52.1163 78.4325C52.0174 78.5313 51.9961 78.9572 52.09 78.9572C52.1237 78.9572 52.1513 79.0123 52.1513 79.0797C52.1513 79.1613 52.1921 79.2021 52.2737 79.2021C52.3411 79.2021 52.3962 79.2297 52.3962 79.2634C52.3962 79.3014 52.7431 79.3246 53.3145 79.3246C53.886 79.3246 54.2329 79.3014 54.2329 79.2634C54.2329 79.2297 54.2762 79.2021 54.3291 79.2021C54.4955 79.2021 54.6003 79.0365 54.6003 78.7736C54.6003 78.5107 54.4955 78.345 54.3291 78.345C54.2762 78.345 54.2329 78.3174 54.2329 78.2838C54.2329 78.2457 53.886 78.2225 53.3145 78.2225C52.7431 78.2225 52.3962 78.2457 52.3962 78.2838Z" fill="#0B276F"/>
<circle cx="83.4313" cy="30.424" r="13.7097" fill="#0B276F"/>
<path d="M88.7008 28.1233H78.1601C77.3285 28.1233 76.6543 28.7975 76.6543 29.6291V34.8994C76.6543 35.7311 77.3285 36.4053 78.1601 36.4053H88.7008C89.5324 36.4053 90.2066 35.7311 90.2066 34.8994V29.6291C90.2066 28.7975 89.5324 28.1233 88.7008 28.1233Z" stroke="white" stroke-width="1.29157" stroke-linecap="round" stroke-linejoin="round"/>
<path d="M79.666 28.1233V25.1117C79.666 24.1133 80.0626 23.1558 80.7686 22.4498C81.4746 21.7438 82.4321 21.3472 83.4305 21.3472C84.429 21.3472 85.3865 21.7438 86.0925 22.4498C86.7985 23.1558 87.1951 24.1133 87.1951 25.1117V28.1233" stroke="white" stroke-width="1.29157" stroke-linecap="round" stroke-linejoin="round"/>
</svg>
