<svg class="logo" width="222" height="43" viewport="0 0 222 43" xmlns="http://www.w3.org/2000/svg">
    <g fill="none" fill-rule="evenodd">
        <path class="fill" d="M57.73 9.177l-1.2 6.803h36.323l1.199-6.803H57.731zm12.456 13.038l-3.503 19.843h6.811l3.5-19.843h-6.808z"/>
        <path class="stroke" d="M194.57 9.176c-6.258 0-12.248 5.087-13.352 11.338l-1.8 10.206c-1.105 6.252 3.089 11.338 9.348 11.338h15.324l1.2-6.804h-15.323c-2.504 0-4.182-2.033-3.74-4.534l1.803-10.206c.44-2.5 2.835-4.536 5.34-4.536h17.025c2.504 0 4.182 2.035 3.741 4.536l-2.603 14.74-1.2 6.804h6.81l3.803-21.544c1.103-6.25-3.09-11.338-9.35-11.338H194.57z" stroke-width="1.2"/>
        <path class="fill" d="M17.156 9.176c-6.258 0-12.249 5.087-13.353 11.338L0 42.058h6.81L9.112 29.02h22.135l1.201-6.804H10.314l.3-1.7c.441-2.502 2.839-4.537 5.341-4.537h23.27l1.2-6.802H17.157z"/>
        <path class="stroke" d="M142.361 1.24l-3.403 19.274-3.803 21.544h6.811l3.802-21.544c.003-.01.007-.02.007-.03l.796-4.506h19.295c2.504 0 4.18 2.035 3.74 4.536l-3.804 21.544h6.81l3.805-21.544c1.102-6.25-3.091-11.338-9.352-11.338H147.77l1.401-7.936h-6.81zM108.342 9.176c-4.645 0-9.137 2.804-11.598 6.802h27.422c2.504 0 4.182 2.035 3.74 4.536h6.81c1.105-6.25-3.09-11.338-9.348-11.338h-17.026zM94.689 22.215l-1.502 8.505c-1.103 6.252 3.092 11.338 9.35 11.338h17.026c6.26 0 12.249-5.086 13.353-11.338h-6.81c-.442 2.501-2.838 4.534-5.342 4.534h-17.027c-2.502 0-4.18-2.033-3.739-4.534l1.5-8.505h-6.81z" stroke-width="1.2"/>
        <path class="fill" d="M45.673 9.176l-1.201 6.802h6.81L53.884 1.24zM43.37 22.215l-3.5 19.844h6.81l3.502-19.844z"/>
    </g>
</svg>