<svg xmlns="http://www.w3.org/2000/svg" width="229" height="23" viewBox="0 0 229 23">
    <g>
        <path fill="#fff" d="M 6.0800781 10.998047 C 3.0410781 10.998047 0.6484375 12.359172 0.6484375 14.701172 C 0.6484375 16.997172 2.926672 17.801031 5.1386719 17.957031 C 8.311672 18.181031 9.6757812 18.379156 9.6757812 19.160156 C 9.6757812 19.896156 8.5565157 20.478516 6.4785156 20.478516 C 4.2895156 20.478516 2.8582032 20.052422 1.4082031 18.982422 L 0 22.419922 L 0.35742188 22.552734 C 0.60342188 22.106734 0.84987505 21.972906 1.296875 22.128906 C 3.0848751 22.752906 4.5568748 22.998047 6.546875 22.998047 C 11.016875 22.998047 12.738281 21.326141 12.738281 19.119141 C 12.738281 16.686141 10.390843 15.770391 7.4648438 15.525391 C 4.4718437 15.279391 3.6874999 15.100641 3.6875 14.431641 C 3.6875 13.739641 5.0073281 13.517578 6.2363281 13.517578 C 7.8673282 13.517578 9.9442659 13.986844 11.197266 14.589844 L 12.560547 11.757812 L 12.224609 11.599609 C 11.999609 11.956609 11.70975 12.092547 11.21875 11.935547 C 9.7217501 11.400547 7.6440782 10.998047 6.0800781 10.998047 z M 96 11 L 96 11.410156 C 96.48 11.410156 96.8185 11.618469 96.9375 11.980469 L 100.54883 23 L 104.0918 23 L 106.92578 15.128906 L 109.94531 23 L 113.48828 23 L 116.45703 12.322266 C 116.59003 11.841266 117.07377 11.502156 117.75977 11.410156 L 117.75977 11 L 113.73828 11 L 111.58984 18.619141 L 108.61914 11 L 105.39648 11 L 102.47266 18.689453 L 99.933594 11 L 96 11 z M 13.9375 12.998047 L 13.9375 13.384766 C 14.4395 13.384766 14.714844 13.658203 14.714844 14.158203 L 14.714844 21.837891 C 14.714844 22.336891 14.438891 22.609375 13.962891 22.609375 L 13.962891 22.998047 L 18.515625 22.998047 L 18.515625 22.609375 C 18.037625 22.609375 17.763672 22.337891 17.763672 21.837891 L 17.763672 14.158203 C 17.763672 13.657203 18.036109 13.384766 18.537109 13.384766 L 18.537109 12.998047 L 13.9375 12.998047 z M 33.001953 12.998047 L 33.001953 13.384766 C 33.500953 13.384766 33.773438 13.658766 33.773438 14.134766 L 33.773438 22.996094 L 44.0625 22.996094 L 44.0625 20.226562 L 43.652344 20.226562 C 43.652344 20.725562 43.380345 21 42.902344 21 L 36.847656 21 L 36.847656 18.748047 L 42.400391 18.748047 L 42.400391 16.841797 L 36.845703 16.841797 L 36.845703 14.998047 L 42.539062 14.998047 C 43.017063 14.998047 43.289062 15.273483 43.289062 15.771484 L 43.699219 15.771484 L 43.699219 12.998047 L 33.001953 12.998047 z M 58.001953 12.998047 L 58.001953 13.384766 C 58.502953 13.384766 58.775391 13.658203 58.775391 14.158203 L 58.775391 21.837891 C 58.775391 22.336891 58.500437 22.609375 58.023438 22.609375 L 58.023438 22.998047 L 62.578125 22.998047 L 62.578125 22.609375 C 62.101125 22.609375 61.826172 22.337891 61.826172 21.837891 L 61.826172 14.158203 C 61.826172 13.657203 62.098609 13.384766 62.599609 13.384766 L 62.599609 12.998047 L 58.001953 12.998047 z M 67.533203 12.998047 L 67.533203 13.384766 C 68.195203 13.384766 67.823969 14.617125 67.667969 14.953125 L 64.320312 22.179688 C 64.192312 22.455687 63.888953 22.609375 63.501953 22.609375 L 63.501953 22.996094 L 66.849609 22.996094 L 67.783203 20.953125 L 72.310547 20.953125 L 73.246094 22.998047 L 76.865234 22.998047 L 76.865234 22.609375 C 76.433234 22.609375 76.089078 22.427859 75.955078 22.130859 L 71.808594 12.998047 L 67.533203 12.998047 z M 45.001953 13 L 45.001953 13.384766 C 45.429953 13.384766 45.775391 13.722344 45.775391 14.152344 L 45.775391 23 L 48.845703 23 L 48.845703 19.271484 L 50.78125 19.271484 L 53.355469 23 L 56.972656 23 L 56.972656 22.587891 C 56.586656 22.587891 56.297453 22.468813 56.064453 22.132812 L 53.855469 18.951172 C 55.289468 18.451172 56.314453 17.33761 56.314453 15.974609 C 56.314453 14.247609 54.674718 13 52.261719 13 L 45.001953 13 z M 184.12695 13 C 181.28895 13 178.98438 14.172031 178.98438 16.207031 C 178.98438 18.087031 180.82314 18.751687 182.61914 18.929688 C 185.50014 19.215688 186.23047 19.439594 186.23047 20.058594 C 186.23047 20.854594 184.9683 21.009766 183.9043 21.009766 C 182.6623 21.009766 181.66148 20.844109 180.64648 20.412109 C 180.15448 20.202109 179.93691 19.925859 180.00391 19.505859 L 179.62695 19.394531 L 178.82812 22.005859 C 180.66813 22.670859 182.48728 23 184.23828 23 C 186.85428 23 189.11523 22.071938 189.11523 19.835938 C 189.11523 17.229937 185.77995 17.04225 183.75195 16.78125 C 182.70895 16.64825 181.86523 16.496844 181.86523 15.964844 C 181.86523 15.235844 183.06214 14.990234 183.99414 14.990234 C 184.81514 14.990234 186.19092 15.140078 186.91992 15.455078 C 187.31892 15.627078 187.38344 15.965469 187.27344 16.230469 L 187.62891 16.40625 L 188.78125 13.951172 C 186.96425 13.287172 185.61095 13 184.12695 13 z M 196.01172 13 C 193.17372 13 190.86914 14.172031 190.86914 16.207031 C 190.86914 18.087031 192.71086 18.751687 194.50586 18.929688 C 197.38786 19.215688 198.11719 19.439594 198.11719 20.058594 C 198.11719 20.854594 196.85597 21.009766 195.79297 21.009766 C 194.55097 21.009766 193.5472 20.844109 192.5332 20.412109 C 192.0402 20.202109 191.82362 19.925859 191.89062 19.505859 L 191.51367 19.394531 L 190.71484 22.005859 C 192.55484 22.670859 194.37105 23 196.12305 23 C 198.73905 23 201.00195 22.071938 201.00195 19.835938 C 201.00195 17.229937 197.61772 17.03625 195.63672 16.78125 C 194.59472 16.64825 193.75 16.496844 193.75 15.964844 C 193.75 15.235844 194.94986 14.990234 195.88086 14.990234 C 196.70286 14.990234 198.07664 15.141078 198.80664 15.455078 C 199.20864 15.627078 199.27016 15.965469 199.16016 16.230469 L 199.51562 16.40625 L 200.66797 13.951172 C 198.84897 13.287172 197.49772 13 196.01172 13 z M 20.001953 13.001953 L 20.001953 13.386719 C 20.479953 13.386719 20.773438 13.683203 20.773438 14.158203 L 20.773438 22.998047 L 27.898438 22.998047 C 30.813437 22.998047 32.263047 22.044797 32.248047 20.091797 C 32.235047 18.267797 30.903859 17.800719 30.380859 17.636719 C 31.268859 17.272719 31.882812 16.498563 31.882812 15.476562 C 31.882812 13.885563 30.357516 13.001953 27.353516 13.001953 L 20.001953 13.001953 z M 77.5 13.001953 L 77.5 13.386719 C 78 13.386719 78.271484 13.662156 78.271484 14.160156 L 78.271484 22.998047 L 81.005859 22.998047 L 81.005859 16.931641 L 86.650391 22.998047 L 88.835938 22.998047 L 88.835938 14.160156 C 88.835938 13.662156 89.132375 13.386719 89.609375 13.386719 L 89.609375 13.001953 L 86.103516 13.001953 L 86.103516 18.160156 L 81.302734 13.001953 L 77.5 13.001953 z M 130 13.271484 L 130 13.650391 C 130.486 13.650391 130.75391 13.914391 130.75391 14.400391 L 130.75391 23 L 139.74414 23 L 139.74414 20.037109 L 139.36523 20.037109 C 139.36523 20.523109 139.09928 20.789062 138.61328 20.789062 L 133.74219 20.789062 L 133.74219 13.271484 L 130 13.271484 z M 141 13.271484 L 141 13.650391 C 141.486 13.650391 141.75391 13.914391 141.75391 14.400391 L 141.75391 23 L 150.74414 23 L 150.74414 20.037109 L 150.36523 20.037109 C 150.36523 20.523109 150.10128 20.789062 149.61328 20.789062 L 144.74219 20.789062 L 144.74219 13.271484 L 141 13.271484 z M 118 13.273438 L 118 13.650391 C 118.487 13.650391 118.75391 13.917859 118.75391 14.380859 L 118.75391 23 L 128.76172 23 L 128.76172 20.304688 L 128.36328 20.304688 C 128.36328 20.790686 128.09586 21.056641 127.63086 21.056641 L 121.74023 21.056641 L 121.74023 18.865234 L 127.14453 18.865234 L 127.14453 17.011719 L 121.74023 17.011719 L 121.74023 15.220703 L 127.27734 15.220703 C 127.74134 15.220703 128.00781 15.486656 128.00781 15.972656 L 128.40625 15.972656 L 128.40625 13.273438 L 118 13.273438 z M 165.5 13.273438 L 165.5 13.650391 C 165.987 13.650391 166.25391 13.917859 166.25391 14.380859 L 166.25391 23 L 176.26367 23 L 176.26367 20.304688 L 175.86328 20.304688 C 175.86328 20.790686 175.59781 21.056641 175.13281 21.056641 L 169.24219 21.056641 L 169.24219 18.865234 L 174.64648 18.865234 L 174.64648 17.011719 L 169.24219 17.011719 L 169.24219 15.220703 L 174.7793 15.220703 C 175.2433 15.220703 175.50977 15.486656 175.50977 15.972656 L 175.9082 15.972656 L 175.9082 13.273438 L 165.5 13.273438 z M 152 13.275391 L 152 13.652344 C 152.488 13.652344 152.75586 13.917344 152.75586 14.402344 L 152.75586 23 L 155.41016 23 L 155.41016 17.099609 L 160.90234 23 L 163.02734 23 L 163.02734 14.402344 C 163.02734 13.917344 163.3163 13.652344 163.7793 13.652344 L 163.7793 13.275391 L 160.36914 13.275391 L 160.36914 18.294922 L 155.69922 13.275391 L 152 13.275391 z M 23.824219 14.908203 L 26.990234 14.908203 C 28.402234 14.908203 28.947266 15.206 28.947266 16 C 28.947266 16.728 28.490313 17.044922 27.445312 17.044922 L 23.824219 17.044922 L 23.824219 14.908203 z M 48.845703 14.908203 L 51.396484 14.908203 C 52.579484 14.908203 53.126953 15.270328 53.126953 16.111328 C 53.126953 16.908328 52.513078 17.339844 51.330078 17.339844 L 48.845703 17.339844 L 48.845703 14.908203 z M 70.080078 16 L 71.582031 19.339844 L 68.53125 19.339844 L 70.080078 16 z M 23.824219 18.681641 L 27.216797 18.681641 C 28.583797 18.681641 29.105468 19.068359 29.105469 19.818359 C 29.105469 20.681359 28.400359 21.089844 27.193359 21.089844 L 23.824219 21.089844 L 23.824219 18.681641 z" />
        <path fill="#00b9f0" d="M 213.31055 0 L 218.23828 8.5351562 L 223.16602 0 L 220.85547 0 L 218.23828 4.5351562 L 215.61914 0 L 213.31055 0 z M 212.18945 0.98242188 L 211.03516 2.9824219 L 214.50586 9 L 216.81445 8.9980469 L 212.18945 0.98242188 z M 224.28125 0.98242188 L 221.4707 5.8652344 L 223.7793 5.8652344 L 225.43555 2.9824219 L 224.28125 0.98242188 z M 208.1543 7 L 207 9 L 213.19531 9 L 212.04297 7 L 208.1543 7 z M 220.81641 7 L 219.66016 9 L 229 9 L 227.8457 7 L 220.81641 7 z M 207 11 L 208.1543 13 L 215.81836 13 L 216.97266 11 L 207 11 z M 219.66016 11 L 224.28125 19 L 225.43555 17 L 221.9707 11 L 219.66016 11 z M 223.2793 11 L 224.43555 13 L 227.8457 13 L 229 11 L 223.2793 11 z M 218.35547 11.259766 L 213.31055 20 L 215.61914 20 L 219.50977 13.259766 L 218.35547 11.259766 z M 212.69531 14.134766 L 211.03516 17 L 212.18945 19 L 215.00586 14.134766 L 212.69531 14.134766 z M 220.04688 14.597656 L 218.89258 16.597656 L 220.85742 20 L 223.16602 20 L 220.04688 14.597656 z" />
    </g>
</svg>
