<svg xmlns="http://www.w3.org/2000/svg" width="217" height="40" viewBox="0 0 217 40">
  <path fill="#fff" d="M 51.460938 0 L 43.150391 7 L 41.837891 14 L 48.826172 14 L 51.460938 0 z M 139.13477 0 L 131.81836 40 L 138.90039 40 L 143.65625 14 L 163.95312 14 C 166.30515 14 167.43878 15.782484 167.05078 17.896484 L 163.00195 40 L 170.08594 40 L 173.90625 19.152344 C 175.05825 12.869344 170.72913 7 163.95312 7 L 144.93555 7 L 146.21875 0 L 139.13477 0 z M 139.96484 1 L 145.02344 1 L 143.74219 8 L 163.95312 8 C 169.95111 7.988 173.99478 13.138656 172.92578 18.972656 L 169.25586 39 L 164.19727 39 L 168.0293 18.076172 C 168.5483 15.245172 166.82512 13 163.95312 13 L 142.82812 13 L 138.07031 39 L 133.01172 39 L 139.96484 1 z M 16.927734 7 C 10.805744 6.989 5.1478281 11.903484 4.0488281 17.896484 L 0 40 L 7.0820312 40 L 9.4628906 27 L 30.675781 27 L 31.960938 20 L 10.742188 20 L 10.902344 19.152344 C 11.396344 16.457344 14.163734 14 16.927734 14 L 37.666016 14 L 38.945312 7 L 16.927734 7 z M 54.21875 7 L 52.925781 14 L 89.634766 14 L 90.876953 7 L 54.21875 7 z M 105.77539 7 C 101.04439 7 96.589734 9.914 94.302734 14 L 121.87891 14 C 124.28191 14 125.36317 15.762 124.95117 18 L 131.97852 18 C 132.45152 12.163 128.24891 7 121.87891 7 L 105.77539 7 z M 190.6582 7 C 184.5362 7 178.87634 11.903484 177.77734 17.896484 L 175.94531 27.884766 C 174.75531 34.379766 179.31744 40 185.89844 40 L 198.82812 40 L 200.10742 33 L 185.89648 33 C 183.53248 33 182.41578 31.244625 182.80078 29.140625 L 184.63086 19.152344 C 185.12486 16.457344 187.8942 14 190.6582 14 L 206.86133 14 C 209.21333 14 210.34894 15.782484 209.96094 17.896484 L 205.91211 40 L 212.99414 40 L 216.81445 19.152344 C 217.96645 12.869344 213.63733 7 206.86133 7 L 190.6582 7 z M 105.77539 8 L 121.87891 8 C 127.02191 8 130.96353 11.83 131.01953 17 L 126.03516 17 C 125.96216 13.011 121.96491 13 121.87891 13 L 96.146484 13 C 98.412484 10.024 101.99339 8 105.77539 8 z M 190.6582 8 L 206.86133 8 C 212.85833 8 216.90494 13.141609 215.83594 18.974609 L 212.16406 39 L 207.10742 39 L 210.93945 18.076172 C 211.45146 15.277172 209.76933 13 206.86133 13 L 190.6582 13 C 187.4152 13 184.23235 15.806656 183.65234 18.972656 L 181.82031 28.960938 C 181.30731 31.760938 182.98849 34 185.89648 34 L 198.91211 34 L 198 39 L 185.89844 39 C 179.90244 39 175.85478 33.9085 176.92578 28.0625 L 178.75586 18.076172 C 179.76886 12.550172 185.0112 8 190.6582 8 z M 40.710938 20 L 36.949219 40 L 43.939453 40 L 47.699219 20 L 40.710938 20 z M 66.671875 20 L 62.912109 40 L 69.904297 40 L 73.662109 20 L 66.671875 20 z M 92.505859 20 L 91.064453 27.882812 C 89.874453 34.377813 94.43564 40 101.01562 40 L 117.11914 40 C 123.34214 40 128.91548 35.077766 130.02148 29.009766 L 122.80273 29.009766 C 121.86373 31.218766 119.49015 33 117.11914 33 L 101.01562 33 C 98.65164 33 97.532969 31.243625 97.917969 29.140625 L 99.589844 20 L 92.505859 20 z M 93.333984 21 L 98.394531 21 L 96.939453 28.960938 C 96.426453 31.760938 98.10764 34 101.01562 34 L 117.11914 34 C 119.71214 34 122.20878 32.236 123.42578 30 L 128.76562 30 C 127.28664 35.055 122.45114 39 117.11914 39 L 101.01562 39 C 94.95064 39 90.982969 33.8465 92.042969 28.0625 L 93.333984 21 z" />
</svg>
