<svg xmlns="http://www.w3.org/2000/svg" width="124" height="40" viewBox="0 0 124 40">
    <g>
        <path fill="#fff" d="M 6.3417969 11 C 3.3027969 11 0.91015625 12.361125 0.91015625 14.703125 C 0.91015625 16.999125 3.1883906 17.802984 5.4003906 17.958984 C 8.5733906 18.182984 9.9375 18.381109 9.9375 19.162109 C 9.9375 19.898109 8.8182344 20.480469 6.7402344 20.480469 C 4.5512344 20.480469 3.1199219 20.054375 1.6699219 18.984375 L 0.26171875 22.421875 L 0.61914062 22.554688 C 0.86514062 22.108688 1.1115938 21.974859 1.5585938 22.130859 C 3.3465938 22.754859 4.8185937 23 6.8085938 23 C 11.278594 23 13 21.328094 13 19.121094 C 13 16.688094 10.652562 15.772344 7.7265625 15.527344 C 4.7335625 15.281344 3.9492187 15.102594 3.9492188 14.433594 C 3.9492188 13.741594 5.2690469 13.519531 6.4980469 13.519531 C 8.1290469 13.519531 10.205984 13.988797 11.458984 14.591797 L 12.822266 11.759766 L 12.486328 11.601562 C 12.261328 11.958562 11.971469 12.0945 11.480469 11.9375 C 9.9834688 11.4025 7.9057969 11 6.3417969 11 z M 14.199219 13 L 14.199219 13.386719 C 14.701219 13.386719 14.976562 13.660156 14.976562 14.160156 L 14.976562 21.839844 C 14.976562 22.338844 14.700609 22.611328 14.224609 22.611328 L 14.224609 23 L 18.777344 23 L 18.777344 22.611328 C 18.299344 22.611328 18.025391 22.339844 18.025391 21.839844 L 18.025391 14.160156 C 18.025391 13.659156 18.297828 13.386719 18.798828 13.386719 L 18.798828 13 L 14.199219 13 z M 33.263672 13 L 33.263672 13.386719 C 33.762672 13.386719 34.035156 13.660719 34.035156 14.136719 L 34.035156 22.998047 L 44.324219 22.998047 L 44.324219 20.228516 L 43.914062 20.228516 C 43.914062 20.727516 43.642063 21.001953 43.164062 21.001953 L 37.109375 21.001953 L 37.109375 18.75 L 42.662109 18.75 L 42.662109 16.84375 L 37.107422 16.84375 L 37.107422 15 L 42.800781 15 C 43.278781 15 43.550781 15.275437 43.550781 15.773438 L 43.960938 15.773438 L 43.960938 13 L 33.263672 13 z M 58.263672 13 L 58.263672 13.386719 C 58.764672 13.386719 59.037109 13.660156 59.037109 14.160156 L 59.037109 21.839844 C 59.037109 22.338844 58.762156 22.611328 58.285156 22.611328 L 58.285156 23 L 62.839844 23 L 62.839844 22.611328 C 62.362844 22.611328 62.087891 22.339844 62.087891 21.839844 L 62.087891 14.160156 C 62.087891 13.659156 62.360328 13.386719 62.861328 13.386719 L 62.861328 13 L 58.263672 13 z M 67.794922 13 L 67.794922 13.386719 C 68.456922 13.386719 68.085688 14.619078 67.929688 14.955078 L 64.582031 22.181641 C 64.454031 22.457641 64.150672 22.611328 63.763672 22.611328 L 63.763672 22.998047 L 67.111328 22.998047 L 68.044922 20.955078 L 72.572266 20.955078 L 73.507812 23 L 77.126953 23 L 77.126953 22.611328 C 76.694953 22.611328 76.350797 22.429812 76.216797 22.132812 L 72.070312 13 L 67.794922 13 z M 45.263672 13.001953 L 45.263672 13.386719 C 45.691672 13.386719 46.037109 13.724297 46.037109 14.154297 L 46.037109 23.001953 L 49.107422 23.001953 L 49.107422 19.273438 L 51.042969 19.273438 L 53.617188 23.001953 L 57.234375 23.001953 L 57.234375 22.589844 C 56.848375 22.589844 56.559172 22.470766 56.326172 22.134766 L 54.117188 18.953125 C 55.551187 18.453125 56.576172 17.339563 56.576172 15.976562 C 56.576172 14.249562 54.936437 13.001953 52.523438 13.001953 L 45.263672 13.001953 z M 20.263672 13.003906 L 20.263672 13.388672 C 20.741672 13.388672 21.035156 13.685156 21.035156 14.160156 L 21.035156 23 L 28.160156 23 C 31.075156 23 32.524766 22.04675 32.509766 20.09375 C 32.496766 18.26975 31.165578 17.802672 30.642578 17.638672 C 31.530578 17.274672 32.144531 16.500516 32.144531 15.478516 C 32.144531 13.887516 30.619234 13.003906 27.615234 13.003906 L 20.263672 13.003906 z M 77.761719 13.003906 L 77.761719 13.388672 C 78.261719 13.388672 78.533203 13.664109 78.533203 14.162109 L 78.533203 23 L 81.267578 23 L 81.267578 16.933594 L 86.912109 23 L 89.097656 23 L 89.097656 14.162109 C 89.097656 13.664109 89.394094 13.388672 89.871094 13.388672 L 89.871094 13.003906 L 86.365234 13.003906 L 86.365234 18.162109 L 81.564453 13.003906 L 77.761719 13.003906 z M 24.085938 14.910156 L 27.251953 14.910156 C 28.663953 14.910156 29.208984 15.207953 29.208984 16.001953 C 29.208984 16.729953 28.752031 17.046875 27.707031 17.046875 L 24.085938 17.046875 L 24.085938 14.910156 z M 49.107422 14.910156 L 51.658203 14.910156 C 52.841203 14.910156 53.388672 15.272281 53.388672 16.113281 C 53.388672 16.910281 52.774797 17.341797 51.591797 17.341797 L 49.107422 17.341797 L 49.107422 14.910156 z M 70.341797 16.001953 L 71.84375 19.341797 L 68.792969 19.341797 L 70.341797 16.001953 z M 24.085938 18.683594 L 27.478516 18.683594 C 28.845516 18.683594 29.367187 19.070312 29.367188 19.820312 C 29.367188 20.683312 28.662078 21.091797 27.455078 21.091797 L 24.085938 21.091797 L 24.085938 18.683594 z M 0 28 L 0 28.410156 C 0.48 28.410156 0.8185 28.618469 0.9375 28.980469 L 4.5488281 40 L 8.0917969 40 L 10.925781 32.128906 L 13.945312 40 L 17.488281 40 L 20.457031 29.322266 C 20.590031 28.841266 21.073766 28.502156 21.759766 28.410156 L 21.759766 28 L 17.738281 28 L 15.589844 35.619141 L 12.619141 28 L 9.3964844 28 L 6.4726562 35.689453 L 3.9335938 28 L 0 28 z M 88.126953 30 C 85.288953 30 82.984375 31.172031 82.984375 33.207031 C 82.984375 35.087031 84.823141 35.751687 86.619141 35.929688 C 89.500141 36.215688 90.230469 36.439594 90.230469 37.058594 C 90.230469 37.854594 88.968297 38.009766 87.904297 38.009766 C 86.662297 38.009766 85.661484 37.844109 84.646484 37.412109 C 84.154484 37.202109 83.936906 36.925859 84.003906 36.505859 L 83.626953 36.394531 L 82.828125 39.005859 C 84.668125 39.670859 86.487281 40 88.238281 40 C 90.854281 40 93.115234 39.071938 93.115234 36.835938 C 93.115234 34.229937 89.779953 34.04225 87.751953 33.78125 C 86.708953 33.64825 85.865234 33.496844 85.865234 32.964844 C 85.865234 32.235844 87.062141 31.990234 87.994141 31.990234 C 88.815141 31.990234 90.190922 32.140078 90.919922 32.455078 C 91.318922 32.627078 91.383438 32.965469 91.273438 33.230469 L 91.628906 33.40625 L 92.78125 30.951172 C 90.96425 30.287172 89.610953 30 88.126953 30 z M 100.01172 30 C 97.173719 30 94.869141 31.172031 94.869141 33.207031 C 94.869141 35.087031 96.710859 35.751687 98.505859 35.929688 C 101.38786 36.215688 102.11719 36.439594 102.11719 37.058594 C 102.11719 37.854594 100.85597 38.009766 99.792969 38.009766 C 98.550969 38.009766 97.547203 37.844109 96.533203 37.412109 C 96.040203 37.202109 95.823625 36.925859 95.890625 36.505859 L 95.513672 36.394531 L 94.714844 39.005859 C 96.554844 39.670859 98.371047 40 100.12305 40 C 102.73905 40 105.00195 39.071938 105.00195 36.835938 C 105.00195 34.229937 101.61772 34.03625 99.636719 33.78125 C 98.594719 33.64825 97.75 33.496844 97.75 32.964844 C 97.75 32.235844 98.949859 31.990234 99.880859 31.990234 C 100.70286 31.990234 102.07664 32.141078 102.80664 32.455078 C 103.20864 32.627078 103.27016 32.965469 103.16016 33.230469 L 103.51562 33.40625 L 104.66797 30.951172 C 102.84897 30.287172 101.49772 30 100.01172 30 z M 34 30.271484 L 34 30.650391 C 34.486 30.650391 34.753906 30.914391 34.753906 31.400391 L 34.753906 40 L 43.744141 40 L 43.744141 37.037109 L 43.365234 37.037109 C 43.365234 37.523109 43.099281 37.789062 42.613281 37.789062 L 37.742188 37.789062 L 37.742188 30.271484 L 34 30.271484 z M 45 30.271484 L 45 30.650391 C 45.486 30.650391 45.753906 30.914391 45.753906 31.400391 L 45.753906 40 L 54.744141 40 L 54.744141 37.037109 L 54.365234 37.037109 C 54.365234 37.523109 54.101281 37.789062 53.613281 37.789062 L 48.742188 37.789062 L 48.742188 30.271484 L 45 30.271484 z M 22 30.273438 L 22 30.650391 C 22.487 30.650391 22.753906 30.917859 22.753906 31.380859 L 22.753906 40 L 32.761719 40 L 32.761719 37.304688 L 32.363281 37.304688 C 32.363281 37.790687 32.095859 38.056641 31.630859 38.056641 L 25.740234 38.056641 L 25.740234 35.865234 L 31.144531 35.865234 L 31.144531 34.011719 L 25.740234 34.011719 L 25.740234 32.220703 L 31.277344 32.220703 C 31.741344 32.220703 32.007813 32.486656 32.007812 32.972656 L 32.40625 32.972656 L 32.40625 30.273438 L 22 30.273438 z M 69.5 30.273438 L 69.5 30.650391 C 69.987 30.650391 70.253906 30.917859 70.253906 31.380859 L 70.253906 40 L 80.263672 40 L 80.263672 37.304688 L 79.863281 37.304688 C 79.863281 37.790687 79.597812 38.056641 79.132812 38.056641 L 73.242188 38.056641 L 73.242188 35.865234 L 78.646484 35.865234 L 78.646484 34.011719 L 73.242188 34.011719 L 73.242188 32.220703 L 78.779297 32.220703 C 79.243297 32.220703 79.509766 32.486656 79.509766 32.972656 L 79.908203 32.972656 L 79.908203 30.273438 L 69.5 30.273438 z M 56 30.275391 L 56 30.652344 C 56.488 30.652344 56.755859 30.917344 56.755859 31.402344 L 56.755859 40 L 59.410156 40 L 59.410156 34.099609 L 64.902344 40 L 67.027344 40 L 67.027344 31.402344 C 67.027344 30.917344 67.316297 30.652344 67.779297 30.652344 L 67.779297 30.275391 L 64.369141 30.275391 L 64.369141 35.294922 L 59.699219 30.275391 L 56 30.275391 z" />
        <path fill="#00b9f0" d="M 108.31055 0 L 113.23828 8.5351562 L 118.16602 0 L 115.85547 0 L 113.23828 4.5351562 L 110.61914 0 L 108.31055 0 z M 107.18945 0.98242188 L 106.03516 2.9824219 L 109.50586 9 L 111.81445 8.9980469 L 107.18945 0.98242188 z M 119.28125 0.98242188 L 116.4707 5.8652344 L 118.7793 5.8652344 L 120.43555 2.9824219 L 119.28125 0.98242188 z M 103.1543 7 L 102 9 L 108.19531 9 L 107.04297 7 L 103.1543 7 z M 115.81641 7 L 114.66016 9 L 124 9 L 122.8457 7 L 115.81641 7 z M 102 11 L 103.1543 13 L 110.81836 13 L 111.97266 11 L 102 11 z M 114.66016 11 L 119.28125 19 L 120.43555 17 L 116.9707 11 L 114.66016 11 z M 118.2793 11 L 119.43555 13 L 122.8457 13 L 124 11 L 118.2793 11 z M 113.35547 11.259766 L 108.31055 20 L 110.61914 20 L 114.50977 13.259766 L 113.35547 11.259766 z M 107.69531 14.134766 L 106.03516 17 L 107.18945 19 L 110.00586 14.134766 L 107.69531 14.134766 z M 115.04688 14.597656 L 113.89258 16.597656 L 115.85742 20 L 118.16602 20 L 115.04688 14.597656 z" />
    </g>
</svg>
