<svg width="18" height="17" xmlns="http://www.w3.org/2000/svg"><path d="M17.7 15.39l-4.414-4.173c2.22-2.729 1.998-6.67-.665-9.165C11.166.676 9.29 0 7.392 0S3.62.676 2.164 2.052c-2.885 2.729-2.885 7.16 0 9.888 1.455 1.376 3.33 2.052 5.228 2.052 1.579 0 3.157-.467 4.464-1.423l4.44 4.151c.196.187.443.28.714.28.247 0 .518-.093.716-.28.37-.35.37-.956-.025-1.33zM7.418 12.104a5.576 5.576 0 0 1-3.823-1.493c-2.096-1.982-2.096-5.223 0-7.229C4.606 2.425 5.962 1.89 7.417 1.89s2.787.536 3.823 1.492a4.85 4.85 0 0 1 1.578 3.615c0 1.376-.567 2.635-1.578 3.614-1.012.98-2.393 1.493-3.823 1.493z" fill="#FFF" fill-rule="nonzero"/></svg>