<svg width="54" height="53" xmlns="http://www.w3.org/2000/svg"><g transform="translate(.166)" fill="none" fill-rule="evenodd"><rect stroke="#E8E8E8" x=".5" y=".5" width="52.266" height="52" rx="26"/><path d="M42.052 18.417c-1.067.478-1.967.494-2.922.02 1.232-.74 1.288-1.259 1.733-2.659a11.941 11.941 0 0 1-3.785 1.456 5.94 5.94 0 0 0-4.35-1.892c-3.292 0-5.96 2.682-5.96 5.986 0 .47.053.927.154 1.364-4.954-.249-9.345-2.633-12.284-6.255a5.99 5.99 0 0 0-.808 3.011 5.99 5.99 0 0 0 2.652 4.982 5.928 5.928 0 0 1-2.699-.748l-.001.075c0 2.9 2.055 5.319 4.782 5.87a5.957 5.957 0 0 1-2.693.102c.76 2.378 2.96 4.109 5.568 4.157a11.943 11.943 0 0 1-8.823 2.478 16.817 16.817 0 0 0 9.135 2.689c10.963 0 16.956-9.121 16.956-17.031 0-.26-.004-.516-.016-.775 1.163-.843 2.563-1.63 3.361-2.83" fill="#00B9F0"/></g></svg>