<svg width="54" height="53" xmlns="http://www.w3.org/2000/svg"><g transform="translate(.45)" fill="none" fill-rule="evenodd"><rect stroke="#E8E8E8" x=".5" y=".5" width="52.266" height="52" rx="26"/><path d="M38.982 13.549l-5.191 24.845a.832.832 0 0 1-1.301.5l-7.087-5.12a1.176 1.176 0 0 0-1.429.04l-3.929 3.187a.831.831 0 0 1-1.317-.394l-2.729-8.73-7.048-2.618c-.716-.267-.722-1.272-.008-1.546L37.87 12.61a.83.83 0 0 1 1.112.94zm-6.919 4.493l-13.775 8.441a1.377 1.377 0 0 0-.606 1.553l1.49 5.207c.105.37.643.331.695-.05l.387-2.855c.073-.538.33-1.033.73-1.403L32.353 18.42c.213-.196-.042-.53-.29-.378z" fill="#00B9F0" fill-rule="nonzero"/></g></svg>