<svg width="54" height="53" xmlns="http://www.w3.org/2000/svg"><g fill="none" fill-rule="evenodd"><rect stroke="#E8E8E8" x=".5" y=".5" width="52.266" height="52" rx="26"/><path d="M39.368 29.346c-1.772-1.63-1.772-1.63-.035-3.858.313-.404.675-.868 1.082-1.405 2.698-3.566 2.81-4.744 2.565-5.427-.156-.426-.61-.937-1.898-.937 0 0 .259.016-5.268.042a1.67 1.67 0 0 0-.835.21c-.414.248-.645.712-.706.848-.849 2.244-3.181 6.394-4.1 6.792-.364-.417-.253-2.097-.177-3.229.148-2.232.317-4.761-1.594-5.217-1.348-.325-5.285-.413-6.605.232-.539.262-1.252.911-1.15 1.532l.158.564.505.065c.332.04.75.175.934.423.465.675.565 5.08.104 5.668-.856-.09-3.18-4.175-4.185-6.698-.036-.087-.233-.535-.622-.818-.41-.3-.917-.397-1.135-.424l-4.516.029c-.23.007-1.016.066-1.428.554-.456.535-.193 1.32-.12 1.507.146.327 3.618 8.06 7.644 12.219 3.44 3.552 6.851 3.452 9.38 3.475 1.724 0 1.943-.079 2.171-.325.474-.505.511-1.232.543-1.875.048-.972.131-1.295.563-1.43.334 0 1.167.956 1.664 1.528.615.707 1.252 1.436 1.95 1.912.998.68 1.856.782 2.278.782 0 0-.22-.008 4.452-.064.145-.008 1.433-.11 1.913-1.015.195-.369.317-.99-.226-1.885-.682-1.234-2.135-2.698-3.306-3.775z" fill="#00B9F0"/></g></svg>