<svg xmlns="http://www.w3.org/2000/svg" xmlns:xlink="http://www.w3.org/1999/xlink">
    <defs>

        <symbol id="fitcha-logo" viewBox="0 0 310 58">
            <g stroke-width="2">
                <g>
                    <path d="M 58,12 H 26.103 C 17.304,12 9.93,18.174 8.383,26.836 L 2.997,57 h 9 l 3.214,-18 h 30.184 l 1.607,-9 H 16.818 l 0.135,-0.758 C 17.813,24.43 21.91,21 26.798,21 h 29.595 z"/>
                    <path d="m 58,57 h 9 l 4.822,-27 h -9 z M 73.429,21 76.643,3 66.036,12 64.429,21 Z"/>
                    <path d="M 131.608,12 H 83 L 81.393,20.999 130,21 Z M 98.822,30 94,57 h 9 l 4.822,-27 z"/>
                </g>
                <g fill="none" stroke-linecap="round" stroke-linejoin="round">
                    <path d="m 134.826,30 -2.302,12.891 C 131.203,50.288 136.823,57 144.337,57 h 24.601 c 8.798,0 16.172,-6.174 17.719,-14.835 L 186.687,42 h -9.271 c -1.55,3.602 -5.085,6.002 -9.174,6.002 h -20.464 c -3.757,0 -6.567,-3.356 -5.907,-7.054 L 143.826,30 Z m 54.539,-3 0.159,-0.891 C 190.845,18.712 185.225,12 177.711,12 h -24.6 c -6.655,0 -12.493,3.532 -15.613,9 h 36.772 c 3.396,0 6.018,2.742 6.003,6 z"/>
                    <path d="m 191,57 h 9 l 6.429,-36 h 25.836 c 3.757,0 6.567,3.356 5.907,7.055 L 233.003,57 h 9 l 5.516,-30.891 C 248.84,18.712 243.22,12 235.706,12 h -27.67 L 210,1 h -9 z"/>
                    <path d="m 294.015,57 h 9 l 5.517,-30.891 C 309.853,18.712 304.233,12 296.719,12 h -24.601 c -8.798,0 -16.172,6.174 -17.719,14.835 l -2.867,16.056 C 250.211,50.288 255.831,57 263.345,57 h 22.325 l 1.607,-8.998 h -20.492 c -3.757,0 -6.567,-3.356 -5.906,-7.054 l 2.09,-11.706 C 263.828,24.43 267.925,21 272.813,21 h 20.465 c 3.757,0 6.566,3.356 5.906,7.055 z"/>
                </g>
            </g>
        </symbol>

        <!-- <symbol id="sw-logo" viewBox="0 0 107 35">
            <path fill="#fff" d="M6.498 13.488c2.511.21 4.525.995 4.525 3.082 0 1.894-1.476 3.33-5.311 3.33-1.708 0-2.972-.212-4.506-.747-.384-.134-.594-.019-.806.364l-.306-.115 1.208-2.948c1.245.918 2.473 1.283 4.352 1.283 1.783 0 2.742-.498 2.742-1.129 0-.67-1.17-.842-3.893-1.034C2.605 15.44.65 14.75.65 12.78c0-2.01 2.052-3.178 4.66-3.178 1.342 0 3.126.345 4.41.804.422.135.67.02.863-.286l.287.134-1.168 2.43c-1.075-.517-2.858-.918-4.257-.918-1.055 0-2.187.19-2.187.784 0 .574.672.727 3.24.938M12.294 19.455c.402 0 .633-.229.633-.65v-6.462c0-.421-.231-.65-.652-.65v-.326h3.87v.326c-.422 0-.652.229-.652.65v6.462c0 .421.23.65.633.65v.326h-3.832v-.326zM27.692 17.333c0 1.644-1.206 2.447-3.659 2.447h-5.995v-7.438c0-.4-.25-.649-.652-.649v-.325h6.188c2.528 0 3.811.745 3.811 2.084 0 .86-.517 1.51-1.264 1.816 1.034.325 1.57 1.014 1.57 2.065zm-7.088-2.562h3.046c.88 0 1.264-.268 1.264-.88 0-.668-.459-.918-1.647-.918h-2.663v1.798zm4.444 2.333c0-.631-.44-.957-1.59-.957h-2.854v2.027h2.835c1.016 0 1.609-.344 1.609-1.07zM38.12 17.448v2.332h-8.658v-7.456c0-.401-.23-.632-.65-.632v-.325h9.002V13.7h-.345c0-.42-.23-.65-.632-.65h-4.79V14.6h4.675v1.605h-4.674v1.894h5.096c.402 0 .631-.23.631-.65h.345zM49.374 19.436v.345h-3.046l-2.165-3.136h-1.628v3.136H39.95v-7.438a.645.645 0 0 0-.651-.65v-.326h6.11c2.031 0 3.41 1.052 3.41 2.505 0 1.147-.862 2.084-2.069 2.505l1.859 2.676c.191.287.44.383.766.383zm-6.839-4.417h2.089c.995 0 1.512-.362 1.512-1.032 0-.708-.46-1.013-1.455-1.013h-2.146v2.045zM50.412 19.455c.401 0 .632-.229.632-.65v-6.462c0-.421-.23-.65-.652-.65v-.326h3.87v.326c-.422 0-.651.229-.651.65v6.462c0 .421.23.65.632.65v.326h-3.831v-.326zM66.47 19.455v.326h-3.045l-.787-1.721h-3.81l-.786 1.72h-2.817v-.325c.326 0 .575-.134.69-.363l2.816-6.08a1.92 1.92 0 0 0 .21-.823c0-.324-.114-.496-.324-.496v-.326h3.6l3.487 7.686c.114.249.402.402.766.402zm-4.444-2.752l-1.264-2.81-1.304 2.81h2.568zM77.024 11.368v.325c-.402 0-.652.23-.652.65v7.437h-1.838l-4.75-5.105v5.105h-2.3v-7.437c0-.42-.23-.65-.65-.65v-.325h3.199l4.04 4.34v-4.34h2.95zM18.347 24.44v.344c-.576.077-.977.364-1.093.766l-2.492 8.956H11.79l-2.532-6.602-2.377 6.602H3.91L.88 25.263c-.095-.306-.383-.479-.786-.479v-.344h3.298l2.13 6.45 2.453-6.45h2.704l2.492 6.392 1.802-6.392h3.375zM28.35 32.17v2.332H19.69v-7.456c0-.401-.23-.632-.651-.632v-.325h9.003v2.333h-.345c0-.42-.23-.65-.631-.65h-4.79v1.549h4.674v1.605h-4.674v1.894h5.096c.402 0 .632-.23.632-.65h.345zM30.572 27.065c0-.421-.23-.65-.651-.65v-.326h3.237v6.502h4.214c.42 0 .652-.23.652-.65h.326v2.562h-7.778v-7.438zM40.188 27.065c0-.421-.23-.65-.651-.65v-.326h3.237v6.502h4.214c.422 0 .652-.23.652-.65h.326v2.562h-7.778v-7.438zM59.474 26.09v.325c-.401 0-.651.23-.651.65v7.437h-1.839l-4.75-5.105v5.105h-2.298v-7.437c0-.42-.23-.65-.652-.65v-.325h3.2l4.04 4.34v-4.34h2.95zM70.13 32.17v2.332h-8.66v-7.456c0-.401-.229-.632-.65-.632v-.325h9.003v2.333h-.345c0-.42-.23-.65-.631-.65h-4.79v1.549h4.674v1.605h-4.674v1.894h5.096c.402 0 .631-.23.631-.65h.345zM76.591 29.34c2.128.267 3.893.726 3.893 2.544 0 1.934-1.956 2.738-4.219 2.738-1.515 0-3.087-.287-4.679-.862l.69-2.258.327.096c-.058.363.134.592.556.784.882.364 1.744.516 2.818.516.92 0 2.013-.133 2.013-.822 0-.536-.632-.727-3.125-.976-1.554-.153-3.144-.728-3.144-2.355 0-1.76 1.993-2.774 4.448-2.774 1.284 0 2.454.248 4.026.823l-.996 2.124-.307-.152c.095-.23.037-.518-.307-.671-.633-.268-1.82-.402-2.531-.402-.806 0-1.841.211-1.841.842 0 .46.728.593 1.63.708l.748.096zM86.873 29.34c2.128.267 3.893.726 3.893 2.544 0 1.934-1.956 2.738-4.219 2.738-1.515 0-3.087-.287-4.679-.862l.691-2.258.326.096c-.058.363.134.592.556.784.882.364 1.745.516 2.819.516.92 0 2.012-.133 2.012-.822 0-.536-.632-.727-3.125-.976-1.553-.153-3.144-.728-3.144-2.355 0-1.76 1.993-2.774 4.448-2.774 1.285 0 2.454.248 4.027.823l-.997 2.124-.307-.152c.096-.23.039-.518-.307-.671-.633-.268-1.82-.402-2.531-.402-.805 0-1.841.211-1.841.842 0 .46.728.593 1.63.708l.748.096zM101.72 5.45l1.401-2.423-1.043-1.803-2.445 4.226zM97.874 8.49h8.407l-1.043-1.803h-6.32zM102.435 11.532h2.803l1.043-1.805h-4.89zM95.728 9.727H87.32l1.044 1.805h6.32zM91.167 6.687h-2.803L87.321 8.49h4.89zM96.8 10.346l-4.203 7.267h2.088l3.16-5.464zM91.882 12.768l-1.402 2.423 1.045 1.804 2.444-4.227zM95.728 8.49l-4.203-7.266-1.044 1.803 3.16 5.464zM97.516 15.19l1.402 2.423h2.086l-2.444-4.226zM97.874 9.727l4.204 7.268 1.043-1.804-3.16-5.464zM101.005.605h-2.087L96.8 4.265 94.684.604h-2.087L96.8 7.872z"/>
        </symbol> -->

        <symbol id="sw-logo" viewBox="0 0 124 40">
            <g>
                <path d="M 6.3417969 11 C 3.3027969 11 0.91015625 12.361125 0.91015625 14.703125 C 0.91015625 16.999125 3.1883906 17.802984 5.4003906 17.958984 C 8.5733906 18.182984 9.9375 18.381109 9.9375 19.162109 C 9.9375 19.898109 8.8182344 20.480469 6.7402344 20.480469 C 4.5512344 20.480469 3.1199219 20.054375 1.6699219 18.984375 L 0.26171875 22.421875 L 0.61914062 22.554688 C 0.86514062 22.108688 1.1115938 21.974859 1.5585938 22.130859 C 3.3465938 22.754859 4.8185937 23 6.8085938 23 C 11.278594 23 13 21.328094 13 19.121094 C 13 16.688094 10.652562 15.772344 7.7265625 15.527344 C 4.7335625 15.281344 3.9492187 15.102594 3.9492188 14.433594 C 3.9492188 13.741594 5.2690469 13.519531 6.4980469 13.519531 C 8.1290469 13.519531 10.205984 13.988797 11.458984 14.591797 L 12.822266 11.759766 L 12.486328 11.601562 C 12.261328 11.958562 11.971469 12.0945 11.480469 11.9375 C 9.9834688 11.4025 7.9057969 11 6.3417969 11 z M 14.199219 13 L 14.199219 13.386719 C 14.701219 13.386719 14.976562 13.660156 14.976562 14.160156 L 14.976562 21.839844 C 14.976562 22.338844 14.700609 22.611328 14.224609 22.611328 L 14.224609 23 L 18.777344 23 L 18.777344 22.611328 C 18.299344 22.611328 18.025391 22.339844 18.025391 21.839844 L 18.025391 14.160156 C 18.025391 13.659156 18.297828 13.386719 18.798828 13.386719 L 18.798828 13 L 14.199219 13 z M 33.263672 13 L 33.263672 13.386719 C 33.762672 13.386719 34.035156 13.660719 34.035156 14.136719 L 34.035156 22.998047 L 44.324219 22.998047 L 44.324219 20.228516 L 43.914062 20.228516 C 43.914062 20.727516 43.642063 21.001953 43.164062 21.001953 L 37.109375 21.001953 L 37.109375 18.75 L 42.662109 18.75 L 42.662109 16.84375 L 37.107422 16.84375 L 37.107422 15 L 42.800781 15 C 43.278781 15 43.550781 15.275437 43.550781 15.773438 L 43.960938 15.773438 L 43.960938 13 L 33.263672 13 z M 58.263672 13 L 58.263672 13.386719 C 58.764672 13.386719 59.037109 13.660156 59.037109 14.160156 L 59.037109 21.839844 C 59.037109 22.338844 58.762156 22.611328 58.285156 22.611328 L 58.285156 23 L 62.839844 23 L 62.839844 22.611328 C 62.362844 22.611328 62.087891 22.339844 62.087891 21.839844 L 62.087891 14.160156 C 62.087891 13.659156 62.360328 13.386719 62.861328 13.386719 L 62.861328 13 L 58.263672 13 z M 67.794922 13 L 67.794922 13.386719 C 68.456922 13.386719 68.085688 14.619078 67.929688 14.955078 L 64.582031 22.181641 C 64.454031 22.457641 64.150672 22.611328 63.763672 22.611328 L 63.763672 22.998047 L 67.111328 22.998047 L 68.044922 20.955078 L 72.572266 20.955078 L 73.507812 23 L 77.126953 23 L 77.126953 22.611328 C 76.694953 22.611328 76.350797 22.429812 76.216797 22.132812 L 72.070312 13 L 67.794922 13 z M 45.263672 13.001953 L 45.263672 13.386719 C 45.691672 13.386719 46.037109 13.724297 46.037109 14.154297 L 46.037109 23.001953 L 49.107422 23.001953 L 49.107422 19.273438 L 51.042969 19.273438 L 53.617188 23.001953 L 57.234375 23.001953 L 57.234375 22.589844 C 56.848375 22.589844 56.559172 22.470766 56.326172 22.134766 L 54.117188 18.953125 C 55.551187 18.453125 56.576172 17.339563 56.576172 15.976562 C 56.576172 14.249562 54.936437 13.001953 52.523438 13.001953 L 45.263672 13.001953 z M 20.263672 13.003906 L 20.263672 13.388672 C 20.741672 13.388672 21.035156 13.685156 21.035156 14.160156 L 21.035156 23 L 28.160156 23 C 31.075156 23 32.524766 22.04675 32.509766 20.09375 C 32.496766 18.26975 31.165578 17.802672 30.642578 17.638672 C 31.530578 17.274672 32.144531 16.500516 32.144531 15.478516 C 32.144531 13.887516 30.619234 13.003906 27.615234 13.003906 L 20.263672 13.003906 z M 77.761719 13.003906 L 77.761719 13.388672 C 78.261719 13.388672 78.533203 13.664109 78.533203 14.162109 L 78.533203 23 L 81.267578 23 L 81.267578 16.933594 L 86.912109 23 L 89.097656 23 L 89.097656 14.162109 C 89.097656 13.664109 89.394094 13.388672 89.871094 13.388672 L 89.871094 13.003906 L 86.365234 13.003906 L 86.365234 18.162109 L 81.564453 13.003906 L 77.761719 13.003906 z M 24.085938 14.910156 L 27.251953 14.910156 C 28.663953 14.910156 29.208984 15.207953 29.208984 16.001953 C 29.208984 16.729953 28.752031 17.046875 27.707031 17.046875 L 24.085938 17.046875 L 24.085938 14.910156 z M 49.107422 14.910156 L 51.658203 14.910156 C 52.841203 14.910156 53.388672 15.272281 53.388672 16.113281 C 53.388672 16.910281 52.774797 17.341797 51.591797 17.341797 L 49.107422 17.341797 L 49.107422 14.910156 z M 70.341797 16.001953 L 71.84375 19.341797 L 68.792969 19.341797 L 70.341797 16.001953 z M 24.085938 18.683594 L 27.478516 18.683594 C 28.845516 18.683594 29.367187 19.070312 29.367188 19.820312 C 29.367188 20.683312 28.662078 21.091797 27.455078 21.091797 L 24.085938 21.091797 L 24.085938 18.683594 z M 0 28 L 0 28.410156 C 0.48 28.410156 0.8185 28.618469 0.9375 28.980469 L 4.5488281 40 L 8.0917969 40 L 10.925781 32.128906 L 13.945312 40 L 17.488281 40 L 20.457031 29.322266 C 20.590031 28.841266 21.073766 28.502156 21.759766 28.410156 L 21.759766 28 L 17.738281 28 L 15.589844 35.619141 L 12.619141 28 L 9.3964844 28 L 6.4726562 35.689453 L 3.9335938 28 L 0 28 z M 88.126953 30 C 85.288953 30 82.984375 31.172031 82.984375 33.207031 C 82.984375 35.087031 84.823141 35.751687 86.619141 35.929688 C 89.500141 36.215688 90.230469 36.439594 90.230469 37.058594 C 90.230469 37.854594 88.968297 38.009766 87.904297 38.009766 C 86.662297 38.009766 85.661484 37.844109 84.646484 37.412109 C 84.154484 37.202109 83.936906 36.925859 84.003906 36.505859 L 83.626953 36.394531 L 82.828125 39.005859 C 84.668125 39.670859 86.487281 40 88.238281 40 C 90.854281 40 93.115234 39.071938 93.115234 36.835938 C 93.115234 34.229937 89.779953 34.04225 87.751953 33.78125 C 86.708953 33.64825 85.865234 33.496844 85.865234 32.964844 C 85.865234 32.235844 87.062141 31.990234 87.994141 31.990234 C 88.815141 31.990234 90.190922 32.140078 90.919922 32.455078 C 91.318922 32.627078 91.383438 32.965469 91.273438 33.230469 L 91.628906 33.40625 L 92.78125 30.951172 C 90.96425 30.287172 89.610953 30 88.126953 30 z M 100.01172 30 C 97.173719 30 94.869141 31.172031 94.869141 33.207031 C 94.869141 35.087031 96.710859 35.751687 98.505859 35.929688 C 101.38786 36.215688 102.11719 36.439594 102.11719 37.058594 C 102.11719 37.854594 100.85597 38.009766 99.792969 38.009766 C 98.550969 38.009766 97.547203 37.844109 96.533203 37.412109 C 96.040203 37.202109 95.823625 36.925859 95.890625 36.505859 L 95.513672 36.394531 L 94.714844 39.005859 C 96.554844 39.670859 98.371047 40 100.12305 40 C 102.73905 40 105.00195 39.071938 105.00195 36.835938 C 105.00195 34.229937 101.61772 34.03625 99.636719 33.78125 C 98.594719 33.64825 97.75 33.496844 97.75 32.964844 C 97.75 32.235844 98.949859 31.990234 99.880859 31.990234 C 100.70286 31.990234 102.07664 32.141078 102.80664 32.455078 C 103.20864 32.627078 103.27016 32.965469 103.16016 33.230469 L 103.51562 33.40625 L 104.66797 30.951172 C 102.84897 30.287172 101.49772 30 100.01172 30 z M 34 30.271484 L 34 30.650391 C 34.486 30.650391 34.753906 30.914391 34.753906 31.400391 L 34.753906 40 L 43.744141 40 L 43.744141 37.037109 L 43.365234 37.037109 C 43.365234 37.523109 43.099281 37.789062 42.613281 37.789062 L 37.742188 37.789062 L 37.742188 30.271484 L 34 30.271484 z M 45 30.271484 L 45 30.650391 C 45.486 30.650391 45.753906 30.914391 45.753906 31.400391 L 45.753906 40 L 54.744141 40 L 54.744141 37.037109 L 54.365234 37.037109 C 54.365234 37.523109 54.101281 37.789062 53.613281 37.789062 L 48.742188 37.789062 L 48.742188 30.271484 L 45 30.271484 z M 22 30.273438 L 22 30.650391 C 22.487 30.650391 22.753906 30.917859 22.753906 31.380859 L 22.753906 40 L 32.761719 40 L 32.761719 37.304688 L 32.363281 37.304688 C 32.363281 37.790687 32.095859 38.056641 31.630859 38.056641 L 25.740234 38.056641 L 25.740234 35.865234 L 31.144531 35.865234 L 31.144531 34.011719 L 25.740234 34.011719 L 25.740234 32.220703 L 31.277344 32.220703 C 31.741344 32.220703 32.007813 32.486656 32.007812 32.972656 L 32.40625 32.972656 L 32.40625 30.273438 L 22 30.273438 z M 69.5 30.273438 L 69.5 30.650391 C 69.987 30.650391 70.253906 30.917859 70.253906 31.380859 L 70.253906 40 L 80.263672 40 L 80.263672 37.304688 L 79.863281 37.304688 C 79.863281 37.790687 79.597812 38.056641 79.132812 38.056641 L 73.242188 38.056641 L 73.242188 35.865234 L 78.646484 35.865234 L 78.646484 34.011719 L 73.242188 34.011719 L 73.242188 32.220703 L 78.779297 32.220703 C 79.243297 32.220703 79.509766 32.486656 79.509766 32.972656 L 79.908203 32.972656 L 79.908203 30.273438 L 69.5 30.273438 z M 56 30.275391 L 56 30.652344 C 56.488 30.652344 56.755859 30.917344 56.755859 31.402344 L 56.755859 40 L 59.410156 40 L 59.410156 34.099609 L 64.902344 40 L 67.027344 40 L 67.027344 31.402344 C 67.027344 30.917344 67.316297 30.652344 67.779297 30.652344 L 67.779297 30.275391 L 64.369141 30.275391 L 64.369141 35.294922 L 59.699219 30.275391 L 56 30.275391 z" />
                <path d="M 108.31055 0 L 113.23828 8.5351562 L 118.16602 0 L 115.85547 0 L 113.23828 4.5351562 L 110.61914 0 L 108.31055 0 z M 107.18945 0.98242188 L 106.03516 2.9824219 L 109.50586 9 L 111.81445 8.9980469 L 107.18945 0.98242188 z M 119.28125 0.98242188 L 116.4707 5.8652344 L 118.7793 5.8652344 L 120.43555 2.9824219 L 119.28125 0.98242188 z M 103.1543 7 L 102 9 L 108.19531 9 L 107.04297 7 L 103.1543 7 z M 115.81641 7 L 114.66016 9 L 124 9 L 122.8457 7 L 115.81641 7 z M 102 11 L 103.1543 13 L 110.81836 13 L 111.97266 11 L 102 11 z M 114.66016 11 L 119.28125 19 L 120.43555 17 L 116.9707 11 L 114.66016 11 z M 118.2793 11 L 119.43555 13 L 122.8457 13 L 124 11 L 118.2793 11 z M 113.35547 11.259766 L 108.31055 20 L 110.61914 20 L 114.50977 13.259766 L 113.35547 11.259766 z M 107.69531 14.134766 L 106.03516 17 L 107.18945 19 L 110.00586 14.134766 L 107.69531 14.134766 z M 115.04688 14.597656 L 113.89258 16.597656 L 115.85742 20 L 118.16602 20 L 115.04688 14.597656 z" />
            </g>
        </symbol>

        <symbol id="icon-chevron_down" viewBox="0 0 12 7">
            <polyline fill="none" stroke-width="2" stroke-linecap="round" stroke-linejoin="round" points="1,1 6,6 11,1" />
        </symbol>

        <symbol id="icon-search" viewBox="0 0 18 18">
            <g fill="none" stroke="#fff" stroke-width="2" stroke-linecap="round" stroke-linejoin="round">
                <circle r="6" cy="7" cx="7" />
                <line y2="12" x2="12" y1="17" x1="17" />
            </g>
        </symbol>

        <symbol id="icon-user" viewBox="0 0 16 16">
            <g>
                <circle r="4" cy="4" cx="8" />
                <path d="m 1,16 h 14 c 0.55,0 1,-0.45 1,-1 v -1 c 0,-2 -4,-4 -8,-4 -4,0 -8,2 -8,4 v 1 c 0,0.55 0.45,1 1,1 z" />
            </g>
        </symbol>

        <symbol id="icon-burger" viewBox="0 0 26 18">
            <g fill="none" stroke="#fff" stroke-width="2" stroke-linecap="round" stroke-linejoin="round">
                <line y2="1" x2="3" y1="1" x1="25" />
                <line y2="9" x2="2" y1="9" x1="24" />
                <line y2="17" x2="1" y1="17" x1="23" />
            </g>
        </symbol>

        <symbol id="icon-close" viewBox="0 0 18 18">
            <g fill="none" stroke="#fff" stroke-width="2" stroke-linecap="round" stroke-linejoin="round">
                <line y2="17" x2="17" y1="1" x1="1" />
                <line y2="17" x2="1" y1="1" x1="17" />
            </g>
        </symbol>

        <symbol id="icon-clock" viewBox="0 0 20 20">
            <g fill="none" stroke-width="2" stroke-linecap="round" stroke-linejoin="round">
                <circle r="9" cy="10" cx="10"/>
                <polyline points="10,5 10,11 14,13"/>
            </g>
        </symbol>

        <symbol id="icon-money" viewBox="0 0 32 24">
            <g fill="none" stroke-width="2" stroke-linecap="round" stroke-linejoin="round">
                <rect height="16" width="24" y="1" x="1"/>
                <circle r="4" cy="9" cx="13"/>
                <line y2="4" x2="20" y1="4" x1="22"/>
                <line y2="14" x2="6" y1="14" x1="4"/>
                <polyline points="28,4 28,20 4,20"/>
                <polyline points="31,7 31,23 7,23"/>
            </g>
        </symbol>

        <symbol id="icon-arrow-right" viewBox="0 0 22 16">
            <g fill="none" stroke-width="2" stroke-linecap="round" stroke-linejoin="round">
                <line y2="8" x2="21" y1="8" x1="1"/>
                <polyline points="14,1 21,8 14,15"/>
            </g>
        </symbol>

        <symbol id="icon-checklist-pen" viewBox="0 0 70 58">
            <g fill="none" stroke="#000" stroke-width="2" stroke-linecap="round" stroke-linejoin="round">
                <g>
                    <polygon fill="#fff" points="49,39 35,53 1,53 1,5 49,5"/>
                    <line y2="9" x2="10" y1="1" x1="10"/>
                    <line y2="9" x2="20" y1="1" x1="20"/>
                    <line y2="9" x2="30" y1="1" x1="30"/>
                    <line y2="9" x2="40" y1="1" x1="40"/>
                    <g>
                        <polyline points="9,21 12,24 18,18"/>
                        <line y2="21" x2="39" y1="21" x1="24"/>
                    </g>
                    <g>
                        <polyline points="9,33 12,36 18,30"/>
                        <line y2="33" x2="39" y1="33" x1="24"/>
                    </g>
                    <polyline points="35,53 35,39 49,39"/>
                </g>
                <g>
                    <rect fill="#fdf4b7" height="42" width="8" y="5" x="57"/>
                    <path d="M 69,26 V 11 C 69,8.8 67.2,7 65,7"/>
                    <line y2="20" x2="65" y1="20" x1="57"/>
                    <line y2="50" x2="64" y1="50" x1="58"/>
                    <line y2="53" x2="61" y1="57" x1="61"/>
                </g>
            </g>
        </symbol>

        <symbol id="icon-certificate" viewBox="0 0 60 60">
            <g fill="none" stroke="#000" stroke-width="2" stroke-linecap="round" stroke-linejoin="round">
                <g>
                    <rect fill="#fff" stroke-width="0" width="60" height="44" x="0" y="0" rx="1" ry="1"/>
                    <polyline points="59,24 59,1 1,1 1,43 30,43"/>
                    <path d="M 53,22 V 13 C 49.695,13 47,10.305 47,7 H 13 c 0,3.305 -2.695,6 -6,6 v 18 c 3.305,0 6,2.695 6,6 h 17"/>
                </g>
                <g fill="#fdf4b7">
                    <polygon points="54,59 54,39 38,39 38,59 46,52"/>
                    <path d="m 46,23.999 c 2.211,0 4.034,1.818 4,4.037 2.013,-1.006 4.299,-0.555 5.465,1.463 1.122,1.944 0.423,4.409 -1.529,5.501 1.952,1.091 2.651,3.556 1.529,5.5 -1.105,1.913 -3.551,2.569 -5.464,1.464 C 49.966,44.205 48.269,46 46,46 c -2.209,0 -4.034,-1.818 -3.999,-4.036 -1.913,1.105 -4.36,0.449 -5.464,-1.464 -1.123,-1.944 -0.424,-4.409 1.529,-5.5 -1.953,-1.092 -2.652,-3.557 -1.529,-5.501 1.104,-1.912 3.551,-2.568 5.464,-1.463 -0.035,-2.219 1.79,-4.037 3.999,-4.037 z"/>
                    <circle r="4" cy="35" cx="46"/>
                </g>
            </g>
        </symbol>

        <symbol id="icon-cup-stars" viewBox="0 0 105 52">
            <g fill="none" stroke="#000" stroke-width="2" stroke-linecap="round" stroke-linejoin="round">
                <g>
                    <path d="m 33.5,7 h -5 c 0,10 1,16 10,16"/>
                    <path fill="#fff" d="M 70.502,1 H 33.5 c 0,32 16,22 16,36 0,7 -6,9 -9,9 v 5 h 23.002 v -5 c -3,0 -9,-2 -9,-9 0,-14 16,-4 16,-36 z"/>
                    <path d="m 70.503,7 h 5 c 0,10 -1,16 -10,16"/>
                </g>
                <g fill="#fdf4b7">
                    <g stroke-width="1.5">
                        <polygon points="17.25,12.111 11.982,15.884 14.003,22 8.75,18.207 3.497,22 5.518,15.884 0.25,12.111 6.752,12.124 8.75,6 10.748,12.124 "/>
                        <polygon points="103.749,12.111 98.481,15.884 100.503,22 95.249,18.207 89.996,22 92.017,15.884 86.749,12.111 93.252,12.124 95.249,6 97.247,12.124 "/>
                    </g>
                    <polygon points="61.501,11.875 55.613,16.119 57.872,23 52.001,18.733 46.13,23 48.389,16.119 42.501,11.875 49.769,11.889 52.001,5 54.234,11.889 "/>
                </g>
            </g>
        </symbol>

    </defs>

</svg>
