<svg xmlns="http://www.w3.org/2000/svg" width="210" height="38" viewBox="0 0 210 38">
	<g fill="#fff">
		<path d="m 85.335,13.891 -1.608,0.252 c 0,1.578 1.384,2.564 2.867,2.564 1.474,0 2.865,-0.996 2.865,-2.564 l -1.592,-0.252 c -0.05,0.711 -0.573,1.14 -1.273,1.14 -0.683,0 -1.21,-0.451 -1.259,-1.14 z M 6.125,17.059 C 2.633,17.059 0,19.851 0,23.313 c 0,3.509 2.654,6.253 6.18,6.253 1.679,0 3.617,-0.627 4.514,-2.147 l -0.687,-1.995 c -0.868,1.195 -2.26,1.76 -3.704,1.76 -2.344,0 -4.058,-1.463 -4.058,-3.871 0,-2.359 1.689,-3.873 4.005,-3.873 1.388,0 2.817,0.568 3.673,1.693 L 10.61,19.189 C 9.746,17.692 7.764,17.059 6.125,17.059 Z m 142.267,0 c -1.224,0 -2.803,0.681 -3.415,1.794 l 0.487,1.945 c 0.73,-0.805 1.712,-1.357 2.816,-1.357 0.765,0 1.442,0.41 1.442,1.24 0,0.843 -0.654,1.275 -1.442,1.275 h -1.04 v 2.38 h 1.375 c 0.845,0 1.576,0.419 1.576,1.34 0,1.09 -0.952,1.508 -1.911,1.508 -1.284,0 -2.395,-0.459 -3.168,-1.508 l -0.536,1.927 c 0.631,1.336 2.316,1.963 3.704,1.963 2.236,0.001 4.107,-1.337 4.107,-3.706 0,-1.31 -0.444,-2.305 -1.609,-2.967 0.724,-0.593 1.157,-1.531 1.157,-2.464 0,-2.091 -1.512,-3.37 -3.543,-3.37 z M 15.798,17.294 11.052,29.331 h 2.364 l 0.974,-2.464 h 5.028 l 0.972,2.464 h 2.314 L 17.959,17.294 Z m 7.229,0 3.823,5.818 -4.056,6.219 h 2.683 l 2.732,-4.191 2.731,4.191 h 2.615 L 29.5,23.112 33.32,17.294 h -2.68 l -2.499,3.823 -2.498,-3.823 z m 15.362,0 -4.744,12.037 h 2.364 l 0.972,-2.464 h 5.03 l 0.972,2.464 h 2.314 L 40.552,17.294 Z m 8.171,0 v 12.037 h 2.196 v -4.543 h 1.274 c 2.219,0 3.905,-1.468 3.905,-3.739 0,-2.264 -1.71,-3.755 -3.921,-3.755 z m 8.959,0 v 12.037 h 2.195 v -4.995 h 5.599 v 4.995 h 2.196 V 17.294 h -2.196 v 4.662 h -5.599 v -4.662 z m 12.578,0 v 12.037 h 3.453 c 2.21,0 3.922,-1.491 3.922,-3.755 0,-2.271 -1.688,-3.739 -3.906,-3.739 h -1.273 v -4.543 z m 8.718,0 V 29.331 H 79.01 V 17.294 Z m 4.782,0 v 12.037 h 2.214 l 5.682,-8.114 v 8.114 h 2.196 V 17.294 h -2.196 l -5.701,8.165 v -8.165 z m 76.094,0 -4.743,12.037 h 2.363 l 0.972,-2.464 h 5.028 l 0.972,2.464 h 2.314 l -4.743,-12.037 z m 8.169,0 v 12.037 h 2.197 v -4.995 h 5.599 v 4.995 h 2.196 V 17.294 h -2.196 v 4.662 h -5.599 v -4.662 z m 11.522,0 3.671,8.165 -1.541,3.872 h 2.397 l 4.811,-12.037 h -2.397 l -2.163,5.415 -2.414,-5.415 z m 11.826,0 c 0,3.656 -0.37,6.415 -2.263,9.657 h -1.007 v 4.962 h 2.079 v -2.582 h 7.661 v 2.582 h 2.079 v -4.962 h -1.542 v -9.657 z m 13.886,0 -4.743,12.037 h 2.363 l 0.973,-2.464 h 5.027 l 0.972,2.464 h 2.315 L 205.257,17.294 Z M 48.756,19.658 h 1.592 c 0.811,0 1.391,0.582 1.391,1.391 0,0.816 -0.582,1.375 -1.391,1.375 h -1.592 z m 145.263,0.016 v 7.277 h -4.627 c 1.183,-2.24 1.729,-4.761 1.894,-7.276 z m -177.116,0.806 1.594,4.056 h -3.203 z m 22.593,0 1.592,4.056 h -3.2 z m 119.302,0 1.592,4.056 h -3.203 z m 45.403,0 1.592,4.056 h -3.202 z M 70.293,24.201 h 1.592 c 0.804,0 1.391,0.564 1.391,1.375 0,0.809 -0.58,1.391 -1.391,1.391 h -1.592 z" />
		<path d="m 108.564,7.201 c -0.529,-0.569 -1.27,-0.893 -2.045,-0.893 -1.074,0 -2.053,0.617 -2.518,1.587 -0.385,-0.201 -0.811,-0.307 -1.245,-0.31 -1.56,0.002 -2.827,1.286 -2.83,2.87 0.006,0.47 0.126,0.932 0.352,1.345 -0.612,0.413 -0.979,1.105 -0.979,1.846 0,1.097 0.791,2.039 1.886,2.196 v 0.031 c 0.004,1.051 0.638,1.991 1.602,2.372 -1.37,0.711 -2.232,2.131 -2.232,3.679 0,1.861 1.261,3.512 3.055,3.991 2.736,16.113 26.309,16.113 29.045,0 1.793,-0.479 3.055,-2.13 3.055,-3.991 0,-1.548 -0.862,-2.968 -2.232,-3.679 0.964,-0.381 1.598,-1.321 1.602,-2.372 v -0.031 c 1.095,-0.157 1.886,-1.099 1.886,-2.196 0,-0.741 -0.368,-1.433 -0.979,-1.846 0.226,-0.413 0.346,-0.875 0.351,-1.345 -0.002,-1.584 -1.268,-2.868 -2.83,-2.87 -0.433,0.003 -0.86,0.109 -1.244,0.31 -0.465,-0.97 -1.444,-1.587 -2.517,-1.587 -0.776,0 -1.518,0.324 -2.046,0.893 -5.769,-9.602 -13.368,-9.602 -19.137,0 z m 8.109,25.757 c -0.637,0.523 -1.434,-0.444 -0.804,-0.987 1.332,-1.055 3.195,-1.055 4.527,0 0.63,0.543 -0.167,1.51 -0.804,0.987 -0.874,-0.652 -2.045,-0.652 -2.919,0 z m -3.91,-2.607 c 0.075,0.163 0.162,0.321 0.258,0.472 0.274,0.414 -0.014,0.983 -0.522,0.988 -0.211,-0.002 -0.407,-0.11 -0.522,-0.288 -1.219,-1.855 -0.484,-3.416 0.076,-3.991 0.117,-0.12 0.262,-0.189 0.447,-0.189 0.185,0 0.412,0.116 0.523,0.284 0.166,0.253 0.132,0.589 -0.078,0.805 -0.147,0.174 -0.254,0.379 -0.313,0.599 3.354,-1.393 7.647,-1.393 11.001,0 -0.059,-0.22 -0.166,-0.425 -0.313,-0.599 -0.211,-0.216 -0.245,-0.552 -0.078,-0.805 0.111,-0.168 0.339,-0.284 0.523,-0.284 0.185,0 0.33,0.069 0.447,0.189 0.56,0.575 1.295,2.136 0.076,3.991 -0.114,0.178 -0.311,0.286 -0.522,0.288 -0.508,-0.005 -0.795,-0.574 -0.522,-0.988 0.097,-0.151 0.182,-0.309 0.258,-0.472 -3.247,-1.453 -7.492,-1.453 -10.739,0 z m 4.044,-10.712 c 0.062,0.334 0.094,0.674 0.094,1.014 -0.003,2.965 -2.42,5.42 -5.315,5.42 -2.992,0 -5.371,-2.429 -5.373,-5.42 0,-0.54 0.078,-1.077 0.233,-1.592 h -1.238 c 0.082,-0.416 0.182,-0.843 0.295,-1.275 h 1.52 c 0.967,-1.582 2.689,-2.551 4.537,-2.551 2.071,0 3.963,1.226 4.831,3.111 1.051,-0.741 2.432,-0.741 3.483,0 0.868,-1.885 2.761,-3.111 4.831,-3.111 1.848,0 3.57,0.969 4.537,2.551 h 1.52 c 0.113,0.432 0.213,0.859 0.295,1.275 h -1.238 c 0.155,0.515 0.233,1.052 0.233,1.592 -0.002,2.991 -2.381,5.42 -5.373,5.42 -2.895,0 -5.312,-2.455 -5.315,-5.42 0,-0.34 0.032,-0.68 0.095,-1.014 -0.73,-0.762 -1.923,-0.762 -2.652,0 z M 129.744,7.585 c -0.563,0 -1.082,0.304 -1.358,0.796 1.482,2.514 2.701,5.717 3.445,8.518 0.212,0.16 0.47,0.247 0.736,0.248 0.696,-0.006 1.257,-0.573 1.257,-1.271 0,-0.49 -0.294,-0.97 -0.749,-1.163 -0.685,-0.221 -0.53,-1.222 0.19,-1.243 0.535,-0.007 1.22,0.686 1.463,1.119 0.541,0.033 0.982,-0.412 0.982,-0.948 0,-0.503 -0.336,-0.834 -0.792,-0.944 -0.474,-0.115 -0.676,-0.756 -0.327,-1.096 0.349,-0.342 0.491,-0.713 0.489,-1.148 0,-0.88 -0.704,-1.593 -1.572,-1.593 -0.341,0.001 -0.672,0.117 -0.941,0.33 -0.003,0.736 -0.284,1.441 -0.786,1.971 -0.118,0.127 -0.284,0.2 -0.457,0.2 -0.286,0 -0.535,-0.194 -0.607,-0.471 -0.061,-0.22 -0.001,-0.457 0.158,-0.622 0.278,-0.287 0.434,-0.671 0.434,-1.071 0,-0.88 -0.671,-1.612 -1.565,-1.612 z m -0.95,13.054 c 0,2.279 -1.796,4.159 -4.084,4.159 -2.257,0 -4.087,-1.855 -4.087,-4.145 0,-2.255 1.812,-4.142 4.075,-4.142 2.276,0 4.096,1.875 4.096,4.128 z m 3.571,-1.464 c 0.343,1.701 0.586,3.598 0.452,5.336 0.999,-0.472 1.635,-1.479 1.635,-2.587 0,-1.05 -0.927,-2.582 -2.087,-2.749 z m -7.971,0.522 c -0.347,0 -0.628,0.286 -0.628,0.638 v 1.275 c 0,0.351 0.277,0.637 0.628,0.639 0.348,-0.002 0.628,-0.286 0.628,-0.634 v -1.28 c 0,-0.352 -0.281,-0.638 -0.628,-0.638 z M 106.521,7.585 c 0.562,0 1.082,0.304 1.357,0.796 -1.481,2.514 -2.7,5.717 -3.443,8.518 -0.213,0.16 -0.471,0.247 -0.737,0.248 -0.696,-0.006 -1.257,-0.573 -1.257,-1.271 0,-0.49 0.294,-0.97 0.749,-1.163 0.685,-0.221 0.529,-1.222 -0.19,-1.243 -0.535,-0.007 -1.219,0.686 -1.463,1.119 -0.541,0.033 -0.982,-0.412 -0.982,-0.948 0,-0.503 0.336,-0.834 0.792,-0.944 0.474,-0.115 0.677,-0.756 0.327,-1.096 -0.35,-0.342 -0.491,-0.713 -0.489,-1.148 0,-0.88 0.704,-1.593 1.571,-1.593 0.342,0.001 0.672,0.117 0.942,0.33 0.003,0.736 0.284,1.441 0.786,1.971 0.118,0.127 0.284,0.2 0.457,0.2 0.285,0 0.535,-0.194 0.607,-0.471 0.061,-0.22 0.001,-0.457 -0.158,-0.622 -0.278,-0.287 -0.434,-0.671 -0.434,-1.071 0,-0.88 0.671,-1.612 1.565,-1.612 z m 0.95,13.054 c 0,2.279 1.796,4.159 4.085,4.159 2.256,0 4.086,-1.855 4.086,-4.145 0,-2.255 -1.812,-4.142 -4.075,-4.142 -2.276,0 -4.096,1.875 -4.096,4.128 z m -3.57,-1.464 c -0.344,1.701 -0.587,3.598 -0.453,5.336 -1,-0.472 -1.635,-1.479 -1.635,-2.587 0,-1.05 0.928,-2.582 2.088,-2.749 z m 7.97,0.522 c 0.346,0 0.628,0.286 0.628,0.638 v 1.275 c 0,0.351 -0.277,0.637 -0.628,0.639 -0.348,-0.002 -0.628,-0.286 -0.628,-0.634 v -1.28 c 0,-0.352 0.281,-0.638 0.628,-0.638 z" />
	</g>
</svg>