<svg width="107" height="35" xmlns="http://www.w3.org/2000/svg"><g fill="#FFF" fill-rule="evenodd"><path d="M6.498 13.488c2.511.21 4.525.995 4.525 3.082 0 1.894-1.476 3.33-5.311 3.33-1.708 0-2.972-.212-4.506-.747-.384-.134-.594-.019-.806.364l-.306-.115 1.208-2.948c1.245.918 2.473 1.283 4.352 1.283 1.783 0 2.742-.498 2.742-1.129 0-.67-1.17-.842-3.893-1.034C2.605 15.44.65 14.75.65 12.78c0-2.01 2.052-3.178 4.66-3.178 1.342 0 3.126.345 4.41.804.422.135.67.02.863-.286l.287.134-1.168 2.43c-1.075-.517-2.858-.918-4.257-.918-1.055 0-2.187.19-2.187.784 0 .574.672.727 3.24.938M12.294 19.455c.402 0 .633-.229.633-.65v-6.462c0-.421-.231-.65-.652-.65v-.326h3.87v.326c-.422 0-.652.229-.652.65v6.462c0 .421.23.65.633.65v.326h-3.832v-.326zM27.692 17.333c0 1.644-1.206 2.447-3.659 2.447h-5.995v-7.438c0-.4-.25-.649-.652-.649v-.325h6.188c2.528 0 3.811.745 3.811 2.084 0 .86-.517 1.51-1.264 1.816 1.034.325 1.57 1.014 1.57 2.065zm-7.088-2.562h3.046c.88 0 1.264-.268 1.264-.88 0-.668-.459-.918-1.647-.918h-2.663v1.798zm4.444 2.333c0-.631-.44-.957-1.59-.957h-2.854v2.027h2.835c1.016 0 1.609-.344 1.609-1.07zM38.12 17.448v2.332h-8.658v-7.456c0-.401-.23-.632-.65-.632v-.325h9.002V13.7h-.345c0-.42-.23-.65-.632-.65h-4.79V14.6h4.675v1.605h-4.674v1.894h5.096c.402 0 .631-.23.631-.65h.345zM49.374 19.436v.345h-3.046l-2.165-3.136h-1.628v3.136H39.95v-7.438a.645.645 0 0 0-.651-.65v-.326h6.11c2.031 0 3.41 1.052 3.41 2.505 0 1.147-.862 2.084-2.069 2.505l1.859 2.676c.191.287.44.383.766.383zm-6.839-4.417h2.089c.995 0 1.512-.362 1.512-1.032 0-.708-.46-1.013-1.455-1.013h-2.146v2.045zM50.412 19.455c.401 0 .632-.229.632-.65v-6.462c0-.421-.23-.65-.652-.65v-.326h3.87v.326c-.422 0-.651.229-.651.65v6.462c0 .421.23.65.632.65v.326h-3.831v-.326zM66.47 19.455v.326h-3.045l-.787-1.721h-3.81l-.786 1.72h-2.817v-.325c.326 0 .575-.134.69-.363l2.816-6.08a1.92 1.92 0 0 0 .21-.823c0-.324-.114-.496-.324-.496v-.326h3.6l3.487 7.686c.114.249.402.402.766.402zm-4.444-2.752l-1.264-2.81-1.304 2.81h2.568zM77.024 11.368v.325c-.402 0-.652.23-.652.65v7.437h-1.838l-4.75-5.105v5.105h-2.3v-7.437c0-.42-.23-.65-.65-.65v-.325h3.199l4.04 4.34v-4.34h2.95zM18.347 24.44v.344c-.576.077-.977.364-1.093.766l-2.492 8.956H11.79l-2.532-6.602-2.377 6.602H3.91L.88 25.263c-.095-.306-.383-.479-.786-.479v-.344h3.298l2.13 6.45 2.453-6.45h2.704l2.492 6.392 1.802-6.392h3.375zM28.35 32.17v2.332H19.69v-7.456c0-.401-.23-.632-.651-.632v-.325h9.003v2.333h-.345c0-.42-.23-.65-.631-.65h-4.79v1.549h4.674v1.605h-4.674v1.894h5.096c.402 0 .632-.23.632-.65h.345zM30.572 27.065c0-.421-.23-.65-.651-.65v-.326h3.237v6.502h4.214c.42 0 .652-.23.652-.65h.326v2.562h-7.778v-7.438zM40.188 27.065c0-.421-.23-.65-.651-.65v-.326h3.237v6.502h4.214c.422 0 .652-.23.652-.65h.326v2.562h-7.778v-7.438zM59.474 26.09v.325c-.401 0-.651.23-.651.65v7.437h-1.839l-4.75-5.105v5.105h-2.298v-7.437c0-.42-.23-.65-.652-.65v-.325h3.2l4.04 4.34v-4.34h2.95zM70.13 32.17v2.332h-8.66v-7.456c0-.401-.229-.632-.65-.632v-.325h9.003v2.333h-.345c0-.42-.23-.65-.631-.65h-4.79v1.549h4.674v1.605h-4.674v1.894h5.096c.402 0 .631-.23.631-.65h.345zM76.591 29.34c2.128.267 3.893.726 3.893 2.544 0 1.934-1.956 2.738-4.219 2.738-1.515 0-3.087-.287-4.679-.862l.69-2.258.327.096c-.058.363.134.592.556.784.882.364 1.744.516 2.818.516.92 0 2.013-.133 2.013-.822 0-.536-.632-.727-3.125-.976-1.554-.153-3.144-.728-3.144-2.355 0-1.76 1.993-2.774 4.448-2.774 1.284 0 2.454.248 4.026.823l-.996 2.124-.307-.152c.095-.23.037-.518-.307-.671-.633-.268-1.82-.402-2.531-.402-.806 0-1.841.211-1.841.842 0 .46.728.593 1.63.708l.748.096zM86.873 29.34c2.128.267 3.893.726 3.893 2.544 0 1.934-1.956 2.738-4.219 2.738-1.515 0-3.087-.287-4.679-.862l.691-2.258.326.096c-.058.363.134.592.556.784.882.364 1.745.516 2.819.516.92 0 2.012-.133 2.012-.822 0-.536-.632-.727-3.125-.976-1.553-.153-3.144-.728-3.144-2.355 0-1.76 1.993-2.774 4.448-2.774 1.285 0 2.454.248 4.027.823l-.997 2.124-.307-.152c.096-.23.039-.518-.307-.671-.633-.268-1.82-.402-2.531-.402-.805 0-1.841.211-1.841.842 0 .46.728.593 1.63.708l.748.096zM101.72 5.45l1.401-2.423-1.043-1.803-2.445 4.226zM97.874 8.49h8.407l-1.043-1.803h-6.32zM102.435 11.532h2.803l1.043-1.805h-4.89zM95.728 9.727H87.32l1.044 1.805h6.32zM91.167 6.687h-2.803L87.321 8.49h4.89zM96.8 10.346l-4.203 7.267h2.088l3.16-5.464zM91.882 12.768l-1.402 2.423 1.045 1.804 2.444-4.227zM95.728 8.49l-4.203-7.266-1.044 1.803 3.16 5.464zM97.516 15.19l1.402 2.423h2.086l-2.444-4.226zM97.874 9.727l4.204 7.268 1.043-1.804-3.16-5.464zM101.005.605h-2.087L96.8 4.265 94.684.604h-2.087L96.8 7.872z"/></g></svg>