<?xml version="1.0" encoding="UTF-8"?>
<svg width="201px" height="37px" viewBox="0 0 201 37" version="1.1" xmlns="http://www.w3.org/2000/svg" xmlns:xlink="http://www.w3.org/1999/xlink">
    <!-- Generator: Sketch 53.2 (72643) - https://sketchapp.com -->
    <title>rubr copy 2</title>
    <desc>Created with Sketch.</desc>
    <g id="Page-1" stroke="none" stroke-width="1" fill="none" fill-rule="evenodd">
        <g id="F-M-cards" transform="translate(-77.000000, -79.000000)" fill="#FFFFFF" fill-rule="nonzero">
            <g id="rubr-copy-2" transform="translate(77.000000, 79.000000)">
                <path d="M10.768,26.176 C10.5973325,26.4640014 10.3733347,26.7333321 10.096,26.984 C9.81866528,27.2346679 9.4933352,27.4533324 9.12,27.64 C8.7466648,27.8266676 8.3333356,27.9706662 7.88,28.072 C7.4266644,28.1733338 6.93866928,28.224 6.416,28.224 C5.64799616,28.224 4.90933688,28.0800014 4.2,27.792 C3.49066312,27.5039986 2.86666936,27.0986693 2.328,26.576 C1.78933064,26.0533307 1.3600016,25.4240037 1.04,24.688 C0.7199984,23.9519963 0.56,23.1413378 0.56,22.256 C0.56,21.3706622 0.7199984,20.5600037 1.04,19.824 C1.3600016,19.0879963 1.78933064,18.4586693 2.328,17.936 C2.86666936,17.4133307 3.49066312,17.0080014 4.2,16.72 C4.90933688,16.4319986 5.64799616,16.288 6.416,16.288 C6.92800256,16.288 7.40799776,16.3413328 7.856,16.448 C8.30400224,16.5546672 8.71199816,16.7013324 9.08,16.888 C9.44800184,17.0746676 9.76799864,17.2906654 10.04,17.536 C10.3120014,17.7813346 10.5279992,18.0426653 10.688,18.32 L10.032,20.176 C9.8719992,19.9626656 9.67733448,19.760001 9.448,19.568 C9.21866552,19.375999 8.95466816,19.2053341 8.656,19.056 C8.35733184,18.9066659 8.0346684,18.7866671 7.688,18.696 C7.3413316,18.6053329 6.97066864,18.56 6.576,18.56 C6.01066384,18.56 5.49066904,18.6453325 5.016,18.816 C4.54133096,18.9866675 4.13333504,19.2319984 3.792,19.552 C3.45066496,19.8720016 3.18400096,20.261331 2.992,20.72 C2.79999904,21.178669 2.704,21.6906638 2.704,22.256 C2.704,22.8213362 2.79999904,23.333331 2.992,23.792 C3.18400096,24.250669 3.45066496,24.6399984 3.792,24.96 C4.13333504,25.2800016 4.54133096,25.5253325 5.016,25.696 C5.49066904,25.8666675 6.01066384,25.952 6.576,25.952 C6.99200208,25.952 7.38133152,25.9066671 7.744,25.816 C8.10666848,25.7253329 8.43733184,25.6026674 8.736,25.448 C9.03466816,25.2933326 9.29866552,25.1146677 9.528,24.912 C9.75733448,24.7093323 9.9519992,24.4960011 10.112,24.272 L10.768,26.176 Z M22.23,28 L20.022,28 L19.094,25.648 L14.294,25.648 L13.366,28 L11.11,28 L15.638,16.512 L17.702,16.512 L22.23,28 Z M15.158,23.424 L18.214,23.424 L16.694,19.552 L15.158,23.424 Z M24.876,28 L22.316,28 L26.188,22.064 L22.54,16.512 L25.036,16.512 L27.42,20.16 L29.804,16.512 L32.364,16.512 L28.716,22.064 L32.588,28 L30.092,28 L27.484,24 L24.876,28 Z M43.794,28 L41.586,28 L40.658,25.648 L35.858,25.648 L34.93,28 L32.674,28 L37.202,16.512 L39.266,16.512 L43.794,28 Z M36.722,23.424 L39.778,23.424 L38.258,19.552 L36.722,23.424 Z M48.296,16.512 C48.829336,16.512 49.3226644,16.5973325 49.776,16.768 C50.2293356,16.9386675 50.6239983,17.1813318 50.96,17.496 C51.2960017,17.8106682 51.559999,18.1866645 51.752,18.624 C51.944001,19.0613355 52.04,19.5519973 52.04,20.096 C52.04,20.6186693 51.9493342,21.0986645 51.768,21.536 C51.5866658,21.9733355 51.3306683,22.3493318 51,22.664 C50.6693317,22.9786682 50.274669,23.2239991 49.816,23.4 C49.357331,23.5760009 48.8560027,23.664 48.312,23.664 L47.096,23.664 L47.096,28 L45,28 L45,16.512 L48.296,16.512 Z M47.096,18.768 L47.096,21.408 L48.616,21.408 C48.9893352,21.408 49.3039987,21.2880012 49.56,21.048 C49.8160013,20.8079988 49.944,20.4906686 49.944,20.096 C49.944,19.7226648 49.8213346,19.4080013 49.576,19.152 C49.3306654,18.8959987 49.0106686,18.768 48.616,18.768 L47.096,18.768 Z M53.55,16.512 L55.646,16.512 L55.646,20.96 L60.99,20.96 L60.99,16.512 L63.086,16.512 L63.086,28 L60.99,28 L60.99,23.232 L55.646,23.232 L55.646,28 L53.55,28 L53.55,16.512 Z M65.556,28 L65.556,16.512 L67.652,16.512 L67.652,20.848 L68.868,20.848 C69.4120027,20.848 69.913331,20.9359991 70.372,21.112 C70.830669,21.2880009 71.2253317,21.5333318 71.556,21.848 C71.8866683,22.1626682 72.1426658,22.5386645 72.324,22.976 C72.5053342,23.4133355 72.596,23.8933307 72.596,24.416 C72.596,24.9600027 72.500001,25.4506645 72.308,25.888 C72.115999,26.3253355 71.8520017,26.7013318 71.516,27.016 C71.1799983,27.3306682 70.7853356,27.5733325 70.332,27.744 C69.8786644,27.9146675 69.385336,28 68.852,28 L65.556,28 Z M69.172,25.744 C69.5666686,25.744 69.8866654,25.6160013 70.132,25.36 C70.3773346,25.1039987 70.5,24.7893352 70.5,24.416 C70.5,24.0213314 70.3720013,23.7040012 70.116,23.464 C69.8599987,23.2239988 69.5453352,23.104 69.172,23.104 L67.652,23.104 L67.652,25.744 L69.172,25.744 Z M73.876,16.512 L75.972,16.512 L75.972,28 L73.876,28 L73.876,16.512 Z M88.074,28 L85.978,28 L85.978,20.256 L80.554,28 L78.442,28 L78.442,16.512 L80.538,16.512 L80.538,24.304 L85.978,16.512 L88.074,16.512 L88.074,28 Z M85.946,13.504 C85.946,13.8560018 85.8740007,14.1839985 85.73,14.488 C85.5859993,14.7920015 85.3886679,15.0506656 85.138,15.264 C84.8873321,15.4773344 84.5966683,15.6453327 84.266,15.768 C83.9353317,15.8906673 83.5833352,15.952 83.21,15.952 C82.8366648,15.952 82.4820017,15.8906673 82.146,15.768 C81.8099983,15.6453327 81.5193346,15.4773344 81.274,15.264 C81.0286654,15.0506656 80.8340007,14.7920015 80.69,14.488 C80.5459993,14.1839985 80.474,13.8560018 80.474,13.504 L82.01,13.264 C82.0313334,13.5626682 82.1486656,13.8186656 82.362,14.032 C82.5753344,14.2453344 82.8579982,14.352 83.21,14.352 C83.5833352,14.352 83.873999,14.2453344 84.082,14.032 C84.290001,13.8186656 84.4046666,13.5626682 84.426,13.264 L85.946,13.504 Z M142.088,18.56 C141.575997,18.56 141.093336,18.6746655 140.64,18.904 C140.186664,19.1333345 139.773335,19.4506646 139.4,19.856 L138.936,18 C139.053334,17.7866656 139.218666,17.5786677 139.432,17.376 C139.645334,17.1733323 139.895999,16.9920008 140.184,16.832 C140.472001,16.6719992 140.786665,16.5413338 141.128,16.44 C141.469335,16.3386662 141.831998,16.288 142.216,16.288 C142.685336,16.288 143.122665,16.3599993 143.528,16.504 C143.933335,16.6480007 144.287998,16.8559986 144.592,17.128 C144.896002,17.4000014 145.135999,17.735998 145.312,18.136 C145.488001,18.536002 145.576,18.9919974 145.576,19.504 C145.576,20.0053358 145.466668,20.4613313 145.248,20.872 C145.029332,21.2826687 144.770668,21.6106654 144.472,21.856 C144.941336,22.122668 145.314665,22.4773311 145.592,22.92 C145.869335,23.3626689 146.008,23.9519963 146.008,24.688 C146.008,25.2320027 145.909334,25.7226645 145.712,26.16 C145.514666,26.5973355 145.240002,26.9679985 144.888,27.272 C144.535998,27.5760015 144.120002,27.8106658 143.64,27.976 C143.159998,28.1413342 142.642669,28.224 142.088,28.224 C141.607998,28.224 141.173335,28.1653339 140.784,28.048 C140.394665,27.9306661 140.050668,27.7813342 139.752,27.6 C139.453332,27.4186658 139.202668,27.2186678 139,27 C138.797332,26.7813322 138.648,26.5653344 138.552,26.352 L139.064,24.512 C139.394668,24.9600022 139.810664,25.3119987 140.312,25.568 C140.813336,25.8240013 141.40533,25.952 142.088,25.952 C142.653336,25.952 143.098665,25.8213346 143.424,25.56 C143.749335,25.2986654 143.912,24.9493355 143.912,24.512 C143.912,24.1386648 143.781335,23.8320012 143.52,23.592 C143.258665,23.3519988 142.888002,23.232 142.408,23.232 L141.096,23.232 L141.096,20.96 L142.088,20.96 C142.482669,20.96 142.810665,20.8533344 143.072,20.64 C143.333335,20.4266656 143.464,20.1280019 143.464,19.744 C143.464,19.3919982 143.338668,19.1066678 143.088,18.888 C142.837332,18.6693322 142.504002,18.56 142.088,18.56 Z M157.662,28 L155.454,28 L154.526,25.648 L149.726,25.648 L148.798,28 L146.542,28 L151.07,16.512 L153.134,16.512 L157.662,28 Z M150.59,23.424 L153.646,23.424 L152.126,19.552 L150.59,23.424 Z M158.868,16.512 L160.964,16.512 L160.964,20.96 L166.308,20.96 L166.308,16.512 L168.404,16.512 L168.404,28 L166.308,28 L166.308,23.232 L160.964,23.232 L160.964,28 L158.868,28 L158.868,16.512 Z M169.866,16.512 L172.122,16.512 L174.426,21.68 L176.49,16.512 L178.778,16.512 L174.186,28 L171.898,28 L173.37,24.304 L169.866,16.512 Z M187.84,25.728 L189.312,25.728 L189.312,30.464 L187.328,30.464 L187.328,28 L180.016,28 L180.016,30.464 L178.032,30.464 L178.032,25.728 L178.992,25.728 C179.685337,24.5439941 180.218665,23.2773401 180.592,21.928 C180.965335,20.5786599 181.152,19.0880082 181.152,17.456 L181.152,16.512 L187.84,16.512 L187.84,25.728 Z M185.744,25.728 L185.744,18.784 L183.136,18.784 C183.050666,20.042673 182.864001,21.2586608 182.576,22.432 C182.287999,23.6053392 181.872003,24.7039949 181.328,25.728 L185.744,25.728 Z M200.998,28 L198.79,28 L197.862,25.648 L193.062,25.648 L192.134,28 L189.878,28 L194.406,16.512 L196.47,16.512 L200.998,28 Z M193.926,23.424 L196.982,23.424 L195.462,19.552 L193.926,23.424 Z" id="САХАРНЫЙЗАНУДА"></path>
                <g id="noun_Glasses-professor-emoji_1131685" transform="translate(95.000000, 0.000000)">
                    <path d="M34.2,15.1639344 L34.2,15.1336066 C35.059655,15.0140392 35.7560675,14.3684983 35.9482645,13.5130493 C36.1404616,12.6576004 35.7882192,11.7712761 35.064,11.2880328 C35.2797715,10.8964014 35.395273,10.4564521 35.4,10.0081967 C35.4088799,9.06185621 34.927703,8.17969146 34.1313075,7.68224184 C33.334912,7.18479222 32.3392118,7.14446058 31.506,7.57590164 C31.1195006,6.78069422 30.3718881,6.22759201 29.5052218,6.09567635 C28.6385555,5.96376069 27.7629853,6.26979757 27.162,6.91469951 C27.1604065,6.91474619 27.1588636,6.9141314 27.1577301,6.91299815 C27.1565966,6.9118649 27.1559714,6.91031199 27.156,6.90870066 C26.898,6.49013967 26.616,6.05952033 26.31,5.62279902 C26.26803,5.56208262 26.226,5.50751672 26.19,5.45296295 L26.184,5.44689738 C26.1658699,5.40318349 26.1416223,5.3623291 26.112,5.3255859 C25.6558649,4.68850021 25.1609059,4.08076538 24.63,3.50591377 C20.808,-0.649058852 16.674,-1.1221918 12.744,2.1957377 C12.2757483,2.60007006 11.8291166,3.02931109 11.406,3.48163934 C10.9134022,4.01774284 10.4525978,4.58282768 10.026,5.17393443 C9.99547518,5.19995108 9.96915792,5.23062855 9.948,5.26485738 L9.684,5.62885246 C9.528,5.84721311 9.378,6.07163934 9.234,6.30213115 C9.108,6.49619918 8.976,6.69639344 8.844,6.91468738 C8.24073272,6.2697266 7.36355304,5.96384344 6.49524338,6.09564755 C5.62693372,6.22745167 4.87729747,6.78027558 4.488,7.57590164 C4.12056647,7.38393532 3.71358734,7.28211753 3.3,7.27868852 C1.80976283,7.28095991 0.602246825,8.50167281 0.6,10.0081967 C0.604726994,10.4564521 0.720228472,10.8964014 0.936,11.2880328 C0.211780823,11.7712761 -0.140461571,12.6576004 0.0517354691,13.5130493 C0.243932509,14.3684983 0.940345021,15.0140392 1.8,15.1336066 L1.8,15.1639344 C1.80362119,16.1622125 2.41027587,17.0568867 3.33,17.4203279 C2.0241587,18.0908609 1.20110078,19.445584 1.2,20.9262295 C1.19899838,20.9687788 1.20100348,21.011346 1.206,21.0536066 C1.20199319,21.0961379 1.20401357,21.1390296 1.212,21.1809836 C1.21275717,21.2827938 1.22279969,21.3843166 1.242,21.4842623 C1.47173575,23.04717 2.60321507,24.3199664 4.116,24.7172131 L4.116,24.7293443 C5.31980616,31.5147853 11.1809664,36.4388093 18,36.3934426 C24.817076,36.4391542 30.6774564,31.5183456 31.884,24.7354098 L31.884,24.7232787 C32.0912867,24.6689711 32.2939353,24.5979585 32.49,24.510923 C33.72238,23.9560451 34.5811979,22.7938693 34.758,21.4418033 C34.7742585,21.3536627 34.7842839,21.2644629 34.788,21.1748816 C34.7981366,21.0924168 34.8021478,21.0093002 34.8,20.9262295 C34.7991954,19.4421561 33.9703172,18.0854963 32.658,17.4203279 C33.5842945,17.0631672 34.1973088,16.1661494 34.2,15.1639344 Z M4.044,20.5380328 C3.96594799,21.1698598 3.92587442,21.8058909 3.924,22.442623 C3.924,22.7580328 3.936,23.0734426 3.96,23.3827869 C3.14172153,22.9993987 2.56744239,22.2275697 2.43,21.3264725 C2.424,21.2598361 2.412,21.1930298 2.406,21.1263085 C2.40101088,21.0901542 2.39900396,21.053643 2.4,21.0171525 L2.4,20.9262295 C2.40294767,19.6984034 3.21912621,18.6247638 4.392,18.3058592 C4.236,19.0883607 4.116,19.8404918 4.044,20.5380328 Z M5.55,13.9993443 C5.472,14.2419672 5.394,14.4785246 5.322,14.7090164 C5.172,15.1881967 5.028,15.667377 4.902,16.1404918 C4.69886319,16.2928547 4.45293891,16.3757254 4.2,16.3770492 C3.53806662,16.3750805 3.00194739,15.8331021 3,15.1639344 C2.99983874,15.0187492 3.02628498,14.8747901 3.078,14.7393443 C3.08912737,14.7176169 3.09914063,14.6953247 3.108,14.6725562 C3.2226954,14.3958992 3.44033383,14.1758822 3.714,14.0599333 C3.966274,13.9803161 4.13857165,13.7448042 4.14,13.4776382 C4.12523911,13.1476957 3.8606055,12.8854674 3.534,12.8771464 C3.4603035,12.8743916 3.38682052,12.886785 3.318,12.9135762 C2.81871968,13.1101459 2.40141923,13.4741885 2.136,13.9447238 C1.89071135,13.9602185 1.6501671,13.8714493 1.47243903,13.6998467 C1.29471096,13.5282442 1.19595042,13.2894029 1.2,13.0409836 C1.20107853,12.5951688 1.52082654,12.2154871 1.956,12.1432787 C1.97906121,12.1357186 2.00120208,12.1255446 2.022,12.1129508 C2.06004845,12.1082347 2.09677363,12.0958468 2.13,12.076521 C2.17027875,12.0537869 2.20843502,12.0274068 2.244,11.9977049 C2.262,11.9795082 2.286,11.9734426 2.298,11.9552034 C2.30613047,11.9465533 2.3122761,11.9361986 2.316,11.9248756 C2.34485322,11.8932134 2.36727723,11.8561329 2.382,11.8157377 C2.40155347,11.7853317 2.41765507,11.7527948 2.43,11.7187431 C2.43890719,11.6828824 2.44492687,11.6463514 2.448,11.6095082 C2.45100285,11.5670872 2.45100285,11.5245036 2.448,11.4820826 C2.448,11.4699515 2.454,11.4578689 2.454,11.4457256 C2.44652163,11.4224123 2.4364576,11.4000295 2.424,11.3790043 C2.41544641,11.3368455 2.40131964,11.2960422 2.382,11.2576928 C2.36212888,11.220557 2.33795911,11.1859423 2.31,11.154578 C2.292,11.1363813 2.286,11.1181482 2.26803,11.0999879 C1.96848403,10.8177881 1.79887011,10.4221233 1.8,10.0081967 C1.80030134,9.17084196 2.47169773,8.49210791 3.3,8.49180328 C3.62625039,8.49341815 3.94276415,8.60434209 4.2,8.80721311 C4.2026417,9.50615073 4.47119356,10.1772662 4.95,10.6814754 C5.0998227,10.8385722 5.32132965,10.9026416 5.53067409,10.8494315 C5.74001854,10.7962213 5.90521072,10.6338625 5.96372063,10.4238127 C6.02223054,10.2137629 5.96511733,9.98811949 5.814,9.83229508 C5.5446027,9.55626803 5.39554209,9.18281968 5.4,8.79508197 C5.4,8.74043721 5.406,8.69196721 5.412,8.61311475 C5.48668952,7.96604411 5.96362024,7.44043418 6.59488723,7.30949298 C7.22615421,7.17855177 7.86929099,7.47183055 8.19,8.03688525 C7.95,8.44323016 7.728,8.87393443 7.512,9.29852459 C7.224,9.86872492 6.966,10.4267213 6.738,10.9484152 C6.6,11.2577595 6.468,11.5731148 6.342,11.8885367 C6.054,12.5921433 5.796,13.2714875 5.592,13.8841105 L5.55,13.9993443 Z M20.262,31.3347541 C20.1489141,31.4756 19.9794376,31.5579268 19.8,31.5591803 C19.6602132,31.5571525 19.5250865,31.5080606 19.416,31.4196721 C18.5731558,30.7948852 17.4268442,30.7948852 16.584,31.4196721 C16.3268951,31.629965 15.9502243,31.5917085 15.7396381,31.3339148 C15.5290519,31.0761211 15.563117,30.6949694 15.816,30.4795082 C17.1002996,29.4685879 18.8997004,29.4685879 20.184,30.4795082 C20.4363408,30.6953706 20.4710417,31.0758307 20.262,31.3346995 L20.262,31.3347541 Z M23.898,30.054918 C23.7878417,30.2246363 23.6007964,30.3271547 23.4,30.3278689 C23.2820311,30.329292 23.1665994,30.2932232 23.07,30.2247541 C22.9369037,30.1371269 22.8441658,29.999163 22.8125823,29.8418003 C22.7809988,29.6844375 22.8132126,29.520844 22.902,29.3877049 C22.9943763,29.2451963 23.0746626,29.0950435 23.142,28.9388525 C22.6426139,28.7139023 22.1271509,28.5273619 21.6,28.3808197 C21.0302695,28.2251832 20.4510151,28.107661 19.866,28.0290164 C18.6276733,27.8591609 17.3723267,27.8591609 16.134,28.0290164 C15.5489849,28.107661 14.9697305,28.2251832 14.4,28.3808197 C13.8712068,28.5283276 13.3538205,28.714822 12.852,28.9388039 C12.923931,29.0938391 13.0061173,29.2437964 13.098,29.3876564 C13.1867874,29.5207955 13.2190012,29.684389 13.1874177,29.8417517 C13.1558342,29.9991145 13.0630963,30.1370784 12.93,30.2247056 C12.8334063,30.2931919 12.7179742,30.3292778 12.6,30.3278689 C12.3992036,30.3271547 12.2121583,30.2246363 12.102,30.054918 C10.938,28.2898361 11.64,26.8037038 12.174,26.2578689 C12.2310817,26.2011588 12.2982637,26.1558813 12.372,26.1244262 C12.6362003,26.0144894 12.940436,26.1080982 13.0992533,26.3481912 C13.2580707,26.5882843 13.2274262,26.9082788 13.026,27.1131148 C12.8855374,27.2784275 12.7830787,27.4731674 12.726,27.6833151 C13.1680473,27.4995212 13.620911,27.3435285 14.082,27.2162295 C14.702044,27.0400376 15.333612,26.9082898 15.972,26.8219672 C17.3184002,26.6460424 18.6815998,26.6460424 20.028,26.8219672 C20.666388,26.9082898 21.297956,27.0400376 21.918,27.2162295 C22.3768399,27.3444613 22.8276508,27.500425 23.268,27.6832787 C23.2173189,27.4736884 23.1163438,27.2799474 22.974,27.1191803 C22.7403636,26.8810538 22.7411397,26.4967839 22.9757359,26.2596238 C23.2103322,26.0224636 23.5904478,26.0216791 23.826,26.2578689 C24.36,26.8037341 25.062,28.2898361 23.898,30.054918 Z M29.4,19.7131148 C29.3981136,22.5597598 27.1158705,24.8669454 24.3,24.8688525 C24.0407846,24.870242 23.7819004,24.8499338 23.526,24.8081361 C21.038326,24.4208561 19.2016007,22.2576211 19.2,19.7131148 C19.1993391,19.3894475 19.2294779,19.0664665 19.29,18.7486339 C18.9515444,18.3958467 18.4861425,18.1967342 18,18.1967342 C17.5138575,18.1967342 17.0484556,18.3958467 16.71,18.7486339 C16.7705221,19.0664665 16.8006609,19.3894475 16.8,19.7131148 C16.7979805,22.2219223 15.0098252,24.3650429 12.564,24.79 C12.546,24.7960656 12.522,24.7960656 12.504,24.8021311 C12.4483942,24.8114581 12.3922999,24.8175156 12.336,24.8202733 C12.262809,24.8346738 12.1885443,24.8427902 12.114,24.8445356 C11.9766665,24.8616911 11.8383745,24.8697956 11.7,24.8687979 C8.88415058,24.8668909 6.60191617,22.5597385 6.6,19.7131148 C6.59965509,19.199351 6.67446423,18.6883596 6.822,18.1967213 L5.64,18.1967213 C5.718,17.802459 5.814,17.3960231 5.922,16.9836066 L7.374,16.9836066 C8.36224478,15.3823453 10.1371036,14.4550805 12.0008124,14.5663548 C13.8645212,14.6776292 15.5190726,15.80965 16.314,17.517377 C17.3277635,16.8056777 18.6722365,16.8056777 19.686,17.517377 C20.4809274,15.80965 22.1354788,14.6776292 23.9991876,14.5663548 C25.8628964,14.4550805 27.6377552,15.3823453 28.626,16.9836066 L30.078,16.9836066 C30.186,17.3960231 30.282,17.7963934 30.36,18.1967213 L29.178,18.1967213 C29.3255358,18.6883596 29.4003449,19.199351 29.4,19.7131148 Z M33.6,20.9262295 C33.6,20.9929508 33.6,21.0596721 33.594,21.1263934 L33.576,21.3083607 C33.4387673,22.2172211 32.862842,22.9973157 32.04,23.3888828 C32.064,23.073473 32.076,22.7641287 32.076,22.4426169 C32.0743123,21.8078944 32.0342375,21.17387 31.956,20.5440923 C31.878,19.8222526 31.764,19.0701275 31.608,18.3058592 C32.7808738,18.6247638 33.5970523,19.6984034 33.6,20.9262295 Z M32.268,14.0478143 C32.5486273,14.1658422 32.7725422,14.3900277 32.892,14.6725684 C32.8966097,14.6774104 32.8988139,14.6840955 32.898,14.6907651 C32.904,14.6907651 32.904,14.6968307 32.904,14.7028962 L32.922,14.7393261 C32.9737172,14.8747776 33.0001635,15.0187431 33,15.1639344 C33.0004964,15.6195711 32.7481277,16.0369788 32.3467874,16.2443217 C31.9454471,16.4516646 31.462978,16.4138933 31.098,16.1465574 L31.098,16.1404918 C30.972,15.66136 30.828,15.1821311 30.678,14.7211475 C30.612,14.5027202 30.534,14.2722951 30.456,14.0478021 C30.4473369,14.0024693 30.4353027,13.9578618 30.42,13.9143595 C30.21,13.2896054 29.964,12.6285367 29.658,11.8884579 C29.31,11.0210505 28.908,10.1476382 28.476,9.28637525 C28.272,8.8738859 28.056,8.45531885 27.81,8.03683066 C28.1319685,7.46887029 28.7796296,7.17576634 29.4131324,7.31132094 C30.0466352,7.44687554 30.5212785,7.98012607 30.588,8.63125689 C30.5947671,8.68560373 30.5987724,8.74026571 30.6,8.79502738 C30.6044579,9.18276509 30.4553973,9.55621344 30.186,9.83224049 C29.9570781,10.0739107 29.9638505,10.457011 30.201168,10.6902579 C30.4384855,10.9235048 30.8174845,10.9195591 31.05,10.6814208 C31.5287936,10.1772253 31.7973444,9.50613184 31.8,8.80721311 C32.0572359,8.60434209 32.3737496,8.49341815 32.7,8.49180328 C33.5283023,8.49210791 34.1996987,9.17084196 34.2,10.0081967 C34.201141,10.4221229 34.031538,10.817792 33.732,11.1 C33.714,11.1121311 33.708,11.136357 33.696,11.1545902 C33.6634271,11.1856934 33.6369733,11.2227494 33.618036,11.2638008 C33.5978416,11.2995972 33.5836497,11.3385268 33.576036,11.3790103 C33.5635784,11.4000355 33.5535144,11.4224184 33.546036,11.4457316 C33.546036,11.4578628 33.552036,11.4699454 33.552036,11.4820887 C33.5490331,11.5245096 33.5490331,11.5670933 33.552036,11.6095143 C33.5551104,11.6463493 33.5611301,11.6828722 33.570036,11.7187249 C33.5823809,11.7527766 33.5984825,11.7853135 33.618036,11.8157195 C33.6327588,11.8561147 33.6551828,11.8931952 33.684036,11.9248574 C33.6877599,11.9361804 33.6939055,11.9465351 33.702036,11.9551852 C33.714036,11.973382 33.738036,11.9794475 33.756036,11.9976867 C33.7916024,12.027376 33.8297587,12.0537439 33.870036,12.0764664 C33.9032624,12.0957922 33.9399876,12.1081801 33.978036,12.1128962 C33.9988339,12.12549 34.0209748,12.135664 34.044036,12.1432241 C34.4792153,12.2154519 34.7989508,12.5951599 34.8,13.0409836 C34.802015,13.288772 34.702624,13.5263818 34.5253682,13.6975341 C34.3481124,13.8686864 34.1087591,13.9581569 33.864,13.9447541 C33.5970481,13.4754963 33.1802546,13.111896 32.682,12.9136066 C32.6114535,12.8849312 32.5360329,12.8705066 32.46,12.8711475 C32.1666145,12.8698519 31.9157226,13.0841237 31.8679717,13.3767638 C31.8202208,13.6694038 31.9897462,13.953784 32.268,14.0478143 L32.268,14.0478143 Z" id="Shape"></path>
                    <path d="M15.474,18.7244262 C15.0501059,17.0665342 13.6154616,15.8752625 11.9243878,15.7769693 C10.2333141,15.6786761 8.67306376,16.6958703 8.064,18.293722 C7.88786007,18.7456769 7.79827126,19.22735 7.8,19.7131148 C7.8,21.8905653 9.54608948,23.6557377 11.7,23.6557377 C13.8539105,23.6557377 15.6,21.8905653 15.6,19.7131148 C15.6000436,19.3878138 15.559729,19.0637915 15.48,18.7486339 C15.474,18.7425623 15.468,18.7304918 15.474,18.7244262 Z M12.6,20.6229508 C12.6,20.9579432 12.3313708,21.2295082 12,21.2295082 C11.6686292,21.2295082 11.4,20.9579432 11.4,20.6229508 L11.4,19.4098361 C11.4,19.0748437 11.6686292,18.8032787 12,18.8032787 C12.3313708,18.8032787 12.6,19.0748437 12.6,19.4098361 L12.6,20.6229508 Z" id="Shape"></path>
                    <path d="M24.3,15.7704918 C22.5234494,15.7716436 20.9719973,16.9859753 20.526,18.7244262 C20.53197,18.7304918 20.526,18.7425684 20.52,18.74864 C20.4402715,19.0637956 20.3999569,19.3878158 20.4,19.7131148 C20.4,21.8905653 22.1460895,23.6557377 24.3,23.6557377 C26.4539105,23.6557377 28.2,21.8905653 28.2,19.7131148 C28.2017295,19.227348 28.1121407,18.7456728 27.936,18.2937159 C27.3552296,16.7746728 25.9109502,15.7724064 24.3,15.7704918 L24.3,15.7704918 Z M24.6,20.6229508 C24.6,20.9579432 24.3313708,21.2295082 24,21.2295082 C23.6686292,21.2295082 23.4,20.9579432 23.4,20.6229508 L23.4,19.4098361 C23.4,19.0748437 23.6686292,18.8032787 24,18.8032787 C24.3313708,18.8032787 24.6,19.0748437 24.6,19.4098361 L24.6,20.6229508 Z" id="Shape"></path>
                </g>
            </g>
        </g>
    </g>
</svg>