<?xml version="1.0" encoding="UTF-8"?>
<svg width="127px" height="129px" viewBox="0 0 127 129" version="1.1" xmlns="http://www.w3.org/2000/svg" xmlns:xlink="http://www.w3.org/1999/xlink">
    <!-- Generator: Sketch 53.2 (72643) - https://sketchapp.com -->
    <title>zanuda-logo copy</title>
    <desc>Created with Sketch.</desc>
    <g id="Page-1" stroke="none" stroke-width="1" fill="none" fill-rule="evenodd">
        <g id="F-D-cards" transform="translate(-1025.000000, -156.000000)" fill="#FFFFFF" fill-rule="nonzero">
            <g id="zanuda-logo-copy" transform="translate(1025.000000, 156.000000)">
                <path d="M15.50592,93.85344 C15.2601588,94.2681621 14.937602,94.6559982 14.53824,95.01696 C14.138878,95.3779218 13.6704027,95.6927987 13.1328,95.9616 C12.5951973,96.2304013 12.0000033,96.4377593 11.3472,96.58368 C10.6943967,96.7296007 9.99168376,96.80256 9.23904,96.80256 C8.13311447,96.80256 7.06944511,96.5952021 6.048,96.18048 C5.02655489,95.7657579 4.12800388,95.1820838 3.35232,94.42944 C2.57663612,93.6767962 1.9584023,92.7705653 1.4976,91.71072 C1.0367977,90.6508747 0.8064,89.4835264 0.8064,88.20864 C0.8064,86.9337536 1.0367977,85.7664053 1.4976,84.70656 C1.9584023,83.6467147 2.57663612,82.7404838 3.35232,81.98784 C4.12800388,81.2351962 5.02655489,80.6515221 6.048,80.2368 C7.06944511,79.8220779 8.13311447,79.61472 9.23904,79.61472 C9.97632369,79.61472 10.6675168,79.6915192 11.31264,79.84512 C11.9577632,79.9987208 12.5452774,80.2099187 13.0752,80.47872 C13.6051226,80.7475213 14.065918,81.0585582 14.4576,81.41184 C14.849282,81.7651218 15.1603188,82.141438 15.39072,82.5408 L14.44608,85.21344 C14.2156788,84.9062385 13.9353617,84.6144014 13.60512,84.33792 C13.2748783,84.0614386 12.8947222,83.8156811 12.46464,83.60064 C12.0345578,83.3855989 11.5699225,83.2128007 11.07072,83.08224 C10.5715175,82.9516793 10.0377628,82.8864 9.46944,82.8864 C8.65535593,82.8864 7.90656342,83.0092788 7.22304,83.25504 C6.53951658,83.5008012 5.95200246,83.8540777 5.46048,84.31488 C4.96895754,84.7756823 4.58496138,85.3363167 4.30848,85.9968 C4.03199862,86.6572833 3.89376,87.3945559 3.89376,88.20864 C3.89376,89.0227241 4.03199862,89.7599967 4.30848,90.42048 C4.58496138,91.0809633 4.96895754,91.6415977 5.46048,92.1024 C5.95200246,92.5632023 6.53951658,92.9164788 7.22304,93.16224 C7.90656342,93.4080012 8.65535593,93.53088 9.46944,93.53088 C10.068483,93.53088 10.6291174,93.4656007 11.15136,93.33504 C11.6736026,93.2044793 12.1497578,93.0278411 12.57984,92.80512 C13.0099222,92.5823989 13.3900783,92.3251215 13.72032,92.03328 C14.0505617,91.7414385 14.3308788,91.4342416 14.56128,91.11168 L15.50592,93.85344 Z M32.0112,96.48 L28.83168,96.48 L27.49536,93.09312 L20.58336,93.09312 L19.24704,96.48 L15.9984,96.48 L22.51872,79.93728 L25.49088,79.93728 L32.0112,96.48 Z M21.82752,89.89056 L26.22816,89.89056 L24.03936,84.31488 L21.82752,89.89056 Z M35.82144,96.48 L32.13504,96.48 L37.71072,87.93216 L32.4576,79.93728 L36.05184,79.93728 L39.4848,85.1904 L42.91776,79.93728 L46.60416,79.93728 L41.35104,87.93216 L46.92672,96.48 L43.33248,96.48 L39.57696,90.72 L35.82144,96.48 Z M63.06336,96.48 L59.88384,96.48 L58.54752,93.09312 L51.63552,93.09312 L50.2992,96.48 L47.05056,96.48 L53.57088,79.93728 L56.54304,79.93728 L63.06336,96.48 Z M52.87968,89.89056 L57.28032,89.89056 L55.09152,84.31488 L52.87968,89.89056 Z M69.5462399,79.93728 C70.3142438,79.93728 71.0246367,80.0601588 71.6774399,80.30592 C72.3302432,80.5516812 72.8985575,80.9011177 73.3823999,81.35424 C73.8662424,81.8073623 74.2463986,82.3487969 74.5228799,82.97856 C74.7993613,83.6083231 74.9375999,84.3148761 74.9375999,85.09824 C74.9375999,85.8508838 74.8070412,86.5420769 74.5459199,87.17184 C74.2847986,87.8016031 73.9161623,88.3430377 73.4399999,88.79616 C72.9638376,89.2492823 72.3955232,89.6025587 71.7350399,89.856 C71.0745566,90.1094413 70.3526439,90.23616 69.5692799,90.23616 L67.8182399,90.23616 L67.8182399,96.48 L64.7999999,96.48 L64.7999999,79.93728 L69.5462399,79.93728 Z M67.8182399,83.18592 L67.8182399,86.98752 L70.0070399,86.98752 C70.5446426,86.98752 70.9977581,86.8147217 71.3663999,86.46912 C71.7350418,86.1235183 71.9193599,85.6665628 71.9193599,85.09824 C71.9193599,84.5606373 71.7427217,84.1075218 71.3894399,83.73888 C71.0361582,83.3702382 70.5753628,83.18592 70.0070399,83.18592 L67.8182399,83.18592 Z M77.1119999,79.93728 L80.1302399,79.93728 L80.1302399,86.3424 L87.8255999,86.3424 L87.8255999,79.93728 L90.8438399,79.93728 L90.8438399,96.48 L87.8255999,96.48 L87.8255999,89.61408 L80.1302399,89.61408 L80.1302399,96.48 L77.1119999,96.48 L77.1119999,79.93728 Z M94.4006399,96.48 L94.4006399,79.93728 L97.4188799,79.93728 L97.4188799,86.18112 L99.1699199,86.18112 C99.9532838,86.18112 100.675197,86.3078387 101.33568,86.56128 C101.996163,86.8147213 102.564478,87.1679977 103.04064,87.62112 C103.516802,88.0742423 103.885439,88.6156769 104.14656,89.24544 C104.407681,89.8752031 104.53824,90.5663962 104.53824,91.31904 C104.53824,92.1024039 104.400001,92.8089569 104.12352,93.43872 C103.847039,94.0684831 103.466882,94.6099177 102.98304,95.06304 C102.499197,95.5161623 101.930883,95.8655988 101.27808,96.11136 C100.625277,96.3571212 99.9148838,96.48 99.1468799,96.48 L94.4006399,96.48 Z M99.6076799,93.23136 C100.176003,93.23136 100.636798,93.0470418 100.99008,92.6784 C101.343362,92.3097582 101.52,91.8566427 101.52,91.31904 C101.52,90.7507172 101.335682,90.2937617 100.96704,89.94816 C100.598398,89.6025583 100.145283,89.42976 99.6076799,89.42976 L97.4188799,89.42976 L97.4188799,93.23136 L99.6076799,93.23136 Z M106.38144,79.93728 L109.39968,79.93728 L109.39968,96.48 L106.38144,96.48 L106.38144,79.93728 Z M126.82656,96.48 L123.80832,96.48 L123.80832,85.32864 L115.99776,96.48 L112.95648,96.48 L112.95648,79.93728 L115.97472,79.93728 L115.97472,91.15776 L123.80832,79.93728 L126.82656,79.93728 L126.82656,96.48 Z M123.76224,75.60576 C123.76224,76.1126425 123.658561,76.5849578 123.4512,77.02272 C123.243839,77.4604822 122.959682,77.8329585 122.59872,78.14016 C122.237758,78.4473615 121.819202,78.6892791 121.34304,78.86592 C120.866878,79.0425609 120.360003,79.13088 119.8224,79.13088 C119.284797,79.13088 118.774082,79.0425609 118.29024,78.86592 C117.806397,78.6892791 117.387842,78.4473615 117.03456,78.14016 C116.681278,77.8329585 116.400961,77.4604822 116.1936,77.02272 C115.986239,76.5849578 115.88256,76.1126425 115.88256,75.60576 L118.0944,75.26016 C118.12512,75.6902422 118.294078,76.0588785 118.60128,76.36608 C118.908481,76.6732815 119.315517,76.82688 119.8224,76.82688 C120.360003,76.82688 120.778558,76.6732815 121.07808,76.36608 C121.377601,76.0588785 121.54272,75.6902422 121.57344,75.26016 L123.76224,75.60576 Z M5.85216,111.6864 C5.11487631,111.6864 4.41984326,111.851518 3.76704,112.18176 C3.11423674,112.512002 2.51904269,112.968957 1.98144,113.55264 L1.31328,110.88 C1.48224084,110.572798 1.72031846,110.273281 2.02752,109.98144 C2.33472154,109.689599 2.69567793,109.428481 3.1104,109.19808 C3.52512207,108.967679 3.97823754,108.779521 4.46976,108.6336 C4.96128246,108.487679 5.48351724,108.41472 6.03648,108.41472 C6.71232338,108.41472 7.34207708,108.518399 7.92576,108.72576 C8.50944292,108.933121 9.02015781,109.232638 9.45792,109.62432 C9.89568219,110.016002 10.2412787,110.499837 10.49472,111.07584 C10.7481613,111.651843 10.87488,112.308476 10.87488,113.04576 C10.87488,113.767684 10.7174416,114.424317 10.40256,115.01568 C10.0876784,115.607043 9.71520215,116.079358 9.28512,116.43264 C9.96096338,116.816642 10.498558,117.327357 10.89792,117.9648 C11.297282,118.602243 11.49696,119.450875 11.49696,120.51072 C11.49696,121.294084 11.3548814,122.000637 11.07072,122.6304 C10.7865586,123.260163 10.3910425,123.793918 9.88416,124.23168 C9.37727747,124.669442 8.77824346,125.007359 8.08704,125.24544 C7.39583654,125.483521 6.65088399,125.60256 5.85216,125.60256 C5.16095654,125.60256 4.5350428,125.518081 3.9744,125.34912 C3.4137572,125.180159 2.91840215,124.965121 2.48832,124.704 C2.05823785,124.442879 1.69728146,124.154882 1.40544,123.84 C1.11359854,123.525118 0.898560691,123.214082 0.76032,122.90688 L1.4976,120.25728 C1.97376238,120.902403 2.57279639,121.409278 3.29472,121.77792 C4.01664361,122.146562 4.86911508,122.33088 5.85216,122.33088 C6.66624407,122.33088 7.30751766,122.142722 7.776,121.7664 C8.24448234,121.390078 8.47872,120.887043 8.47872,120.25728 C8.47872,119.719677 8.29056188,119.278082 7.91424,118.93248 C7.53791812,118.586878 7.00416346,118.41408 6.31296,118.41408 L4.42368,118.41408 L4.42368,115.1424 L5.85216,115.1424 C6.42048284,115.1424 6.89279812,114.988802 7.26912,114.6816 C7.64544188,114.374398 7.8336,113.944323 7.8336,113.39136 C7.8336,112.884477 7.6531218,112.473602 7.29216,112.15872 C6.9311982,111.843838 6.451203,111.6864 5.85216,111.6864 Z M28.27872,125.28 L25.0992,125.28 L23.76288,121.89312 L16.85088,121.89312 L15.51456,125.28 L12.26592,125.28 L18.78624,108.73728 L21.7584,108.73728 L28.27872,125.28 Z M18.09504,118.69056 L22.49568,118.69056 L20.30688,113.11488 L18.09504,118.69056 Z M30.01536,108.73728 L33.0336,108.73728 L33.0336,115.1424 L40.72896,115.1424 L40.72896,108.73728 L43.7472,108.73728 L43.7472,125.28 L40.72896,125.28 L40.72896,118.41408 L33.0336,118.41408 L33.0336,125.28 L30.01536,125.28 L30.01536,108.73728 Z M45.85248,108.73728 L49.10112,108.73728 L52.41888,116.1792 L55.39104,108.73728 L58.68576,108.73728 L52.07328,125.28 L48.77856,125.28 L50.89824,119.95776 L45.85248,108.73728 Z M71.7350399,122.00832 L73.8547199,122.00832 L73.8547199,128.82816 L70.9977599,128.82816 L70.9977599,125.28 L60.4684799,125.28 L60.4684799,128.82816 L57.6115199,128.82816 L57.6115199,122.00832 L58.9939199,122.00832 C59.9923249,120.303351 60.7603173,118.47937 61.2979199,116.53632 C61.8355226,114.59327 62.1043199,112.446732 62.1043199,110.09664 L62.1043199,108.73728 L71.7350399,108.73728 L71.7350399,122.00832 Z M68.7167999,122.00832 L68.7167999,112.00896 L64.9612799,112.00896 C64.8383993,113.821449 64.569602,115.572472 64.1548799,117.26208 C63.7401579,118.951688 63.1411239,120.533753 62.3577599,122.00832 L68.7167999,122.00832 Z M90.6825599,125.28 L87.5030399,125.28 L86.1667199,121.89312 L79.2547199,121.89312 L77.9183999,125.28 L74.6697599,125.28 L81.1900799,108.73728 L84.1622399,108.73728 L90.6825599,125.28 Z M80.4988799,118.69056 L84.8995199,118.69056 L82.7107199,113.11488 L80.4988799,118.69056 Z" id="САХАРНЫЙЗАНУДА"></path>
                <g id="noun_Glasses-professor-emoji_1131685">
                    <path d="M49.1888889,21.8360656 L49.1888889,21.7923934 C50.4253062,21.6202165 51.4269366,20.6906375 51.7033681,19.458791 C51.9797997,18.2269445 51.4731794,16.9506375 50.4315556,16.2547672 C50.7418936,15.690818 50.9080161,15.057291 50.9148148,14.4118033 C50.9275865,13.0490729 50.2355235,11.7787557 49.0900904,11.0624283 C47.9446574,10.3461008 46.5125701,10.2880232 45.3141852,10.9092984 C44.758294,9.76419968 43.6830243,8.96773249 42.4365227,8.77777394 C41.1900212,8.5878154 39.9307134,9.0285085 39.0663333,9.95716729 C39.0640414,9.95723452 39.0618223,9.95634922 39.060192,9.95471734 C39.0585618,9.95308546 39.0576626,9.95084927 39.0577037,9.94852894 C38.6866296,9.34580113 38.281037,8.72570927 37.8409259,8.09683058 C37.7805617,8.00939898 37.7201111,7.93082408 37.6683333,7.85226665 L37.6597037,7.84353222 C37.6336277,7.78058422 37.5987531,7.7217539 37.5561481,7.6688437 C36.9001019,6.7514403 36.1882165,5.87630215 35.4246296,5.04851583 C29.9275556,-0.934644748 23.9817407,-1.6159562 18.3293333,3.1618623 C17.6558602,3.74410089 17.0134825,4.36220796 16.4049259,5.01356066 C15.6964365,5.78554969 15.0336746,6.59927185 14.4201111,7.45046557 C14.3762081,7.48792955 14.3383568,7.53210511 14.3079259,7.58139462 L13.9282222,8.10554754 C13.7038519,8.41998689 13.4881111,8.74316066 13.281,9.07506885 C13.0997778,9.35452682 12.9099259,9.64280656 12.7200741,9.95714982 C11.8524119,9.0284063 10.5907892,8.58793455 9.34192412,8.77773248 C8.09305899,8.96753041 7.01487846,9.76359683 6.45496296,10.9092984 C5.92649375,10.6328669 5.34114722,10.4862492 4.7462963,10.4813115 C2.60293049,10.4845823 0.866194508,12.2424088 0.862962963,14.4118033 C0.869761665,15.057291 1.03588416,15.690818 1.34622222,16.2547672 C0.304598344,16.9506375 -0.202021889,18.2269445 0.0744096562,19.458791 C0.350841202,20.6906375 1.35247154,21.6202165 2.58888889,21.7923934 L2.58888889,21.8360656 C2.59409715,23.2735859 3.46663134,24.5619169 4.78944444,25.0852721 C2.91128999,26.0508398 1.72750915,28.001641 1.72592593,30.1337705 C1.72448533,30.1950414 1.72736921,30.2563383 1.73455556,30.3171934 C1.72879267,30.3784385 1.73169854,30.4402027 1.74318519,30.5006164 C1.74427421,30.6472231 1.75871808,30.7934158 1.78633333,30.9373377 C2.11675573,33.1879247 3.74413032,35.0207516 5.91992593,35.5927869 L5.91992593,35.6102557 C7.65132614,45.3812908 16.0812665,52.4718854 25.8888889,52.4065574 C35.6936958,52.472382 44.1225144,45.3864177 45.8578519,35.6189902 L45.8578519,35.6015213 C46.1559864,35.5233183 46.4474501,35.4210603 46.7294444,35.295729 C48.5019417,34.4967049 49.737155,32.8231717 49.9914444,30.8761967 C50.0148286,30.7492742 50.0292479,30.6208266 50.0345926,30.4918296 C50.0491718,30.3730802 50.054941,30.2533923 50.0518519,30.1337705 C50.0506946,27.9967048 48.8585426,26.0431147 46.9710741,25.0852721 C48.3033371,24.5709608 49.1850182,23.2792551 49.1888889,21.8360656 Z M5.81637037,29.5747672 C5.70411039,30.4845981 5.64647371,31.4004828 5.64377778,32.317377 C5.64377778,32.7715672 5.66103704,33.2257574 5.69555556,33.6712131 C4.51864887,33.1191342 3.69267949,32.0077003 3.495,30.7101203 C3.48637037,30.6141639 3.46911111,30.517963 3.46048148,30.4218843 C3.45330577,30.369822 3.45041928,30.317246 3.45185185,30.2646995 L3.45185185,30.1337705 C3.45609141,28.3657009 4.62997782,26.8196599 6.31688889,26.3604372 C6.09251852,27.4872393 5.91992593,28.5703082 5.81637037,29.5747672 Z M7.98240741,20.1590557 C7.87022222,20.5084328 7.75803704,20.8490754 7.65448148,21.1809836 C7.43874074,21.8710033 7.23162963,22.561023 7.05040741,23.2423082 C6.7582415,23.4617108 6.4045356,23.5810446 6.04074074,23.5829508 C5.08870075,23.5801159 4.3176157,22.799667 4.31481481,21.8360656 C4.31458288,21.6269988 4.35261975,21.4196977 4.427,21.2246557 C4.44300418,21.1933684 4.45740597,21.1612676 4.47014815,21.128481 C4.63511128,20.7300948 4.94813446,20.4132703 5.34174074,20.2463039 C5.70457926,20.1316552 5.95239009,19.792518 5.95444444,19.407799 C5.93321428,18.9326818 5.55259926,18.5550731 5.08285185,18.5430908 C4.97685627,18.5391239 4.87116779,18.5569704 4.77218519,18.5955498 C4.05408448,18.8786102 3.45389309,19.4028315 3.07214815,20.0804022 C2.71935645,20.1027146 2.37338848,19.974887 2.11776725,19.7277793 C1.86214602,19.4806716 1.72010153,19.1367402 1.72592593,18.7790164 C1.72747714,18.1370431 2.18736163,17.5903015 2.81325926,17.4863213 C2.84642754,17.4754348 2.87827213,17.4607842 2.90818519,17.4426492 C2.96290918,17.435858 3.01572998,17.4180194 3.06351852,17.3901902 C3.1214503,17.3574532 3.17632938,17.3194659 3.22748148,17.2766951 C3.25337037,17.2504918 3.28788889,17.2417574 3.30514815,17.215493 C3.31684197,17.2030367 3.32568106,17.188126 3.33103704,17.1718208 C3.37253581,17.1262273 3.40478763,17.0728314 3.42596296,17.0146623 C3.45408616,16.9708776 3.47724464,16.9240246 3.495,16.8749901 C3.50781096,16.8233507 3.51646889,16.770746 3.52088889,16.7176918 C3.52520781,16.6566056 3.52520781,16.5952851 3.52088889,16.534199 C3.52088889,16.5167301 3.52951852,16.4993311 3.52951852,16.4818448 C3.5187626,16.4482738 3.50428779,16.4160425 3.48637037,16.3857661 C3.47406799,16.3250576 3.45374985,16.2663008 3.42596296,16.2110776 C3.39738289,16.1576021 3.36262021,16.1077569 3.32240741,16.0625924 C3.29651852,16.0363891 3.28788889,16.0101334 3.26204315,15.9839825 C2.83121469,15.5776148 2.5872638,15.0078575 2.58888889,14.4118033 C2.58932229,13.2060124 3.55497265,12.2286354 4.7462963,12.2281967 C5.21553297,12.2305221 5.67076572,12.3902526 6.04074074,12.6823869 C6.04454022,13.6888571 6.43079074,14.6552634 7.11944444,15.3813246 C7.33493018,15.607544 7.65351734,15.699804 7.95461151,15.6231813 C8.25570568,15.5465586 8.49329689,15.3127621 8.57745004,15.0102903 C8.66160318,14.7078185 8.57945888,14.3828921 8.36211111,14.1585049 C7.97464462,13.761026 7.76025498,13.2232603 7.76666667,12.664918 C7.76666667,12.5862296 7.7752963,12.5164328 7.78392593,12.4028852 C7.89134974,11.4711035 8.57730566,10.7142252 9.48523904,10.5256699 C10.3931724,10.3371146 11.3181778,10.759436 11.7794444,11.5731148 C11.4342593,12.1582514 11.114963,12.7784656 10.8042963,13.3898754 C10.3900741,14.2109639 10.019,15.0144787 9.69107407,15.765718 C9.49259259,16.2111737 9.30274074,16.6652852 9.12151852,17.1194929 C8.7072963,18.1326863 8.33622222,19.1109421 8.04281481,19.9931191 L7.98240741,20.1590557 Z M29.1422593,45.1220459 C28.979611,45.324864 28.7358578,45.4434146 28.4777778,45.4452197 C28.2767264,45.4422995 28.0823775,45.3716072 27.9254815,45.2443279 C26.7132425,44.3446347 25.0645352,44.3446347 23.8522963,45.2443279 C23.4825096,45.5471495 22.9407548,45.4920603 22.6378746,45.1208374 C22.3349944,44.7496144 22.3839893,44.2007559 22.7477037,43.8904918 C24.5948754,42.4347666 27.1829024,42.4347666 29.0300741,43.8904918 C29.3930087,44.2013337 29.442918,44.7491961 29.1422593,45.1219673 L29.1422593,45.1220459 Z M34.3718148,43.279082 C34.2133773,43.5234762 33.9443553,43.6711027 33.6555556,43.6721311 C33.4858842,43.6741805 33.3198621,43.6222414 33.1809259,43.5236459 C32.9894973,43.3974627 32.856115,43.1987947 32.8106893,42.9721924 C32.7652637,42.74559 32.8115959,42.5100154 32.9392963,42.3182951 C33.0721586,42.1130827 33.187632,41.8968627 33.2844815,41.6719475 C32.5662286,41.3480193 31.8248529,41.0794012 31.0666667,40.8683803 C30.2472395,40.6442639 29.4141143,40.4750318 28.5727037,40.3617836 C26.7916536,40.1171917 24.9861242,40.1171917 23.2050741,40.3617836 C22.3636635,40.4750318 21.5305383,40.6442639 20.7111111,40.8683803 C19.9505629,41.0807917 19.2064209,41.3493437 18.4846667,41.6718777 C18.5881229,41.8951283 18.7063291,42.1110669 18.8384815,42.3182252 C18.9661818,42.5099455 19.0125141,42.7455201 18.9670885,42.9721225 C18.9216628,43.1987249 18.7882805,43.3973928 18.5968519,43.523576 C18.4579239,43.6221963 18.2919011,43.6741601 18.1222222,43.6721311 C17.8334224,43.6711027 17.5644005,43.5234762 17.405963,43.279082 C15.7318148,40.7373639 16.7414815,38.5973334 17.5095185,37.8113311 C17.5916175,37.7296686 17.6882434,37.6644691 17.7942963,37.6191738 C18.1742881,37.4608647 18.6118617,37.5956614 18.8402841,37.9413954 C19.0687066,38.2871294 19.0246315,38.7479215 18.7349259,39.0428852 C18.5329026,39.2809356 18.3855392,39.561361 18.3034444,39.8639737 C18.9392286,39.5993105 19.5905695,39.3746811 20.2537407,39.1913705 C21.1455324,38.9376542 22.0538988,38.7479373 22.9720741,38.6236328 C24.9085632,38.370301 26.8692146,38.370301 28.8057037,38.6236328 C29.723879,38.7479373 30.6322454,38.9376542 31.524037,39.1913705 C32.1839734,39.3760243 32.832362,39.6006119 33.4657037,39.8639213 C33.3928105,39.5621113 33.2475809,39.2831242 33.0428519,39.0516197 C32.7068193,38.7087175 32.7079355,38.1553688 33.0453486,37.8138582 C33.3827617,37.4723476 33.9294712,37.4712179 34.2682593,37.8113311 C35.0362963,38.5973771 36.045963,40.7373639 34.3718148,43.279082 Z M42.2851852,28.3868852 C42.282472,32.4860541 38.9999866,35.8084014 34.95,35.8111475 C34.5771779,35.8131485 34.2048321,35.7839047 33.8367778,35.7237159 C30.2588268,35.1660328 27.617117,32.0509744 27.6148148,28.3868852 C27.6138642,27.9208044 27.657212,27.4557117 27.7442593,26.9980329 C27.2574682,26.4900193 26.5880939,26.2032972 25.8888889,26.2032972 C25.1896839,26.2032972 24.5203096,26.4900193 24.0335185,26.9980329 C24.1205658,27.4557117 24.1639135,27.9208044 24.162963,28.3868852 C24.1600583,31.9995681 21.5882054,35.0856618 18.0704444,35.6976 C18.0445556,35.7063344 18.010037,35.7063344 17.9841481,35.7150689 C17.9041719,35.7284997 17.8234931,35.7372225 17.7425185,35.7411935 C17.63725,35.7619303 17.5304372,35.7736179 17.4232222,35.7761312 C17.2256994,35.8008351 17.0267978,35.8125057 16.8277778,35.8110689 C12.7778215,35.8083229 9.49534857,32.4860234 9.49259259,28.3868852 C9.49209652,27.6470654 9.59969238,26.9112378 9.81188889,26.2032787 L8.11185185,26.2032787 C8.22403704,25.635541 8.36211111,25.0502733 8.51744444,24.4563934 L10.6058148,24.4563934 C12.0271792,22.1505773 14.5799082,20.8153159 17.2604277,20.975551 C19.9409472,21.135786 22.3206415,22.765896 23.463963,25.225023 C24.9220302,24.2001759 26.8557476,24.2001759 28.3138148,25.225023 C29.4571363,22.765896 31.8368306,21.135786 34.51735,20.975551 C37.1978695,20.8153159 39.7505986,22.1505773 41.171963,24.4563934 L43.2603333,24.4563934 C43.4156667,25.0502733 43.5537407,25.6268066 43.6659259,26.2032787 L41.9658889,26.2032787 C42.1780854,26.9112378 42.2856813,27.6470654 42.2851852,28.3868852 Z M48.3259259,30.1337705 C48.3259259,30.2298492 48.3259259,30.3259279 48.3172963,30.4220066 L48.2914074,30.6840393 C48.0940295,31.9927984 47.2656926,33.1161346 46.0822222,33.6799912 C46.1167407,33.225801 46.134,32.7803453 46.134,32.3173683 C46.1315726,31.4033679 46.0739342,30.4903728 45.9614074,29.5834929 C45.8492222,28.5440438 45.6852593,27.4609837 45.4608889,26.3604372 C47.1478,26.8196599 48.3216864,28.3657009 48.3259259,30.1337705 Z M46.4101481,20.2288525 C46.8137664,20.3988128 47.1358168,20.7216399 47.3076296,21.1284984 C47.3142596,21.1354709 47.3174299,21.1450975 47.3162593,21.1547017 C47.3248889,21.1547017 47.3248889,21.1634361 47.3248889,21.1721706 L47.3507778,21.2246295 C47.4251612,21.4196797 47.4631981,21.62699 47.462963,21.8360656 C47.4636769,22.4921825 47.1007021,23.0932495 46.5234658,23.3918233 C45.9462295,23.690397 45.2523079,23.6360064 44.7273704,23.2510426 L44.7273704,23.2423082 C44.5461481,22.5523584 44.339037,21.8622689 44.1232963,21.1984525 C44.0283704,20.883917 43.9161852,20.5521049 43.804,20.2288351 C43.79154,20.1635558 43.7742317,20.099321 43.7522222,20.0366777 C43.4501852,19.1370318 43.0963704,18.1850929 42.6562593,17.1193793 C42.1557407,15.8703127 41.5775556,14.612599 40.9562222,13.3723804 C40.6628148,12.7783957 40.3521481,12.1756591 39.9983333,11.5730361 C40.4614114,10.7551732 41.3929241,10.3331035 42.3040732,10.5283021 C43.2152222,10.7235008 43.8978882,11.4913815 43.9938519,12.4290099 C44.0035848,12.5072694 44.0093455,12.5859826 44.0111111,12.6648394 C44.0175228,13.2231817 43.8031332,13.7609474 43.4156667,14.1584263 C43.0864148,14.5064314 43.0961553,15.0580958 43.4374823,15.3939713 C43.7788093,15.7298469 44.3239129,15.7241651 44.6583333,15.381246 C45.3469686,14.6552044 45.7332176,13.6888298 45.737037,12.6823869 C46.1070121,12.3902526 46.5622448,12.2305221 47.0314815,12.2281967 C48.2228051,12.2286354 49.1884555,13.2060124 49.1888889,14.4118033 C49.1905299,15.007857 48.9465947,15.5776205 48.5157778,15.984 C48.4898889,16.0014689 48.4812593,16.0363542 48.464,16.0626098 C48.4171513,16.1073985 48.3791036,16.1607591 48.3518666,16.2198732 C48.3228216,16.2714199 48.3024097,16.3274786 48.2914592,16.3857749 C48.2735418,16.4160512 48.259067,16.4482825 48.248311,16.4818536 C48.248311,16.4993224 48.2569407,16.5167214 48.2569407,16.5342077 C48.2526218,16.5952939 48.2526218,16.6566144 48.2569407,16.7177005 C48.2613625,16.770743 48.2700204,16.8233359 48.2828296,16.8749639 C48.3005849,16.9239984 48.3237434,16.9708514 48.3518666,17.0146361 C48.3730419,17.0728052 48.4052937,17.1262011 48.4467925,17.1717946 C48.4521485,17.1880998 48.4609876,17.2030105 48.4726814,17.2154668 C48.4899407,17.24167 48.5244592,17.2504045 48.5503481,17.2766689 C48.6015023,17.3194215 48.6563813,17.3573912 48.714311,17.3901116 C48.7620996,17.4179408 48.8149204,17.4357794 48.8696444,17.4425706 C48.8995574,17.4607056 48.931402,17.4753562 48.9645703,17.4862427 C49.5904763,17.5902507 50.0503427,18.1370302 50.0518519,18.7790164 C50.05475,19.1358317 49.9117988,19.4779898 49.6568568,19.7244491 C49.4019148,19.9709084 49.0576597,20.0997459 48.7056296,20.0804459 C48.3216802,19.4047146 47.7222181,18.8811302 47.0055926,18.5955934 C46.9041275,18.554301 46.7956523,18.5335294 46.6862963,18.5344525 C46.2643282,18.5325867 45.9034775,18.8411381 45.8347988,19.2625398 C45.76612,19.6839415 46.0099436,20.093449 46.4101481,20.2288525 L46.4101481,20.2288525 Z" id="Shape"></path>
                    <path d="M22.2558148,26.9631738 C21.64614,24.5758092 19.5827318,22.860378 17.1505084,22.7188358 C14.7182851,22.5772936 12.4742213,24.0420533 11.5982222,26.3429596 C11.3448852,26.9937748 11.2160321,27.6873841 11.2185185,28.3868852 C11.2185185,31.522414 13.7298694,34.0642623 16.8277778,34.0642623 C19.9256861,34.0642623 22.437037,31.522414 22.437037,28.3868852 C22.4370997,27.9184518 22.3791164,27.4518598 22.2644444,26.9980329 C22.2558148,26.9892897 22.2471852,26.9719082 22.2558148,26.9631738 Z M18.1222222,29.6970492 C18.1222222,30.1794382 17.7358605,30.5704918 17.2592593,30.5704918 C16.782658,30.5704918 16.3962963,30.1794382 16.3962963,29.6970492 L16.3962963,27.9501639 C16.3962963,27.4677749 16.782658,27.0767213 17.2592593,27.0767213 C17.7358605,27.0767213 18.1222222,27.4677749 18.1222222,27.9501639 L18.1222222,29.6970492 Z" id="Shape"></path>
                    <path d="M34.95,22.7095082 C32.3948378,22.7111668 30.1634282,24.4598045 29.521963,26.9631738 C29.5305494,26.9719082 29.521963,26.9892984 29.5133333,26.9980416 C29.3986621,27.4518657 29.3406788,27.9184548 29.3407407,28.3868852 C29.3407407,31.522414 31.8520917,34.0642623 34.95,34.0642623 C38.0479083,34.0642623 40.5592593,31.522414 40.5592593,28.3868852 C40.5617467,27.6873811 40.4328937,26.9937688 40.1795556,26.3429509 C39.34425,24.1555289 37.2669839,22.7122652 34.95,22.7095082 L34.95,22.7095082 Z M35.3814815,29.6970492 C35.3814815,30.1794382 34.9951198,30.5704918 34.5185185,30.5704918 C34.0419172,30.5704918 33.6555556,30.1794382 33.6555556,29.6970492 L33.6555556,27.9501639 C33.6555556,27.4677749 34.0419172,27.0767213 34.5185185,27.0767213 C34.9951198,27.0767213 35.3814815,27.4677749 35.3814815,27.9501639 L35.3814815,29.6970492 Z" id="Shape"></path>
                </g>
            </g>
        </g>
    </g>
</svg>