<svg xmlns="http://www.w3.org/2000/svg" width="78" height="78" viewBox="0 0 78 78">

	<defs>

		<filter id="textShadow" x="-50%" y="-50%" width="200%" height="200%">
			<feFlood flood-opacity="0.3" flood-color="#000" result="flood" />
			<feComposite in="flood" in2="SourceGraphic" operator="in" result="composite1" />
			<feGaussianBlur in="composite1" stdDeviation="2" result="blur" />
			<feOffset dx="0" dy="2" result="offset" />
			<feComposite in="SourceGraphic" in2="offset" operator="over" result="composite2" />
		</filter>

		<clipPath id="hexagonClip">
			<path fill="#fff" d="M 23.759766,4 C 20.69088,4 18.058398,5.4966094 16.564453,8.0996094 L 1.0722656,35.105469 c -1.42894798,2.491 -1.42894798,5.298062 0,7.789062 L 16.564453,69.900391 C 18.058398,72.503391 20.69088,74 23.759766,74 h 30.480468 c 3.068887,0 5.70137,-1.496609 7.195313,-4.099609 l 15.492187,-27.00586 c 1.428948,-2.491 1.428948,-5.298062 0,-7.789062 L 61.435547,8.0996094 C 59.941604,5.4966094 57.30912,4 54.240234,4 Z" />
		</clipPath>

	</defs>

	<g clip-path="url(#hexagonClip)">
		<g>
			<path fill="#d6cbef" d="M 23.759766 4 C 20.690725 4 18.054566 5.3969999 16.560547 8 L 1.0722656 35 C -0.3567533 37.491 -0.35675331 40.509 1.0722656 43 L 16.560547 70 C 18.054566 72.603 20.690725 74 23.759766 74 L 54.240234 74 C 57.309274 74 59.945433 72.603 61.439453 70 L 76.927734 43 C 78.356753 40.509 78.356753 37.491 76.927734 35 L 61.439453 8 C 59.945433 5.397 57.309274 4 54.240234 4 L 23.759766 4 z" />
			<path fill="#9162fb" d="M 24.519531 12 C 23.776545 12 23.139524 12.362 22.769531 13 L 8.2753906 38 C 7.9073978 38.634 7.9073978 39.366 8.2753906 40 L 22.769531 65 C 23.139524 65.638 23.776545 66 24.519531 66 L 53.480469 66 C 54.224454 66 54.860477 65.638 55.230469 65 L 69.724609 40 C 70.092602 39.366 70.092602 38.634 69.724609 38 L 55.230469 13 C 54.860477 12.362 54.224454 12 53.480469 12 L 24.519531 12 z" />
		</g>
		<g>
			<g>
				<path fill="#ff6536" d="M 35.080078 24.001953 C 34.463078 23.963953 33.927672 24.430916 33.888672 25.042969 C 33.614672 29.33234 32.363656 32.960244 30.347656 36.103516 C 29.907656 36.789576 29.409094 36.46797 29.121094 36.085938 C 28.491094 35.249865 27.972219 34.278265 27.574219 33.201172 C 27.277219 32.398102 26.333156 32.339094 25.660156 32.869141 C 23.680156 34.431276 21 39.029617 21 43.998047 C 21 53.875901 28.997 62.067006 39 62 C 48.955 61.93399 57 54.08992 57 43.998047 C 57 39.966698 56.164547 36.354767 55.685547 35.263672 C 55.247547 34.264586 53.817969 34.301329 53.542969 35.357422 C 52.989969 37.477606 51.252703 39.359959 49.220703 40.041016 C 48.990703 40.118026 48.351469 40.367439 48.230469 39.443359 C 47.293469 32.301741 43.069078 24.504997 35.080078 24.001953 z" />
				<path fill="#ff421d" d="M 39 24.929688 L 39 62 C 48.955 61.934 57 54.092337 57 44.001953 C 57 39.9712 56.164547 36.358512 55.685547 35.267578 C 55.247547 34.268639 53.817969 34.305397 53.542969 35.361328 C 52.989969 37.481198 51.252703 39.363965 49.220703 40.044922 C 48.990703 40.121922 48.351469 40.371209 48.230469 39.447266 C 47.460469 33.581629 44.472 27.273545 39 24.929688 z" />
			</g>
			<g>
				<path fill="#ffde46" d="M 35.015625 39.203125 C 34.357601 39.162135 33.786143 39.658601 33.744141 40.3125 C 33.513133 43.930933 32.264681 47.24314 30.224609 49.634766 C 30.186609 49.679756 30.128754 49.678839 30.09375 49.630859 C 29.568731 48.934967 29.132793 48.123515 28.800781 47.222656 C 28.562772 46.577757 27.822429 46.268872 27.191406 46.548828 C 25.198335 47.429691 23.524032 49.414605 22.625 51.488281 C 25.455101 57.690312 31.691739 62.048992 39 62 C 46.320261 61.95201 52.610681 57.697521 55.425781 51.4375 C 54.705755 49.510801 53.527008 48.149737 52.833984 47.464844 C 52.249963 46.888934 51.263169 47.060943 50.910156 47.798828 C 50.337136 48.996641 48.679229 51.03496 47.492188 51.378906 C 47.377184 51.411906 46.927283 51.494808 46.863281 50.962891 C 46.077253 44.416915 41.912871 39.638058 35.015625 39.203125 z" />
				<path fill="#fdbf00" d="M 39 40.025391 L 39 62 C 46.320522 61.952 52.61058 57.695262 55.425781 51.433594 C 54.70573 49.506389 53.527034 48.146011 52.833984 47.460938 C 52.249942 46.884876 51.261228 47.056843 50.908203 47.794922 C 50.335162 48.99305 48.679272 51.030963 47.492188 51.375 C 47.377178 51.408 46.927286 51.491041 46.863281 50.958984 C 46.243237 45.789433 43.515322 41.722572 39 40.025391 z" />
			</g>
		</g>
		<path fill="#fdf4b7" filter="url(#textShadow)" d="M 25 15 L 25 26.998047 L 27.5 26.998047 L 27.5 22.5 L 28.75 22.5 C 30.822 22.5 32.5 20.821 32.5 18.75 C 32.5 16.678 30.822 15 28.75 15 L 25 15 z M 34 15 L 34 27 L 36.5 27 L 36.5 22.5 L 37.3125 22.5 L 39 27 L 41.5 27 L 39.623047 21.998047 C 40.745047 21.350047 41.5 20.139 41.5 18.75 C 41.5 16.679 39.822 15 37.75 15 L 34 15 z M 49 15 C 45.686 15 43 17.686 43 21 C 43 24.314 45.686 26.998047 49 26.998047 C 52.314 26.998047 55 24.314 55 21 C 55 17.686 52.314 15 49 15 z M 27.5 17.498047 L 28.75 17.5 C 29.442 17.5 30.001953 18.058 30.001953 18.75 C 30.001953 19.451953 29.453 20 28.75 20 L 27.5 20 L 27.5 17.498047 z M 36.5 17.5 L 37.75 17.5 C 38.442 17.5 39.001953 18.058 39.001953 18.75 C 39.001953 19.451953 38.453 20 37.75 20 L 36.5 20 L 36.5 17.5 z M 49 17.5 C 50.934 17.5 52.5 19.066 52.5 21 C 52.5 22.933 50.934 24.5 49 24.5 C 47.066 24.5 45.5 22.933 45.5 21 C 45.5 19.066 47.066 17.5 49 17.5 z" />
	</g>

</svg>
