<svg xmlns="http://www.w3.org/2000/svg" width="78" height="78" viewBox="0 0 78 78">

	<defs>

		<clipPath id="hexagonClip">
			<path fill="#fff" d="M 23.759766,4 C 20.69088,4 18.058398,5.4966094 16.564453,8.0996094 L 1.0722656,35.105469 c -1.42894798,2.491 -1.42894798,5.298062 0,7.789062 L 16.564453,69.900391 C 18.058398,72.503391 20.69088,74 23.759766,74 h 30.480468 c 3.068887,0 5.70137,-1.496609 7.195313,-4.099609 l 15.492187,-27.00586 c 1.428948,-2.491 1.428948,-5.298062 0,-7.789062 L 61.435547,8.0996094 C 59.941604,5.4966094 57.30912,4 54.240234,4 Z" />
		</clipPath>

	</defs>

	<g clip-path="url(#hexagonClip)">
		<g>
			<path fill="#d6cbef" d="M 23.759766 4 C 20.690879 4 18.058398 5.4966094 16.564453 8.0996094 L 1.0703125 35.105469 C -0.35863483 37.596469 -0.35863483 40.403531 1.0703125 42.894531 L 16.564453 69.900391 C 18.058398 72.503391 20.690879 74 23.759766 74 L 54.240234 74 C 57.309121 74 59.941602 72.503391 61.435547 69.900391 L 76.929688 42.894531 C 78.358634 40.403531 78.358634 37.596469 76.929688 35.105469 L 61.435547 8.0996094 C 59.941602 5.4966094 57.309121 4 54.240234 4 L 23.759766 4 z" />
			<path fill="#9162fb" d="M 24.5 12 C 23.757028 12 23.135612 12.362 22.765625 13 L 8.2773438 38 C 7.9093573 38.634 7.9093574 39.366 8.2773438 40 L 22.765625 65 C 23.135612 65.638 23.807808 66 24.550781 66 L 53.449219 66 C 54.193192 66 54.864388 65.638 55.234375 65 L 69.722656 40 C 70.090643 39.366 70.090643 38.634 69.722656 38 L 55.234375 13 C 54.864388 12.362 54.193192 12 53.449219 12 L 24.5 12 z" />
		</g>
		<g>
			<g>
				<path fill="#ffda2d" d="M 22 29 C 18.428 29 15.975 32.098468 16 35.5 C 16.028 39.242586 18.789859 41.966498 22.130859 43.179688 L 18.275391 48.640625 C 17.799391 49.315731 17.963625 50.249534 18.640625 50.724609 C 19.316625 51.200683 20.248609 51.04034 20.724609 50.365234 L 27.339844 41 L 26 41 C 23.118003 40.995939 19.024 38.797516 19 35.5 C 18.987 33.741725 20.078 32 22 32 C 24.302 32 24.998 34.045694 25 36 L 28 36 C 28 32.313423 25.966 29 22 29 z" />
				<path fill="#fd9800" d="M 56 29 C 52.034 29 50 32.313423 50 36 L 53 36 C 53.002 34.045694 53.698 32 56 32 C 57.922 32 59.013 33.741725 59 35.5 C 58.976 38.797516 54.882 41.001953 52 41.001953 L 50.660156 41 L 57.275391 50.365234 C 57.751391 51.04034 58.683375 51.200683 59.359375 50.724609 C 60.036375 50.249534 60.200609 49.315731 59.724609 48.640625 L 55.869141 43.179688 C 59.210141 41.966498 61.972 39.242586 62 35.5 C 62.025 32.098468 59.572 29 56 29 z" />
			</g>
			<g>
				<path fill="#ffc42d" d="M 35 52 L 35 61 C 35 63 33.999857 65 32 66 L 46 66 C 44.000143 65 43 63 43 61 L 43 52 L 35 52 z" />
				<path fill="#fd9800" d="M 39 52 L 39 66 L 46 66 C 44 65 43 63 43 61 L 43 52 L 39 52 z" />
			</g>
			<g>
				<path fill="#ffd361" d="M 33.5 57 C 32.675 57 32 57.675 32 58.5 C 32 59.325 32.675 60 33.5 60 L 44.5 60 C 45.325 60 46 59.325 46 58.5 C 46 57.675 45.325 57 44.5 57 L 33.5 57 z" />
				<path fill="#ffb82d" d="M 39 57 L 39 60 L 44.5 60 C 45.325 60 46 59.325 46 58.5 C 46 57.675 45.325 57 44.5 57 L 39 57 z" />
			</g>
			<g>
				<path fill="#fd9800" d="M 29 64 C 28.45 64 28 64.45 28 65 L 28 73 C 28 73.55 28.45 74 29 74 L 49 74 C 49.55 74 50 73.55 50 73 L 50 65 C 50 64.45 49.55 64 49 64 L 29 64 z" />
				<path fill="#f1574b" d="M 39 64 L 39 74 L 49 74 C 49.55 74 50 73.55 50 73 L 50 65 C 50 64.45 49.55 64 49 64 L 39 64 z" />
			</g>
			<g>
				<path fill="#ffdc61" d="M 26 26 C 25.45 26 25 26.45 25 27 L 25 40 C 25 47.7 31.3 54 39 54 C 46.7 54 53 47.7 53 40 L 53 27 C 53 26.45 52.549 26 52 26 L 26 26 z" />
				<path fill="#ffc42d" d="M 39 26 L 39 54 C 46.7 54 53 47.7 53 40 L 53 27 C 53 26.45 52.549 26 52 26 L 39 26 z" />
			</g>
			<path fill="#f1574b" d="M 32 33 L 31.5 36 L 29 36 L 29 38 L 31.164062 38 L 30.835938 40 L 28 40 L 28 42 L 30.5 42 L 30 45 L 32 45 L 32.5 42 L 34.5 42 L 34 45 L 36 45 L 36.5 42 L 39 42 L 39 40 L 36.835938 40 L 37.164062 38 L 40 38 L 40 36 L 37.5 36 L 38 33 L 36 33 L 35.5 36 L 33.5 36 L 34 33 L 32 33 z M 45 33 L 42 35 L 42 38 L 44 36.75 L 44 45 L 47 45 L 47 33 L 45 33 z M 33.164062 38 L 35.164062 38 L 34.835938 40 L 32.835938 40 L 33.164062 38 z" />
		</g>
		<path fill="#d3cc97" d="M 28 14 L 28 24 L 30 24 L 30 20 L 31 20 C 32.657 20 34 18.657 34 17 C 34 15.343 32.657 14 31 14 L 28 14 z M 35 14 L 35 24 L 37 24 L 37 20 L 37.5 20 L 39.001953 24 L 41.001953 24 L 39.421875 19.642578 C 40.361875 19.135578 41 18.143 41 17 C 41 15.343 39.657953 14 38.001953 14 L 35 14 z M 47 14 C 44.239 14 42 16.238 42 19 C 42 21.761 44.239 24 47 24 C 49.762 24 52 21.761 52 19 C 52 16.238 49.762 14 47 14 z M 30 16 L 31 16 C 31.552 16 32 16.448 32 17 C 32 17.563 31.563 18 31 18 L 30 18 L 30 16 z M 37 16 L 38.001953 16 C 38.559953 16 39 16.442 39 17 C 39 17.563 38.564953 18 38.001953 18 L 37 18 L 37 16 z M 47 16 C 48.657 16 50 17.343 50 19 C 50 20.657 48.657 22 47 22 C 45.343 22 44 20.657 44 19 C 44 17.343 45.343 16 47 16 z" />
	</g>

</svg>
