<svg xmlns="http://www.w3.org/2000/svg" width="78" height="78" viewBox="0 0 78 78">

	<defs>

		<linearGradient id="bronzeGradient1" x1="0" x2="0" y1="0" y2="1">
			<stop offset="0" stop-color="#FD9D44"></stop>
			<stop offset="1" stop-color="#FBB03D"></stop>
		</linearGradient>

		<linearGradient id="ribbonGradientLeft" x1="0" x2="0" y1="0" y2="1" gradientTransform="rotate(67.5 0.5 0.5)">
			<stop offset="0" stop-color="#35d0fb" />
			<stop offset="1" stop-color="#2389ee" />
		</linearGradient>

		<linearGradient id="ribbonGradientRight" x1="0" x2="0" y1="0" y2="1" gradientTransform="rotate(-67.5 0.5 0.5)">
			<stop offset="0" stop-color="#2389ee" />
			<stop offset="1" stop-color="#35d0fb" />
		</linearGradient>

		<filter id="medalShadowOutside" x="-50%" y="-50%" width="200%" height="200%">
			<feFlood flood-opacity="0.4" flood-color="#000" result="flood" />
			<feComposite in="flood" in2="SourceGraphic" operator="in" result="composite1" />
			<feGaussianBlur in="composite1" stdDeviation="5" result="blur" />
			<feOffset dx="0" dy="4" result="offset" />
			<feComposite in="SourceGraphic" in2="offset" operator="over" result="composite2" />
		</filter>

		<filter id="medalShadowInside" x="-50%" y="-50%" width="200%" height="200%">
			<feFlood flood-opacity="0.3" flood-color="#000" result="flood" />
			<feComposite in="flood" in2="SourceGraphic" operator="in" result="composite1" />
			<feGaussianBlur in="composite1" stdDeviation="4" result="blur" />
			<feOffset dx="0" dy="4" result="offset" />
			<feComposite in="SourceGraphic" in2="offset" operator="over" result="composite2" />
		</filter>

		<filter id="ribbonShadow">
			<feFlood flood-opacity="0.3" flood-color="#000" result="flood" />
			<feComposite in="flood" in2="SourceGraphic" operator="in" result="composite1" />
			<feGaussianBlur in="composite1" stdDeviation="3" result="blur" />
			<feOffset dx="0" dy="4" result="offset" />
			<feComposite in="SourceGraphic" in2="offset" operator="over" result="composite2" />
		</filter>

		<clipPath id="hexagonClip">
			<path fill="#fff" d="M 23.759766,4 C 20.69088,4 18.058398,5.4966094 16.564453,8.0996094 L 1.0722656,35.105469 c -1.42894798,2.491 -1.42894798,5.298062 0,7.789062 L 16.564453,69.900391 C 18.058398,72.503391 20.69088,74 23.759766,74 h 30.480468 c 3.068887,0 5.70137,-1.496609 7.195313,-4.099609 l 15.492187,-27.00586 c 1.428948,-2.491 1.428948,-5.298062 0,-7.789062 L 61.435547,8.0996094 C 59.941604,5.4966094 57.30912,4 54.240234,4 Z" />
		</clipPath>

	</defs>

	<g clip-path="url(#hexagonClip)">
		<g>
			<path fill="#d6cbef" d="M 23.759766 4 C 20.69088 4 18.058398 5.4966094 16.564453 8.0996094 L 1.0722656 35.105469 C -0.3566817 37.596469 -0.3566817 40.403531 1.0722656 42.894531 L 16.564453 69.900391 C 18.058398 72.503391 20.69088 74 23.759766 74 L 54.240234 74 C 57.309121 74 59.941604 72.503391 61.435547 69.900391 L 76.927734 42.894531 C 78.356682 40.403531 78.356682 37.596469 76.927734 35.105469 L 61.435547 8.0996094 C 59.941604 5.4966094 57.30912 4 54.240234 4 L 23.759766 4 z" />
			<path fill="#bfaaed" d="M 24.5 12 C 23.757015 12 23.135618 12.362 22.765625 13 L 8.2753906 38 C 7.9073978 38.634 7.9073978 39.366 8.2753906 40 L 22.765625 65 C 23.135618 65.638 23.807796 66 24.550781 66 L 53.449219 66 C 54.193205 66 54.864383 65.638 55.234375 65 L 69.724609 40 C 70.092601 39.366 70.092601 38.634 69.724609 38 L 55.234375 13 C 54.864383 12.362 54.193205 12 53.449219 12 L 24.5 12 z" />
		</g>
		<g>
			<path fill="url(#ribbonGradientLeft)" filter="url(#ribbonShadow)" d="M 10 2 L 27 36 L 51 36 L 34 2 L 10 2 z" />
			<path fill="url(#ribbonGradientRight)" filter="url(#ribbonShadow)" d="M 44 2 L 27 36 L 51 36 L 68 2 L 44 2 z" />
		</g>
		<g>
			<path fill="url(#bronzeGradient1)" filter="url(#medalShadowOutside)" d="M 39 18 C 27.402 18 18 27.402 18 39 C 18 50.598 27.402 60 39 60 C 50.598 60 60 50.598 60 39 C 60 27.402 50.598 18 39 18 z" />
			<path fill="#facb53" filter="url(#medalShadowInside)" d="M 39 22 C 29.611 22 22 29.611 22 39 C 22 48.389 29.611 56 39 56 C 48.389 56 56 48.389 56 39 C 56 29.611 48.389 22 39 22 z" />
			<path fill="url(#bronzeGradient1)" d="M 39 26 A 13 13.000172 0 0 0 26 39 A 13 13.000172 0 0 0 39 52 A 13 13.000172 0 0 0 52 39 A 13 13.000172 0 0 0 39 26 z" />
		</g>
		<path fill="#fdf4b7" d="M 32.5 26 L 32 29 L 29.5 29 L 29.5 31 L 31.664062 31 L 31.335938 33 L 28.5 33 L 28.5 35 L 31 35 L 30.5 38 L 32.5 38 L 33 35 L 35 35 L 34.5 38 L 36.5 38 L 37 35 L 39.5 35 L 39.5 33 L 37.335938 33 L 37.664062 31 L 40.5 31 L 40.5 29 L 38 29 L 38.5 26 L 36.5 26 L 36 29 L 34 29 L 34.5 26 L 32.5 26 z M 45.5 26 L 42.5 28 L 42.5 31 L 44.5 29.75 L 44.5 38 L 47.5 38 L 47.5 26 L 45.5 26 z M 33.664062 31 L 35.664062 31 L 35.335938 33 L 33.335938 33 L 33.664062 31 z M 28 40 L 28 50 L 30 50 L 30 46 L 31 46 C 32.657 46 34 44.657 34 43 C 34 41.343 32.657 40 31 40 L 28 40 z M 35 40 L 35 50 L 37 50 L 37 46 L 37.5 46 L 39 50 L 41 50 L 39.375 45.664062 C 40.341 45.166063 41 44.162 41 43 C 41 41.343 39.656 40 38 40 L 35 40 z M 47 40 C 44.239 40 42 42.239 42 45 C 42 47.762 44.239 50 47 50 C 49.762 50 52 47.762 52 45 C 52 42.239 49.762 40 47 40 z M 30 42 L 31 42 C 31.558 42 32 42.446 32 43 C 32 43.555 31.553 44 31 44 L 30 44 L 30 42 z M 37 42 L 38 42 C 38.557 42 39 42.443 39 43 C 39 43.552 38.552 44 38 44 L 37 44 L 37 42 z M 47 42 C 48.657 42 50 43.343 50 45 C 50 46.657 48.657 48 47 48 C 45.343 48 44 46.657 44 45 C 44 43.343 45.343 42 47 42 z" />
	</g>

</svg>
