<svg xmlns="http://www.w3.org/2000/svg" width="78" height="78" viewBox="0 0 78 78">

	<defs>

		<linearGradient id="ribbonGradientLeft" x1="0" x2="0" y1="0" y2="1" gradientTransform="rotate(67.5 0.5 0.5)">
			<stop offset="0" stop-color="#35d0fb" />
			<stop offset="1" stop-color="#2389ee" />
		</linearGradient>

		<linearGradient id="ribbonGradientRight" x1="0" x2="0" y1="0" y2="1" gradientTransform="rotate(-67.5 0.5 0.5)">
			<stop offset="0" stop-color="#2389ee" />
			<stop offset="1" stop-color="#35d0fb" />
		</linearGradient>

		<filter id="medalShadowOutside" x="-50%" y="-50%" width="200%" height="200%">
			<feFlood flood-opacity="0.4" flood-color="#000" result="flood" />
			<feComposite in="flood" in2="SourceGraphic" operator="in" result="composite1" />
			<feGaussianBlur in="composite1" stdDeviation="5" result="blur" />
			<feOffset dx="0" dy="4" result="offset" />
			<feComposite in="SourceGraphic" in2="offset" operator="over" result="composite2" />
		</filter>

		<filter id="ribbonShadow">
			<feFlood flood-opacity="0.3" flood-color="#000" result="flood" />
			<feComposite in="flood" in2="SourceGraphic" operator="in" result="composite1" />
			<feGaussianBlur in="composite1" stdDeviation="3" result="blur" />
			<feOffset dx="0" dy="4" result="offset" />
			<feComposite in="SourceGraphic" in2="offset" operator="over" result="composite2" />
		</filter>

		<clipPath id="hexagonClip">
			<path fill="#fff" d="M 23.759766,4 C 20.69088,4 18.058398,5.4966094 16.564453,8.0996094 L 1.0722656,35.105469 c -1.42894798,2.491 -1.42894798,5.298062 0,7.789062 L 16.564453,69.900391 C 18.058398,72.503391 20.69088,74 23.759766,74 h 30.480468 c 3.068887,0 5.70137,-1.496609 7.195313,-4.099609 l 15.492187,-27.00586 c 1.428948,-2.491 1.428948,-5.298062 0,-7.789062 L 61.435547,8.0996094 C 59.941604,5.4966094 57.30912,4 54.240234,4 Z" />
		</clipPath>

	</defs>

	<g clip-path="url(#hexagonClip)">
		<g>
			<path fill="#00c0f3" d="M 23.759766 4 C 20.69088 4 18.058398 5.4966094 16.564453 8.0996094 L 1.0722656 35.105469 C -0.3566817 37.596469 -0.3566817 40.403531 1.0722656 42.894531 L 16.564453 69.900391 C 18.058398 72.503391 20.69088 74 23.759766 74 L 54.240234 74 C 57.309121 74 59.941604 72.503391 61.435547 69.900391 L 76.927734 42.894531 C 78.356682 40.403531 78.356682 37.596469 76.927734 35.105469 L 61.435547 8.0996094 C 59.941604 5.4966094 57.30912 4 54.240234 4 L 23.759766 4 z" />
			<path fill="#006096" d="M 24.5 12 C 23.757015 12 23.135618 12.362 22.765625 13 L 8.2753906 38 C 7.9073978 38.634 7.9073978 39.366 8.2753906 40 L 22.765625 65 C 23.135618 65.638 23.807796 66 24.550781 66 L 53.449219 66 C 54.193205 66 54.864383 65.638 55.234375 65 L 69.724609 40 C 70.092601 39.366 70.092601 38.634 69.724609 38 L 55.234375 13 C 54.864383 12.362 54.193205 12 53.449219 12 L 24.5 12 z" />
		</g>
		<g>
			<path fill="url(#ribbonGradientLeft)" filter="url(#ribbonShadow)" d="M 10 2 L 27 36 L 51 36 L 34 2 L 10 2 z" />
			<path fill="url(#ribbonGradientRight)" filter="url(#ribbonShadow)" d="M 44 2 L 27 36 L 51 36 L 68 2 L 44 2 z" />
		</g>
		<g>
			<path fill="#facb53" filter="url(#medalShadowOutside)" d="M 39 18 C 27.402 18 18 27.402 18 39 C 18 50.598 27.402 60 39 60 C 50.598 60 60 50.598 60 39 C 60 27.402 50.598 18 39 18 z" />
			<path fill="#fbb03d" d="M 39 22 C 29.611 22 22 29.611 22 39 C 22 48.389 29.611 56 39 56 C 48.389 56 56 48.389 56 39 C 56 29.611 48.389 22 39 22 z" />
		</g>
		<path fill="#fff7bc" d="M 27 28 L 27 38 L 29 38 L 29 34 L 30 34 C 31.657 34 33 32.65673 33 31 C 33 29.34327 31.657 28 30 28 L 27 28 z M 34.5 28 L 34.5 38 L 36.5 38 L 36.5 34 L 37 34 L 38.5 38 L 40.5 38 L 38.875 33.664062 C 39.841 33.166145 40.5 32.161811 40.5 31 C 40.5 29.34327 39.156 28 37.5 28 L 34.5 28 z M 47 28 C 44.239 28 42 30.23945 42 33 C 42 35.76155 44.239 38 47 38 C 49.762 38 52 35.76155 52 33 C 52 30.23945 49.762 28 47 28 z M 29 30 L 30 30 C 30.558 30 31 30.44709 31 31 C 31 31.555909 30.553 32 30 32 L 29 32 L 29 30 z M 36.5 30 L 37.5 30 C 38.057 30 38.5 30.44309 38.5 31 C 38.5 31.55191 38.052 32 37.5 32 L 36.5 32 L 36.5 30 z M 47 30 C 48.657 30 50 31.34327 50 33 C 50 34.656731 48.657 36 47 36 C 45.343 36 44 34.656731 44 33 C 44 31.34327 45.343 30 47 30 z M 31.5 40 L 31 43 L 28.5 43 L 28.5 45 L 30.664062 45 L 30.335938 47 L 27.5 47 L 27.5 49 L 30 49 L 29.5 52 L 31.5 52 L 32 49 L 34 49 L 33.5 52 L 35.5 52 L 36 49 L 38.5 49 L 38.5 47 L 36.335938 47 L 36.664062 45 L 39.5 45 L 39.5 43 L 37 43 L 37.5 40 L 35.5 40 L 35 43 L 33 43 L 33.5 40 L 31.5 40 z M 44.5 40 C 42.943 40 41.399 40.903261 41 42.5 L 41.935547 44.289062 C 42.447547 43.413204 43.266219 42.734375 44.324219 42.734375 C 45.062219 42.734375 45.748047 43.020626 45.748047 43.980469 C 45.748047 45.842166 41.711 49.226126 41 50 L 41 52 L 48.5 52 L 48.5 49.5 L 44.841797 49.5 C 46.293797 47.867266 48.285156 45.979012 48.285156 43.650391 C 48.285156 41.412755 46.689 40 44.5 40 z M 32.664062 45 L 34.664062 45 L 34.335938 47 L 32.335938 47 L 32.664062 45 z" />
	</g>

</svg>
