<svg xmlns="http://www.w3.org/2000/svg" width="78" height="78" viewBox="0 0 78 78">

	<defs>

		<filter id="butterflyShadowOutside" x="-50%" y="-50%" width="200%" height="200%">
			<feFlood flood-opacity="0.2" flood-color="#000" result="flood" />
			<feComposite in="flood" in2="SourceGraphic" operator="in" result="composite1" />
			<feGaussianBlur in="composite1" stdDeviation="1" result="blur" />
			<feOffset dx="1" dy="4" result="offset" />
			<feComposite in="SourceGraphic" in2="offset" operator="over" result="composite2" />
		</filter>

		<clipPath id="hexagonClip">
			<path fill="#fff" d="M 23.759766,4 C 20.69088,4 18.058398,5.4966094 16.564453,8.0996094 L 1.0722656,35.105469 c -1.42894798,2.491 -1.42894798,5.298062 0,7.789062 L 16.564453,69.900391 C 18.058398,72.503391 20.69088,74 23.759766,74 h 30.480468 c 3.068887,0 5.70137,-1.496609 7.195313,-4.099609 l 15.492187,-27.00586 c 1.428948,-2.491 1.428948,-5.298062 0,-7.789062 L 61.435547,8.0996094 C 59.941604,5.4966094 57.30912,4 54.240234,4 Z" />
		</clipPath>

	</defs>

	<g clip-path="url(#hexagonClip)">
		<g>
			<path fill="#eff2ff" d="M 23.759766 4 C 20.69088 4 18.058398 5.4966094 16.564453 8.0996094 L 1.0722656 35.105469 C -0.3566817 37.596469 -0.3566817 40.403531 1.0722656 42.894531 L 16.564453 69.900391 C 18.058398 72.503391 20.69088 74 23.759766 74 L 54.240234 74 C 57.309121 74 59.941604 72.503391 61.435547 69.900391 L 76.927734 42.894531 C 78.356682 40.403531 78.356682 37.596469 76.927734 35.105469 L 61.435547 8.0996094 C 59.941604 5.4966094 57.30912 4 54.240234 4 L 23.759766 4 z" />
			<path fill="#9ba7d2" d="M 24.5 12 C 23.757015 12 23.135618 12.362 22.765625 13 L 8.2753906 38 C 7.9073978 38.634 7.9073978 39.366 8.2753906 40 L 22.765625 65 C 23.135618 65.638 23.807796 66 24.550781 66 L 53.449219 66 C 54.193205 66 54.864383 65.638 55.234375 65 L 69.724609 40 C 70.092601 39.366 70.092601 38.634 69.724609 38 L 55.234375 13 C 54.864383 12.362 54.193205 12 53.449219 12 L 24.5 12 z" />
		</g>
		<g filter="url(#butterflyShadowOutside)">
			<g>
				<path fill="#feccfd" d="M 48.388672 15.925781 L 46.267578 18.048828 C 48.413578 20.194828 48.413578 23.680172 46.267578 25.826172 L 38.841797 33.251953 L 40.964844 35.371094 L 48.388672 27.947266 C 51.694672 24.642266 51.694672 19.231781 48.388672 15.925781 z" />
				<path fill="#feccfd" d="M 32.478516 11.330078 L 21.869141 21.9375 C 18.819141 24.9885 17.941328 29.411953 19.236328 33.251953 C 17.235328 33.371953 15.269234 34.195609 13.740234 35.724609 C 10.420234 39.044609 10.420234 44.427094 13.740234 47.746094 C 17.059234 51.066094 22.440766 51.066094 25.759766 47.746094 C 25.759766 47.746094 40.347875 33.160891 41.671875 31.837891 C 44.786875 28.721891 44.786875 23.638438 41.671875 20.523438 L 32.478516 11.330078 z" />
				<g fill="#9ca8d3">
					<path d="M 31.771484 19.109375 L 26.585938 24.294922 C 24.545938 26.335922 23.9635 29.239203 25.0625 31.908203 L 28.234375 39.615234 L 36.013672 31.837891 C 38.349672 29.500891 39.057703 26.394594 36.720703 24.058594 L 31.771484 19.109375 z" />
					<path d="M 19.75 37.236328 C 18.59825 37.236328 17.446859 37.675687 16.568359 38.554688 C 14.810359 40.311687 14.810359 43.160969 16.568359 44.917969 C 18.325359 46.675969 21.174641 46.675969 22.931641 44.917969 C 24.689641 43.160969 24.689641 40.311687 22.931641 38.554688 C 22.053141 37.675688 20.90175 37.236328 19.75 37.236328 z" />
				</g>
				<path fill="#fd9bfc" d="M 31.064453 26.886719 L 28.941406 29.007812 L 33.892578 33.957031 L 36.013672 31.837891 L 31.064453 26.886719 z" />

			</g>
			<g>
				<path fill="#fd9bfc" d="M 55.8125 26.882812 C 53.63375 26.882812 51.455234 27.708328 49.802734 29.361328 L 42.376953 36.785156 L 44.498047 38.908203 L 51.923828 31.482422 C 54.069828 29.336422 57.555172 29.336422 59.701172 31.482422 L 61.822266 29.361328 C 60.169766 27.708328 57.99125 26.882813 55.8125 26.882812 z" />
				<path fill="#eff2ff" d="M 51.570312 33.742188 C 49.520812 33.742188 47.470109 34.520625 45.912109 36.078125 C 44.589109 37.402125 30.003906 51.990234 30.003906 51.990234 C 26.683906 55.309234 26.683906 60.690766 30.003906 64.009766 C 33.322906 67.329766 38.704437 67.329766 42.023438 64.009766 C 43.553438 62.480766 44.378047 60.514672 44.498047 58.513672 C 48.338047 59.808672 52.7615 58.930859 55.8125 55.880859 L 66.419922 45.271484 L 57.226562 36.078125 C 55.668563 34.520625 53.619813 33.742188 51.570312 33.742188 z" />
				<g fill="#fd9bfc">
					<path d="M 50.3125 39.591797 C 48.78549 39.623383 47.226672 40.422328 45.912109 41.736328 L 38.134766 49.513672 L 45.841797 52.6875 C 48.510797 53.7865 51.414078 53.205062 53.455078 51.164062 L 58.640625 45.978516 L 53.691406 41.029297 C 52.669406 40.006859 51.500174 39.56723 50.3125 39.591797 z" />
					<path d="M 36.013672 53.5 C 34.861922 53.5 33.710531 53.939359 32.832031 54.818359 C 31.074031 56.575359 31.074031 59.424641 32.832031 61.181641 C 34.589031 62.938641 37.438313 62.938641 39.195312 61.181641 C 40.953313 59.424641 40.953313 56.575359 39.195312 54.818359 C 38.316812 53.939359 37.165422 53.5 36.013672 53.5 z" />
				</g>
				<path fill="#fd6bfc" d="M 45.912109 41.736328 L 43.792969 43.857422 L 48.742188 48.806641 L 50.863281 46.685547 L 45.912109 41.736328 z" />

			</g>
			<g>
				<path fill="#9ca8d3" d="M 39.902344 33.351562 C 38.748969 33.351562 37.595703 33.789062 36.720703 34.664062 L 28.234375 43.150391 C 26.484375 44.901391 26.484375 47.764625 28.234375 49.515625 C 29.985375 51.265625 32.849609 51.265625 34.599609 49.515625 L 43.085938 41.029297 C 44.835938 39.278297 44.834984 36.414062 43.083984 34.664062 C 42.209484 33.789062 41.055719 33.351562 39.902344 33.351562 z" />
				<path fill="#7884ad" d="M 43.087891 34.667969 L 28.236328 49.515625 C 29.986328 51.265625 32.851563 51.267578 34.601562 49.517578 L 43.087891 41.03125 C 44.837891 39.28125 44.837891 36.417969 43.087891 34.667969 z" />
			</g>
		</g>
	</g>

</svg>
