<svg xmlns="http://www.w3.org/2000/svg" width="78" height="78" viewBox="0 0 78 78">

	<defs>

		<filter id="butterflyShadowOutside" x="-50%" y="-50%" width="200%" height="200%">
			<feFlood flood-opacity="0.2" flood-color="#000" result="flood" />
			<feComposite in="flood" in2="SourceGraphic" operator="in" result="composite1" />
			<feGaussianBlur in="composite1" stdDeviation="1" result="blur" />
			<feOffset dx="1" dy="4" result="offset" />
			<feComposite in="SourceGraphic" in2="offset" operator="over" result="composite2" />
		</filter>

		<clipPath id="hexagonClip">
			<path fill="#fff" d="M 23.759766,4 C 20.69088,4 18.058398,5.4966094 16.564453,8.0996094 L 1.0722656,35.105469 c -1.42894798,2.491 -1.42894798,5.298062 0,7.789062 L 16.564453,69.900391 C 18.058398,72.503391 20.69088,74 23.759766,74 h 30.480468 c 3.068887,0 5.70137,-1.496609 7.195313,-4.099609 l 15.492187,-27.00586 c 1.428948,-2.491 1.428948,-5.298062 0,-7.789062 L 61.435547,8.0996094 C 59.941604,5.4966094 57.30912,4 54.240234,4 Z" />
		</clipPath>

	</defs>

	<g clip-path="url(#hexagonClip)">
		<g>
			<path fill="#936fe2" d="M 23.759766 4 C 20.69088 4 18.058398 5.4966094 16.564453 8.0996094 L 1.0722656 35.105469 C -0.3566817 37.596469 -0.3566817 40.403531 1.0722656 42.894531 L 16.564453 69.900391 C 18.058398 72.503391 20.69088 74 23.759766 74 L 54.240234 74 C 57.309121 74 59.941604 72.503391 61.435547 69.900391 L 76.927734 42.894531 C 78.356682 40.403531 78.356682 37.596469 76.927734 35.105469 L 61.435547 8.0996094 C 59.941604 5.4966094 57.30912 4 54.240234 4 L 23.759766 4 z" />
			<path fill="#855ae6" d="M 24.5 12 C 23.757015 12 23.135618 12.362 22.765625 13 L 8.2753906 38 C 7.9073978 38.634 7.9073978 39.366 8.2753906 40 L 22.765625 65 C 23.135618 65.638 23.807796 66 24.550781 66 L 53.449219 66 C 54.193205 66 54.864383 65.638 55.234375 65 L 69.724609 40 C 70.092601 39.366 70.092601 38.634 69.724609 38 L 55.234375 13 C 54.864383 12.362 54.193205 12 53.449219 12 L 24.5 12 z" />
		</g>
		<g filter="url(#butterflyShadowOutside)">
			<g>
				<path fill="#fff7cc" d="M 49.941406 10.792969 L 47.820312 12.914062 C 50.739313 15.834063 50.739312 20.599531 47.820312 23.519531 L 40.394531 30.945312 L 42.517578 33.066406 L 49.941406 25.640625 C 54.031406 21.551625 54.032406 14.882969 49.941406 10.792969 z" />
				<path fill="#f9ed99" d="M 30.849609 5.84375 L 18.121094 18.570312 C 14.789094 21.903313 13.832906 26.737641 15.253906 30.931641 C 12.692906 31.104641 10.180656 32.168953 8.2226562 34.126953 C 3.9266562 38.422953 3.9266562 45.388594 8.2226562 49.683594 C 12.518656 53.979594 19.482344 53.979594 23.777344 49.683594 L 40.748047 32.712891 C 45.421047 28.039891 45.421047 20.416187 40.748047 15.742188 L 30.849609 5.84375 z" />
				<g fill="#ffc21c">
					<path d="M 16 36.904297 C 14.7205 36.904297 13.441344 37.392641 12.464844 38.369141 C 10.511844 40.321141 10.511844 43.488406 12.464844 45.441406 C 14.417844 47.393406 17.582156 47.393406 19.535156 45.441406 C 21.488156 43.488406 21.488156 40.321141 19.535156 38.369141 C 18.558656 37.392641 17.2795 36.904297 16 36.904297 z" />
					<path d="M 30.849609 15.742188 L 23.070312 23.519531 C 21.212312 25.377531 20.48225 28.241797 21.65625 30.591797 L 25.900391 39.076172 L 36.507812 28.470703 C 38.453812 26.524703 38.454813 23.345437 36.507812 21.398438 L 30.849609 15.742188 z" />
				</g>
				<path fill="#d3cc97" d="M 30.142578 23.519531 L 28.021484 25.642578 L 33.677734 31.298828 L 35.798828 29.177734 L 30.142578 23.519531 z" />
			</g>
			<g>
				<path fill="#d3cc97" d="M 58.783203 23.990234 C 56.093453 23.990359 53.403875 25.014094 51.359375 27.058594 L 43.933594 34.482422 L 46.054688 36.605469 L 53.480469 29.179688 C 56.400469 26.260687 61.165938 26.260687 64.085938 29.179688 L 66.207031 27.058594 C 64.161531 25.013594 61.472953 23.990109 58.783203 23.990234 z" />
				<path fill="#ffc21c" d="M 52.771484 32.746094 C 49.697109 32.746219 46.623609 33.915453 44.287109 36.251953 L 27.316406 53.220703 C 23.020406 57.516703 23.020406 64.481344 27.316406 68.777344 C 31.611406 73.073344 38.577047 73.073344 42.873047 68.777344 C 44.831047 66.819344 45.895359 64.307094 46.068359 61.746094 C 50.262359 63.167094 55.096687 62.210906 58.429688 58.878906 L 71.15625 46.150391 L 61.257812 36.251953 C 58.920812 33.914953 55.845859 32.745969 52.771484 32.746094 z" />
				<g fill="#d3cc97">
					<path d="M 35.095703 56 C 33.816078 56 32.535094 56.488344 31.558594 57.464844 C 29.606594 59.417844 29.606594 62.582156 31.558594 64.535156 C 33.511594 66.488156 36.678859 66.488156 38.630859 64.535156 C 40.583859 62.582156 40.583859 59.417844 38.630859 57.464844 C 37.654859 56.488344 36.375328 56 35.095703 56 z" />
					<path d="M 52.064453 39.033203 C 50.783453 39.033328 49.502297 39.519188 48.529297 40.492188 L 37.923828 51.099609 L 46.408203 55.34375 C 48.757203 56.51775 51.622469 55.787688 53.480469 53.929688 L 61.257812 46.150391 L 55.601562 40.492188 C 54.627562 39.518687 53.345453 39.033078 52.064453 39.033203 z" />
				</g>
				<path fill="#ff9100" d="M 47.822266 41.201172 L 45.701172 43.322266 L 51.357422 48.978516 L 53.480469 46.857422 L 47.822266 41.201172 z" />
			</g>
			<g>
				<path fill="#936fe2" d="M 40.398438 31.609375 C 39.116688 31.609375 37.833828 32.095859 36.861328 33.068359 L 24.841797 45.089844 C 22.897797 47.033844 22.897797 50.215156 24.841797 52.160156 C 26.786797 54.104156 29.967109 54.105156 31.912109 52.160156 L 43.933594 40.140625 C 45.878594 38.196625 45.877594 35.013359 43.933594 33.068359 C 42.961094 32.095859 41.680187 31.609375 40.398438 31.609375 z" />
				<path fill="#bfaaed" d="M 43.931641 33.066406 L 24.839844 52.158203 C 26.784844 54.102203 29.966156 54.103203 31.910156 52.158203 L 43.931641 40.138672 C 45.876641 38.193672 45.875641 35.011406 43.931641 33.066406 z" />
			</g>
		</g>
	</g>

</svg>
