<svg xmlns="http://www.w3.org/2000/svg" width="78" height="78" viewBox="0 0 78 78">

	<defs>

		<filter id="butterflyShadowOutside" x="-50%" y="-50%" width="200%" height="200%">
			<feFlood flood-opacity="0.2" flood-color="#000" result="flood" />
			<feComposite in="flood" in2="SourceGraphic" operator="in" result="composite1" />
			<feGaussianBlur in="composite1" stdDeviation="2" result="blur" />
			<feOffset dx="1" dy="4" result="offset" />
			<feComposite in="SourceGraphic" in2="offset" operator="over" result="composite2" />
		</filter>

		<clipPath id="hexagonClip">
			<path fill="#fff" d="M 23.759766,4 C 20.69088,4 18.058398,5.4966094 16.564453,8.0996094 L 1.0722656,35.105469 c -1.42894798,2.491 -1.42894798,5.298062 0,7.789062 L 16.564453,69.900391 C 18.058398,72.503391 20.69088,74 23.759766,74 h 30.480468 c 3.068887,0 5.70137,-1.496609 7.195313,-4.099609 l 15.492187,-27.00586 c 1.428948,-2.491 1.428948,-5.298062 0,-7.789062 L 61.435547,8.0996094 C 59.941604,5.4966094 57.30912,4 54.240234,4 Z" />
		</clipPath>

	</defs>

	<g clip-path="url(#hexagonClip)">
		<g>
			<path fill="#cbbaa0" d="M 23.759766 4 C 20.69088 4 18.058398 5.4966094 16.564453 8.0996094 L 1.0722656 35.105469 C -0.3566817 37.596469 -0.3566817 40.403531 1.0722656 42.894531 L 16.564453 69.900391 C 18.058398 72.503391 20.69088 74 23.759766 74 L 54.240234 74 C 57.309121 74 59.941604 72.503391 61.435547 69.900391 L 76.927734 42.894531 C 78.356682 40.403531 78.356682 37.596469 76.927734 35.105469 L 61.435547 8.0996094 C 59.941604 5.4966094 57.30912 4 54.240234 4 L 23.759766 4 z" />
			<path fill="#f4ede1" d="M 24.5 12 C 23.757015 12 23.135618 12.362 22.765625 13 L 8.2753906 38 C 7.9073978 38.634 7.9073978 39.366 8.2753906 40 L 22.765625 65 C 23.135618 65.638 23.807796 66 24.550781 66 L 53.449219 66 C 54.193205 66 54.864383 65.638 55.234375 65 L 69.724609 40 C 70.092601 39.366 70.092601 38.634 69.724609 38 L 55.234375 13 C 54.864383 12.362 54.193205 12 53.449219 12 L 24.5 12 z" />
		</g>
		<g filter="url(#butterflyShadowOutside)">
			<g>
				<path fill="#fff7cc" d="M 46.070312 22.736328 L 44.65625 24.150391 C 46.21325 25.707391 46.21325 28.250594 44.65625 29.808594 L 39.707031 34.757812 L 41.121094 36.171875 L 46.070312 31.222656 C 48.407313 28.885656 48.407313 25.074328 46.070312 22.736328 z" />
				<path fill="#f9ed99" d="M 34.757812 19.908203 L 27.685547 26.980469 C 25.484547 29.182469 24.837047 32.365531 25.748047 35.144531 C 24.391047 35.262531 23.068297 35.839906 22.029297 36.878906 C 19.686297 39.221906 19.686297 43.020281 22.029297 45.363281 C 24.372297 47.706281 28.170672 47.706281 30.513672 45.363281 L 41.121094 34.757812 C 43.458094 32.421813 43.458094 28.608484 41.121094 26.271484 L 34.757812 19.908203 z" />
				<g>
					<path fill="#d3cc97" d="M 26.271484 38.121094 C 25.503734 38.121094 24.736391 38.414 24.150391 39 C 22.979391 40.172 22.979391 42.070188 24.150391 43.242188 C 25.322391 44.414187 27.220578 44.413187 28.392578 43.242188 C 29.564578 42.070188 29.564578 40.172 28.392578 39 C 27.806578 38.414 27.039234 38.121094 26.271484 38.121094 z" />
					<path fill="#ffda2d" d="M 34.757812 25.564453 L 30.513672 29.808594 C 29.011672 31.310594 28.971594 32.805813 29.808594 34.757812 L 31.929688 39.707031 L 37.585938 34.050781 C 39.532938 32.103781 38.825906 29.6345 36.878906 27.6875 L 34.757812 25.564453 z" />
				</g>
				<path fill="#ffc21c" d="M 33.34375 31.222656 L 31.929688 32.636719 L 35.464844 36.171875 L 36.878906 34.757812 L 33.34375 31.222656 z" />
			</g>
			<g>
				<path fill="#ffe6b3" d="M 51.021484 30.175781 C 49.484359 30.175781 47.945844 30.761188 46.777344 31.929688 L 41.828125 36.878906 L 43.242188 38.292969 L 48.191406 33.34375 C 49.749406 31.78675 52.292609 31.78675 53.849609 33.34375 L 55.263672 31.929688 C 54.094672 30.761187 52.558609 30.175781 51.021484 30.175781 z" />
				<path fill="#ffc21c" d="M 47.484375 35.126953 C 45.94725 35.126953 44.410187 35.710406 43.242188 36.878906 L 32.636719 47.486328 C 30.293719 49.829328 30.293719 53.627703 32.636719 55.970703 C 34.979719 58.313703 38.778094 58.313703 41.121094 55.970703 C 42.160094 54.931703 42.737469 53.608953 42.855469 52.251953 C 45.634469 53.162953 48.817531 52.515453 51.019531 50.314453 L 58.091797 43.242188 L 51.728516 36.878906 C 50.560016 35.710406 49.0215 35.126953 47.484375 35.126953 z" />
				<g fill="#d3cc97">
					<path d="M 36.878906 48.728516 C 36.111156 48.728516 35.343812 49.021422 34.757812 49.607422 C 33.586813 50.779422 33.585813 52.677609 34.757812 53.849609 C 35.929812 55.020609 37.828 55.020609 39 53.849609 C 40.172 52.677609 40.172 50.779422 39 49.607422 C 38.414 49.021422 37.646656 48.728516 36.878906 48.728516 z" />
					<path d="M 46.304688 39.267578 C 45.482752 39.325955 44.679344 39.683937 43.949219 40.414062 L 38.292969 46.070312 L 43.242188 48.191406 C 45.194187 49.028406 46.689406 48.988328 48.191406 47.486328 L 52.435547 43.242188 L 50.3125 41.121094 C 49.095 39.903594 47.67458 39.170283 46.304688 39.267578 z" />
				</g>
				<path fill="#ffc21c" d="M 43.242188 41.121094 L 41.828125 42.535156 L 45.363281 46.070312 L 46.777344 44.65625 L 43.242188 41.121094 z" />
			</g>
			<g>
				<path fill="#9ca8d3" d="M 40.060547 34.943359 C 39.291547 34.943359 38.522953 35.234859 37.939453 35.818359 L 31.574219 42.181641 C 30.407219 43.348641 30.407219 45.258781 31.574219 46.425781 C 32.741219 47.592781 34.651359 47.592781 35.818359 46.425781 L 42.181641 40.060547 C 43.348641 38.893547 43.348641 36.985359 42.181641 35.818359 C 41.598141 35.234859 40.829547 34.943359 40.060547 34.943359 z" />
				<path fill="#7884ad" d="M 42.183594 35.820312 L 31.576172 46.425781 C 32.742172 47.592781 34.651359 47.592781 35.818359 46.425781 L 42.183594 40.0625 C 43.350594 38.8955 43.350594 36.986312 42.183594 35.820312 z" />
			</g>
		</g>
	</g>

</svg>
