<svg xmlns="http://www.w3.org/2000/svg" width="112" height="82" viewBox="0 0 112 82">
	<path fill="#f8a39f" d="M8.72 17.706C15.119 6.291 33.24 6.443 33.3 21.845c-.031 7.522-3.633 14.884-4.358 22.479-1.265 12.65 7.662 27.075 20.628 16.41 6.388-5.26 17.281-20.661 26.674-11.986 5.765 5.257 2.77 15.612 5.207 22.625 1.978 5.41 6.568 10.501 12.823 9.84 7.285-.686 13.184-9.777 16.838-15.079 3.202-4.51-3.594-9.741-6.627-5.207-2.987 4.198-10.915 16.767-15.325 6.74-1.687-3.829-.811-8.837-1.277-12.836-.83-6.275-3.264-12.09-9.191-14.976-6.095-2.909-13.26-1.863-19.005 1.264-3.902 2.188-7.059 5.165-10.216 8.142-1.602 1.656-3.752 4.775-5.93 5.666-5.292 2.335-6.022-2.215-6.343-6.023-1.447-14.057 11.125-29.224-.65-41.654C25.23-4.774 8.204 1.898.948 14.56c-2.698 4.582 5.051 7.894 7.773 3.145z" />
</svg>
