<?xml version="1.0" encoding="UTF-8" standalone="no"?>
<svg
   xmlns:dc="http://purl.org/dc/elements/1.1/"
   xmlns:cc="http://creativecommons.org/ns#"
   xmlns:rdf="http://www.w3.org/1999/02/22-rdf-syntax-ns#"
   xmlns:svg="http://www.w3.org/2000/svg"
   xmlns="http://www.w3.org/2000/svg"
   xmlns:sodipodi="http://sodipodi.sourceforge.net/DTD/sodipodi-0.dtd"
   xmlns:inkscape="http://www.inkscape.org/namespaces/inkscape"
   width="72"
   height="72"
   viewBox="0 0 72 72"
   version="1.1"
   id="svg54"
   sodipodi:docname="fapp_idea-1.svg"
   inkscape:version="0.92.4 (5da689c313, 2019-01-14)">
  <metadata
     id="metadata60">
    <rdf:RDF>
      <cc:Work
         rdf:about="">
        <dc:format>image/svg+xml</dc:format>
        <dc:type
           rdf:resource="http://purl.org/dc/dcmitype/StillImage" />
      </cc:Work>
    </rdf:RDF>
  </metadata>
  <defs
     id="defs58" />
  <sodipodi:namedview
     pagecolor="#ffffff"
     bordercolor="#666666"
     borderopacity="1"
     objecttolerance="10"
     gridtolerance="10"
     guidetolerance="10"
     inkscape:pageopacity="0"
     inkscape:pageshadow="2"
     inkscape:window-width="1920"
     inkscape:window-height="1027"
     id="namedview56"
     showgrid="false"
     inkscape:zoom="3.2777778"
     inkscape:cx="36"
     inkscape:cy="36"
     inkscape:window-x="-8"
     inkscape:window-y="-8"
     inkscape:window-maximized="1"
     inkscape:current-layer="svg54" />
  <path
     style="fill:#6b9777;fill-rule:nonzero"
     d="M 1.3535156 28.798828 L 3.9648438 33.677734 A 8.372 8.372 0 0 0 9.1191406 37.798828 L 14.443359 39.261719 L 12.644531 34.732422 A 8.372 8.372 0 0 0 6.1503906 29.542969 L 1.3535156 28.798828 z "
     id="path2" />
  <path
     style="fill:#55785f;fill-rule:nonzero"
     d="M 16.058594 32.304688 A 1.195 1.195 0 0 0 14.894531 33.162109 L 13.974609 36.576172 A 12.78 12.78 0 0 0 15.423828 46.566406 C 15.640828 46.920406 16.025453 47.134766 16.439453 47.134766 L 16.441406 47.134766 L 16.441406 47.130859 C 16.874406 47.130859 17.272375 46.895625 17.484375 46.515625 C 17.694375 46.135625 17.684031 45.670781 17.457031 45.300781 A 10.374 10.374 0 0 1 16.279297 37.197266 L 17.199219 33.787109 A 1.195 1.195 0 0 0 16.058594 32.304688 z "
     id="path4" />
  <path
     style="fill:#a88e74;fill-rule:nonzero"
     d="M 22.863281 7.1972656 L 22.863281 70.798828 L 70.662109 70.798828 L 70.662109 7.1972656 L 22.863281 7.1972656 z "
     id="path6" />
  <path
     style="fill:#9a826a;fill-rule:nonzero"
     d="M 22.863281 10.798828 L 22.863281 70.798828 L 67.078125 70.798828 L 67.078125 10.798828 L 22.863281 10.798828 z "
     id="path8" />
  <path
     style="fill:#9a826a;fill-rule:nonzero"
     d="M 53.933594 7.1972656 L 53.933594 11.998047 L 55.128906 11.998047 L 55.128906 7.1972656 L 53.933594 7.1972656 z "
     id="path10" />
  <path
     style="fill:#f0f0f0;fill-rule:nonzero"
     d="M 19.277344 11.998047 L 19.277344 70.798828 L 65.884766 70.798828 L 65.884766 11.998047 L 19.277344 11.998047 z "
     id="path12" />
  <path
     style="fill:#a8a8a8;fill-rule:nonzero"
     d="M 37.203125 7.1972656 L 37.203125 11.998047 A 2.395 2.395 0 0 0 39.59375 14.398438 L 51.542969 14.398438 C 52.862969 14.398437 53.933594 13.324047 53.933594 11.998047 L 53.933594 7.1972656 L 37.203125 7.1972656 z "
     id="path14" />
  <path
     style="fill:#878787;fill-rule:nonzero"
     d="M 44.578125 1.1972656 A 2.383 2.383 0 0 0 42.884766 1.9003906 C 42.434766 2.3503906 42.183594 2.9606562 42.183594 3.5976562 L 42.183594 7.1972656 L 47.957031 7.1972656 L 47.957031 3.5976562 C 47.957031 2.2726562 46.888359 1.1972656 45.568359 1.1972656 L 44.578125 1.1972656 z "
     id="path16" />
  <path
     style="fill:#fbb540;fill-rule:nonzero"
     d="M 33.019531 27.597656 C 31.369444 27.598731 30.033203 28.94132 30.033203 30.597656 A 2.994 2.994 0 0 0 33.021484 33.597656 C 34.671484 33.597656 36.007812 32.254656 36.007812 30.597656 A 2.994 2.994 0 0 0 33.021484 27.597656 L 33.019531 27.597656 z "
     id="path18" />
  <path
     style="fill:#d9d9d9;fill-rule:nonzero"
     d="M 39.59375 19.798828 L 39.59375 22.197266 L 52.738281 22.197266 L 52.738281 19.798828 L 39.59375 19.798828 z M 39.59375 28.798828 L 39.59375 31.197266 L 57.519531 31.197266 L 57.519531 28.798828 L 39.59375 28.798828 z M 59.908203 28.798828 L 59.908203 31.197266 L 62.298828 31.197266 L 62.298828 28.798828 L 59.908203 28.798828 z M 39.59375 41.998047 L 39.59375 44.398438 L 57.519531 44.398438 L 57.519531 41.998047 L 39.59375 41.998047 z M 59.908203 41.998047 L 59.908203 44.398438 L 62.298828 44.398438 L 62.298828 41.998047 L 59.908203 41.998047 z M 39.59375 55.197266 L 39.59375 57.597656 L 57.519531 57.597656 L 57.519531 55.197266 L 39.59375 55.197266 z M 59.908203 55.197266 L 59.908203 57.597656 L 62.298828 57.597656 L 62.298828 55.197266 L 59.908203 55.197266 z M 40.787109 64.798828 L 40.787109 67.197266 L 43.177734 67.197266 L 43.177734 64.798828 L 40.787109 64.798828 z "
     id="path20" />
  <path
     style="fill:#f0f0f0;fill-rule:nonzero"
     d="M 45.568359 64.798828 L 45.568359 67.197266 L 47.957031 67.197266 L 47.957031 64.798828 L 45.568359 64.798828 z "
     id="path24" />
  <path
     style="fill:#d9d9d9;fill-rule:nonzero"
     d="M 50.347656 64.798828 L 50.347656 67.197266 L 52.738281 67.197266 L 52.738281 64.798828 L 50.347656 64.798828 z "
     id="path26" />
  <path
     style="fill:#e6e6e6;fill-rule:nonzero"
     d="M 26.447266 15.597656 L 26.447266 17.998047 L 28.837891 17.998047 L 28.837891 15.597656 L 26.447266 15.597656 z M 31.228516 15.597656 L 31.228516 17.998047 L 33.617188 17.998047 L 33.617188 15.597656 L 31.228516 15.597656 z M 57.519531 15.597656 L 57.519531 17.998047 L 59.908203 17.998047 L 59.908203 20.398438 L 62.298828 20.398438 L 62.298828 16.798828 C 62.298828 16.136828 61.763516 15.597656 61.103516 15.597656 L 57.519531 15.597656 z M 59.908203 62.398438 L 59.908203 64.798828 L 57.519531 64.798828 L 57.519531 67.197266 L 61.103516 67.197266 C 61.763516 67.197266 62.298828 66.661047 62.298828 65.998047 L 62.298828 62.398438 L 59.908203 62.398438 z "
     id="path28" />
  <path
     style="fill:#7a7a7a;fill-rule:nonzero"
     d="M 42.183594 4.7988281 L 42.183594 7.1972656 L 47.957031 7.1972656 L 47.957031 4.7988281 L 42.183594 4.7988281 z "
     id="path30" />
  <path
     style="fill:#d9d9d9;fill-rule:nonzero"
     d="M 26.869141 41.998047 C 25.138141 41.998047 23.479859 42.688969 22.255859 43.917969 L 21.912109 44.261719 A 5.215 5.215 0 0 1 19.277344 45.6875 L 19.277344 67.863281 C 19.601344 68.028281 19.884516 68.266594 20.103516 68.558594 L 20.371094 68.917969 A 4.678 4.678 0 0 0 24.117188 70.798828 A 4.678 4.678 0 0 0 27.955078 68.792969 L 28.476562 68.044922 A 28.662 28.662 0 0 0 33.332031 47.626953 C 32.872031 44.396953 30.117141 41.998047 26.869141 41.998047 z "
     id="path32" />
  <path
     style="fill:#fbb540;fill-rule:nonzero"
     d="M 33.019531 53.998047 C 31.369444 53.999122 30.033203 55.341711 30.033203 56.998047 A 2.994 2.994 0 0 0 33.021484 59.998047 C 34.671484 59.998047 36.007812 58.655047 36.007812 56.998047 A 2.994 2.994 0 0 0 33.021484 53.998047 L 33.019531 53.998047 z "
     id="path34" />
  <path
     style="fill:#ecaa3c;fill-rule:nonzero"
     d="M 33.019531 53.998047 A 2.992 2.992 0 0 0 30.070312 56.671875 A 3 3 0 0 0 32.373047 59.923828 C 32.949047 58.007828 33.322281 56.035969 33.488281 54.042969 A 2.795 2.795 0 0 0 33.021484 53.998047 L 33.019531 53.998047 z "
     id="path36" />
  <path
     style="fill:#fbb540;fill-rule:nonzero"
     d="M 33.019531 40.798828 C 31.369444 40.799903 30.033203 42.142492 30.033203 43.798828 A 2.994 2.994 0 0 0 33.021484 46.798828 C 34.671484 46.798828 36.007812 45.455828 36.007812 43.798828 A 2.994 2.994 0 0 0 33.021484 40.798828 L 33.019531 40.798828 z "
     id="path38" />
  <path
     style="fill:#ecaa3c;fill-rule:nonzero"
     d="M 30.181641 42.90625 L 30.181641 42.908203 A 2.985 2.985 0 0 0 30.650391 45.625 A 2.957 2.957 0 0 0 33.140625 46.787109 A 6.54 6.54 0 0 0 30.181641 42.90625 z "
     id="path40" />
  <path
     style="fill:#f55648;fill-rule:nonzero"
     d="M 8.1015625 41.998047 C 4.8525625 41.998047 2.0986719 44.396953 1.6386719 47.626953 A 28.658 28.658 0 0 0 6.4902344 68.044922 L 7.015625 68.792969 A 4.677 4.677 0 0 0 10.853516 70.798828 A 4.677 4.677 0 0 0 14.599609 68.917969 L 14.867188 68.556641 A 2.386 2.386 0 0 1 18.689453 68.556641 L 18.960938 68.917969 A 4.677 4.677 0 0 0 22.707031 70.798828 A 4.675 4.675 0 0 0 26.542969 68.792969 L 27.064453 68.044922 A 28.653 28.653 0 0 0 31.919922 47.626953 C 31.460922 44.398953 28.706031 41.998047 25.457031 41.998047 A 6.51 6.51 0 0 0 20.841797 43.917969 L 20.5 44.261719 A 5.246 5.246 0 0 1 13.058594 44.261719 L 12.716797 43.917969 C 11.492797 42.687969 9.8325625 41.998047 8.1015625 41.998047 z "
     id="path42" />
  <path
     style="fill:#dc4d41;fill-rule:nonzero"
     d="M 15.570312 49.197266 A 1.193 1.193 0 0 0 14.515625 49.861328 A 1.203 1.203 0 0 0 15.050781 51.472656 A 6.533 6.533 0 0 0 17.974609 52.162109 A 6.53 6.53 0 0 0 20.898438 51.472656 A 1.204 1.204 0 0 0 21.433594 49.861328 A 1.193 1.193 0 0 0 19.830078 49.324219 A 4.15 4.15 0 0 1 16.117188 49.324219 A 1.193 1.193 0 0 0 15.570312 49.197266 z "
     id="path44" />
  <path
     style="fill:#000000;fill-rule:nonzero"
     d="M 20.378906 49.197266 A 1.193 1.193 0 0 0 19.830078 49.324219 A 4.15 4.15 0 0 1 16.117188 49.324219 A 1.193 1.193 0 0 0 14.515625 49.861328 A 1.203 1.203 0 0 0 15.050781 51.472656 C 16.892781 52.392656 19.057437 52.392656 20.898438 51.472656 C 21.488437 51.176656 21.727594 50.454328 21.433594 49.861328 A 1.193 1.193 0 0 0 20.378906 49.197266 z "
     id="path46" />
  <path
     style="fill:#000000;fill-rule:nonzero"
     d="M 44.578125 0.00390625 A 3.603 3.603 0 0 0 40.992188 3.609375 L 40.992188 5.9980469 L 22.861328 5.9980469 C 22.202328 5.9980469 21.667969 6.5352656 21.667969 7.1972656 L 21.667969 10.798828 L 19.277344 10.798828 C 18.617344 10.798828 18.082031 11.336047 18.082031 11.998047 L 18.082031 44.351562 A 4.218 4.218 0 0 1 17.042969 44.546875 A 10.287 10.287 0 0 1 16.279297 37.197266 L 17.199219 33.783203 A 1.195081 1.195081 0 1 0 14.892578 33.158203 L 14.251953 35.535156 L 13.753906 34.283203 A 9.608 9.608 0 0 0 6.3320312 28.351562 L 1.5332031 27.607422 A 1.193 1.193 0 0 0 0.37695312 28.101562 C 0.11595312 28.473562 0.08678125 28.961328 0.30078125 29.361328 L 2.9140625 34.238281 A 9.609 9.609 0 0 0 8.8046875 38.949219 L 13.537109 40.251953 C 13.570109 41.370953 13.752125 42.479781 14.078125 43.550781 C 14.021125 43.500781 13.958297 43.462156 13.904297 43.410156 L 13.560547 43.064453 A 7.656 7.656 0 0 0 8.0996094 40.798828 C 4.2606094 40.813828 1.0091719 43.642078 0.45117188 47.455078 A 29.752 29.752 0 0 0 5.515625 68.732422 L 6.0371094 69.478516 A 5.87 5.87 0 0 0 10.755859 71.996094 A 5.87 5.87 0 0 0 15.556641 69.636719 L 15.822266 69.277344 A 1.23 1.23 0 0 1 17.734375 69.277344 L 18.005859 69.636719 A 5.896 5.896 0 0 0 22.707031 71.998047 L 70.664062 71.998047 C 71.324062 71.998047 71.859375 71.461828 71.859375 70.798828 L 71.859375 7.1972656 C 71.859375 6.5352656 71.324062 5.9980469 70.664062 5.9980469 L 49.154297 5.9980469 L 49.154297 3.6035156 A 3.602 3.602 0 0 0 45.5625 0.00390625 L 44.578125 0.00390625 z M 44.572266 2.4042969 L 45.558594 2.4042969 C 46.218594 2.4042969 46.754813 2.9405156 46.757812 3.6035156 L 46.757812 5.9980469 L 43.378906 5.9980469 L 43.378906 3.6035156 C 43.378906 2.9405156 43.912266 2.4042969 44.572266 2.4042969 z M 24.058594 8.3984375 L 36.007812 8.3984375 L 36.007812 10.798828 L 24.058594 10.798828 L 24.058594 8.3984375 z M 38.398438 8.3984375 L 42.183594 8.4042969 L 52.738281 8.4042969 L 52.738281 12.003906 C 52.738281 12.666906 52.202969 13.203125 51.542969 13.203125 L 39.59375 13.203125 C 38.93375 13.203125 38.398437 12.666906 38.398438 12.003906 L 38.398438 8.3984375 z M 55.128906 8.3984375 L 69.46875 8.3984375 L 69.46875 69.597656 L 67.080078 69.597656 L 67.080078 11.998047 C 67.080078 11.336047 66.544766 10.798828 65.884766 10.798828 L 55.128906 10.798828 L 55.128906 8.3984375 z M 20.472656 13.197266 L 36.228516 13.197266 A 3.587 3.587 0 0 0 39.59375 15.597656 L 51.544922 15.597656 A 3.587 3.587 0 0 0 54.910156 13.197266 L 64.689453 13.197266 L 64.689453 69.597656 L 27.429688 69.597656 C 27.459688 69.557656 27.492484 69.523516 27.521484 69.478516 L 28.044922 68.730469 A 29.777 29.777 0 0 0 31.894531 61.027344 A 4.174 4.174 0 0 0 36.617188 59.105469 A 4.213 4.213 0 0 0 35.982422 54.025391 A 4.312 4.312 0 0 0 33.373047 52.832031 A 29.866 29.866 0 0 0 33.154297 47.982422 A 4.183 4.183 0 0 0 36.904297 45.335938 A 4.213 4.213 0 0 0 35.982422 40.824219 A 4.33 4.33 0 0 0 30.0625 40.824219 A 4.094 4.094 0 0 0 29.332031 41.865234 A 7.633 7.633 0 0 0 20.472656 42.636719 L 20.472656 13.197266 z M 3.5390625 30.347656 L 5.9648438 30.722656 A 7.214 7.214 0 0 1 11.533203 35.173828 L 12.441406 37.462891 L 9.4375 36.638672 A 7.197 7.197 0 0 1 5.015625 33.107422 L 3.5390625 30.347656 z M 32.925781 42.023438 A 1.86 1.86 0 0 1 34.291016 42.523438 A 1.816 1.816 0 0 1 34.291016 45.072266 A 1.868 1.868 0 0 1 32.521484 45.503906 L 32.521484 45.507812 A 7.733 7.733 0 0 0 31.259766 43.482422 C 31.321766 43.120422 31.494953 42.786437 31.751953 42.523438 A 1.86 1.86 0 0 1 32.925781 42.023438 z M 8.0996094 43.199219 A 5.283 5.283 0 0 1 11.869141 44.767578 L 12.212891 45.111328 A 6.35 6.35 0 0 0 19.621094 46.322266 C 19.772094 46.277266 19.912203 46.200609 20.033203 46.099609 C 20.512203 45.827609 20.952656 45.496328 21.347656 45.111328 L 21.691406 44.767578 A 5.28 5.28 0 0 1 25.457031 43.199219 A 5.367 5.367 0 0 1 30.736328 47.796875 A 27.347 27.347 0 0 1 26.083984 67.357422 L 25.564453 68.105469 A 3.483 3.483 0 0 1 19.914062 68.199219 L 19.646484 67.839844 A 3.58 3.58 0 0 0 13.910156 67.839844 L 13.642578 68.199219 A 3.483 3.483 0 0 1 10.794922 69.599609 A 3.482 3.482 0 0 1 7.9941406 68.105469 L 7.4726562 67.359375 A 27.353 27.353 0 0 1 2.8203125 47.800781 A 5.367 5.367 0 0 1 8.0996094 43.199219 z M 33.171875 55.236328 C 33.588875 55.268328 33.983016 55.440609 34.291016 55.724609 L 34.291016 55.726562 A 1.816 1.816 0 0 1 34.291016 58.277344 A 1.86 1.86 0 0 1 32.560547 58.716797 A 29.54 29.54 0 0 0 33.171875 55.236328 z "
     id="path48" />
  <path
     style="fill:#000000;fill-rule:nonzero"
     d="M 26.447266 15.597656 L 26.447266 17.998047 L 28.837891 17.998047 L 28.837891 15.597656 L 26.447266 15.597656 z M 31.228516 15.597656 L 31.228516 17.998047 L 33.617188 17.998047 L 33.617188 15.597656 L 31.228516 15.597656 z M 57.519531 15.597656 L 57.519531 17.998047 L 59.908203 17.998047 L 59.908203 20.398438 L 62.298828 20.398438 L 62.298828 16.798828 C 62.298828 16.136828 61.763516 15.597656 61.103516 15.597656 L 57.519531 15.597656 z M 39.59375 19.798828 L 39.59375 22.197266 L 52.738281 22.197266 L 52.738281 19.798828 L 39.59375 19.798828 z M 33.019531 26.398438 C 30.709531 26.398438 28.837891 28.277656 28.837891 30.597656 C 28.837891 32.917656 30.711484 34.798828 33.021484 34.798828 C 35.331484 34.798828 37.203125 32.917656 37.203125 30.597656 C 37.203125 28.277656 35.331484 26.398437 33.021484 26.398438 L 33.019531 26.398438 z M 33.021484 28.798828 C 34.011484 28.798828 34.8125 29.603656 34.8125 30.597656 C 34.8125 31.591656 34.011484 32.398438 33.021484 32.398438 L 33.019531 32.398438 C 32.029531 32.398438 31.228516 31.591656 31.228516 30.597656 C 31.228516 29.603656 32.030484 28.798828 33.021484 28.798828 z M 39.59375 28.798828 L 39.59375 31.197266 L 57.519531 31.197266 L 57.519531 28.798828 L 39.59375 28.798828 z M 59.908203 28.798828 L 59.908203 31.197266 L 62.298828 31.197266 L 62.298828 28.798828 L 59.908203 28.798828 z M 39.59375 41.998047 L 39.59375 44.398438 L 57.519531 44.398438 L 57.519531 41.998047 L 39.59375 41.998047 z M 59.908203 41.998047 L 59.908203 44.398438 L 62.298828 44.398438 L 62.298828 41.998047 L 59.908203 41.998047 z M 39.59375 55.197266 L 39.59375 57.597656 L 57.519531 57.597656 L 57.519531 55.197266 L 39.59375 55.197266 z M 59.908203 55.197266 L 59.908203 57.597656 L 62.298828 57.597656 L 62.298828 55.197266 L 59.908203 55.197266 z M 59.908203 62.398438 L 59.908203 64.798828 L 57.519531 64.798828 L 57.519531 67.197266 L 61.103516 67.197266 C 61.763516 67.197266 62.298828 66.661047 62.298828 65.998047 L 62.298828 62.398438 L 59.908203 62.398438 z M 40.787109 64.798828 L 40.787109 67.197266 L 43.177734 67.197266 L 43.177734 64.798828 L 40.787109 64.798828 z M 45.568359 64.798828 L 45.568359 67.197266 L 47.957031 67.197266 L 47.957031 64.798828 L 45.568359 64.798828 z M 50.347656 64.798828 L 50.347656 67.197266 L 52.738281 67.197266 L 52.738281 64.798828 L 50.347656 64.798828 z "
     id="path50" />
</svg>
