<svg xmlns="http://www.w3.org/2000/svg" width="131" height="150" viewBox="0 0 131 150">
	<path fill="#b9f0ee" d="M61.433 87.83c.439 6.37-1.727 9.12-6.71 8.05-3.276.52-6.187-.206-8.929-1.968-7.8-4.889-8.389-15.374-4.743-22.704 6.743-12.789 23.98-14.6 35.559-7.776 27.575 16.176 2.424 55.118-22.204 57.587-24.218 2.454-43.104-18.337-44.57-41.562-1.283-23.85 13.206-44.517 32.308-57.305 18.69-12.776 42.772-18.933 60.914-1.619 15.14 14.12 21.33 36.981 17.74 57.08-3.578 20.51-18.171 38.297-34.834 50.18-20.673 14.901-41.49 14.565-65.75 10.224-5.394-1.056-7.35 7.454-1.955 8.51 30.903 5.767 56.156 3.483 80.505-17.925 21.955-19.268 35.426-45.257 30.23-74.743-3.95-23.554-20.96-49.35-46.622-52.615-26.484-3.237-55.237 16.052-69.71 37.131-14.855 21.916-17.461 52.074.007 73.53 15.52 18.844 42.49 24.124 63.407 10.245 17.288-11.698 28.169-40.896 13.7-59.157-14.04-17.863-46.517-15.957-57.104 4.375-9.824 18.658 5.524 44.098 27.717 36.974 8.154-2.332 16.038-12.07 12.004-20.997-3.577-7.707-13.468-7.79-18.18-1.454-2.517 4.41 3.88 10.375 7.22 5.939z" />
</svg>
