<svg xmlns="http://www.w3.org/2000/svg" width="375" height="202" viewBox="0 0 375 202">
	<path fill="#006096" d="M 266.83984 0.00390625 C 265.15373 0.071146104 263.8017 0.84354835 262.85742 1.9257812 C 255.55054 3.2469373 249.96875 10.077654 249.96875 18.214844 C 249.96875 26.750044 257.42868 33.150391 265.95508 33.150391 C 274.48348 33.150391 281.94336 26.750044 281.94336 18.214844 C 282.47746 10.213044 276.08209 1.678525 268.08789 0.078125 C 267.65483 0.01144375 267.23828 -0.011982983 266.83984 0.00390625 z M 268.37305 11.505859 C 272.41431 14.525434 273.09567 21.50857 266.49023 21.949219 C 263.82453 21.949219 261.16105 20.882044 260.62695 18.214844 C 260.62695 15.547544 262.75913 12.347656 265.42383 12.347656 C 266.61275 12.347656 267.59219 12.026423 268.37305 11.505859 z M 223.55273 50.013672 C 216.93064 49.984875 210.46239 54.291381 207.86328 60.359375 C 204.66638 68.361075 209.46273 77.431159 216.92383 80.630859 C 224.38593 83.832559 232.91258 81.164269 237.17578 74.230469 C 240.90688 67.294669 239.84207 57.693578 233.44727 52.892578 C 232.37783 52.090024 231.03942 51.556302 229.70312 51.492188 C 229.24706 51.195532 228.72196 50.944656 228.11523 50.757812 C 226.6163 50.257694 225.08091 50.020317 223.55273 50.013672 z M 298.90234 51.802734 C 298.19497 51.81863 297.57429 51.964898 297.03125 52.203125 C 296.47753 52.15677 295.88906 52.198468 295.26953 52.353516 C 286.21003 55.020816 280.87906 63.558453 281.94336 72.626953 C 283.00966 82.228953 291.53816 88.097 300.59766 87.5625 C 309.65816 87.0301 318.18544 80.094187 317.65234 70.492188 C 317.65234 60.356687 309.65705 52.353813 299.53125 51.820312 C 299.31472 51.803644 299.10534 51.798173 298.90234 51.802734 z M 223.61719 61.634766 C 224.23319 61.654416 224.85157 61.760706 225.45117 61.960938 C 226.15175 62.07782 226.81104 62.05255 227.42578 61.925781 C 230.30916 66.227311 228.28876 73.442224 221.7207 71.564453 C 219.0559 71.029953 216.92383 68.362612 217.45703 65.695312 C 218.32259 63.094012 220.94784 61.549613 223.61719 61.634766 z M 297.95117 62.154297 C 298.43157 62.326543 298.955 62.445948 299.53125 62.490234 C 303.79445 62.490234 306.46094 66.757887 306.99414 70.492188 C 306.99414 74.759687 303.2632 76.894531 299.5332 76.894531 C 290.6737 76.894531 290.48164 65.168378 297.95117 62.154297 z M 353.64453 105.52734 C 352.57866 105.51342 351.51597 105.57849 350.4668 105.72852 C 339.8058 107.32792 332.34497 117.99602 335.00977 128.66602 C 337.67447 139.86842 349.93084 144.66866 360.58984 143.06836 C 362.5998 142.75887 363.79886 141.68455 364.32422 140.34375 C 370.65856 137.6882 375.33798 131.02025 374.98047 123.86523 C 374.49726 113.22967 363.94794 105.66194 353.64453 105.52734 z M 354.1875 115.87109 C 357.95957 115.99652 361.65791 117.99657 363.25586 121.19727 C 365.92066 125.46487 362.18888 131.86768 356.85938 130.80078 C 354.76393 130.27628 353.0245 131.02179 351.85938 132.30469 C 349.32308 131.43534 347.09524 129.75023 346.20117 127.06445 C 344.60277 123.33015 346.2016 117.99688 350.4668 116.39648 C 351.66565 115.99663 352.93014 115.82928 354.1875 115.87109 z M 24.996094 150.48047 C 24.597837 150.49388 24.182994 150.54841 23.75 150.64844 C 14.1563 153.31574 4.0299313 157.0509 0.83203125 167.1875 C -2.3658687 176.7886 4.0294939 185.85763 13.621094 187.45703 C 22.149494 189.05843 31.210303 184.25756 34.408203 176.25586 C 37.514936 169.14602 35.435397 161.30289 30.345703 155.48828 C 30.257348 152.9443 28.225384 150.37174 24.996094 150.48047 z M 21.546875 161.26367 C 21.571325 161.28138 21.592273 161.30091 21.617188 161.31836 C 29.079287 166.65286 23.7491 178.39056 14.6875 176.25586 C 9.8922001 175.18796 9.3586376 170.38644 12.023438 166.65234 C 14.297195 163.61801 17.919584 162.21201 21.546875 161.26367 z M 334.21094 169.48047 C 325.43842 169.77887 316.05469 175.84743 316.05469 185.18359 C 316.05469 192.31582 322.81701 198.55971 329.79102 198.89844 C 336.83776 205.11028 348.219 201.34581 352.29492 193.18555 C 357.09222 183.05005 348.0311 171.31524 337.9043 169.71484 C 336.70521 169.51468 335.46415 169.43784 334.21094 169.48047 z M 333.60742 179.99219 C 334.57329 179.98385 335.50546 180.11609 336.30469 180.38281 C 339.50359 181.44971 344.29967 185.18482 342.70117 188.91992 C 341.96726 190.38788 340.22451 191.60386 338.51367 191.52344 C 337.69583 188.23975 334.34052 185.49455 330.97656 187.85156 C 328.84596 189.45186 326.18079 186.78459 326.71289 184.11719 C 327.51262 181.31669 330.70982 180.01719 333.60742 179.99219 z" />
</svg>
