<svg xmlns="http://www.w3.org/2000/svg" width="72" height="72" viewBox="0 0 72 72">
	<g>
		<path fill="#a88e74" d="M 24 7 L 24 71 L 71 71 L 71 7 L 24 7 z" />
		<path fill="#282828" d="M 25 5.9960938 C 23.853 5.9960938 23 6.854 23 8 L 23 69.916016 C 23 71.062016 23.938937 72 25.085938 72 L 70 72 C 71.147 72 72.001971 71.146 72.001953 70 L 72 8 C 71.999982 6.854 71.147 5.9960938 70 5.9960938 L 25 5.9960938 z M 25 8 L 70 8 L 70 70 L 25 69.998047 L 25 8 z" />
	</g>
	<g>
		<path fill="#f0f0f0" d="M 20 11 L 20 71 L 67 71 L 67 11 L 20 11 z" />
		<path fill="#282828" d="M 21 10 C 19.853 10 19 10.854 19 12 L 19 70 C 19 71.146 19.853 72 21 72 L 66 72 C 67.146 72 68 71.146 68 70 L 68 12 C 68 10.854 67.146 10 66 10 L 21 10 z M 21 12 L 66 12 L 66 70 L 21 70 L 21 12 z" />
	</g>
	<g>
		<path fill="#a8a8a8" d="M 45 0.99609375 L 45 6.9960938 L 39.785156 6.9375 L 40 14.994141 L 55 14.994141 L 55 6.9960938 L 50 6.9960938 L 50 0.99609375 L 45 0.99609375 z" />
		<path fill="#282828" d="M 46.5 -0.00390625 C 45.125 -0.00390625 44 1.125 44 2.5 L 44 6 L 39 6 L 39 13.5 C 39 14.875 40.125 16 41.5 16 L 53.5 16 C 54.875 16 56 14.875 56 13.5 L 56 6 L 51 6 L 51 2.5 C 51 1.125 49.875 -0.00390625 48.5 -0.00390625 L 46.5 -0.00390625 z M 46.5 1.9960938 L 48.5 1.9960938 C 48.781 1.9960938 49 2.219 49 2.5 L 49 6 L 46 6 L 46 2.5 C 46 2.225 46.224 1.9960938 46.5 1.9960938 z M 41 8 L 54 8 L 54 13.5 C 54 13.782 53.781 14 53.5 14 L 41.5 14 C 41.224 14 41 13.776 41 13.5 L 41 8 z" />
	</g>
	<g>
		<path fill="#fbb540" d="M 29 22.994141 C 27.343 22.994141 26 24.337141 26 25.994141 C 26 27.651141 27.343 28.994141 29 28.994141 C 30.657 28.994141 32 27.651141 32 25.994141 C 32 24.337141 30.657 22.994141 29 22.994141 z M 29 34.996094 C 27.343 34.996094 26 36.339094 26 37.996094 C 26 39.653094 27.343 40.994141 29 40.994141 C 30.657 40.994141 32 39.653094 32 37.996094 C 32 36.339094 30.657 34.996094 29 34.996094 z" />
		<path fill="#2b2a29" d="M 29 22 C 26.791 22 25 23.791 25 26 C 25 28.209 26.791 30 29 30 C 31.209 30 33 28.209 33 26 C 33 23.791 31.209 22 29 22 z M 29 24 C 30.104 24 31 24.896 31 26 C 31 27.11 30.109 28 29 28 C 27.885 28 27 27.115 27 26 C 27 24.89 27.89 24 29 24 z M 61 24.994141 L 38 25 C 37.448 25.00012 37 25.448 37 26 C 37 26.552 37.448 27.00012 38 27 L 61 26.994141 C 61.553 26.994021 62 26.546141 62 25.994141 C 62 25.442141 61.553 24.994021 61 24.994141 z M 29 34 C 26.791 34 25 35.79 25 38 C 25 40.209 26.791 42 29 42 C 31.209 42 33 40.209 33 38 C 33 35.79 31.209 34 29 34 z M 29 36 C 30.104 36 31 36.896 31 38 C 31 39.11 30.109 40 29 40 C 27.885 40 27 39.115 27 38 C 27 36.89 27.89 36 29 36 z M 38 37 C 37.448 37 37 37.447 37 38 C 37 38.552 37.448 39 38 39 L 61 39 C 61.553 39 62 38.552 62 38 C 62 37.447 61.553 37 61 37 L 38 37 z M 38 49 C 37.448 49 37 49.448 37 50 C 37 50.553 37.448 51 38 51 L 61 51 C 61.553 51 62 50.553 62 50 C 62 49.448 61.553 49 61 49 L 38 49 z M 38 61 C 37.448 61 37 61.448 37 62 C 37 62.553 37.448 63 38 63 L 61 63 C 61.553 63 62 62.553 62 62 C 62 61.448 61.553 61 61 61 L 38 61 z" />
	</g>
	<g>
		<path fill="#f55648" d="M 9.3710938 43.300781 C 4.0712189 43.374841 -0.69070758 50.738969 1.5820312 59.875 C 3.4250729 67.287 10.326499 71.735438 13.226562 70.898438 C 15.361612 70.282438 15.435976 68.748047 16.5 68.748047 C 17.563024 68.748047 17.63739 70.282438 19.773438 70.898438 C 22.672504 71.735438 29.573928 67.287 31.417969 59.875 C 34.580041 47.164 24.124977 37.881578 17.548828 46.892578 C 17.092818 47.518578 15.906229 47.518578 15.449219 46.892578 C 13.599677 44.358234 11.444958 43.271799 9.3710938 43.300781 z" />
		<path fill="#6b9777" d="M 5.4628906 31.710938 C 4.134052 31.638151 2.833569 31.926516 1.7089844 32.660156 C 1.3989624 37.997362 8.7124338 42.190914 14.199219 39.822266 C 13.6904 35.394924 9.4494065 31.929296 5.4628906 31.710938 z" />
		<path fill="#282828" d="M 4.859375 31.007812 C 3.4693438 30.972578 2.1150469 31.301422 0.93554688 32.076172 C 0.59854687 37.918172 8.3886875 42.534656 14.429688 40.222656 C 14.268688 42.175656 14.773016 44.298422 15.791016 46.232422 C 15.629016 46.149422 15.488812 46.034672 15.382812 45.888672 C 8.3828125 36.128672 -2.7468594 46.182219 0.61914062 59.949219 C 2.5821406 67.977219 9.928625 72.795672 13.015625 71.888672 C 15.288625 71.221672 15.368 69.560547 16.5 69.560547 C 17.632 69.560547 17.710375 71.221672 19.984375 71.888672 C 23.070375 72.795672 30.418859 67.977219 32.380859 59.949219 C 35.723859 46.279219 24.775578 36.2745 17.767578 45.6875 C 15.859578 42.3695 15.966156 38.923563 18.285156 35.601562 C 19.034156 34.529562 17.402344 33.389891 16.652344 34.462891 C 15.603344 35.964891 14.920516 37.487578 14.603516 39.017578 C 13.523516 34.502578 9.0294687 31.113516 4.859375 31.007812 z M 4.4179688 32.994141 C 7.7770664 32.812414 11.350547 35.675969 12.435547 38.714844 C 8.8465469 39.358844 3.731 37.134578 3 33.267578 C 3.46325 33.108953 3.9380977 33.020102 4.4179688 32.994141 z M 8.6328125 44.005859 C 8.9195664 43.980377 9.2127188 43.985312 9.5117188 44.023438 C 10.913719 44.201438 12.391813 45.146734 13.757812 47.052734 C 15.376812 48.857734 17.623188 48.857734 19.242188 47.052734 C 20.609187 45.146734 22.086281 44.201437 23.488281 44.023438 C 25.880281 43.718437 27.912219 45.582516 29.074219 47.478516 C 30.841219 50.359516 31.626359 54.639469 30.443359 59.480469 C 29.652359 62.716469 27.740781 65.734422 25.175781 67.857422 C 23.319781 69.395422 21.559469 70.183281 20.605469 69.988281 C 18.812469 69.467281 18.928 67.560547 16.5 67.560547 C 14.071 67.560547 14.186531 69.467281 12.394531 69.988281 C 11.439531 70.183281 9.6782656 69.395422 7.8222656 67.857422 C 5.2582656 65.734422 3.3476406 62.716469 2.5566406 59.480469 C 1.3726406 54.639469 2.1597812 50.359516 3.9257812 47.478516 C 4.9425312 45.819516 6.6255352 44.184236 8.6328125 44.005859 z M 19.355469 49.998047 C 19.222799 50.020371 19.085969 50.073563 18.949219 50.164062 C 17.287219 51.261062 15.713688 51.283922 14.054688 50.169922 C 12.965688 49.440922 11.858313 51.096219 12.945312 51.824219 C 15.266312 53.383219 17.723781 53.365125 20.050781 51.828125 C 21.007156 51.196375 20.284158 49.841777 19.355469 49.998047 z" />
	</g>
</svg>