<svg xmlns="http://www.w3.org/2000/svg" width="135" height="106" viewBox="0 0 135 106">
	<path fill="#b9f0ee" d="M73.161 47.007c3.675-3.9 6.614-4.144 8.818-.488 2.205 1.706 3.43 3.9 3.92 6.58 1.47 7.555-4.654 13.892-11.268 15.842-11.758 3.168-22.781-6.337-25.23-17.304-5.88-26.077 32.578-32.901 48.256-19.253 15.432 13.404 13.472 36.8 0 50.936-13.962 14.379-35.029 17.304-53.89 12.916C25.15 92.094 7.513 80.883 7.758 59.923c0-17.303 10.533-34.12 24.986-43.38C47.44 7.037 66.792 5.818 83.694 9.23c21.066 4.143 32.824 17.06 44.092 34.364 2.45 3.899 8.819.243 6.369-3.656-14.208-22.178-30.13-36.313-57.32-38.994C52.34-1.492 28.58 5.088 13.393 25.072 1.144 40.913-4.98 66.016 7.758 83.563 20.986 101.598 49.4 108.18 70.712 105.01c22.046-3.412 42.132-19.01 45.316-41.918 2.695-20.229-9.553-39.726-30.13-44.6-17.146-3.9-41.397 6.093-44.336 25.346-2.94 18.766 16.902 37.532 35.519 32.414 17.146-4.63 24.005-28.514 6.858-38.02-6.124-3.655-16.657-2.923-19.841 4.631-2.695 6.58 2.94 12.674 9.553 11.942 4.164-.974 4.164-8.286-.49-7.798z" />
</svg>
