<svg xmlns="http://www.w3.org/2000/svg" width="141" height="88" viewBox="0 0 141 88">
	<path fill="#d4c1ff" d="M1.946 42.98c.585-4.592 7.643-3.697 7.058.894-.226 1.766 1.712 3.447 3.477 3.67 1.81-.129 2.74-1.805 2.965-3.57.322-5.343-6.607-4.428-7.853-.28-1.291 4.503-7.772 1.886-6.48-2.615 1.734-5.163 7.92-8.685 13.168-7.66 5.647.715 9.25 6.196 8.53 11.847-.72 5.65-5.585 10.057-11.23 9.342-6-.76-10.356-5.978-9.635-11.629zm36.045-15.528c-.519-4.372 6.456-5.64 6.622-1.313 1.089 5.52 9.206 6.55 9.97.547.316-2.472-.78-5.124-3.603-5.481-2.516.04-5.564 1.447-5.924 4.273-.939 4.546-7.997 3.651-7.058-.895 1.208-6.666 7.176-11.292 13.882-10.442 6.397.452 10.265 6.684 9.852 12.733-.413 6.048-5.015 11.206-11.457 11.108-6.09-.055-11.285-4.302-12.284-10.53zm44.13 16.72c-.473-4.725 6.456-5.64 6.531-.607.302 3.268.512 7.242 3.065 9.718 2.245 2.08 5.466 2.13 6.577-.96 2.177-5.824-5.136-10.34-9.295-5.844-2.92 3.219-8.823-1.118-5.549-4.292 4.512-4.452 11.18-6.118 16.51-2.93 5.023 2.79 7.434 9.196 5.655 14.712-1.87 6.223-8.409 9.7-14.491 6.776-6.435-2.97-8.05-9.992-9.003-16.573zM31.26 71.817c1.998-4.413 8.432-1.444 7.186 2.705-.976 2.03-.232 4.635 1.795 5.61 1.72.577 3.664-.612 4.243-2.333 2.041-4.766-4.176-6.63-7.052-3.764-1.238 1.277-4.061.92-4.94-.627-1.232-1.591-.608-3.666.63-4.945 3.717-3.835 10.159-3.736 14.43-.682 4.229 3.407 5.273 9.28 2.525 13.957-2.747 4.676-9.152 7.093-14.176 4.303-4.67-2.745-7.08-9.15-4.64-14.224zm99.38-56.662c-2.019-3.845 4.43-6.615 6.495-3.124 3.162 6.143-3.168 13.594-9.519 12.788-7.058-.894-10.257-9.554-8.388-15.776 1.914-6.576 10.443-11.595 16.742-7.567 5.287 3.54 6.722 11.977 1.196 15.941-3.581 2.776-7.892-2.794-4.31-5.57 1.59-1.233.803-3.487-.519-4.372-2.335-1.372-5.21 1.492-6.186 3.522-.977 2.03-.72 5.651 1.66 6.67 1.72.577 3.708-.965 2.83-2.512z" />
</svg>
