<svg xmlns="http://www.w3.org/2000/svg" width="74" height="68" viewBox="0 0 74 68">
    <g fill="none" fill-rule="nonzero">
        <path fill="#FDC9A6" d="M24.241 37.208h10.207v7.698H24.241z"/>
        <path fill="#F6BB92" d="M24.241 41.363a13.82 13.82 0 0 0 10.207 0v-4.155H24.241v4.155zM15.31 19.245h-.585c-2.114 0-3.828 1.724-3.828 3.85 0 2.125 1.714 3.848 3.828 3.848h.649c-.037-.423 2.488-.85 2.488-1.283l-2.552-6.415zM43.965 19.245h-.586l-1.276 6.415c0 .434 1.25.86 1.213 1.283h.649c2.114 0 3.827-1.723 3.827-3.849 0-2.125-1.713-3.849-3.827-3.849z"/>
        <path fill="#FDC9A6" d="M29.345 39.774c-7.751 0-14.035-6.319-14.035-14.114V15.396L28.07 5.132l15.31 10.264V25.66c0 7.795-6.283 14.114-14.034 14.114z"/>
        <path fill="#F3AF3E" d="M65.069 42.34h-2.552v-3.85a1.28 1.28 0 0 0-1.276-1.282h-5.103a1.28 1.28 0 0 0-1.276 1.283v3.849H52.31v-3.85c0-2.125 1.714-3.848 3.828-3.848h5.103c2.114 0 3.828 1.723 3.828 3.849v3.849z"/>
        <g fill="#A45E14">
            <path d="M15.31 20.528l8.931-10.264 1.937 2.225a42.183 42.183 0 0 0 16.946 11.79l.255.098v-8.98c0-7.795-6.283-14.114-14.034-14.114S15.31 7.602 15.31 15.396v5.132zM21.69 23.094h2.551v2.566H21.69z"/>
            <path d="M34.448 23.094H37v2.566h-2.552zM31.897 29.51h-3.828c-.383 0-.746-.173-.989-.472a1.288 1.288 0 0 1-.261-1.068l1.276-6.416 2.5.504-.97 4.885h2.272v2.566zM29.345 33.978a13.288 13.288 0 0 1-4.23-.686l.805-2.438c2.224.74 4.625.74 6.85 0l.805 2.438a13.288 13.288 0 0 1-4.23.686z"/>
        </g>
        <path fill="#EBEBEB" d="M57.414 66.717H1.276v-8.981c0-7.086 5.712-12.83 12.758-12.83h30.621c7.047 0 12.759 5.744 12.759 12.83v8.981z"/>
        <path fill="#05E2D8" d="M29.345 55.17l-3.608-5.353 3.608-3.628 3.608 3.628z"/>
        <path fill="#05E2D8" d="M25.517 66.717v-5.638c0-3.016.888-5.965 2.552-8.475h2.552a15.341 15.341 0 0 1 2.551 8.475v5.638h-7.655z"/>
        <path fill="#DBDBDB" d="M30.62 44.906l-6.379 6.415-3.827-6.415z"/>
        <path fill="#DBDBDB" d="M28.069 44.906l6.38 6.415L37 44.906zM10.207 55.17h2.552v11.547h-2.552z"/>
        <path fill="#9162FB" d="M44.655 41.057h25.517a2.559 2.559 0 0 1 2.552 2.566V64.15a2.559 2.559 0 0 1-2.552 2.566H44.655a2.559 2.559 0 0 1-2.552-2.566V43.623a2.559 2.559 0 0 1 2.552-2.566z"/>
        <path fill="#DBDBDB" d="M15.31 59.019h6.38v2.566h-6.38z"/>
        <path fill="#9162FB" d="M44.655 41.057h25.517a2.559 2.559 0 0 1 2.552 2.566c0 4.25-3.427 7.698-7.655 7.698h-15.31c-4.228 0-7.656-3.447-7.656-7.698a2.559 2.559 0 0 1 2.552-2.566z"/>
        <path fill="#EA9D2D" d="M56.138 48.755h2.552v6.415h-2.552z"/>
        <path fill="#F3AF3E" d="M56.138 48.755h2.552v5.132h-2.552z"/>
        <path fill="#70400E" d="M66.345 60.302h2.552v2.566h-2.552zM61.241 60.302h2.552v2.566h-2.552zM56.138 60.302h2.552v2.566h-2.552z"/>
        <path fill="#EA9D2D" d="M52.31 39.774h2.552v1.283H52.31zM62.517 39.774h2.552v1.283h-2.552z"/>
        <path fill="#000" d="M21.69 23.094h2.551v2.566H21.69zM34.448 23.094H37v2.566h-2.552zM28.069 29.51h3.828v-2.567h-2.271l.97-4.875-2.501-.514-1.276 6.416c-.077.377.019.77.261 1.068.243.299.606.471.989.471zM33.575 33.292l-.806-2.438c-2.224.74-4.625.74-6.849 0l-.806 2.438c2.747.915 5.715.915 8.461 0z"/>
        <path fill="#000" d="M20.414 43.623h-6.38C6.287 43.632.01 49.945 0 57.736v8.981A1.28 1.28 0 0 0 1.276 68h68.896C72.286 68 74 66.277 74 64.15V43.624c0-2.126-1.714-3.85-3.828-3.85H65.07v-1.282c0-2.126-1.714-3.85-3.828-3.85h-5.103c-2.114 0-3.828 1.724-3.828 3.85v1.283h-7.655c-2.114 0-3.827 1.723-3.827 3.849h-5.104v-3.968a15.457 15.457 0 0 0 8.723-11.472c2.584-.225 4.583-2.372 4.636-4.978.054-2.608-1.856-4.836-4.428-5.167v-2.642C44.655 6.893 37.801 0 29.345 0s-15.31 6.893-15.31 15.396v2.642c-2.566.34-4.467 2.567-4.412 5.168.054 2.602 2.046 4.746 4.623 4.978a15.464 15.464 0 0 0 8.72 11.47v3.969h-2.552zm3.827 2.566h3.3l-2.708 2.721-.335.338-1.83-3.06h1.573zm10.874 0l-1.133 2.85-.127-.129-2.706-2.721h3.966zm-5.46 5.132h-.62l-1.494-1.504 1.804-1.814 1.804 1.814-1.494 1.504zM2.552 57.736c.007-6.375 5.144-11.54 11.482-11.547h5.658l3.456 5.793a1.276 1.276 0 0 0 1.093.622c.339 0 .663-.136.902-.376l.594-.597.885.898a16.555 16.555 0 0 0-2.38 8.55v4.355H12.758V55.17h-2.552v10.264H2.552v-7.698zm24.241 7.698v-4.362a13.97 13.97 0 0 1 1.718-6.672c.47.44 1.198.44 1.668 0a13.98 13.98 0 0 1 1.718 6.678v4.356h-5.104zm44.655-1.283a1.28 1.28 0 0 1-1.276 1.283H44.655a1.28 1.28 0 0 1-1.276-1.283V49.896a8.871 8.871 0 0 0 6.38 2.708h6.379v2.566h2.552v-2.566h6.379a8.871 8.871 0 0 0 6.38-2.708V64.15zM54.862 38.49a1.28 1.28 0 0 1 1.276-1.283h5.103a1.28 1.28 0 0 1 1.276 1.283v1.283h-7.655V38.49zM44.655 42.34h25.517a1.28 1.28 0 0 1 1.276 1.283c-.004 3.541-2.857 6.41-6.379 6.415h-6.38v-1.283h-2.551v1.283h-6.38c-3.521-.005-6.374-2.874-6.379-6.415a1.28 1.28 0 0 1 1.276-1.283zm-3.593 23.094h-6.614v-4.362a16.55 16.55 0 0 0-2.38-8.555l.885-.899.593.597c.238.245.562.385.902.389a1.279 1.279 0 0 0 1.184-.807l2.231-5.608h2.965V64.15c.004.438.083.872.234 1.283zm4.848-43.999c.563.667.75 1.575.496 2.411a2.559 2.559 0 0 1-1.75 1.72v-4.942c.49.138.927.42 1.256.811h-.002zM29.345 2.566c7.043.008 12.751 5.747 12.758 12.83v7.096a41.075 41.075 0 0 1-14.965-10.847L25.2 9.42a1.274 1.274 0 0 0-1.914 0l-6.696 7.698v-1.722c.008-7.08 5.713-12.82 12.754-12.83zm-17.138 20.95a2.566 2.566 0 0 1 1.827-2.892v4.942a2.56 2.56 0 0 1-1.827-2.05zm4.438 3.299c-.034-.385-.059-.77-.059-1.155v-4.65l7.655-8.797.977 1.122a43.602 43.602 0 0 0 16.885 11.91v.415c0 .396-.024.782-.058 1.168-.593 6.61-6.105 11.673-12.706 11.67-6.6-.004-12.107-5.072-12.694-11.683zm8.872 13.741c2.509.668 5.147.668 7.655 0v3.067h-7.655v-3.067z"/>
        <path fill="#000" d="M15.31 59.019h6.38v2.566h-6.38zM66.345 60.302h2.552v2.566h-2.552zM61.241 60.302h2.552v2.566h-2.552zM56.138 60.302h2.552v2.566h-2.552z"/>
    </g>
</svg>
