<svg xmlns="http://www.w3.org/2000/svg" width="76" height="77" viewBox="0 0 76 77">
    <g fill="none" fill-rule="nonzero">
        <path fill="#FD9226" d="M25.775 46.17L12.921 57.72v7.7l3.435-2.285a17 17 0 0 1 9.42-2.848h1.285l-1.286-14.116zM51.484 46.17l12.854 11.55v7.7l-3.435-2.285a17 17 0 0 0-9.42-2.848h-1.285l1.286-14.116z"/>
        <path fill="#EBEBEB" d="M48.913 64.137H28.346a22.427 22.427 0 0 1-3.085-13.86l3.085-29.773h20.567l3.085 29.773c.5 4.832-.583 9.695-3.085 13.86z"/>
        <path fill="#4799CF" d="M42.486 29.487a3.853 3.853 0 0 1-3.856 3.85 3.853 3.853 0 0 1-3.857-3.85 3.853 3.853 0 0 1 3.857-3.85 3.853 3.853 0 0 1 3.856 3.85z"/>
        <path fill="#6CBAE5" d="M41.2 29.487a2.568 2.568 0 0 1-2.57 2.567 2.568 2.568 0 0 1-2.571-2.567 2.568 2.568 0 0 1 2.57-2.566c1.42 0 2.571 1.149 2.571 2.566z"/>
        <path fill="#4799CF" d="M42.486 42.32a3.853 3.853 0 0 1-3.856 3.85 3.853 3.853 0 0 1-3.857-3.85 3.853 3.853 0 0 1 3.857-3.85 3.853 3.853 0 0 1 3.856 3.85z"/>
        <path fill="#6CBAE5" d="M41.2 42.32a2.568 2.568 0 0 1-2.57 2.567 2.568 2.568 0 0 1-2.571-2.566 2.568 2.568 0 0 1 2.57-2.567c1.42 0 2.571 1.15 2.571 2.567z"/>
        <path fill="#4799CF" d="M42.486 55.154a3.853 3.853 0 0 1-3.856 3.85 3.853 3.853 0 0 1-3.857-3.85 3.853 3.853 0 0 1 3.857-3.85 3.853 3.853 0 0 1 3.856 3.85z"/>
        <path fill="#6CBAE5" d="M41.2 55.154a2.568 2.568 0 0 1-2.57 2.567 2.568 2.568 0 0 1-2.571-2.567 2.568 2.568 0 0 1 2.57-2.567c1.42 0 2.571 1.15 2.571 2.567z"/>
        <path fill="#DBDBDB" d="M48.913 71.837H28.346a12.15 12.15 0 0 1 0-7.7h20.567a12.16 12.16 0 0 1 0 7.7z"/>
        <path fill="#FD9226" d="M38.63 1.254l-4.199 5.39a30.795 30.795 0 0 0-6.085 13.86h20.567a30.802 30.802 0 0 0-6.086-13.86l-4.197-5.39z"/>
        <path fill="#FFA84B" d="M40.588 7.43l1.426-1.83-1.585-2.036a1.24 1.24 0 0 0-.24.207l-1.63 2.084a32.187 32.187 0 0 0-6.339 14.437c-.006.07-.006.142 0 .212h2.57a29.631 29.631 0 0 1 5.798-13.075z"/>
        <path fill="#F55648" d="M7.78 56.437h5.141v8.984H7.78z"/>
        <path fill="#DC4D41" d="M12.921 56.437H7.78v-2.566a2.568 2.568 0 0 1 2.57-2.567c1.42 0 2.571 1.15 2.571 2.567v2.566z"/>
        <path fill="#C3C3C3" d="M33.488 67.987c-.71 0-1.286.575-1.286 1.284v2.566h2.571v-2.566c0-.71-.575-1.284-1.285-1.284zM43.771 67.987c-.71 0-1.285.575-1.285 1.284v2.566h2.57v-2.566c0-.71-.575-1.284-1.285-1.284zM38.63 67.987c-.71 0-1.286.575-1.286 1.284v2.566h2.57v-2.566c0-.71-.575-1.284-1.284-1.284z"/>
        <path fill="#FD9226" d="M12.921 65.42l-5.141 7.7v-7.7z"/>
        <path fill="#F55648" d="M64.338 56.437h5.141v8.984h-5.141z"/>
        <path fill="#DC4D41" d="M64.338 56.437h5.141v-2.566a2.569 2.569 0 0 0-2.57-2.567c-1.42 0-2.571 1.15-2.571 2.567v2.566z"/>
        <path fill="#FD9226" d="M64.338 65.42l5.141 7.7v-7.7z"/>
        <g fill="#F7F7F7">
            <path d="M29.632 44.887h2.57v2.567h-2.57zM29.632 50.02h2.57v2.567h-2.57zM29.632 55.154h2.57v2.567h-2.57zM29.632 60.287h2.57v3.85h-2.57z"/>
        </g>
        <path fill="#B8EAEE" d="M1.353 64.137h2.57v7.7h-2.57z"/>
        <path fill="#C0F5F9" d="M1.353 74.404h2.57v2.567h-2.57zM73.336 55.154h2.57v5.133h-2.57zM73.336 62.854h2.57v7.7h-2.57z"/>
        <path fill="#B8EAEE" d="M18.063 23.07h2.57v6.417h-2.57zM18.063 32.054h2.57v2.567h-2.57z"/>
        <path fill="#C0F5F9" d="M10.35 28.204h2.571V38.47h-2.57zM10.35 41.037h2.571v2.567h-2.57zM57.91 26.92h2.572v11.55H57.91zM57.91 42.32h2.572v2.567H57.91z"/>
        <path fill="#B8EAEE" d="M65.623 17.937h2.571v3.85h-2.57zM65.623 24.354h2.571v8.983h-2.57z"/>
        <path fill="#C0F5F9" d="M19.348 65.42h2.571v6.417h-2.57zM19.348 74.404h2.571v2.567h-2.57z"/>
        <path fill="#B8EAEE" d="M54.054 65.42h2.571v8.984h-2.57zM1.353 55.154h2.57v6.417h-2.57z"/>
        <path fill="#C0F5F9" d="M73.336 73.12h2.57v3.85h-2.57z"/>
        <path fill="#FECE2F" d="M5.209 1.254a8.618 8.618 0 0 1-3.856 3.85 8.624 8.624 0 0 1 3.856 3.85 8.618 8.618 0 0 1 3.856-3.85 8.612 8.612 0 0 1-3.856-3.85z"/>
        <path fill="#F3C52D" d="M12.921 10.237a8.618 8.618 0 0 1-3.856 3.85 8.624 8.624 0 0 1 3.856 3.85 8.618 8.618 0 0 1 3.857-3.85 8.612 8.612 0 0 1-3.857-3.85z"/>
        <path fill="#000" d="M38.63 34.62a5.137 5.137 0 0 0 5.141-5.133 5.138 5.138 0 0 0-5.141-5.133 5.137 5.137 0 0 0-5.142 5.133 5.137 5.137 0 0 0 5.142 5.134zm0-7.7c1.42 0 2.57 1.15 2.57 2.567a2.568 2.568 0 0 1-2.57 2.567 2.568 2.568 0 0 1-2.571-2.567 2.568 2.568 0 0 1 2.57-2.566zM38.63 47.454a5.137 5.137 0 0 0 5.141-5.133 5.138 5.138 0 0 0-5.141-5.134 5.137 5.137 0 0 0-5.142 5.134 5.137 5.137 0 0 0 5.142 5.133zm0-7.7c1.42 0 2.57 1.15 2.57 2.567a2.568 2.568 0 0 1-2.57 2.566 2.568 2.568 0 0 1-2.571-2.566 2.568 2.568 0 0 1 2.57-2.567zM38.63 60.287a5.137 5.137 0 0 0 5.141-5.133 5.138 5.138 0 0 0-5.141-5.133 5.137 5.137 0 0 0-5.142 5.133 5.137 5.137 0 0 0 5.142 5.133zm0-7.7c1.42 0 2.57 1.15 2.57 2.567a2.568 2.568 0 0 1-2.57 2.567 2.568 2.568 0 0 1-2.571-2.567 2.568 2.568 0 0 1 2.57-2.567z"/>
        <path fill="#000" d="M66.909 50.02a3.853 3.853 0 0 0-3.857 3.85v.969L52.81 45.632l-2.61-25.256c0-.014-.011-.026-.014-.04-.002-.014 0-.026 0-.04A32.181 32.181 0 0 0 43.846 5.86L39.65.469a1.333 1.333 0 0 0-2.031 0l-4.197 5.39a32.195 32.195 0 0 0-6.339 14.437v.04c0 .014-.01.026-.012.04L24.45 45.632l-10.243 9.207v-.968a3.853 3.853 0 0 0-3.857-3.85 3.853 3.853 0 0 0-3.856 3.85v19.25a1.286 1.286 0 0 0 2.355.712l4.999-7.487 3.22-2.142a15.63 15.63 0 0 1 8.579-2.633c.383.931.826 1.837 1.325 2.713-.746 2.608-.69 5.38.16 7.956.174.523.662.878 1.214.88h20.567c.553.001 1.044-.353 1.22-.877.85-2.576.906-5.348.16-7.957.5-.876.942-1.783 1.326-2.715 3.053.02 6.034.934 8.573 2.628l3.214 2.142 4.998 7.487a1.288 1.288 0 0 0 2.36-.707V53.87a3.853 3.853 0 0 0-3.855-3.85zm-1.286 7.7h2.571v6.417h-2.57v-6.416zm0-3.85a1.284 1.284 0 0 1 2.571 0v1.284h-2.57V53.87zM47.347 19.22H35.053a29.631 29.631 0 0 1 5.535-11.79l.612-.786.612.785a29.631 29.631 0 0 1 5.535 11.792zm-11.9-11.79l3.183-4.085.942 1.209-1.013 1.3a32.194 32.194 0 0 0-6.126 13.367h-2.521a29.631 29.631 0 0 1 5.535-11.792zm-5.944 14.357h18.252l2.966 28.619a21.276 21.276 0 0 1-2.551 12.448H32.202v-2.567h-2.57v2.567h-.543a21.277 21.277 0 0 1-2.543-12.448l2.957-28.619zM9.065 64.137v-6.416h2.57v6.416h-2.57zm0-10.266a1.284 1.284 0 0 1 2.57 0v1.283h-2.57V53.87zm0 15.015v-2.182h1.454l-1.454 2.182zm6.575-6.814l-1.433.95v-4.73l9.848-8.855-.073.706c-.3 2.989-.03 6.007.794 8.896a18.17 18.17 0 0 0-9.136 3.03v.003zm32.304 8.482h-2.887V69.27a1.284 1.284 0 0 0-2.571 0v1.283h-2.571V69.27a1.284 1.284 0 0 0-2.57 0v1.283h-2.572V69.27a1.284 1.284 0 0 0-2.57 0v1.283h-2.889a10.943 10.943 0 0 1 .027-5.133h18.576c.417 1.685.425 3.444.027 5.133zm4.538-11.513a23.782 23.782 0 0 0 .801-8.892l-.073-.706 9.842 8.849v4.73l-1.432-.952a18.17 18.17 0 0 0-9.138-3.029zm15.712 9.845l-1.454-2.182h1.454v2.182z"/>
        <path fill="#000" d="M29.632 44.887h2.57v2.567h-2.57zM29.632 50.02h2.57v2.567h-2.57zM29.632 55.154h2.57v2.567h-2.57zM1.353 64.137h2.57v7.7h-2.57zM1.353 74.404h2.57v2.567h-2.57zM73.336 55.154h2.57v5.133h-2.57zM73.336 62.854h2.57v7.7h-2.57zM18.063 23.07h2.57v6.417h-2.57zM18.063 32.054h2.57v2.567h-2.57zM10.35 28.204h2.571V38.47h-2.57zM10.35 41.037h2.571v2.567h-2.57zM57.91 26.92h2.572v11.55H57.91zM57.91 42.32h2.572v2.567H57.91zM65.623 17.937h2.571v3.85h-2.57zM65.623 24.354h2.571v8.983h-2.57zM19.348 65.42h2.571v6.417h-2.57zM19.348 74.404h2.571v2.567h-2.57zM54.054 65.42h2.571v8.984h-2.57zM1.353 55.154h2.57v6.417h-2.57zM73.336 73.12h2.57v3.85h-2.57zM9.64 6.26a1.283 1.283 0 1 0 0-2.297A7.368 7.368 0 0 1 6.365.68a1.34 1.34 0 0 0-2.301 0A7.367 7.367 0 0 1 .778 3.955a1.284 1.284 0 0 0 0 2.297 7.373 7.373 0 0 1 3.28 3.276 1.285 1.285 0 0 0 2.301 0 7.369 7.369 0 0 1 3.28-3.269zm-4.431.338a10.089 10.089 0 0 0-1.496-1.494c.55-.444 1.05-.944 1.496-1.493.444.549.946 1.05 1.495 1.493-.55.444-1.05.945-1.495 1.494zM7.78 14.087c-.001.487.275.931.71 1.149a7.373 7.373 0 0 1 3.28 3.275 1.285 1.285 0 0 0 2.302 0 7.369 7.369 0 0 1 3.28-3.268 1.283 1.283 0 0 0 0-2.297 7.368 7.368 0 0 1-3.274-3.282 1.34 1.34 0 0 0-2.3 0 7.369 7.369 0 0 1-3.282 3.275 1.283 1.283 0 0 0-.716 1.148zm5.141-1.493c.445.549.946 1.05 1.496 1.493-.55.444-1.051.945-1.496 1.494a10.089 10.089 0 0 0-1.496-1.494c.55-.443 1.051-.944 1.496-1.493z"/>
    </g>
</svg>
