<svg xmlns="http://www.w3.org/2000/svg" width="87" height="131" viewBox="0 0 87 131">
	<path fill="#9df3f0" d="M15.895 1.243c3.06-1.137 4.751 3.731 1.69 4.867-1.176.437-1.61 2.248-1.188 3.465.658 1.13 2.004 1.179 3.181.742 3.446-1.555.664-5.742-2.33-5.18-3.23.65-3.659-4.412-.43-5.062 3.785-.58 7.962 2.265 8.995 6.003 1.353 3.895-.928 8.039-4.695 9.437-3.767 1.399-8.076-.298-9.429-4.193-1.437-4.137.44-8.68 4.206-10.079zm21.948 18.088c2.58-1.75 5.61 2.282 2.945 3.792-3.12 2.485-1.168 7.99 2.848 6.528 1.655-.601 2.97-2.16 2.29-4.075-.83-1.589-2.69-3.073-4.58-2.386-3.157.878-4.855-3.908-1.698-4.785 4.575-1.394 9.392.906 11.004 5.453 1.764 4.221-.913 8.707-4.846 10.407-3.932 1.7-8.646.443-10.646-3.692-1.915-3.896-.91-8.584 2.683-11.242zm4.197 33.137c2.928-1.86 5.832 2.313 2.57 4.018-2.034 1.27-4.56 2.713-5.327 5.176-.61 2.134.428 4.23 2.816 3.931 4.527-.51 5.043-6.719.723-7.925-3.074-.827-2.205-6.065.956-4.995 4.409 1.449 7.716 5.206 7.408 9.697-.151 4.162-3.532 7.826-7.727 8.492-4.685.84-9.132-2.238-9.246-7.128-.202-5.132 3.847-8.485 7.827-11.266zM8.004 29.058c3.569-.167 3.772 5.135.628 5.714-1.66.039-3.124 1.42-3.085 3.105.196 1.343 1.629 2.236 2.953 2.037 3.816-.258 2.96-5.04.113-5.984-1.254-.392-1.964-2.397-1.242-3.51.633-1.362 2.205-1.651 3.46-1.26 3.765 1.177 5.857 5.508 5.28 9.396-.823 3.98-4.333 6.672-8.326 6.429C3.792 44.74.059 41.29.21 36.99c.24-4.049 3.643-7.835 7.794-7.932zm67.72 45.36c1.795-2.542 5.656.676 4.101 3.132-2.888 4.02-9.693 2.401-11.242-1.919-1.722-4.8 2.758-9.663 7.331-10.494 4.812-.918 10.782 2.897 10.26 8.233-.54 4.53-5.45 8.193-9.772 5.953-2.932-1.384-.782-5.952 2.15-4.567 1.303.615 2.483-.622 2.618-1.755.117-1.938-2.643-2.843-4.253-2.805-1.611.036-3.836 1.379-3.712 3.231.19 1.287 1.82 2.056 2.52.99zm1.784 50.867c2.906-1.608 5.705 2.54 2.798 4.149-4.478 2.455-10.687 2.277-13.655-2.354-2.883-4.39-1.27-10.425 3.209-12.88 4.715-2.542 11.67-1.003 13.776 4.215 1.937 4.736-1.267 10.808-6.51 11.093-3.332.403-3.526-4.698-.432-5.014 2.537-.384 3.174-3.884 1.31-5.38-1.626-1.582-4.57-1.594-6.444-.091-1.638 1.416-1.499 4.087-.194 5.515 1.475 1.91 4.333 1.68 6.142.747z" />
</svg>
