<svg xmlns="http://www.w3.org/2000/svg" width="1920" height="1080" viewBox="0 0 1920 1080">
	<path fill="#00c8c3" d="M 0 0 L 0 1080 L 1920.002 1080 L 1920.002 0 L 0 0 z" />
	<path fill="#05e2d8" d="M 265.99414 453.83203 C 241.1567 453.56844 211.23481 466.24909 178.39844 493.625 C 94.971437 563.18 37.45 602.0318 0 611.0918 L 0 1080 L 901.83008 1080 C 991.01108 1038.032 1095.7028 628.02778 876.79883 762.42578 C 644.62383 904.97178 609.814 938.78156 652.625 674.60156 C 666.272 590.38456 602.65584 553.64358 536.08984 602.64258 C 445.02584 669.67358 321.04506 871.46459 337.53906 584.68359 C 342.29425 502.01447 313.41108 454.33526 265.99414 453.83203 z" />
	<path fill="#a787ee" d="M 1692.4297 268.03125 C 1658.6426 267.80852 1621.9652 271.58461 1582.7148 279.89648 C 1171.7828 365.08448 892.13748 694.351 849.02148 1080 L 1403.5215 1080 C 1533.7915 947.26 1787.868 907.49273 1920.002 773.80273 L 1920.002 379.61328 C 1882.3347 312.16784 1802.8007 268.75883 1692.4297 268.03125 z" />
	<path fill="#9162fb" d="M 463.65039 0 C 451.65539 196.711 603.81358 305.08002 817.89258 323.29102 C 949.65258 334.49802 1085.1782 311.87033 1216.9102 336.48633 C 1337.3862 359.00033 1450.5602 419.19169 1534.9922 509.92969 C 1610.0792 590.62469 1634.9113 712.03583 1777.4473 662.79883 C 1806.4853 652.76883 1869.993 603.75416 1920.002 553.66016 L 1920.002 0 L 463.65039 0 z" />
	<path fill="#a787ee" d="M 1479.3574 201.33008 C 1460.9934 201.23808 1442.1162 227.54727 1430.5742 242.82227 C 1420.5302 255.79227 1434.901 274.0305 1444.543 260.9375 C 1453.91 248.8665 1479.4472 212.42472 1485.6582 244.76172 C 1488.0372 257.11072 1483.52 272.32708 1482.793 284.83008 C 1481.901 304.47708 1485.1994 323.19597 1498.5234 333.91797 C 1512.2514 344.76297 1530.4856 343.70997 1546.1816 335.79297 C 1556.8716 330.21497 1566.0877 321.97052 1575.3047 313.72852 C 1580.0497 309.09552 1586.8393 300.10758 1592.6543 298.01758 C 1606.8553 292.40858 1606.5252 306.6955 1605.5312 318.5625 C 1602.5132 362.4595 1564.2571 405.51648 1587.5781 447.52148 C 1609.9611 488.13248 1655.2597 472.68409 1679.1777 435.74609 C 1688.0107 422.40609 1670.3743 409.80916 1661.4043 423.66016 C 1640.2023 457.00416 1595.3955 451.02358 1602.4805 403.39258 C 1606.0875 380.15258 1618.4651 358.49037 1623.8281 335.23438 C 1632.9001 296.51437 1617.5663 249.21147 1580.4473 278.23047 C 1562.1593 292.54847 1527.9477 336.84483 1508.7617 307.17383 C 1496.9527 289.16883 1509.2342 258.07139 1506.4922 235.65039 C 1504.1322 218.32839 1495.1584 201.19008 1479.3574 201.33008 z" />
</svg>