<svg xmlns="http://www.w3.org/2000/svg" width="133" height="78" viewBox="0 0 133 78">
	<path fill="#9df3f0" d="M120.831 8.212c6.662 13.803-5.64 31.068-20.457 20.774C93.178 23.903 88.53 15.503 81.73 9.704 70.44-.01 50.614-1.15 52.148 18.444c.762 9.657 8.231 30.449-6.392 33.62-8.911 1.992-16.836-7.838-25.2-10.216-6.517-1.739-14.481-.763-18.043 5.676-4.228 7.443.538 19.207 3.172 26.272 2.18 6.1 11.758 3.102 9.442-2.852-2.025-5.683-8.765-21.73 3.813-19.216 4.805.956 9.023 5.16 13.172 7.403 6.576 3.421 13.789 4.997 20.534 1.255 6.879-3.886 10.682-11.455 11.536-19.063.518-5.21-.221-10.236-.96-15.263-.514-2.648-2.065-6.805-1.458-9.492 1.31-6.64 6.165-4.282 10.033-2.03 14.458 8.06 20.576 30.302 40.4 27.372 19.128-2.766 24.148-23.568 16.866-39.034-2.585-5.664-10.962-.463-8.232 5.336z" />
</svg>
