<svg xmlns="http://www.w3.org/2000/svg" width="311" height="187" viewBox="0 0 311 187">
	<path fill="#a787ee" d="M22.463 49.986c12.603-32.579 60.311-38.913 66.163 1.81 2.7 19.909-4.051 40.723-3.151 61.084 1.35 33.936 30.155 68.777 60.31 35.747 14.854-16.29 37.808-61.086 65.712-41.628 17.104 11.763 13.053 40.27 22.055 57.916 7.202 13.575 21.153 25.34 37.357 21.267 18.903-4.525 31.055-30.769 38.707-46.152 6.75-13.122-13.053-24.435-19.354-11.313-6.3 12.217-22.504 48.416-37.807 23.529-5.85-9.503-5.4-23.077-8.102-33.484-4.5-16.289-13.051-30.769-29.705-36.198-17.102-5.43-35.556 0-49.509 10.407-9.451 7.24-16.653 16.29-23.854 25.339-3.6 4.977-8.101 14.028-13.502 17.195-13.053 8.144-16.653-3.62-18.904-13.574-9.001-36.652 18.454-81.447-17.103-109.954C57.57-15.623 15.262 8.357.86 44.556c-5.401 13.122 16.203 19.004 21.603 5.43z" />
</svg>
